<svg xmlns="http://www.w3.org/2000/svg" width="572.091" height="88.828" viewBox="0 0 572.091 88.828"><defs><style>.a{fill:#fff;}</style></defs><g transform="translate(-56.629 -74.405)"><g transform="translate(56.629 74.405)"><path class="a" d="M56.725,99.634H62V94.742c.1-7.482,1.439-12.47,4.509-15.828a12.294,12.294,0,0,1,9.4-4.509c5.66,0,7.962,3.165,7.962,6.235,0,2.015-1.535,3.55-3.933,3.55-1.247,0-1.918-.672-1.918-2.111.1-2.974-.576-6.139-3.741-6.139-3.261,0-4.413,3.645-4.8,8.346-.192,2.686-.1,7.195.192,15.348H76.87l-.384,1.343-6.907.576c-.1,4.125-.1,10.552-.1,17.459,0,8.442.1,14.293.192,17.171.1,1.631.671,2.207,1.918,2.4a35.923,35.923,0,0,0,4.029.48l-.192,1.151c-2.4,0-6.139-.288-9.785-.288-3.166,0-6.907.288-9.017.288V139.06c4.125-.192,4.7-.767,4.8-2.206.288-2.59.48-9.017.48-16.979V101.456l-5.276-.48Z" transform="translate(-56.629 -74.405)"/><path class="a" d="M301.074,322.339c0-4.6-1.823-7.77-5.947-7.77-4.509,0-6.619,2.494-6.619,6.619a12.885,12.885,0,0,0,.48,3.07,2.078,2.078,0,0,1-.672,1.918,4.487,4.487,0,0,1-2.686.863c-1.919,0-3.549-1.343-3.549-4.029,0-4.125,5.084-9.785,14.389-9.785,6.619,0,9.5,2.686,10.84,4.509a9.9,9.9,0,0,1,1.247,4.8v26c0,3.837.959,4.509,2.206,4.509,1.631,0,2.974-2.59,3.645-5.755l1.055.576c-.959,5.947-4.317,8.154-8.25,8.154-4.221,0-5.947-2.59-6.139-6.619-3.453,4.221-7.386,6.619-11.224,6.619-6.043,0-9.689-4.6-9.689-11.032,0-3.549,1.247-6.619,4.221-8.058,5.468-2.686,12.95-5.18,16.691-8.154Zm-12.566,21.2c0,4.413,1.823,8.826,5.468,8.826s5.564-2.4,6.619-5.372a14.4,14.4,0,0,0,.48-3.549V330.3c-2.4,1.726-5.66,3.165-8.538,4.988-1.918,1.247-4.029,2.782-4.029,8.154Z" transform="translate(-257.715 -289.244)"/><path class="a" d="M662.437,316.955c2.111,0,5.564-.1,7.962-.192,2.494-.192,4.221-.383,5.18-.479-.288,2.782-.384,7.578-.384,13.43V341.8a112.73,112.73,0,0,0,.384,12.567c.192,1.631.672,1.822,4.892,1.726l-.1.959a65.526,65.526,0,0,0-6.523.672,57.8,57.8,0,0,0-6.235.767c.1-2.206-.1-6.043,0-8.25-2.494,3.358-7.674,8.25-14.389,8.25-4.413,0-6.715-1.918-7.482-3.837a11,11,0,0,1-.863-4.8c.1-6.044.288-15.061.288-22.735,0-4.413-.1-6.235-.192-7.578-.1-1.535-.959-1.631-4.7-1.631l.192-1.055c2.206,0,4.988-.1,7.386-.192,2.4-.192,4.413-.384,5.468-.576-.288,2.3-.672,8.729-.672,19.665-.1,10.36,0,14.005.384,16.212.384,2.111,1.631,3.454,3.837,3.454,4.7,0,8.154-3.166,9.881-7.291a12.543,12.543,0,0,0,.863-5.468V329.81c0-5.372-.1-8.154-.192-10.168-.192-1.343-1.151-1.535-4.892-1.631Z" transform="translate(-581.67 -291.822)"/><path class="a" d="M1067.281,353.9c3.741-.1,4.6-.384,4.8-2.878.192-2.974.287-6.331.287-10.648v-10.84c0-5.468-.1-9.4-.287-11.991-.1-1.343-.672-1.535-4.509-1.535l.1-1.055a55.157,55.157,0,0,0,11.9-1.343c.192,2.111.384,4.892.48,6.427,2.974-3.07,7-6.811,12.566-6.811,4.988,0,7.674,2.494,8.729,4.892a10.447,10.447,0,0,1,1.055,4.893v28.3c0,2.014.576,2.206,4.8,2.59l-.192,1.151c-2.3,0-5.372-.288-8.825-.288-3.741,0-6.811.288-8.154.288l.1-1.151c3.262-.1,4.221-.671,4.317-2.4.192-2.015.384-6.332.384-15.348,0-13.718-.1-14.485-.767-15.924-.863-2.3-2.494-3.55-5.372-3.55a8.668,8.668,0,0,0-7.866,4.989,7.591,7.591,0,0,0-.863,4.029v14.773c0,4.029,0,8.633.288,10.84.192,1.919.863,2.4,4.6,2.59l-.288,1.151c-1.535,0-6.139-.288-8.825-.288-3.165,0-6.523.192-8.442.288Z" transform="translate(-965.794 -289.244)"/><path class="a" d="M1526.655,322.339c0-4.6-1.823-7.77-5.947-7.77-4.509,0-6.619,2.494-6.619,6.619a12.885,12.885,0,0,0,.48,3.07,2.078,2.078,0,0,1-.671,1.918,4.487,4.487,0,0,1-2.686.863c-1.918,0-3.549-1.343-3.549-4.029,0-4.125,5.084-9.785,14.389-9.785,6.619,0,9.5,2.686,10.84,4.509a9.9,9.9,0,0,1,1.247,4.8v26c0,3.837.959,4.509,2.206,4.509,1.631,0,2.974-2.59,3.645-5.755l1.055.576c-.959,5.947-4.317,8.154-8.25,8.154-4.221,0-5.947-2.59-6.139-6.619-3.453,4.221-7.386,6.619-11.223,6.619-6.043,0-9.689-4.6-9.689-11.032,0-3.549,1.247-6.619,4.221-8.058,5.468-2.686,12.95-5.18,16.691-8.154Zm-12.567,21.2c0,4.413,1.823,8.826,5.468,8.826s5.564-2.4,6.619-5.372a14.4,14.4,0,0,0,.48-3.549V330.3c-2.4,1.726-5.66,3.165-8.538,4.988-1.918,1.247-4.029,2.782-4.029,8.154Z" transform="translate(-1360.227 -289.244)"/><path class="a" d="M2006.594,99.634V95.509c0-7.77,1.535-12.854,5.276-16.5a15.312,15.312,0,0,1,11.415-4.6,11.929,11.929,0,0,1,7,1.918c1.151-.384,3.933-.959,6.523-1.439-.288,3.357-.671,10.456-.671,21.1v22.831c0,11.511.1,15.444.288,17.746.1,2.11.863,2.4,5.564,2.494l-.288,1.151c-3.262,0-8.537-.288-11.7-.288-3.549,0-5.468.288-7.386.288l.1-1.151c4.317-.1,4.988-.767,5.18-2.878.192-1.822.671-9.785.671-18.706V92.247c0-6.139-.192-10.072-.576-11.7-.863-2.4-2.494-4.6-6.331-4.6-2.974,0-5.18,1.918-6.14,5.468-.767,2.686-1.343,7.578-1.343,18.226h9.209l-.384,1.247-8.825.576c-.1,4.8-.1,11.415-.1,18.418,0,7.674.1,13.525.192,16.116.192,2.4,1.055,2.782,5.276,3.07l-.192,1.151c-2.686,0-4.8-.288-8.441-.288-3.741,0-7.77.288-10.36.288V139.06c4.7-.192,5.084-.576,5.372-2.4.288-1.919.576-9.017.576-16.787V101.456l-5.947-.576.192-1.247Z" transform="translate(-1805.348 -74.405)"/><path class="a" d="M2459.82,313.226c11.8,0,16.883,10.072,16.883,20.816,0,13.142-6.235,21.968-17.554,21.968-12.183,0-17.267-10.168-17.267-21.1,0-11.319,5.564-21.679,17.842-21.679Zm-.671,1.343c-3.07,0-4.988,1.823-6.523,4.7-1.439,3.07-2.206,8.25-2.206,14.485,0,6.139.863,12.183,2.3,15.636,1.535,3.454,4.029,5.276,7.1,5.276,2.878,0,5.084-1.343,6.619-5.18,1.055-2.974,1.823-8.154,1.823-14.773,0-6.427-.864-11.8-2.207-14.869-1.343-3.166-3.357-5.276-6.811-5.276Z" transform="translate(-2202.361 -289.244)"/><path class="a" d="M2835.857,329.725a77.489,77.489,0,0,0-.671-12.087,1.48,1.48,0,0,0-1.727-1.343h-2.59l.1-1.055c2.878-.192,8.825-.768,11.415-1.631l.192.192c.288,2.206.576,6.811.576,9.3h.192c1.918-5.468,4.6-9.88,9.593-9.88a4.608,4.608,0,0,1,4.8,4.892c0,3.55-2.494,4.509-3.645,4.509s-2.3-.479-2.494-1.343c-.288-2.11-.767-3.166-2.494-3.166-2.206,0-3.933,2.878-4.892,6.523a19.194,19.194,0,0,0-.767,6.427c0,12.95,0,17.651.192,20.241.1,1.919.672,2.4,6.043,2.59l-.192,1.151c-2.4-.1-6.235-.288-9.881-.288s-6.427.192-8.921.288l.288-1.151c3.645-.1,4.221-.671,4.413-2.3a111,111,0,0,0,.479-12.374Z" transform="translate(-2552.115 -289.244)"/><path class="a" d="M3143.9,322.339c0-4.6-1.823-7.77-5.947-7.77-4.509,0-6.619,2.494-6.619,6.619a12.873,12.873,0,0,0,.479,3.07,2.078,2.078,0,0,1-.672,1.918,4.487,4.487,0,0,1-2.686.863c-1.918,0-3.55-1.343-3.55-4.029,0-4.125,5.084-9.785,14.389-9.785,6.619,0,9.5,2.686,10.84,4.509a9.9,9.9,0,0,1,1.247,4.8v26c0,3.837.959,4.509,2.206,4.509,1.631,0,2.974-2.59,3.646-5.755l1.055.576c-.959,5.947-4.317,8.154-8.25,8.154-4.221,0-5.947-2.59-6.139-6.619-3.453,4.221-7.386,6.619-11.223,6.619-6.044,0-9.689-4.6-9.689-11.032,0-3.549,1.247-6.619,4.221-8.058,5.468-2.686,12.95-5.18,16.691-8.154Zm-12.566,21.2c0,4.413,1.823,8.826,5.468,8.826s5.564-2.4,6.619-5.372a14.376,14.376,0,0,0,.48-3.549V330.3c-2.4,1.726-5.659,3.165-8.537,4.988-1.918,1.247-4.029,2.782-4.029,8.154Z" transform="translate(-2815.075 -289.244)"/><path class="a" d="M3624.579,99.634h5.276V94.742c.1-7.482,1.438-12.47,4.509-15.828a12.294,12.294,0,0,1,9.4-4.509c5.66,0,7.962,3.165,7.962,6.235,0,2.015-1.535,3.55-3.933,3.55-1.247,0-1.919-.672-1.919-2.111.1-2.974-.576-6.139-3.741-6.139-3.261,0-4.413,3.645-4.8,8.346-.192,2.686-.1,7.195.192,15.348h7.195l-.384,1.343-6.907.576c-.1,4.125-.1,10.552-.1,17.459,0,8.442.1,14.293.192,17.171.1,1.631.672,2.207,1.919,2.4a35.914,35.914,0,0,0,4.029.48l-.192,1.151c-2.4,0-6.139-.288-9.785-.288-3.165,0-6.906.288-9.017.288V139.06c4.125-.192,4.7-.767,4.8-2.206.288-2.59.479-9.017.479-16.979V101.456l-5.276-.48Z" transform="translate(-3266.209 -74.405)"/><path class="a" d="M3859.662,316.955c2.11,0,5.564-.1,7.962-.192,2.494-.192,4.22-.383,5.18-.479-.288,2.782-.384,7.578-.384,13.43V341.8a112.812,112.812,0,0,0,.384,12.567c.192,1.631.671,1.822,4.893,1.726l-.1.959a65.518,65.518,0,0,0-6.523.672,57.793,57.793,0,0,0-6.235.767c.1-2.206-.1-6.043,0-8.25-2.495,3.358-7.675,8.25-14.389,8.25-4.412,0-6.715-1.918-7.482-3.837a11,11,0,0,1-.863-4.8c.1-6.044.288-15.061.288-22.735,0-4.413-.1-6.235-.192-7.578-.1-1.535-.959-1.631-4.7-1.631l.191-1.055c2.207,0,4.989-.1,7.386-.192,2.4-.192,4.413-.384,5.468-.576-.287,2.3-.671,8.729-.671,19.665-.1,10.36,0,14.005.384,16.212.383,2.111,1.631,3.454,3.837,3.454,4.7,0,8.154-3.166,9.88-7.291a12.538,12.538,0,0,0,.864-5.468V329.81c0-5.372-.1-8.154-.192-10.168-.191-1.343-1.151-1.535-4.892-1.631Z" transform="translate(-3457.838 -291.822)"/><path class="a" d="M4264.506,353.9c3.741-.1,4.6-.384,4.8-2.878.192-2.974.288-6.331.288-10.648v-10.84c0-5.468-.1-9.4-.288-11.991-.1-1.343-.672-1.535-4.509-1.535l.1-1.055a55.153,55.153,0,0,0,11.9-1.343c.191,2.111.384,4.892.48,6.427,2.973-3.07,7-6.811,12.566-6.811,4.988,0,7.674,2.494,8.73,4.892a10.457,10.457,0,0,1,1.055,4.893v28.3c0,2.014.575,2.206,4.8,2.59l-.192,1.151c-2.3,0-5.372-.288-8.826-.288-3.741,0-6.811.288-8.153.288l.1-1.151c3.261-.1,4.22-.671,4.316-2.4.192-2.015.383-6.332.383-15.348,0-13.718-.1-14.485-.767-15.924-.864-2.3-2.495-3.55-5.373-3.55a8.668,8.668,0,0,0-7.866,4.989,7.591,7.591,0,0,0-.863,4.029v14.773c0,4.029,0,8.633.288,10.84.192,1.919.863,2.4,4.6,2.59l-.288,1.151c-1.535,0-6.139-.288-8.826-.288-3.166,0-6.523.192-8.441.288Z" transform="translate(-3841.962 -289.244)"/><path class="a" d="M4706.915,346.476a6.664,6.664,0,0,0-4.892,6.907c0,5.947,5.468,9.689,12.278,9.689,9.784,0,13.91-5.468,13.91-12.279a6.244,6.244,0,0,0-5.948-6.523c-5.084-.1-10.936,0-14.005-.1-3.549-.1-6.139-.959-8.154-3.166a8.211,8.211,0,0,1-2.207-5.755c0-4.221,2.974-7.482,5.66-9.5-2.11-2.494-3.166-6.331-3.166-10.072,0-10.552,7-15.348,14.1-15.348a13.811,13.811,0,0,1,8.154,2.3c2.878-2.207,5.084-3.741,7.1-3.741,2.11,0,3.357,1.439,3.357,2.3a4.641,4.641,0,0,1-2.59,3.165,5.488,5.488,0,0,0-3.933-1.535,7.618,7.618,0,0,0-3.07.576,17.453,17.453,0,0,1,4.125,11.415c0,10.168-6.811,15.061-13.909,15.061-4.413,0-7.579-1.439-9.209-2.974a6.03,6.03,0,0,0-3.741,5.564c0,2.4,2.207,3.933,4.6,3.933,5.563,0,10.168-.288,17.363-.288a9.28,9.28,0,0,1,6.522,2.494,11.732,11.732,0,0,1,3.55,8.441c0,11.9-10.936,18.13-21.008,18.13-9.208,0-14.581-4.125-14.581-10.552a6.373,6.373,0,0,1,2.878-5.564,20.393,20.393,0,0,1,6.235-3.357Zm7-44.7c-4.125,0-5.947,5.276-5.947,13.238,0,6.619,1.535,13.526,6.043,13.526,4.7,0,5.852-6.331,5.852-13.142,0-5.66-.672-13.621-5.852-13.621Z" transform="translate(-4231.23 -276.353)"/><path class="a" d="M5095.471,322.339c0-4.6-1.823-7.77-5.947-7.77-4.508,0-6.619,2.494-6.619,6.619a12.859,12.859,0,0,0,.48,3.07,2.079,2.079,0,0,1-.672,1.918,4.487,4.487,0,0,1-2.686.863c-1.919,0-3.55-1.343-3.55-4.029,0-4.125,5.084-9.785,14.389-9.785,6.62,0,9.5,2.686,10.84,4.509a9.907,9.907,0,0,1,1.247,4.8v26c0,3.837.959,4.509,2.207,4.509,1.63,0,2.973-2.59,3.645-5.755l1.055.576c-.959,5.947-4.317,8.154-8.25,8.154-4.22,0-5.947-2.59-6.139-6.619-3.454,4.221-7.387,6.619-11.224,6.619-6.043,0-9.688-4.6-9.688-11.032,0-3.549,1.247-6.619,4.221-8.058,5.468-2.686,12.951-5.18,16.691-8.154Zm-12.566,21.2c0,4.413,1.822,8.826,5.468,8.826s5.563-2.4,6.619-5.372a14.411,14.411,0,0,0,.479-3.549V330.3c-2.4,1.726-5.66,3.165-8.538,4.988-1.918,1.247-4.029,2.782-4.029,8.154Z" transform="translate(-4570.672 -289.244)"/></g><g transform="translate(56.629 74.405)"><path class="a" d="M56.725,99.634H62V94.742c.1-7.482,1.439-12.47,4.509-15.828a12.294,12.294,0,0,1,9.4-4.509c5.66,0,7.962,3.165,7.962,6.235,0,2.015-1.535,3.55-3.933,3.55-1.247,0-1.918-.672-1.918-2.111.1-2.974-.576-6.139-3.741-6.139-3.261,0-4.413,3.645-4.8,8.346-.192,2.686-.1,7.195.192,15.348H76.87l-.384,1.343-6.907.576c-.1,4.125-.1,10.552-.1,17.459,0,8.442.1,14.293.192,17.171.1,1.631.671,2.207,1.918,2.4a35.923,35.923,0,0,0,4.029.48l-.192,1.151c-2.4,0-6.139-.288-9.785-.288-3.166,0-6.907.288-9.017.288V139.06c4.125-.192,4.7-.767,4.8-2.206.288-2.59.48-9.017.48-16.979V101.456l-5.276-.48Z" transform="translate(-56.629 -74.405)"/><path class="a" d="M301.074,322.339c0-4.6-1.823-7.77-5.947-7.77-4.509,0-6.619,2.494-6.619,6.619a12.885,12.885,0,0,0,.48,3.07,2.078,2.078,0,0,1-.672,1.918,4.487,4.487,0,0,1-2.686.863c-1.919,0-3.549-1.343-3.549-4.029,0-4.125,5.084-9.785,14.389-9.785,6.619,0,9.5,2.686,10.84,4.509a9.9,9.9,0,0,1,1.247,4.8v26c0,3.837.959,4.509,2.206,4.509,1.631,0,2.974-2.59,3.645-5.755l1.055.576c-.959,5.947-4.317,8.154-8.25,8.154-4.221,0-5.947-2.59-6.139-6.619-3.453,4.221-7.386,6.619-11.224,6.619-6.043,0-9.689-4.6-9.689-11.032,0-3.549,1.247-6.619,4.221-8.058,5.468-2.686,12.95-5.18,16.691-8.154Zm-12.566,21.2c0,4.413,1.823,8.826,5.468,8.826s5.564-2.4,6.619-5.372a14.4,14.4,0,0,0,.48-3.549V330.3c-2.4,1.726-5.66,3.165-8.538,4.988-1.918,1.247-4.029,2.782-4.029,8.154Z" transform="translate(-257.715 -289.244)"/><path class="a" d="M662.437,316.955c2.111,0,5.564-.1,7.962-.192,2.494-.192,4.221-.383,5.18-.479-.288,2.782-.384,7.578-.384,13.43V341.8a112.73,112.73,0,0,0,.384,12.567c.192,1.631.672,1.822,4.892,1.726l-.1.959a65.526,65.526,0,0,0-6.523.672,57.8,57.8,0,0,0-6.235.767c.1-2.206-.1-6.043,0-8.25-2.494,3.358-7.674,8.25-14.389,8.25-4.413,0-6.715-1.918-7.482-3.837a11,11,0,0,1-.863-4.8c.1-6.044.288-15.061.288-22.735,0-4.413-.1-6.235-.192-7.578-.1-1.535-.959-1.631-4.7-1.631l.192-1.055c2.206,0,4.988-.1,7.386-.192,2.4-.192,4.413-.384,5.468-.576-.288,2.3-.672,8.729-.672,19.665-.1,10.36,0,14.005.384,16.212.384,2.111,1.631,3.454,3.837,3.454,4.7,0,8.154-3.166,9.881-7.291a12.543,12.543,0,0,0,.863-5.468V329.81c0-5.372-.1-8.154-.192-10.168-.192-1.343-1.151-1.535-4.892-1.631Z" transform="translate(-581.67 -291.822)"/><path class="a" d="M1067.281,353.9c3.741-.1,4.6-.384,4.8-2.878.192-2.974.287-6.331.287-10.648v-10.84c0-5.468-.1-9.4-.287-11.991-.1-1.343-.672-1.535-4.509-1.535l.1-1.055a55.157,55.157,0,0,0,11.9-1.343c.192,2.111.384,4.892.48,6.427,2.974-3.07,7-6.811,12.566-6.811,4.988,0,7.674,2.494,8.729,4.892a10.447,10.447,0,0,1,1.055,4.893v28.3c0,2.014.576,2.206,4.8,2.59l-.192,1.151c-2.3,0-5.372-.288-8.825-.288-3.741,0-6.811.288-8.154.288l.1-1.151c3.262-.1,4.221-.671,4.317-2.4.192-2.015.384-6.332.384-15.348,0-13.718-.1-14.485-.767-15.924-.863-2.3-2.494-3.55-5.372-3.55a8.668,8.668,0,0,0-7.866,4.989,7.591,7.591,0,0,0-.863,4.029v14.773c0,4.029,0,8.633.288,10.84.192,1.919.863,2.4,4.6,2.59l-.288,1.151c-1.535,0-6.139-.288-8.825-.288-3.165,0-6.523.192-8.442.288Z" transform="translate(-965.794 -289.244)"/><path class="a" d="M1526.655,322.339c0-4.6-1.823-7.77-5.947-7.77-4.509,0-6.619,2.494-6.619,6.619a12.885,12.885,0,0,0,.48,3.07,2.078,2.078,0,0,1-.671,1.918,4.487,4.487,0,0,1-2.686.863c-1.918,0-3.549-1.343-3.549-4.029,0-4.125,5.084-9.785,14.389-9.785,6.619,0,9.5,2.686,10.84,4.509a9.9,9.9,0,0,1,1.247,4.8v26c0,3.837.959,4.509,2.206,4.509,1.631,0,2.974-2.59,3.645-5.755l1.055.576c-.959,5.947-4.317,8.154-8.25,8.154-4.221,0-5.947-2.59-6.139-6.619-3.453,4.221-7.386,6.619-11.223,6.619-6.043,0-9.689-4.6-9.689-11.032,0-3.549,1.247-6.619,4.221-8.058,5.468-2.686,12.95-5.18,16.691-8.154Zm-12.567,21.2c0,4.413,1.823,8.826,5.468,8.826s5.564-2.4,6.619-5.372a14.4,14.4,0,0,0,.48-3.549V330.3c-2.4,1.726-5.66,3.165-8.538,4.988-1.918,1.247-4.029,2.782-4.029,8.154Z" transform="translate(-1360.227 -289.244)"/><path class="a" d="M2006.594,99.634V95.509c0-7.77,1.535-12.854,5.276-16.5a15.312,15.312,0,0,1,11.415-4.6,11.929,11.929,0,0,1,7,1.918c1.151-.384,3.933-.959,6.523-1.439-.288,3.357-.671,10.456-.671,21.1v22.831c0,11.511.1,15.444.288,17.746.1,2.11.863,2.4,5.564,2.494l-.288,1.151c-3.262,0-8.537-.288-11.7-.288-3.549,0-5.468.288-7.386.288l.1-1.151c4.317-.1,4.988-.767,5.18-2.878.192-1.822.671-9.785.671-18.706V92.247c0-6.139-.192-10.072-.576-11.7-.863-2.4-2.494-4.6-6.331-4.6-2.974,0-5.18,1.918-6.14,5.468-.767,2.686-1.343,7.578-1.343,18.226h9.209l-.384,1.247-8.825.576c-.1,4.8-.1,11.415-.1,18.418,0,7.674.1,13.525.192,16.116.192,2.4,1.055,2.782,5.276,3.07l-.192,1.151c-2.686,0-4.8-.288-8.441-.288-3.741,0-7.77.288-10.36.288V139.06c4.7-.192,5.084-.576,5.372-2.4.288-1.919.576-9.017.576-16.787V101.456l-5.947-.576.192-1.247Z" transform="translate(-1805.348 -74.405)"/><path class="a" d="M2459.82,313.226c11.8,0,16.883,10.072,16.883,20.816,0,13.142-6.235,21.968-17.554,21.968-12.183,0-17.267-10.168-17.267-21.1,0-11.319,5.564-21.679,17.842-21.679Zm-.671,1.343c-3.07,0-4.988,1.823-6.523,4.7-1.439,3.07-2.206,8.25-2.206,14.485,0,6.139.863,12.183,2.3,15.636,1.535,3.454,4.029,5.276,7.1,5.276,2.878,0,5.084-1.343,6.619-5.18,1.055-2.974,1.823-8.154,1.823-14.773,0-6.427-.864-11.8-2.207-14.869-1.343-3.166-3.357-5.276-6.811-5.276Z" transform="translate(-2202.361 -289.244)"/><path class="a" d="M2835.857,329.725a77.489,77.489,0,0,0-.671-12.087,1.48,1.48,0,0,0-1.727-1.343h-2.59l.1-1.055c2.878-.192,8.825-.768,11.415-1.631l.192.192c.288,2.206.576,6.811.576,9.3h.192c1.918-5.468,4.6-9.88,9.593-9.88a4.608,4.608,0,0,1,4.8,4.892c0,3.55-2.494,4.509-3.645,4.509s-2.3-.479-2.494-1.343c-.288-2.11-.767-3.166-2.494-3.166-2.206,0-3.933,2.878-4.892,6.523a19.194,19.194,0,0,0-.767,6.427c0,12.95,0,17.651.192,20.241.1,1.919.672,2.4,6.043,2.59l-.192,1.151c-2.4-.1-6.235-.288-9.881-.288s-6.427.192-8.921.288l.288-1.151c3.645-.1,4.221-.671,4.413-2.3a111,111,0,0,0,.479-12.374Z" transform="translate(-2552.115 -289.244)"/><path class="a" d="M3143.9,322.339c0-4.6-1.823-7.77-5.947-7.77-4.509,0-6.619,2.494-6.619,6.619a12.873,12.873,0,0,0,.479,3.07,2.078,2.078,0,0,1-.672,1.918,4.487,4.487,0,0,1-2.686.863c-1.918,0-3.55-1.343-3.55-4.029,0-4.125,5.084-9.785,14.389-9.785,6.619,0,9.5,2.686,10.84,4.509a9.9,9.9,0,0,1,1.247,4.8v26c0,3.837.959,4.509,2.206,4.509,1.631,0,2.974-2.59,3.646-5.755l1.055.576c-.959,5.947-4.317,8.154-8.25,8.154-4.221,0-5.947-2.59-6.139-6.619-3.453,4.221-7.386,6.619-11.223,6.619-6.044,0-9.689-4.6-9.689-11.032,0-3.549,1.247-6.619,4.221-8.058,5.468-2.686,12.95-5.18,16.691-8.154Zm-12.566,21.2c0,4.413,1.823,8.826,5.468,8.826s5.564-2.4,6.619-5.372a14.376,14.376,0,0,0,.48-3.549V330.3c-2.4,1.726-5.659,3.165-8.537,4.988-1.918,1.247-4.029,2.782-4.029,8.154Z" transform="translate(-2815.075 -289.244)"/><path class="a" d="M3624.579,99.634h5.276V94.742c.1-7.482,1.438-12.47,4.509-15.828a12.294,12.294,0,0,1,9.4-4.509c5.66,0,7.962,3.165,7.962,6.235,0,2.015-1.535,3.55-3.933,3.55-1.247,0-1.919-.672-1.919-2.111.1-2.974-.576-6.139-3.741-6.139-3.261,0-4.413,3.645-4.8,8.346-.192,2.686-.1,7.195.192,15.348h7.195l-.384,1.343-6.907.576c-.1,4.125-.1,10.552-.1,17.459,0,8.442.1,14.293.192,17.171.1,1.631.672,2.207,1.919,2.4a35.914,35.914,0,0,0,4.029.48l-.192,1.151c-2.4,0-6.139-.288-9.785-.288-3.165,0-6.906.288-9.017.288V139.06c4.125-.192,4.7-.767,4.8-2.206.288-2.59.479-9.017.479-16.979V101.456l-5.276-.48Z" transform="translate(-3266.209 -74.405)"/><path class="a" d="M3859.662,316.955c2.11,0,5.564-.1,7.962-.192,2.494-.192,4.22-.383,5.18-.479-.288,2.782-.384,7.578-.384,13.43V341.8a112.812,112.812,0,0,0,.384,12.567c.192,1.631.671,1.822,4.893,1.726l-.1.959a65.518,65.518,0,0,0-6.523.672,57.793,57.793,0,0,0-6.235.767c.1-2.206-.1-6.043,0-8.25-2.495,3.358-7.675,8.25-14.389,8.25-4.412,0-6.715-1.918-7.482-3.837a11,11,0,0,1-.863-4.8c.1-6.044.288-15.061.288-22.735,0-4.413-.1-6.235-.192-7.578-.1-1.535-.959-1.631-4.7-1.631l.191-1.055c2.207,0,4.989-.1,7.386-.192,2.4-.192,4.413-.384,5.468-.576-.287,2.3-.671,8.729-.671,19.665-.1,10.36,0,14.005.384,16.212.383,2.111,1.631,3.454,3.837,3.454,4.7,0,8.154-3.166,9.88-7.291a12.538,12.538,0,0,0,.864-5.468V329.81c0-5.372-.1-8.154-.192-10.168-.191-1.343-1.151-1.535-4.892-1.631Z" transform="translate(-3457.838 -291.822)"/><path class="a" d="M4264.506,353.9c3.741-.1,4.6-.384,4.8-2.878.192-2.974.288-6.331.288-10.648v-10.84c0-5.468-.1-9.4-.288-11.991-.1-1.343-.672-1.535-4.509-1.535l.1-1.055a55.153,55.153,0,0,0,11.9-1.343c.191,2.111.384,4.892.48,6.427,2.973-3.07,7-6.811,12.566-6.811,4.988,0,7.674,2.494,8.73,4.892a10.457,10.457,0,0,1,1.055,4.893v28.3c0,2.014.575,2.206,4.8,2.59l-.192,1.151c-2.3,0-5.372-.288-8.826-.288-3.741,0-6.811.288-8.153.288l.1-1.151c3.261-.1,4.22-.671,4.316-2.4.192-2.015.383-6.332.383-15.348,0-13.718-.1-14.485-.767-15.924-.864-2.3-2.495-3.55-5.373-3.55a8.668,8.668,0,0,0-7.866,4.989,7.591,7.591,0,0,0-.863,4.029v14.773c0,4.029,0,8.633.288,10.84.192,1.919.863,2.4,4.6,2.59l-.288,1.151c-1.535,0-6.139-.288-8.826-.288-3.166,0-6.523.192-8.441.288Z" transform="translate(-3841.962 -289.244)"/><path class="a" d="M4706.915,346.476a6.664,6.664,0,0,0-4.892,6.907c0,5.947,5.468,9.689,12.278,9.689,9.784,0,13.91-5.468,13.91-12.279a6.244,6.244,0,0,0-5.948-6.523c-5.084-.1-10.936,0-14.005-.1-3.549-.1-6.139-.959-8.154-3.166a8.211,8.211,0,0,1-2.207-5.755c0-4.221,2.974-7.482,5.66-9.5-2.11-2.494-3.166-6.331-3.166-10.072,0-10.552,7-15.348,14.1-15.348a13.811,13.811,0,0,1,8.154,2.3c2.878-2.207,5.084-3.741,7.1-3.741,2.11,0,3.357,1.439,3.357,2.3a4.641,4.641,0,0,1-2.59,3.165,5.488,5.488,0,0,0-3.933-1.535,7.618,7.618,0,0,0-3.07.576,17.453,17.453,0,0,1,4.125,11.415c0,10.168-6.811,15.061-13.909,15.061-4.413,0-7.579-1.439-9.209-2.974a6.03,6.03,0,0,0-3.741,5.564c0,2.4,2.207,3.933,4.6,3.933,5.563,0,10.168-.288,17.363-.288a9.28,9.28,0,0,1,6.522,2.494,11.732,11.732,0,0,1,3.55,8.441c0,11.9-10.936,18.13-21.008,18.13-9.208,0-14.581-4.125-14.581-10.552a6.373,6.373,0,0,1,2.878-5.564,20.393,20.393,0,0,1,6.235-3.357Zm7-44.7c-4.125,0-5.947,5.276-5.947,13.238,0,6.619,1.535,13.526,6.043,13.526,4.7,0,5.852-6.331,5.852-13.142,0-5.66-.672-13.621-5.852-13.621Z" transform="translate(-4231.23 -276.353)"/><path class="a" d="M5095.471,322.339c0-4.6-1.823-7.77-5.947-7.77-4.508,0-6.619,2.494-6.619,6.619a12.859,12.859,0,0,0,.48,3.07,2.079,2.079,0,0,1-.672,1.918,4.487,4.487,0,0,1-2.686.863c-1.919,0-3.55-1.343-3.55-4.029,0-4.125,5.084-9.785,14.389-9.785,6.62,0,9.5,2.686,10.84,4.509a9.907,9.907,0,0,1,1.247,4.8v26c0,3.837.959,4.509,2.207,4.509,1.63,0,2.973-2.59,3.645-5.755l1.055.576c-.959,5.947-4.317,8.154-8.25,8.154-4.22,0-5.947-2.59-6.139-6.619-3.454,4.221-7.387,6.619-11.224,6.619-6.043,0-9.688-4.6-9.688-11.032,0-3.549,1.247-6.619,4.221-8.058,5.468-2.686,12.951-5.18,16.691-8.154Zm-12.566,21.2c0,4.413,1.822,8.826,5.468,8.826s5.563-2.4,6.619-5.372a14.411,14.411,0,0,0,.479-3.549V330.3c-2.4,1.726-5.66,3.165-8.538,4.988-1.918,1.247-4.029,2.782-4.029,8.154Z" transform="translate(-4570.672 -289.244)"/></g><g transform="translate(595.817 74.405)"><path class="a" d="M5673.246,187.23l7.536-.832a.134.134,0,0,0,.117-.159,16.3,16.3,0,0,0-.6-2.233.134.134,0,0,0-.181-.079l-6.944,3.048A.133.133,0,0,0,5673.246,187.23Z" transform="translate(-5648.295 -172.92)"/><path class="a" d="M5436.707,259.547l-7.536.832a.135.135,0,0,0-.117.159,16.377,16.377,0,0,0,.6,2.233.135.135,0,0,0,.181.079l6.943-3.047A.133.133,0,0,0,5436.707,259.547Z" transform="translate(-5428.755 -240.955)"/><path class="a" d="M5650.652,120.574l6.108-4.488a.135.135,0,0,0,.022-.2,16.541,16.541,0,0,0-1.634-1.633.134.134,0,0,0-.2.022l-4.488,6.109A.133.133,0,0,0,5650.652,120.574Z" transform="translate(-5627.911 -110.225)"/><path class="a" d="M5472.084,298.769l-6.108,4.488a.135.135,0,0,0-.022.2,16.542,16.542,0,0,0,1.634,1.633.134.134,0,0,0,.2-.022l4.488-6.109A.133.133,0,0,0,5472.084,298.769Z" transform="translate(-5461.922 -276.215)"/><path class="a" d="M5436.775,186.976l-6.943-3.048a.135.135,0,0,0-.181.079,16.375,16.375,0,0,0-.6,2.233.135.135,0,0,0,.117.159l7.536.832A.133.133,0,0,0,5436.775,186.976Z" transform="translate(-5428.755 -172.92)"/><path class="a" d="M5673.178,259.8l6.944,3.047a.135.135,0,0,0,.181-.079,16.375,16.375,0,0,0,.6-2.233.134.134,0,0,0-.117-.159l-7.536-.832A.134.134,0,0,0,5673.178,259.8Z" transform="translate(-5648.295 -240.955)"/><path class="a" d="M5472.271,120.387l-4.488-6.109a.134.134,0,0,0-.2-.022,16.541,16.541,0,0,0-1.634,1.633.135.135,0,0,0,.022.2l6.108,4.488A.133.133,0,0,0,5472.271,120.387Z" transform="translate(-5461.922 -110.225)"/><path class="a" d="M5650.466,298.956l4.488,6.109a.134.134,0,0,0,.2.022,16.542,16.542,0,0,0,1.634-1.633.135.135,0,0,0-.022-.2l-6.108-4.488A.133.133,0,0,0,5650.466,298.956Z" transform="translate(-5627.911 -276.215)"/><path class="a" d="M5538.927,85.01l-.833-7.536a.134.134,0,0,0-.158-.117,16.312,16.312,0,0,0-2.233.6.134.134,0,0,0-.079.181l3.048,6.944A.133.133,0,0,0,5538.927,85.01Z" transform="translate(-5524.617 -77.058)"/><path class="a" d="M5611.244,321.549l.833,7.536a.134.134,0,0,0,.158.117,16.347,16.347,0,0,0,2.233-.6.134.134,0,0,0,.079-.181l-3.048-6.944A.133.133,0,0,0,5611.244,321.549Z" transform="translate(-5592.652 -296.598)"/><path class="a" d="M5538.673,321.481l-3.048,6.944a.134.134,0,0,0,.079.181,16.328,16.328,0,0,0,2.233.6.134.134,0,0,0,.158-.117l.833-7.536A.133.133,0,0,0,5538.673,321.481Z" transform="translate(-5524.617 -296.598)"/><path class="a" d="M5611.5,85.078l3.048-6.944a.134.134,0,0,0-.079-.181,16.331,16.331,0,0,0-2.233-.6.134.134,0,0,0-.158.117l-.833,7.536A.133.133,0,0,0,5611.5,85.078Z" transform="translate(-5592.652 -77.058)"/><path class="a" d="M5578.214,298.295l-1.16,10.124a.134.134,0,0,0,.123.149q.579.041,1.169.041t1.169-.041a.134.134,0,0,0,.123-.149l-1.16-10.124A.133.133,0,0,0,5578.214,298.295Z" transform="translate(-5561.895 -275.706)"/><path class="a" d="M5578.479,84.719l1.16-10.124a.134.134,0,0,0-.123-.149q-.579-.041-1.169-.041t-1.169.041a.134.134,0,0,0-.123.149l1.16,10.124A.133.133,0,0,0,5578.479,84.719Z" transform="translate(-5561.895 -74.405)"/><path class="a" d="M5436.416,226.516l-10.124-1.16a.134.134,0,0,0-.149.123q-.041.579-.042,1.169t.042,1.169a.134.134,0,0,0,.149.123l10.124-1.16A.133.133,0,0,0,5436.416,226.516Z" transform="translate(-5426.102 -210.197)"/><path class="a" d="M5649.992,226.781l10.124,1.16a.134.134,0,0,0,.149-.123q.041-.579.041-1.169t-.041-1.169a.134.134,0,0,0-.149-.123l-10.124,1.16A.133.133,0,0,0,5649.992,226.781Z" transform="translate(-5627.403 -210.197)"/><path class="a" d="M5641.846,152.18l9.35-4.058a.134.134,0,0,0,.067-.182,16.491,16.491,0,0,0-1.171-2.024.134.134,0,0,0-.191-.032l-8.187,6.066A.133.133,0,0,0,5641.846,152.18Z" transform="translate(-5620.013 -138.683)"/><path class="a" d="M5451.859,267.54l-9.351,4.059a.135.135,0,0,0-.067.182,16.434,16.434,0,0,0,1.172,2.024.134.134,0,0,0,.191.032l8.188-6.067A.134.134,0,0,0,5451.859,267.54Z" transform="translate(-5440.789 -248.135)"/><path class="a" d="M5451.992,151.951l-8.188-6.067a.134.134,0,0,0-.191.032,16.425,16.425,0,0,0-1.172,2.024.135.135,0,0,0,.067.182l9.351,4.059A.133.133,0,0,0,5451.992,151.951Z" transform="translate(-5440.789 -138.683)"/><path class="a" d="M5641.712,267.774l8.187,6.066a.135.135,0,0,0,.191-.032,16.426,16.426,0,0,0,1.171-2.024.134.134,0,0,0-.067-.182l-9.349-4.058A.133.133,0,0,0,5641.712,267.774Z" transform="translate(-5620.012 -248.139)"/><path class="a" d="M5619.472,100.294l6.066-8.187a.134.134,0,0,0-.032-.191,16.434,16.434,0,0,0-2.024-1.171.134.134,0,0,0-.182.067l-4.058,9.349A.133.133,0,0,0,5619.472,100.294Z" transform="translate(-5599.837 -89.092)"/><path class="a" d="M5503.648,290.008l-6.067,8.188a.134.134,0,0,0,.032.191,16.412,16.412,0,0,0,2.024,1.172.134.134,0,0,0,.182-.068l4.059-9.35A.133.133,0,0,0,5503.648,290.008Z" transform="translate(-5490.38 -268.308)"/><path class="a" d="M5503.878,100.162l-4.059-9.35a.134.134,0,0,0-.182-.067,16.4,16.4,0,0,0-2.024,1.171.134.134,0,0,0-.032.191l6.067,8.188A.133.133,0,0,0,5503.878,100.162Z" transform="translate(-5490.38 -89.092)"/><path class="a" d="M5619.241,290.146l4.058,9.35a.135.135,0,0,0,.182.068,16.489,16.489,0,0,0,2.024-1.172.134.134,0,0,0,.032-.191l-6.066-8.187A.133.133,0,0,0,5619.241,290.146Z" transform="translate(-5599.836 -268.313)"/></g></g></svg>