<svg xmlns="http://www.w3.org/2000/svg" width="155.633" height="50.919" viewBox="0 0 155.633 50.919"><defs><style>.a{fill:#fff;}</style></defs><path class="a" d="M281.557,138.415a1.892,1.892,0,0,0-2.026-1.982,1.964,1.964,0,0,0-2.1,2.036c0,1.075,1.025,1.982,1.736,2.725.921-.5,2.394-1.65,2.394-2.778Zm-3.21,6.412a3.543,3.543,0,0,0-2.237,3.083,2.91,2.91,0,0,0,3.1,2.834,4.388,4.388,0,0,0,3.21-1.156l-4.078-4.761Zm6.235,2.2a7,7,0,0,0,1.158-4.183h3.212a11.173,11.173,0,0,1-2.344,6.576l3.288,3.855h-4.524l-1.236-1.708a6.869,6.869,0,0,1-5,2.038c-3.632,0-6.554-1.982-6.554-5.588,0-2.311.949-3.99,3.867-5.284-1.419-1.4-2.549-2.422-2.549-4.623,0-2.918,3-4.376,5.579-4.376s5.288,1.238,5.288,4.349c0,2.641-1.552,3.881-3.552,5.093l3.367,3.853Z" transform="translate(-170.124 -122.877)"/><path class="a" d="M225.527,149.294a16.588,16.588,0,1,1,16.588,16.588,16.606,16.606,0,0,1-16.588-16.588Zm-4.426,0a21.015,21.015,0,1,0,21.014-21.014A21.036,21.036,0,0,0,221.1,149.294Z" transform="translate(-221.101 -128.28)"/><path class="a" d="M235.388,131.52s-6.506,1.946-5.555,9.879c.772,6.428,4.351,6.353,5.159,9.68a6.347,6.347,0,0,1-1.546,6.15s8.992-3.6,8.765-11.864c-.157-5.791-4.8-7.537-6.347-9.242-1.144-1.264-.476-4.6-.476-4.6Z" transform="translate(-212.548 -125.072)"/><path class="a" d="M233.033,152.508s-4.6-.633-4.717-4.448c-.092-3.168,1.96-3.724,1.7-5.684a6.163,6.163,0,0,0-1.429-3.3s5.459,1.373,6.148,5.829c.482,3.115-1.2,4.4-1.819,5.5a2.812,2.812,0,0,0,.121,2.1Z" transform="translate(-213.959 -117.586)"/><path class="a" d="M270.17,146.885H259.956v11.677h-5.106V131.928h5.106v10.761H270.17" transform="translate(-187.682 -124.668)"/><path class="a" d="M267.467,143.3h1.68c2.514,0,5.4-.38,5.4-3.7,0-3.2-2.846-3.471-5.4-3.471h-1.68V143.3Zm-5.109-11.37h5.511c5.471,0,12-.191,12,7.21a6.008,6.008,0,0,1-5.25,6.184v.076c1.385.113,2.187,1.564,2.7,2.747l4.086,10.417H275.71l-3.063-8.319c-.73-1.982-1.387-2.746-3.539-2.746h-1.642v11.065h-5.109V131.928Z" transform="translate(-180.248 -124.668)"/><path class="a" d="M302.832,137.306a16.423,16.423,0,0,0-6.651-1.409c-6.026,0-9.352,4.2-9.352,9.652,0,5.415,3.25,9.5,8.761,9.5a13.467,13.467,0,0,0,3.4-.386v-6.942h-5.471v-4.2h10.425v14.347a31.762,31.762,0,0,1-8.353,1.373c-8.353,0-14.156-4.313-14.156-13.316,0-9.119,5.4-14.232,14.156-14.232a24.719,24.719,0,0,1,7.575,1.107l-.332,4.5Z" transform="translate(-161.36 -124.896)"/><path class="a" d="M293.463,153.906a6.4,6.4,0,0,0,2.442.458c3.322,0,3.322-2.786,3.322-4.693V131.928h5.107v20.3a6.565,6.565,0,0,1-6.968,6.793,13.914,13.914,0,0,1-3.9-.5v-4.617Z" transform="translate(-149.448 -124.668)"/><path class="a" d="M246.957,148.579a1.464,1.464,0,0,0-.565-.127,1,1,0,0,0-.908,1.109.986.986,0,0,0,.941,1.107,1.076,1.076,0,0,0,.559-.167l.038.486a1.5,1.5,0,0,1-.653.119,1.463,1.463,0,0,1-1.441-1.544,1.431,1.431,0,0,1,1.441-1.548,1.888,1.888,0,0,1,.633.115l-.046.452Z" transform="translate(-197.507 -108.741)"/><path class="a" d="M248.2,149.276a.734.734,0,0,0-.7-.824.8.8,0,0,0-.758.824Zm.338,1.64a2.048,2.048,0,0,1-.89.189c-1,0-1.465-.637-1.465-1.6a1.349,1.349,0,0,1,1.324-1.5c.941,0,1.248.718,1.248,1.672h-2.016a.945.945,0,0,0,.931.983,1.6,1.6,0,0,0,.868-.3v.545Z" transform="translate(-196.261 -108.741)"/><path class="a" d="M247.83,148.082h.5v.47h.012a1.007,1.007,0,0,1,.925-.539c.73,0,1.057.476,1.057,1.27v1.753h-.521v-1.526c0-.691-.143-1.027-.6-1.057-.589,0-.856.5-.856,1.218v1.365h-.521v-2.953Z" transform="translate(-194.634 -108.741)"/><path class="a" d="M251.233,148.915h-.748v1.616c0,.342.2.527.44.527a.629.629,0,0,0,.354-.105v.466a1.613,1.613,0,0,1-.444.078.771.771,0,0,1-.872-.854v-1.727h-.635v-.442h.635v-.685l.521-.171v.856h.748v.442Z" transform="translate(-193.151 -109.133)"/><path class="a" d="M252.535,149.276a.735.735,0,0,0-.7-.824.8.8,0,0,0-.758.824Zm.338,1.64a2.055,2.055,0,0,1-.89.189c-1.005,0-1.465-.637-1.465-1.6a1.348,1.348,0,0,1,1.325-1.5c.939,0,1.244.718,1.244,1.672h-2.014a.946.946,0,0,0,.929.983,1.614,1.614,0,0,0,.87-.3v.545Z" transform="translate(-191.971 -108.741)"/><path class="a" d="M252.161,148.082h.49v.458h.01a.86.86,0,0,1,.736-.527,1.456,1.456,0,0,1,.342.04v.488a.749.749,0,0,0-.287-.052c-.466,0-.77.462-.77,1.2v1.343h-.521v-2.953Z" transform="translate(-190.345 -108.741)"/><path class="a" d="M254.519,149.216h-.665v-.442h.665V148.5c0-.718.177-1.188.947-1.188a2.2,2.2,0,0,1,.348.034l-.02.442a.845.845,0,0,0-.251-.036c-.45,0-.5.3-.5.7v.318h.746v.442h-.746v2.512h-.521v-2.512Z" transform="translate(-188.669 -109.434)"/><path class="a" d="M256.446,150.667c.609,0,.882-.579.882-1.107a.907.907,0,1,0-1.769,0c0,.527.273,1.107.888,1.107Zm0-2.655a1.429,1.429,0,0,1,1.435,1.548,1.441,1.441,0,1,1-2.874,0,1.429,1.429,0,0,1,1.439-1.548Z" transform="translate(-187.527 -108.741)"/><path class="a" d="M256.8,148.082h.488v.458h.012a.858.858,0,0,1,.736-.527,1.488,1.488,0,0,1,.344.04v.488a.765.765,0,0,0-.289-.052c-.466,0-.772.462-.772,1.2v1.343H256.8v-2.953Z" transform="translate(-185.75 -108.741)"/><path class="a" d="M258.659,147.348h.521v1.815h.012a1.015,1.015,0,0,1,.905-.494c.732,0,1.061.476,1.061,1.27v1.753h-.521v-1.526c0-.691-.145-1.027-.6-1.057-.593,0-.858.5-.858,1.218v1.365h-.521v-4.345Z" transform="translate(-183.911 -109.399)"/><path class="a" d="M262.858,151h-.5v-.466h-.012a1.007,1.007,0,0,1-.923.535c-.732,0-1.059-.474-1.059-1.266v-1.757h.522v1.53c0,.689.143,1.027.6,1.055.593,0,.86-.5.86-1.218v-1.367h.519V151Z" transform="translate(-182.227 -108.707)"/><path class="a" d="M262.058,148.082h.49v.428h.01a.947.947,0,0,1,.9-.5.836.836,0,0,1,.8.575,1,1,0,0,1,.874-.575c.722,0,.983.488.983,1.13v1.893h-.521v-1.759c0-.366-.084-.824-.5-.824-.533,0-.742.547-.742,1.095v1.489h-.521v-1.759c0-.366-.084-.824-.506-.824-.529,0-.742.547-.742,1.095v1.489h-.519v-2.953Z" transform="translate(-180.545 -108.741)"/><path class="a" d="M266.31,149.628c-.113,0-.221-.012-.334-.012-.283,0-.979.048-.979.567a.5.5,0,0,0,.523.484.731.731,0,0,0,.79-.778v-.261Zm-1.548-1.337a1.743,1.743,0,0,1,.931-.279c.81,0,1.138.418,1.138,1.222v1.224a4.833,4.833,0,0,0,.02.577h-.488v-.38h-.012a1.026,1.026,0,0,1-.874.45c-.611,0-1.037-.275-1.037-.921,0-.74.776-.971,1.314-.971.2,0,.348,0,.555.012,0-.509-.179-.772-.7-.772a1.3,1.3,0,0,0-.82.3l-.028-.464Z" transform="translate(-178.186 -108.741)"/><path class="a" d="M266.083,148.082h.505v.47h.012a1.007,1.007,0,0,1,.925-.539c.73,0,1.057.476,1.057,1.27v1.753h-.521v-1.526c0-.691-.143-1.027-.6-1.057-.591,0-.858.5-.858,1.218v1.365h-.521v-2.953Z" transform="translate(-176.56 -108.741)"/><path class="a" d="M268.559,148.082h.488v.458h.012a.856.856,0,0,1,.736-.527,1.483,1.483,0,0,1,.342.04v.488a.755.755,0,0,0-.287-.052c-.466,0-.772.462-.772,1.2v1.343h-.519v-2.953Z" transform="translate(-174.108 -108.741)"/><path class="a" d="M269.692,148.682h.519v2.953h-.519v-2.953Zm.555-.661h-.589v-.615h.589v.615Z" transform="translate(-173.02 -109.341)"/><path class="a" d="M272.486,149.6c0-.617-.273-1.144-.824-1.144-.529,0-.788.6-.788,1.1,0,.557.3,1.043.788,1.043a.905.905,0,0,0,.824-1Zm.521,1.314a1.271,1.271,0,0,1-1.459,1.415,2.764,2.764,0,0,1-1.013-.2l.056-.505a2.056,2.056,0,0,0,1.021.267c.547,0,.874-.388.874-1.015v-.289h-.012a1.151,1.151,0,0,1-.945.456c-.81,0-1.208-.689-1.208-1.453s.408-1.57,1.262-1.57a.919.919,0,0,1,.931.511h.012v-.442h.482v2.828Z" transform="translate(-172.363 -108.741)"/><path class="a" d="M272.116,147.348h.521v1.815h.012a1.018,1.018,0,0,1,.908-.494c.732,0,1.059.476,1.059,1.27v1.753h-.521v-1.526c0-.691-.143-1.027-.6-1.057-.593,0-.86.5-.86,1.218v1.365h-.521v-4.345Z" transform="translate(-170.586 -109.399)"/><path class="a" d="M275.519,148.915h-.746v1.616c0,.342.2.527.438.527a.618.618,0,0,0,.354-.105v.466a1.6,1.6,0,0,1-.444.078.769.769,0,0,1-.868-.854v-1.727h-.639v-.442h.639v-.685l.519-.171v.856h.746v.442Z" transform="translate(-169.103 -109.133)"/><path class="a" d="M274.816,150.458a1.37,1.37,0,0,0,.649.209c.237,0,.533-.105.533-.424,0-.539-1.226-.49-1.226-1.319a.887.887,0,0,1,1-.912,2.1,2.1,0,0,1,.649.115l-.044.478a1.469,1.469,0,0,0-.549-.153c-.267,0-.5.117-.5.36,0,.6,1.224.43,1.224,1.371a.9.9,0,0,1-.987.921,1.538,1.538,0,0,1-.776-.161l.028-.486Z" transform="translate(-167.956 -108.741)"/><path class="a" d="M278.53,149.628c-.111,0-.223-.012-.334-.012-.281,0-.981.048-.981.567a.506.506,0,0,0,.527.484.731.731,0,0,0,.788-.778v-.261Zm-1.548-1.337a1.738,1.738,0,0,1,.933-.279c.808,0,1.134.418,1.134,1.222v1.224a4.471,4.471,0,0,0,.024.577h-.49v-.38h-.012a1.026,1.026,0,0,1-.874.45c-.609,0-1.035-.275-1.035-.921,0-.74.774-.971,1.312-.971.2,0,.348,0,.555.012,0-.509-.179-.772-.7-.772a1.289,1.289,0,0,0-.818.3l-.03-.464Z" transform="translate(-166.084 -108.741)"/><path class="a" d="M278.3,148.082h.5v.47h.01a1.012,1.012,0,0,1,.925-.539c.73,0,1.059.476,1.059,1.27v1.753h-.519v-1.526c0-.691-.145-1.027-.6-1.057-.593,0-.86.5-.86,1.218v1.365H278.3v-2.953Z" transform="translate(-164.458 -108.741)"/><path class="a" d="M281.246,151.324c.589,0,.832-.609.832-1.1,0-.551-.273-1.115-.838-1.115s-.784.559-.776,1.095c-.008.466.225,1.12.782,1.12Zm.854-.048h-.012a1.115,1.115,0,0,1-.965.486c-.852,0-1.212-.792-1.212-1.6s.4-1.5,1.22-1.5a1,1,0,0,1,.935.476h.012v-1.8h.519v4.345h-.5v-.416Z" transform="translate(-162.867 -109.399)"/><path class="a" d="M284.553,149.6c0-.617-.271-1.144-.826-1.144-.525,0-.786.6-.786,1.1,0,.557.3,1.043.786,1.043a.9.9,0,0,0,.826-1Zm.519,1.314a1.269,1.269,0,0,1-1.457,1.415,2.771,2.771,0,0,1-1.013-.2l.054-.505a2.07,2.07,0,0,0,1.019.267c.549,0,.878-.388.878-1.015v-.289h-.01a1.161,1.161,0,0,1-.949.456c-.808,0-1.208-.689-1.208-1.453s.412-1.57,1.262-1.57a.917.917,0,0,1,.931.511h.012v-.442h.482v2.828Z" transform="translate(-160.417 -108.741)"/><path class="a" d="M284.215,147.348h.523v4.346h-.523v-4.346Z" transform="translate(-158.606 -109.399)"/><path class="a" d="M286.3,150.667c.609,0,.88-.579.88-1.107a.906.906,0,1,0-1.765,0c0,.527.269,1.107.886,1.107Zm0-2.655a1.428,1.428,0,0,1,1.435,1.548,1.442,1.442,0,1,1-2.876,0,1.429,1.429,0,0,1,1.441-1.548Z" transform="translate(-157.966 -108.741)"/><path class="a" d="M288.014,149.109c-.565,0-.838.563-.838,1.115,0,.492.245,1.1.832,1.1.559,0,.792-.655.78-1.12.012-.531-.209-1.095-.774-1.095Zm-1.357-1.761h.519v1.8h.012a.994.994,0,0,1,.935-.476c.822,0,1.22.7,1.22,1.5,0,.812-.36,1.6-1.214,1.6a1.118,1.118,0,0,1-.965-.486h-.01v.416h-.5v-4.345Z" transform="translate(-156.188 -109.399)"/><path class="a" d="M290.129,149.628c-.111,0-.221-.012-.332-.012-.283,0-.981.048-.981.567a.506.506,0,0,0,.527.484.73.73,0,0,0,.786-.778v-.261Zm-1.544-1.337a1.73,1.73,0,0,1,.929-.279c.81,0,1.136.418,1.136,1.222v1.224a4.465,4.465,0,0,0,.024.577h-.49v-.38h-.01a1.037,1.037,0,0,1-.878.45c-.609,0-1.033-.275-1.033-.921,0-.74.774-.971,1.312-.971.2,0,.35,0,.553.012,0-.509-.179-.772-.7-.772a1.3,1.3,0,0,0-.82.3l-.026-.464Z" transform="translate(-154.596 -108.741)"/><path class="a" d="M289.938,147.348h.523v4.346h-.523v-4.346Z" transform="translate(-152.938 -109.399)"/><path class="a" d="M292.341,148.021h-.589v-.615h.589v.615Zm-1.138,4.41a.882.882,0,0,0,.211.018c.245,0,.372-.243.372-.627v-3.141h.521v3.059c0,.432-.018,1.184-.8,1.184a1.716,1.716,0,0,1-.324-.024l.018-.47Z" transform="translate(-151.704 -109.341)"/><path class="a" d="M294.727,151h-.505v-.466h-.008a1.015,1.015,0,0,1-.927.535c-.73,0-1.059-.474-1.059-1.266v-1.757h.522v1.53c0,.689.143,1.027.6,1.055.593,0,.86-.5.86-1.218v-1.367h.519V151Z" transform="translate(-150.672 -108.707)"/><path class="a" d="M293.845,150.458a1.363,1.363,0,0,0,.647.209c.239,0,.533-.105.533-.424,0-.539-1.224-.49-1.224-1.319a.886.886,0,0,1,1-.912,2.086,2.086,0,0,1,.647.115l-.046.478a1.44,1.44,0,0,0-.547-.153c-.265,0-.5.117-.5.36,0,.6,1.224.43,1.224,1.371a.9.9,0,0,1-.987.921,1.539,1.539,0,0,1-.774-.161l.028-.486Z" transform="translate(-149.114 -108.741)"/><path class="a" d="M296.714,148.915h-.748v1.616c0,.342.2.527.438.527a.634.634,0,0,0,.354-.105v.466a1.627,1.627,0,0,1-.444.078.77.77,0,0,1-.87-.854v-1.727h-.635v-.442h.635v-.685l.521-.171v.856h.748v.442Z" transform="translate(-148.116 -109.133)"/><path class="a" d="M296.144,148.682h.521v2.953h-.521v-2.953Zm.555-.661h-.589v-.615h.589v.615Z" transform="translate(-146.827 -109.341)"/><path class="a" d="M298.779,148.579a1.471,1.471,0,0,0-.565-.127,1,1,0,0,0-.91,1.109.986.986,0,0,0,.943,1.107,1.063,1.063,0,0,0,.557-.167l.04.486a1.5,1.5,0,0,1-.653.119,1.464,1.464,0,0,1-1.441-1.544,1.431,1.431,0,0,1,1.441-1.548,1.9,1.9,0,0,1,.633.115l-.046.452Z" transform="translate(-146.193 -108.741)"/><path class="a" d="M300.024,149.276a.735.735,0,0,0-.7-.824.806.806,0,0,0-.76.824Zm.338,1.64a2.042,2.042,0,0,1-.892.189c-1,0-1.461-.637-1.461-1.6a1.346,1.346,0,0,1,1.323-1.5c.939,0,1.246.718,1.246,1.672h-2.018a.947.947,0,0,0,.931.983,1.6,1.6,0,0,0,.87-.3v.545Z" transform="translate(-144.946 -108.741)"/><path class="a" d="M275.106,151.627h.537v.5h.012a1.078,1.078,0,0,1,.987-.575c.78,0,1.13.508,1.13,1.355v1.875h-.555v-1.636c0-.736-.153-1.093-.639-1.124-.635,0-.917.533-.917,1.3v1.461h-.555v-3.156Z" transform="translate(-167.625 -105.235)"/><path class="a" d="M276.914,155.6a.832.832,0,0,0,.259.048c.5,0,.661-.714.661-.78a1.9,1.9,0,0,0-.1-.332L276.7,151.59h.609l.812,2.611h.012l.828-2.611h.561l-1.114,3.222c-.205.609-.422,1.306-1.158,1.306a1.793,1.793,0,0,1-.376-.042l.036-.476Z" transform="translate(-166.042 -105.199)"/><path class="a" d="M281.076,154.746h-.539v-.5h-.01a1.078,1.078,0,0,1-.989.575c-.782,0-1.128-.506-1.128-1.355V151.59h.553v1.632c0,.738.155,1.1.641,1.128.633,0,.917-.533.917-1.3V151.59h.555v3.156Z" transform="translate(-164.355 -105.199)"/><path class="a" d="M280.961,154.164a1.433,1.433,0,0,0,.693.223c.255,0,.567-.111.567-.452,0-.575-1.306-.529-1.306-1.411a.945.945,0,0,1,1.065-.971,2.254,2.254,0,0,1,.693.121l-.048.509a1.591,1.591,0,0,0-.587-.161c-.283,0-.531.123-.531.384,0,.643,1.306.458,1.306,1.467a.965.965,0,0,1-1.051.983,1.711,1.711,0,0,1-.83-.171l.03-.521Z" transform="translate(-161.873 -105.235)"/><path class="a" d="M284.248,152.158a1.551,1.551,0,0,0-.6-.135,1.066,1.066,0,0,0-.971,1.182,1.053,1.053,0,0,0,1.007,1.182,1.134,1.134,0,0,0,.6-.179l.042.517a1.629,1.629,0,0,1-.7.131,1.563,1.563,0,0,1-1.536-1.652,1.525,1.525,0,0,1,1.536-1.652,2,2,0,0,1,.675.121l-.046.484Z" transform="translate(-160.717 -105.235)"/><path class="a" d="M283.528,150.844h.555v1.934h.01a1.1,1.1,0,0,1,.971-.523c.78,0,1.13.508,1.13,1.355v1.875h-.555v-1.636c0-.736-.153-1.093-.639-1.124-.635,0-.917.533-.917,1.3v1.461h-.555v-4.641Z" transform="translate(-159.286 -105.937)"/><path class="a" d="M286.781,154.387c.653,0,.941-.619.941-1.182a.968.968,0,1,0-1.889,0c0,.563.289,1.182.947,1.182Zm0-2.834a1.524,1.524,0,0,1,1.533,1.652,1.54,1.54,0,1,1-3.071,0,1.526,1.526,0,0,1,1.538-1.652Z" transform="translate(-157.588 -105.235)"/><path class="a" d="M288.6,154.387c.653,0,.943-.619.943-1.182a.968.968,0,1,0-1.889,0c0,.563.291,1.182.945,1.182Zm0-2.834a1.524,1.524,0,0,1,1.532,1.652,1.539,1.539,0,1,1-3.069,0,1.525,1.525,0,0,1,1.536-1.652Z" transform="translate(-155.789 -105.235)"/><path class="a" d="M289.013,150.844h.556v4.641h-.556v-4.641Z" transform="translate(-153.855 -105.937)"/><path class="a" d="M292.067,154.387c.651,0,.939-.619.939-1.182a.967.967,0,1,0-1.887,0c0,.563.291,1.182.947,1.182Zm0-2.834A1.524,1.524,0,0,1,293.6,153.2a1.539,1.539,0,1,1-3.069,0,1.525,1.525,0,0,1,1.538-1.652Z" transform="translate(-152.354 -105.235)"/><path class="a" d="M292.982,152.836h-.712v-.47h.712v-.293c0-.764.189-1.268,1.011-1.268a2.044,2.044,0,0,1,.372.038l-.024.47a.855.855,0,0,0-.265-.038c-.48,0-.539.322-.539.748v.342h.8v.47h-.8v2.687h-.555v-2.687Z" transform="translate(-150.63 -105.975)"/><path class="a" d="M294.465,150.844h.556v4.641h-.556v-4.641Z" transform="translate(-148.456 -105.937)"/><path class="a" d="M297.147,153.279c-.117,0-.235-.012-.354-.012-.3,0-1.047.05-1.047.607a.539.539,0,0,0,.561.513.778.778,0,0,0,.84-.83v-.279Zm-1.65-1.431a1.859,1.859,0,0,1,.993-.295c.864,0,1.212.444,1.212,1.306v1.306a4.61,4.61,0,0,0,.026.619H297.2v-.408H297.2a1.122,1.122,0,0,1-.937.482c-.649,0-1.1-.3-1.1-.983,0-.794.826-1.041,1.4-1.041.219,0,.372,0,.591.012,0-.543-.189-.822-.746-.822a1.378,1.378,0,0,0-.874.32l-.03-.5Z" transform="translate(-147.773 -105.235)"/><path class="a" d="M300.52,154.746h-.643L299.1,152.1h-.012l-.762,2.651h-.645l-.97-3.156h.606l.694,2.612h.012l.77-2.612h.657l.756,2.612h.013l.733-2.612h.544l-.972,3.156Z" transform="translate(-146.236 -105.199)"/><path class="a" d="M263.392,136.513a10.55,10.55,0,0,0-5.419-1.469c-6.06,0-10.09,4.367-10.09,10.277,0,6.174,4.442,10.279,9.9,10.279a12.959,12.959,0,0,0,5.724-1.282l.225,3.652a16.431,16.431,0,0,1-5.986.941c-8.319,0-13.852-5.346-13.852-13.7,0-8.094,5.873-13.478,13.89-13.478a14.508,14.508,0,0,1,5.911,1.13l-.3,3.652Z" transform="translate(-198.531 -124.863)"/></svg>