<svg xmlns="http://www.w3.org/2000/svg" width="68" height="68" viewBox="0 0 68 68"><defs><style>.a{fill:#254029;}</style></defs><path class="a" d="M5673.409,190.765l15.573-1.72a.278.278,0,0,0,.243-.328,34.41,34.41,0,0,0-1.234-4.615.28.28,0,0,0-.376-.162l-14.348,6.3A.276.276,0,0,0,5673.409,190.765Z" transform="translate(-5621.841 -161.19)"/><path class="a" d="M5444.876,259.549l-15.575,1.72a.28.28,0,0,0-.244.328,33.982,33.982,0,0,0,1.234,4.614.279.279,0,0,0,.375.162l14.352-6.3A.276.276,0,0,0,5444.876,259.549Z" transform="translate(-5428.44 -221.124)"/><path class="a" d="M5650.881,127.347l12.622-9.275a.277.277,0,0,0,.045-.405,33.969,33.969,0,0,0-3.374-3.376.276.276,0,0,0-.4.046l-9.277,12.625A.277.277,0,0,0,5650.881,127.347Z" transform="translate(-5603.881 -105.96)"/><path class="a" d="M5478.658,298.8l-12.622,9.275a.278.278,0,0,0-.045.4,33.983,33.983,0,0,0,3.375,3.376.275.275,0,0,0,.4-.046l9.277-12.625A.277.277,0,0,0,5478.658,298.8Z" transform="translate(-5457.659 -252.185)"/><path class="a" d="M5445.019,190.239l-14.352-6.3a.279.279,0,0,0-.375.162,33.976,33.976,0,0,0-1.234,4.615.279.279,0,0,0,.244.328l15.575,1.72A.276.276,0,0,0,5445.019,190.239Z" transform="translate(-5428.44 -161.19)"/><path class="a" d="M5673.267,260.075l14.348,6.3a.28.28,0,0,0,.376-.162,34.416,34.416,0,0,0,1.234-4.614.278.278,0,0,0-.243-.328l-15.573-1.72A.276.276,0,0,0,5673.267,260.075Z" transform="translate(-5621.841 -221.124)"/><path class="a" d="M5479.046,126.962l-9.277-12.625a.275.275,0,0,0-.4-.046,33.984,33.984,0,0,0-3.375,3.376.278.278,0,0,0,.045.4l12.622,9.276A.277.277,0,0,0,5479.046,126.962Z" transform="translate(-5457.659 -105.96)"/><path class="a" d="M5650.493,299.184l9.277,12.625a.276.276,0,0,0,.4.046,33.968,33.968,0,0,0,3.374-3.376.277.277,0,0,0-.045-.4l-12.622-9.275A.276.276,0,0,0,5650.493,299.184Z" transform="translate(-5603.881 -252.185)"/><path class="a" d="M5542.464,93.176l-1.72-15.575a.281.281,0,0,0-.328-.242,33.7,33.7,0,0,0-4.616,1.234.279.279,0,0,0-.163.374l6.3,14.35A.278.278,0,0,0,5542.464,93.176Z" transform="translate(-5512.886 -76.742)"/><path class="a" d="M5611.249,321.708l1.72,15.575a.281.281,0,0,0,.328.242,33.728,33.728,0,0,0,4.614-1.234.278.278,0,0,0,.165-.373l-6.3-14.35A.276.276,0,0,0,5611.249,321.708Z" transform="translate(-5572.824 -270.142)"/><path class="a" d="M5541.934,321.567l-6.3,14.35a.279.279,0,0,0,.163.373,33.717,33.717,0,0,0,4.616,1.234.281.281,0,0,0,.328-.242l1.72-15.575A.278.278,0,0,0,5541.934,321.567Z" transform="translate(-5512.886 -270.142)"/><path class="a" d="M5611.776,93.317l6.3-14.35a.278.278,0,0,0-.165-.374,33.707,33.707,0,0,0-4.614-1.234.28.28,0,0,0-.328.242l-1.72,15.575A.276.276,0,0,0,5611.776,93.317Z" transform="translate(-5572.824 -76.742)"/><path class="a" d="M5579.455,298.421l-2.4,20.922a.276.276,0,0,0,.256.308c.8.056,1.6.086,2.417.086s1.617-.029,2.416-.086a.276.276,0,0,0,.254-.308l-2.4-20.922A.276.276,0,0,0,5579.455,298.421Z" transform="translate(-5545.728 -251.737)"/><path class="a" d="M5580,95.721l2.4-20.923a.277.277,0,0,0-.254-.308c-.8-.056-1.6-.086-2.416-.086s-1.618.029-2.417.086a.276.276,0,0,0-.256.308l2.4,20.923A.276.276,0,0,0,5580,95.721Z" transform="translate(-5545.728 -74.405)"/><path class="a" d="M5447.416,227.754l-20.922-2.4a.279.279,0,0,0-.308.255q-.083,1.2-.084,2.417t.084,2.417a.279.279,0,0,0,.308.254l20.922-2.4A.276.276,0,0,0,5447.416,227.754Z" transform="translate(-5426.102 -194.028)"/><path class="a" d="M5650.119,228.3l20.924,2.4a.274.274,0,0,0,.307-.254q.086-1.2.086-2.417t-.086-2.417a.274.274,0,0,0-.307-.255l-20.924,2.4A.276.276,0,0,0,5650.119,228.3Z" transform="translate(-5603.436 -194.028)"/><path class="a" d="M5642.048,158.924l19.321-8.387a.277.277,0,0,0,.141-.375,34.368,34.368,0,0,0-2.42-4.183.277.277,0,0,0-.394-.066l-16.922,12.537A.276.276,0,0,0,5642.048,158.924Z" transform="translate(-5596.927 -131.03)"/><path class="a" d="M5461.923,267.553l-19.326,8.388a.281.281,0,0,0-.141.376,33.987,33.987,0,0,0,2.425,4.183.276.276,0,0,0,.394.066l16.922-12.538A.276.276,0,0,0,5461.923,267.553Z" transform="translate(-5439.042 -227.449)"/><path class="a" d="M5462.2,158.451l-16.922-12.538a.276.276,0,0,0-.394.066,33.946,33.946,0,0,0-2.425,4.183.28.28,0,0,0,.141.375l19.326,8.388A.276.276,0,0,0,5462.2,158.451Z" transform="translate(-5439.042 -131.03)"/><path class="a" d="M5641.774,268.032l16.92,12.537a.277.277,0,0,0,.394-.066,33.883,33.883,0,0,0,2.42-4.183.276.276,0,0,0-.139-.375l-19.319-8.387A.276.276,0,0,0,5641.774,268.032Z" transform="translate(-5596.928 -227.452)"/><path class="a" d="M5619.73,110.495l12.535-16.92a.275.275,0,0,0-.065-.395,33.939,33.939,0,0,0-4.183-2.421.276.276,0,0,0-.374.139l-8.388,19.322A.276.276,0,0,0,5619.73,110.495Z" transform="translate(-5579.15 -87.343)"/><path class="a" d="M5510.15,290.067l-12.539,16.922a.276.276,0,0,0,.068.395,33.621,33.621,0,0,0,4.182,2.421.279.279,0,0,0,.376-.14l8.386-19.324A.275.275,0,0,0,5510.15,290.067Z" transform="translate(-5482.727 -245.22)"/><path class="a" d="M5510.623,110.223,5502.237,90.9a.279.279,0,0,0-.376-.139,33.612,33.612,0,0,0-4.182,2.421.276.276,0,0,0-.068.395L5510.15,110.5A.275.275,0,0,0,5510.623,110.223Z" transform="translate(-5482.727 -87.343)"/><path class="a" d="M5619.255,290.346l8.386,19.323a.279.279,0,0,0,.377.14,34.134,34.134,0,0,0,4.183-2.421.277.277,0,0,0,.063-.395l-12.537-16.921A.275.275,0,0,0,5619.255,290.346Z" transform="translate(-5579.149 -245.224)"/></svg>