<?xml version="1.0" standalone="no"?>
<!DOCTYPE svg PUBLIC "-//W3C//DTD SVG 1.1//EN" "http://www.w3.org/Graphics/SVG/1.1/DTD/svg11.dtd" >
<svg xmlns="http://www.w3.org/2000/svg" xmlns:xlink="http://www.w3.org/1999/xlink" version="1.1">
<metadata>
Created by FontForge 20170731 at Fri Aug 20 22:29:21 2021
 By Aleksey,,,
(c) 2003 Adobe Systems Incorporated. All Rights Reserved.
</metadata>
<defs>
<font id="KeplerStd-CnDisp" horiz-adv-x="2048" >
  <font-face 
    font-family="Kepler Std Cn Disp"
    font-weight="400"
    font-stretch="condensed"
    units-per-em="2048"
    panose-1="2 4 6 6 6 7 10 6 2 4"
    ascent="1434"
    descent="-614"
    x-height="864"
    cap-height="1276"
    bbox="-295 -519.136 7082.16 1729"
    underline-thickness="118"
    underline-position="-405"
    unicode-range="U+0020-FB06"
  />
<missing-glyph horiz-adv-x="1024" 
d="M0 0v1434h1024v-1434h-1024zM512 809l348 522h-696zM573 717l349 -522v1044zM164 102h696l-348 523zM102 1239v-1044l349 522z" />
    <glyph glyph-name="T_h" unicode="Th" horiz-adv-x="1476" 
d="M379 592v309q0 281 -2 338q-113 0 -166 -7t-77.5 -25t-39.5 -58q-9 -21 -16 -43t-11 -36.5t-10.5 -38.5t-9.5 -36l-22 11q8 32 18.5 123.5t13.5 156.5q49 -16 330 -16h123q259 0 315 12v70q27 0 140 22q-9 -147 -9 -407v-205q111 123 238 123q98 0 141 -72
q29 -44 29 -145v-600q0 -32 13.5 -40.5t72.5 -11.5l-6 -22q-3 0 -57.5 3t-94.5 3q-39 0 -92.5 -3t-56.5 -3l2 22q44 2 61.5 11.5t18.5 35.5q10 195 10 322q0 300 -10 342q-19 96 -103 96q-46 0 -86.5 -23.5t-64.5 -68.5q-15 -34 -15 -86v-354q0 -103 5 -221q3 -31 20 -41
t63 -13v-22q-16 0 -80 3t-90 3q-31 0 -79 -3t-58 -3v22q48 2 65.5 12.5t18.5 39.5q6 76 6 317v586v256q-8 1 -43.5 4.5t-60 5t-85 3.5t-118.5 -1q1 -42 0.5 -78.5t-1.5 -116t-1 -133.5v-329q0 -394 8 -496q2 -28 11 -40t32 -15q85 -15 95 -15l-5 -22q-17 0 -92.5 3t-124.5 3
q-45 0 -113 -3t-100 -3l-6 22q16 1 45.5 6t44.5 7q31 3 44.5 15t13.5 38q8 93 8 510z" />
    <glyph glyph-name="f_f" unicode="ff" horiz-adv-x="804" 
d="M35 860h100v78q0 111 26 203t77 143q72 72 151 72q62 0 99.5 -33.5t37.5 -85.5q0 -28 -21 -47t-50 -19q-33 0 -33 43q0 44 -16 75.5t-54 31.5q-26 0 -44 -16t-28 -47.5t-14.5 -64t-7.5 -77.5q-2 -48 4 -256h273v33q-4 214 47 324q31 74 88 121.5t129 47.5q65 0 102 -33.5
t37 -84.5q0 -28 -20 -47t-48 -19q-36 0 -36 41q0 54 -16 82.5t-58 28.5q-46 0 -72 -60t-29 -174q-3 -65 7 -260h143l-8 -24l-135 -9q-2 -84 -2 -385q0 -217 6 -364q2 -28 11.5 -40t33.5 -13q14 -2 34 -5t31 -4l-4 -22q-22 0 -78.5 3t-101.5 3q-34 0 -88 -3t-70 -3v22
q54 1 66.5 8.5t17.5 36.5q13 63 13 373v393h-271q-2 -96 -2 -397q0 -219 6 -354q2 -28 11.5 -40.5t33.5 -15.5q14 0 54 -4l-5 -22q-18 0 -68.5 3t-96.5 3q-43 0 -96 -3t-70 -3v22q60 5 74 11t18 34q10 49 10 373v393l-102 9z" />
    <glyph glyph-name="f_i" unicode="fi" horiz-adv-x="782" 
d="M14 836l4 24h117v58q0 191 60 299q96 169 260 169q104 0 154 -48t50 -113q0 -35 -23.5 -59.5t-60.5 -24.5q-47 0 -47 43q0 7 3.5 31.5t3.5 39.5q0 51 -29.5 76t-77.5 25q-58 0 -95.5 -43t-53.5 -148q-17 -93 -17 -305h154q203 0 262 27q0 -5 -2.5 -41t-4.5 -69.5
t-3.5 -92.5t-1.5 -121v-221q0 -184 8 -274q3 -32 21 -40.5t89 -11.5l-4 -22q-33 0 -93.5 3t-98.5 3q-41 0 -93 -3t-67 -3l2 22q60 1 77 12t19 42q0 6 2.5 36t4 57.5t3 80t1.5 110.5v213q0 183 -9 232q-1 15 -20.5 20.5t-65.5 5.5l-180 2v-389q0 -266 4 -364q3 -32 21.5 -42
t79.5 -16l-5 -22q-153 6 -167 6q-32 0 -93 -3t-86 -3v22q68 3 84.5 10.5t22.5 36.5q10 62 10 371v393z" />
    <glyph glyph-name="f_l" unicode="fl" horiz-adv-x="784" 
d="M16 860h117v94q0 127 27.5 213t91.5 146q76 73 194 73q71 0 123 -36q64 19 111 28q-14 -231 -14 -450v-482q0 -312 6 -383q1 -29 21 -37t87 -10l-6 -22q-32 0 -108 3t-105 3q-40 0 -84.5 -3t-58.5 -3l2 22q61 1 80 14t22 46q5 29 10 149.5t5 245.5v487q0 238 -9 297
q-28 99 -118 99q-84 0 -117 -103q-31 -95 -31 -391h176l-8 -26l-168 -11q-2 -88 -2 -389q0 -262 4 -356q1 -34 22 -45.5t81 -16.5l-7 -22q-22 0 -71.5 3t-93.5 3t-105.5 -3t-77.5 -3v22q70 3 86.5 11t22.5 39q10 65 10 368v389l-119 13z" />
    <glyph glyph-name="f_f_i" unicode="ffi" horiz-adv-x="1189" 
d="M33 860h102v53q0 175 60 277q39 75 106.5 122.5t163.5 47.5q52 0 101.5 -23.5t66.5 -56.5q92 106 227 106q102 0 152.5 -46.5t50.5 -114.5q0 -37 -22.5 -60.5t-59.5 -23.5q-49 0 -49 43q0 5 1 27.5t1 37.5q0 52 -28 79.5t-70 27.5q-57 0 -98 -44.5t-52 -146.5
q-16 -126 -16 -305h149q204 0 266 27q-12 -117 -12 -324v-219q0 -216 8 -276q3 -32 20 -40.5t83 -11.5l-4 -22q-12 0 -76.5 3t-106.5 3q-41 0 -94.5 -3t-68.5 -3l4 22q60 0 78 11t20 41q8 156 8 286v213q0 164 -8 234q-3 26 -88 26h-178q-2 -82 -2 -389q0 -292 6 -360
q3 -40 23.5 -49.5t84.5 -12.5l-6 -22q-19 0 -75 3t-101 3q-32 0 -89 -3t-71 -3v22q55 1 68.5 8.5t19.5 36.5q11 71 11 373v393h-275q-2 -82 -2 -391q0 -272 4 -358q1 -38 19 -47.5t82 -14.5l-7 -22q-16 0 -68 3t-97 3q-44 0 -97 -3t-69 -3v22q58 5 71.5 11t20.5 34
q12 117 12 373v393l-102 9zM264 860h275q0 226 39 336q-10 61 -54.5 97t-97.5 36q-55 0 -94.5 -48.5t-52.5 -152.5q-15 -99 -15 -268z" />
    <glyph glyph-name="f_f_l" unicode="ffl" horiz-adv-x="1189" 
d="M16 860h119v53q0 172 58 275q38 74 109 123t161 49q101 0 170 -78q37 48 92.5 76t116.5 28q80 0 137 -40q30 13 104 32q-10 -170 -10 -450v-482q0 -293 4 -383q1 -30 20.5 -38.5t84.5 -8.5l-6 -22q-31 0 -103 3t-100 3q-39 0 -82 -3t-57 -3l2 22q58 3 76.5 14.5
t21.5 43.5q12 70 12 397v490q0 244 -8 296q-7 39 -38 68t-81 29q-80 0 -112 -88q-37 -113 -37 -406h176l-8 -26l-168 -9q-2 -84 -2 -385q0 -268 8 -362q1 -40 17 -48.5t83 -13.5l-4 -22q-21 0 -74.5 3t-99.5 3q-34 0 -89 -3t-69 -3v22q56 2 70 9t20 36q9 55 9 373v393h-275
q-2 -84 -2 -387q0 -292 6 -362q3 -38 20 -47.5t79 -14.5l-5 -22q-15 0 -67 3t-98 3q-44 0 -107.5 -3t-79.5 -3v22q72 1 89.5 8.5t25.5 36.5q8 74 8 373v393l-119 9zM264 860h275q2 111 9.5 186.5t31.5 147.5q-14 62 -55 97.5t-99 35.5q-54 0 -94 -47.5t-51 -149.5
q-17 -116 -17 -270z" />
    <glyph glyph-name=".notdef" horiz-adv-x="1024" 
d="M0 0v1434h1024v-1434h-1024zM512 809l348 522h-696zM573 717l349 -522v1044zM164 102h696l-348 523zM102 1239v-1044l349 522z" />
    <glyph glyph-name=".null" horiz-adv-x="0" 
 />
    <glyph glyph-name="nonmarkingreturn" horiz-adv-x="682" 
 />
    <glyph glyph-name="space" unicode=" " horiz-adv-x="272" 
 />
    <glyph glyph-name="exclam" unicode="!" horiz-adv-x="339" 
d="M168 1303h2q34 0 64 -46t30 -88q0 -41 -20 -155q-60 -285 -60 -660h-32q0 369 -60 660q-20 114 -20 155q0 52 36.5 93t59.5 41zM172 -29h-2q-34 0 -58 28t-24 71q0 40 26 68t60 28q37 0 61.5 -27.5t24.5 -70.5t-24 -70t-64 -27z" />
    <glyph glyph-name="quotedbl" unicode="&#x22;" horiz-adv-x="413" 
d="M330 1421h2q28 0 28 -65q0 -40 -21 -127.5t-38 -143.5l-18 -2q-3 86 -14.5 168.5t-24.5 118.5q9 14 37.5 32.5t48.5 18.5zM147 1421h3q28 0 28 -65q0 -41 -21.5 -132.5t-37.5 -138.5l-17 -2q-11 211 -41 287q8 14 37.5 32.5t48.5 18.5z" />
    <glyph glyph-name="numbersign" unicode="#" horiz-adv-x="694" 
d="M449 780h-168l-58 -237h170zM328 1128l47 7q-24 -69 -74 -263h168q39 141 63 256l48 7q-45 -138 -74 -263h149q-7 -18 -26 -96q-12 0 -58 1t-86 1l-57 -235q90 4 160 4q-5 -12 -23 -94h-159q-12 -57 -35 -158t-31 -141l-49 -7q18 59 76 306h-166q-69 -272 -74 -299
l-45 -13q6 17 15.5 54t28 113.5t36.5 144.5q-112 0 -137 -2q15 45 22 96q58 -4 135 -4l60 237q-34 0 -87 -1t-69 -1q22 92 23 96q33 -2 157 -2q51 208 62 256z" />
    <glyph glyph-name="dollar" unicode="$" horiz-adv-x="694" 
d="M532 270v2q0 44 -9.5 78.5t-35 66.5t-44 49.5t-63.5 54.5q-9 7 -13 11l-15 -479q75 3 127.5 59t52.5 158zM186 979v-2q0 -39 13 -75.5t28.5 -60t42 -49t39.5 -35t35 -24.5l14 453q-74 -5 -123 -59.5t-49 -147.5zM365 1327l41 14l-5 -127q94 -5 154 -65l27 70l16 -7
q-30 -198 -27 -305l-22 4q6 248 -152 275l-22 -479q65 -46 107.5 -80.5t58 -50.5t32.5 -37q64 -70 64 -197q0 -117 -57 -192q-85 -113 -232 -125l-2 -125l-45 -19l8 144q-26 0 -53.5 3.5t-56 11t-47.5 13t-47.5 15t-36.5 12.5q10 76 24 276l23 11q-3 -74 6 -129.5t26.5 -89
t45.5 -54.5t55.5 -29.5t62.5 -11.5l25 502q-13 10 -64.5 47t-70.5 55q-115 104 -115 252q0 129 80 219q32 35 83 58.5t111 27.5z" />
    <glyph glyph-name="percent" unicode="%" horiz-adv-x="954" 
d="M170 45l-29 37q62 113 298.5 541.5t297.5 541.5q-74 -55 -196 -55q-77 0 -125 23q26 -83 26 -181q0 -153 -49.5 -237t-140.5 -84q-90 0 -142.5 75.5t-52.5 213.5q-1 144 59.5 229.5t149.5 85.5q41 0 82 -25l21 15q72 -84 198 -84q123 0 191 76q10 11 39 63l53 12
q-441 -785 -680 -1247zM279 1204h-3q-19 0 -32.5 -8t-30.5 -31q-47 -70 -47 -239q0 -182 49 -240q23 -27 57 -27q28 0 53.5 26.5t45.5 98t20 177.5q0 243 -112 243zM723 672h2q53 0 90 -27.5t54.5 -74.5t24.5 -93t7 -100q0 -138 -49 -223.5t-141 -85.5q-86 0 -139 76
t-54 210q-1 147 58.5 232.5t146.5 85.5zM731 647h-2q-17 0 -35.5 -13t-27.5 -32q-39 -67 -39 -237q0 -173 39 -234q9 -15 27.5 -25t37.5 -10q57 0 89 73t32 212q0 266 -121 266z" />
    <glyph glyph-name="ampersand" unicode="&#x26;" horiz-adv-x="1003" 
d="M950 16l-4 -22q-92 -25 -160 -25q-49 0 -93 38t-138 169q-79 -201 -236 -201q-117 0 -186 95q-59 86 -59 213q0 137 71 225q47 60 125 131q-90 169 -90 313q0 75 22 139t71.5 107t117.5 43q88 0 141.5 -69t53.5 -168q0 -121 -72 -193q-88 -88 -129 -125
q105 -196 211 -348q25 79 49.5 149.5t28.5 81.5q69 209 170 209q32 0 46.5 -16.5t14.5 -42.5q0 -25 -20 -45q-12 -15 -27 -6q-11 8 -35 8q-37 0 -67 -38t-68 -136q-5 -13 -19 -48.5t-28 -72t-25 -70.5q122 -175 194 -236.5t140 -58.5zM387 1214h-2q-40 0 -69.5 -52.5
t-28.5 -166.5q1 -53 14 -106.5t28.5 -89t41.5 -88.5q54 56 86 130t32 152q-3 221 -102 221zM193 346v-2q0 -69 16.5 -132t59.5 -110t104 -47q64 0 106 46.5t60 101.5q-162 233 -252 411q-96 -127 -94 -268z" />
    <glyph glyph-name="quotesingle" unicode="'" horiz-adv-x="225" 
d="M143 1421h2q16 0 23.5 -21t7.5 -44q0 -40 -21 -127.5t-38 -143.5l-19 -2q-3 87 -15 169.5t-26 117.5q8 14 37.5 32.5t48.5 18.5z" />
    <glyph glyph-name="parenleft" unicode="(" horiz-adv-x="514" 
d="M80 535v2q0 424 156 692q40 68 95 125.5t111 89.5l15 -25q-35 -19 -64.5 -44.5t-63 -70.5t-59 -119t-39.5 -171q-28 -210 -28 -477q0 -264 28 -480q14 -97 39.5 -171t59 -119.5t62.5 -70.5t65 -44l-15 -25q-57 34 -111.5 91t-94.5 124q-156 268 -156 693z" />
    <glyph glyph-name="parenright" unicode=")" horiz-adv-x="514" 
d="M432 537v-2q0 -425 -156 -693q-40 -68 -95 -125.5t-111 -89.5l-15 25q35 19 64.5 44.5t63 70.5t59 119t39.5 171q28 216 28 478q0 269 -28 479q-14 97 -39.5 171t-59 119.5t-62.5 70.5t-65 44l15 25q57 -34 111.5 -91t94.5 -124q156 -268 156 -692z" />
    <glyph glyph-name="asterisk" unicode="*" horiz-adv-x="624" 
d="M360 1106l-6 12q43 13 97.5 52.5t64.5 41.5q17 4 36 -14t21 -31q6 -13 -2 -38.5t-26 -28.5q-10 -2 -76 6.5t-109 -0.5zM340 1069l10 10q25 -26 61.5 -45t64.5 -30t34 -17q11 -21 7 -43t-13 -33q-13 -9 -35.5 -12.5t-40.5 8.5q-5 5 -30.5 66.5t-57.5 95.5zM303 1067l10 -6
q-11 -45 -3.5 -111t5.5 -73q-5 -18 -28.5 -26.5t-38.5 -6.5q-17 9 -33 26.5t-12 36.5q3 9 23 32.5t43 58t34 69.5zM279 1096l2 -15q-44 -10 -96.5 -50.5t-61.5 -41.5q-19 -5 -38 12t-24 31q-4 15 5 39.5t26 28.5q8 2 74.5 -6.5t112.5 2.5zM295 1133l-10 -11q-25 25 -62 43.5
t-64.5 29.5t-33.5 19q-13 19 -8 42t16 32q12 10 34.5 14.5t37.5 -8.5q7 -7 18.5 -35t29.5 -64.5t42 -61.5zM332 1133l-13 8q10 47 2.5 111t-4.5 73q5 17 31 25t39 4q15 -4 31 -23t12 -37q-2 -7 -43.5 -60.5t-54.5 -100.5z" />
    <glyph glyph-name="plus" unicode="+" horiz-adv-x="806" 
d="M436 102h-67v314h-283v65h283v287h67v-287h285v-65h-285v-314z" />
    <glyph glyph-name="comma" unicode="," horiz-adv-x="301" 
d="M59 -178l-8 20q59 8 100.5 52.5t41.5 105.5q0 5 -1.5 7.5t-3.5 2t-4 -3.5q-22 -16 -51 -16q-31 0 -51.5 22.5t-20.5 63.5q0 35 25 62.5t59 27.5q44 0 68.5 -35t24.5 -94q0 -94 -56.5 -153t-122.5 -62z" />
    <glyph glyph-name="hyphen" unicode="-" horiz-adv-x="489" 
d="M55 424l19 84q173 -5 362 0l-16 -84q-195 8 -365 0z" />
    <glyph glyph-name="period" unicode="." horiz-adv-x="301" 
d="M152 164h2q37 0 60.5 -27.5t23.5 -68.5q0 -42 -26 -69.5t-62 -27.5q-37 0 -62 27t-25 70q0 40 26 68t63 28z" />
    <glyph glyph-name="slash" unicode="/" horiz-adv-x="585" 
d="M479 1409l49 -27q-15 -42 -87.5 -301.5t-135.5 -500.5q-135 -523 -196 -766l-50 24q19 68 91.5 339t117.5 437q165 600 211 795z" />
    <glyph glyph-name="zero" unicode="0" horiz-adv-x="694" 
d="M358 1255h2q119 0 197 -120q49 -73 73.5 -209.5t24.5 -298.5q-3 -407 -131 -564q-74 -88 -176 -88q-118 0 -194 97q-116 156 -113 559q0 171 35.5 312t107.5 222q74 90 174 90zM352 1227h-2q-34 0 -57.5 -21.5t-46.5 -75.5q-29 -72 -47.5 -220t-18.5 -285q0 -332 56 -502
q39 -119 120 -119q73 0 111 109q49 158 49 505q0 358 -53 515q-29 94 -111 94z" />
    <glyph glyph-name="one" unicode="1" horiz-adv-x="694" 
d="M588 16v-22q-42 0 -121.5 3t-116.5 3q-44 0 -114.5 -3t-92.5 -3l-6 22l99 11q50 6 53 39q8 58 8 315v432q0 281 -4 344q0 13 -6 19t-15 4q-105 -6 -127 -6l7 20q221 31 282 61l6 -4q-8 -328 -8 -417v-451q0 -237 8 -315q2 -20 10.5 -29t32.5 -10z" />
    <glyph glyph-name="two" unicode="2" horiz-adv-x="694" 
d="M629 264l20 -12q-18 -61 -29.5 -136.5t-13.5 -121.5q-1 0 -38 1.5t-133 3t-240 1.5q-109 0 -150 -4l-4 8q3 9 9.5 28t11 32t8.5 18q142 147 238.5 316t121.5 288q29 131 29 256q0 287 -150 287q-131 0 -131 -176q0 -19 19 -88q7 -22 -15 -41q-19 -19 -47 -19
q-33 0 -53.5 27t-20.5 69q0 92 68 166q37 42 92 66t117 24q111 0 184 -73q89 -95 86 -289q-5 -172 -96 -309q-32 -49 -89.5 -123.5t-101.5 -129t-182 -222.5q382 11 418 14q29 7 45 55q3 8 8 22t10 28.5t9 33.5z" />
    <glyph glyph-name="three" unicode="3" horiz-adv-x="694" 
d="M344 1255h2q116 0 180 -77.5t64 -186.5q0 -135 -92 -223q-32 -29 -64 -49t-96 -51v-11q82 -6 145 -36t97 -74q63 -81 63 -203q0 -155 -90 -262t-246 -107q-120 0 -186 54t-66 118q0 31 22.5 52.5t49.5 21.5q33 0 37 -39q15 -96 49.5 -137t95.5 -41q93 0 136.5 92.5
t43.5 253.5q0 285 -196 285q-41 0 -78 -12l-25 18l3 6q93 16 135 41q121 73 121 285q0 102 -38.5 175t-107.5 73q-57 0 -83.5 -34t-26.5 -106q0 -36 12 -63q6 -21 -10 -37q-15 -20 -45 -20q-27 0 -45.5 20t-18.5 61q0 30 15.5 65t45 69t81.5 56.5t116 22.5z" />
    <glyph glyph-name="four" unicode="4" horiz-adv-x="694" 
d="M408 422q7 179 8 428.5t2 286.5q-211 -387 -340 -684q23 -10 119.5 -20.5t210.5 -10.5zM33 401l-19 35q109 214 406 772q28 6 67 21t54 26l8 -4q-12 -324 -12 -661v-166q86 0 159 31l-2 -21q-49 -42 -157 -53q0 -268 4 -381q-74 0 -133 -23l-9 5q7 147 9 395
q-217 -3 -375 24z" />
    <glyph glyph-name="five" unicode="5" horiz-adv-x="694" 
d="M139 553l-26 22q24 88 45.5 343t17.5 315q26 -10 88 -16q88 -9 125 -9q104 0 156.5 14.5t81.5 47.5l10 -8q-33 -100 -92 -138q-59 -37 -178 -37q-90 0 -152 15q-30 -306 -57 -467q39 39 94 67.5t110 28.5q116 0 191.5 -82.5t75.5 -255.5q0 -139 -49 -237
q-40 -81 -113 -131t-162 -50q-120 0 -179.5 50.5t-59.5 117.5q0 31 19.5 49.5t49.5 18.5q13 0 24 -12t13 -27q18 -94 50.5 -131t86.5 -37q84 0 127 106t43 267q0 152 -53 237q-41 64 -121 64q-57 0 -101.5 -35.5t-64.5 -89.5z" />
    <glyph glyph-name="six" unicode="6" horiz-adv-x="694" 
d="M588 1247l4 -24q-5 1 -11 1t-12 -0.5t-8 -0.5q-105 0 -190.5 -94t-130.5 -238t-47 -305q102 149 231 149q105 0 166 -95t61 -237q0 -186 -76 -303q-85 -125 -227 -125q-126 0 -201 97q-100 130 -100 405q0 392 178 608q61 72 144.5 120t179.5 48q9 0 39 -6zM367 670h-2
q-57 0 -101.5 -41.5t-60.5 -100.5q-13 -40 -13 -106q0 -112 31 -252q46 -164 135 -164q41 0 67.5 24t47.5 74q37 100 37 252q0 105 -21 191q-39 123 -120 123z" />
    <glyph glyph-name="seven" unicode="7" horiz-adv-x="694" 
d="M72 936l-21 10q15 58 27 158t10 143q50 -16 291 -16q231 0 266 2l4 -8q-30 -137 -69 -232q-133 -331 -199.5 -563.5t-67.5 -447.5l-8 -7q-47 3 -80 17q-30 15 -30 47q0 16 2.5 30t7 31t6.5 27q32 143 177.5 487t189.5 490q-45 4 -252 4q-91 0 -132 -5.5t-56.5 -18
t-28.5 -42.5q-3 -9 -11 -29t-15 -39.5t-11 -37.5z" />
    <glyph glyph-name="eight" unicode="8" horiz-adv-x="694" 
d="M369 1255h2q108 0 168.5 -84.5t60.5 -195.5q0 -92 -51 -162q-23 -33 -135 -135q130 -103 178.5 -190t48.5 -179q0 -130 -74 -227q-39 -50 -99 -78.5t-124 -28.5q-128 0 -207.5 79.5t-79.5 217.5q0 110 62 183q35 44 157 157q-93 85 -134.5 158t-41.5 164q0 116 54 201
q69 120 215 120zM348 1225h-2q-57 0 -99 -56t-42 -161q0 -101 41 -166q7 -11 15.5 -22.5t21 -24.5t19.5 -20.5t24 -23t21 -19t24 -20.5l20 -18q61 61 90 122.5t29 154.5q0 46 -9 89.5t-27 81t-50.5 60.5t-75.5 23zM360 8h2q60 0 98.5 35.5t52 84t13.5 108.5q0 101 -48.5 175
t-180.5 183q-55 -44 -98 -121.5t-43 -169.5q0 -79 21.5 -144t68.5 -108t114 -43z" />
    <glyph glyph-name="nine" unicode="9" horiz-adv-x="694" 
d="M135 -18l-4 24q30 -2 55 6q133 14 222 180.5t98 438.5q-36 -56 -96 -94.5t-115 -38.5q-107 0 -174.5 93.5t-67.5 252.5q0 161 74 278q35 55 94 94t129 39q124 0 195 -102q100 -143 100 -461q0 -176 -44 -324.5t-114 -236.5q-60 -79 -144 -116.5t-165 -37.5q-26 0 -43 5z
M342 1225h-2q-78 0 -113 -105q-34 -103 -34 -239q0 -143 43.5 -229.5t117.5 -86.5q32 0 56 9t39.5 27t24.5 33.5t18 39.5q14 39 14 137q0 206 -53 322q-43 92 -111 92z" />
    <glyph glyph-name="colon" unicode=":" horiz-adv-x="299" 
d="M150 160h2q39 0 62.5 -27t23.5 -67q0 -41 -26 -68t-62 -27t-61.5 25.5t-25.5 66.5q0 40 26 68.5t61 28.5zM152 750h2q37 0 60.5 -27.5t23.5 -65.5q0 -42 -26 -69t-62 -27q-35 0 -61 26.5t-26 67.5q0 38 27 66.5t62 28.5z" />
    <glyph glyph-name="semicolon" unicode=";" horiz-adv-x="301" 
d="M150 750h2q38 0 62 -27.5t24 -65.5q0 -42 -26 -69t-62 -27q-37 0 -62 26t-25 68q0 38 26 66.5t61 28.5zM61 -178l-6 20q58 8 99 53t41 105q0 5 -1.5 7.5t-3.5 2t-4 -3.5q-22 -16 -51 -16q-31 0 -51.5 22.5t-20.5 63.5q2 35 26.5 62.5t57.5 27.5q44 0 68.5 -35t24.5 -94
q0 -93 -57 -152.5t-122 -62.5z" />
    <glyph glyph-name="less" unicode="&#x3c;" horiz-adv-x="796" 
d="M111 424v55l577 297v-76l-502 -247v-4l502 -248v-76z" />
    <glyph glyph-name="equal" unicode="=" horiz-adv-x="806" 
d="M721 346v-65h-639v65h639zM721 610v-65h-639v65h639z" />
    <glyph glyph-name="greater" unicode="&#x3e;" horiz-adv-x="796" 
d="M686 479v-55l-577 -299v76l493 248v4l-493 249v74z" />
    <glyph glyph-name="question" unicode="?" horiz-adv-x="583" 
d="M289 379l-19 -10q-70 98 -75 182q-3 59 28 119q20 38 90 139t80 117q41 59 41 135q1 108 -39 161.5t-108 53.5q-57 0 -92 -42t-35 -95t20 -92q18 -25 -12 -52q-29 -26 -55 -26q-23 0 -42.5 26t-19.5 72q0 99 72.5 167.5t169.5 68.5q87 0 143.5 -46.5t78.5 -114.5t22 -155
q0 -42 -12.5 -81t-24.5 -58.5t-35 -52.5q-135 -186 -158 -226q-29 -47 -33 -91t15 -99zM279 -29h-3q-34 0 -57.5 27.5t-23.5 71.5q0 40 26 68t60 28q37 0 61.5 -27.5t24.5 -70.5t-24 -70t-64 -27z" />
    <glyph glyph-name="at" unicode="@" horiz-adv-x="1243" 
d="M473 203v-2q0 -70 39 -70q51 0 105 59.5t90.5 135t56.5 149.5q29 88 47 162q7 47 -12.5 73.5t-53.5 26.5q-29 0 -65 -25.5t-66 -68.5q-69 -108 -105 -225t-36 -215zM879 -51l4 -35q-90 -88 -185.5 -123t-220.5 -35q-189 0 -301 127t-113 363q-1 107 25.5 215.5t84 210.5
t137.5 180.5t197 126t253 47.5q209 0 315.5 -120.5t106.5 -319.5q0 -94 -27.5 -184.5t-77 -163.5t-126.5 -117.5t-169 -44.5q-22 0 -38.5 4.5t-26 14.5t-15.5 20t-6.5 27.5t-0.5 29.5t5 34t8 33.5t10 34.5t9 31q-64 -105 -135 -167t-141 -62q-46 0 -66 38.5t-20 96.5
q0 121 62 269.5t171 228.5q73 53 145 53q30 0 55 -16.5t33 -38.5l13 34q14 0 49 1t49 1q-48 -131 -88.5 -285t-56.5 -255q-5 -30 -5.5 -46t7 -28t26.5 -12q74 0 136 42.5t100 110.5t59 149t21 163q0 188 -104.5 298.5t-293.5 110.5q-123 0 -228.5 -57.5t-170.5 -151.5
q-172 -241 -168 -555q0 -206 88 -315q100 -117 279 -117q198 0 336 154z" />
    <glyph glyph-name="A" unicode="A" horiz-adv-x="845" 
d="M881 16v-22q-27 2 -176 2q-126 0 -189 -2l2 22q64 9 80 18t12 34q-3 17 -94 450q-18 2 -139 2q-119 0 -137 -2q-80 -332 -88 -383q-11 -66 12 -89t110 -30l-4 -22q-15 0 -58.5 3t-74.5 3q-18 0 -84.5 -3t-93.5 -3v22q65 6 90 28.5t49 100.5q25 90 77.5 290.5t118.5 459.5
t75 293q12 59 14 80q84 12 113 24q39 -224 140 -670t132 -544q9 -29 21 -40.5t34 -14.5zM387 1141q-15 -65 -62 -262t-77 -324q20 -2 137 -2q113 0 123 2q-28 139 -121 586z" />
    <glyph glyph-name="B" unicode="B" horiz-adv-x="831" 
d="M29 -4v22q82 8 98 18q13 9 14 27q9 117 9 322v510q0 171 -7 322q-3 19 -25.5 26t-88.5 10v23q12 0 70.5 -3t99.5 -3q20 0 88 3t110 3q177 0 242 -68q74 -74 74 -211q0 -200 -152 -276q-42 -22 -90 -31v-8q50 -10 80 -18t68 -24.5t65 -39.5q94 -83 94 -242
q0 -189 -127 -284q-109 -78 -278 -78q-20 0 -203 6q-80 0 -141 -6zM289 977v-285q29 -2 80 -2q96 0 143 66t47 221q0 121 -37 197q-44 77 -147 77q-43 0 -61.5 -8.5t-18.5 -30.5q-6 -183 -6 -235zM289 657v-309q0 -176 8 -285q3 -34 80 -34q150 0 196 104q39 77 39 232
q0 153 -49 219q-57 80 -194 80q-10 0 -80 -7z" />
    <glyph glyph-name="C" unicode="C" horiz-adv-x="808" 
d="M752 946l-25 -6q-5 59 -16.5 108.5t-33.5 102.5t-62 84t-95 31q-133 0 -211 -154q-41 -80 -65.5 -209t-24.5 -276q0 -121 19 -231.5t51 -182.5q76 -174 227 -174q90 0 152 55t94 185l22 -15q-26 -132 -106 -210.5t-211 -78.5q-113 0 -196.5 52.5t-137.5 175.5
q-34 69 -54 180t-20 229q0 168 38.5 300t101.5 214q66 89 140 128.5t173 39.5q143 0 207 -88l22 88l21 -10q-18 -170 -10 -338z" />
    <glyph glyph-name="D" unicode="D" horiz-adv-x="948" 
d="M150 520v318q0 292 -3 368q0 36 -36 39l-82 8l2 23q12 0 76 -3t98 -3q29 0 91.5 3t98.5 3q218 0 328 -92q80 -69 123 -196t43 -296q0 -476 -250 -633q-101 -65 -260 -65q-30 0 -90.5 3t-91.5 3q-34 0 -102.5 -3t-76.5 -3v22l68 9q30 4 40.5 15.5t12.5 39.5q11 237 11 440
zM291 819v-307q0 -302 6 -449q2 -23 16 -30.5t68 -7.5q94 0 161.5 39.5t100.5 107.5q88 176 88 504q0 144 -25.5 256t-66.5 176q-44 70 -106 104.5t-156 34.5q-35 0 -52 -5.5t-20 -11.5t-4 -22q-10 -82 -10 -389z" />
    <glyph glyph-name="E" unicode="E" horiz-adv-x="778" 
d="M27 1253v23q13 0 95 -3t124 -3h225q168 0 195 12q-7 -188 -2 -264l-23 -8q-11 93 -29 145q-13 32 -27.5 47.5t-51.5 25t-105 9.5h-111q-12 0 -16 -7t-6 -28q-6 -189 -6 -299v-223q13 0 48 -1t48 -1q103 0 140 28t40 111h23q-15 -192 -2 -336h-21q-6 53 -13.5 80.5
t-27.5 48t-51.5 27t-87.5 6.5q-71 0 -96 -2v-192q0 -242 10 -369q1 -22 11 -31.5t39.5 -13.5t96.5 -4q100 0 136.5 12t64.5 53q43 56 78 195l18 -8q-1 -31 -19 -146t-26 -145q-156 8 -299 8h-168q-37 0 -117.5 -3t-97.5 -3l2 24l80 11q22 3 32 17.5t11 51.5q6 94 6 346v377
q0 245 -4 377q0 24 -11 34.5t-36 12.5z" />
    <glyph glyph-name="F" unicode="F" horiz-adv-x="735" 
d="M25 1253l4 23q18 0 94 -3t129 -3h194q196 0 246 12q-8 -97 -8 -268l-20 -6q-2 46 -21 127q-14 56 -51.5 79t-136.5 23h-129q-26 0 -29 -29q0 -2 -1.5 -47.5t-3 -129t-1.5 -177.5v-195q16 -2 115 -2q95 0 127.5 29.5t44.5 122.5l18 -4q-8 -82 -7.5 -183t7.5 -167h-21
q-8 58 -14 83t-24.5 48.5t-49 30t-86.5 6.5q-96 0 -110 -2v-205q0 -178 8 -334q0 -27 7 -38.5t28 -12.5q8 -1 44.5 -7.5t57.5 -7.5l-2 -22q-27 0 -106 3t-103 3q-41 0 -114 -3t-86 -3l-5 22l80 11q19 2 28.5 12.5t12.5 36.5q9 101 9 360v414q0 284 -5 356q0 17 -12 27
t-27 12z" />
    <glyph glyph-name="G" unicode="G" horiz-adv-x="923" 
d="M786 936h-30q-5 156 -63.5 243t-168.5 87q-67 0 -117.5 -36.5t-93.5 -121.5q-92 -169 -92 -487q0 -121 20 -243t56 -198q50 -98 103.5 -136t121.5 -38q121 0 129 100q4 47 4 312q0 93 -11.5 116t-63.5 27l-72 8l-6 23q147 -6 203 -6q132 0 180 6l4 -21q-64 -15 -74 -22
q-13 -11 -14 -35q-9 -93 -4 -276q3 -170 4 -193q-80 -29 -133 -43q-101 -27 -160 -27q-122 0 -209.5 46t-146.5 151q-93 166 -93 446q0 205 60 356t164 236q107 84 256 84q79 0 138 -28.5t81 -63.5l30 88l19 -8q-10 -54 -17.5 -168.5t-3.5 -177.5z" />
    <glyph glyph-name="H" unicode="H" horiz-adv-x="962" 
d="M150 412v469q0 120 -5 295q-1 48 -24.5 61.5t-91.5 15.5l2 23q11 0 75 -3t103 -3q30 0 106.5 3t98.5 3v-23q-61 -2 -87.5 -18t-29.5 -57q-6 -70 -6 -273v-219q39 -2 188 -2q140 0 193 2v223q0 228 -4 283q-3 32 -27.5 45.5t-81.5 15.5v23q94 -6 182 -6q96 0 195 6v-23
q-65 -2 -90.5 -17.5t-26.5 -59.5q-6 -99 -6 -283v-461q0 -284 6 -350q1 -36 25.5 -48.5t91.5 -17.5l-2 -22q-111 6 -199 6q-77 0 -176 -6v22q58 1 81 16.5t26 53.5q6 135 6 330v229q-94 4 -193 4q-110 0 -188 -4v-233q0 -86 8 -322q1 -45 27.5 -59.5t89.5 -14.5v-22
q-14 0 -92.5 3t-124.5 3q-35 0 -97.5 -3t-76.5 -3v22q63 0 88 15t28 53q9 212 9 328z" />
    <glyph glyph-name="I" unicode="I" horiz-adv-x="442" 
d="M150 414v475v282q-3 49 -23.5 61.5t-95.5 20.5v23q111 -6 182 -6q37 0 108.5 3t86.5 3l2 -23q-65 -1 -88 -14.5t-25 -46.5q-6 -117 -6 -291v-487q0 -135 6 -324q1 -42 23.5 -55.5t89.5 -18.5l-2 -22q-123 6 -195 6q-83 0 -182 -6l2 22q65 1 87 16t25 54q5 56 5 328z" />
    <glyph glyph-name="J" unicode="J" horiz-adv-x="423" 
d="M27 1255l4 23q99 -6 184 -6q57 0 186 6v-23l-55 -6q-30 -3 -38.5 -14t-10.5 -41q-8 -180 -8 -913q0 -94 -13 -187q-20 -154 -104 -262q-45 -57 -107 -91t-116 -34q-37 0 -62.5 18.5t-25.5 38.5t22.5 44t40.5 24t25 -10q40 -53 82 -53q93 0 106 194q13 221 13 512v414
q1 97 -1 200.5t-2 106.5q0 42 -38 49q-13 3 -29 5t-32.5 3t-20.5 2z" />
    <glyph glyph-name="K" unicode="K" horiz-adv-x="886" 
d="M150 453v364v375q-1 35 -21 45t-90 16l2 23q16 0 79 -3t99 -3q32 0 97.5 3.5t84.5 2.5l5 -23q-70 -6 -89 -15.5t-20 -45.5q-8 -204 -8 -383v-154q67 42 203 237t190 306q12 25 9 33t-23 10l-88 10l6 25q15 0 61 -3t84 -3q29 0 152 6l2 -23q-66 -4 -97.5 -21t-64.5 -61
q-21 -28 -136 -191.5t-179 -244.5q81 -150 220 -383t177 -284q22 -27 43.5 -35.5t91.5 -14.5l-6 -24q-49 3 -90 0q-56 0 -164 -17q-13 26 -158.5 277t-183.5 324q-20 35 -30 46.5t-19 10.5v-180q0 -173 8 -377q1 -34 21.5 -43t99.5 -19l-6 -22q-30 0 -97.5 3t-99.5 3
q-39 0 -108.5 -3t-83.5 -3l2 22q75 8 95 18t23 44q7 68 7 375z" />
    <glyph glyph-name="L" unicode="L" horiz-adv-x="753" 
d="M709 291l20 -10q-11 -62 -31 -289q-75 6 -172 8q-38 0 -133.5 1t-146.5 1q-36 0 -127 -3t-99 -3l3 24l77 11q21 3 28.5 12.5t10.5 36.5q11 132 11 457v329q0 272 -3 340q-2 22 -11.5 31t-35.5 10l-63 6l2 23q17 0 87 -3t103 -3q8 0 185 6l6 -23l-80 -8q-21 -3 -29 -13.5
t-10 -37.5q-10 -215 -10 -449v-204q0 -427 6 -482q2 -15 25.5 -21.5t83.5 -6.5q121 0 168.5 16t72.5 66q30 56 62 178z" />
    <glyph glyph-name="M" unicode="M" horiz-adv-x="1206" 
d="M35 1253l2 23q85 -6 149 -6q59 0 113 6q16 -67 140.5 -453t172.5 -553q252 806 303 1006q69 -6 95 -6q34 0 89 3t70 3l7 -23q-37 -2 -99 -12q-21 -6 -24 -43v-297q-7 -647 6 -805q3 -40 13 -52t36 -15l72 -13v-22q-52 6 -193 6q-3 0 -186 -6l2 22q63 7 80.5 19t19.5 41
q6 88 21 1116h-2q-278 -962 -338 -1186l-56 -18q-29 133 -163.5 586t-176.5 616h-2q0 -740 11 -1038q3 -70 15.5 -94.5t59.5 -30.5l68 -11v-22q-20 0 -79 3t-95 3q-40 0 -88 -3t-66 -3l-2 22q41 3 80 13q24 7 36 33.5t15 99.5q13 448 13 1042l-4 19q-6 16 -56 22z" />
    <glyph glyph-name="N" unicode="N" horiz-adv-x="929" 
d="M25 1253v23q10 0 59 -3t74 -3q73 0 116 4q4 -12 10.5 -28t13 -30t21 -44t25.5 -54q153 -326 420 -878q3 813 -8 907q-4 58 -19 75t-63 23l-60 8l7 23q13 0 69.5 -3t85.5 -3q33 0 87 3t67 3v-23q-10 -2 -25.5 -4.5t-27.5 -5t-21 -6.5q-17 -6 -24.5 -22.5t-12.5 -55.5
q-20 -195 -20 -686v-481q-36 -3 -68 -15q-55 124 -146.5 318t-210.5 444.5t-179 378.5q0 -914 8 -1018q6 -34 18 -49t33 -20q7 -1 44.5 -7t47.5 -8l-2 -22q-9 0 -74.5 3t-111.5 3q-42 0 -86.5 -3t-57.5 -3v22q30 0 76 11q25 7 34 30t13 64q9 64 17 359.5t8 672.5
q0 28 -21 61q-11 19 -49 29z" />
    <glyph glyph-name="O" unicode="O" horiz-adv-x="911" 
d="M469 1294h2q88 0 156.5 -41t109.5 -104t68 -148.5t37 -165t10 -161.5q0 -355 -103 -527t-292 -172q-192 0 -295 171t-103 472q0 193 44.5 343t138.5 241.5t227 91.5zM457 1268h-2q-51 0 -90 -35.5t-72 -108.5q-32 -69 -52 -203t-20 -290q0 -150 20 -282t50 -204
q35 -77 76 -108t96 -31q56 0 93.5 31t72.5 117q28 69 44.5 202t16.5 285q0 314 -65 485q-57 142 -168 142z" />
    <glyph glyph-name="P" unicode="P" horiz-adv-x="776" 
d="M150 594v260q0 268 -3 336q0 29 -6.5 39.5t-29.5 13.5l-86 10l10 23q11 0 68 -3t92 -3q23 0 88 3t108 3q105 0 163 -24.5t95 -71.5q35 -44 55.5 -115t20.5 -147q0 -168 -76 -275q-39 -56 -99 -85.5t-120 -29.5q-51 0 -90 17l2 22q35 -6 70 -6t68 24.5t52 78.5
q39 93 39 249q0 161 -45 246q-49 88 -159 88q-41 0 -55 -6.5t-15 -26.5q-8 -148 -8 -421v-222v-213q0 -117 6 -270q2 -32 11 -43.5t38 -15.5l88 -13l-2 -22q-25 0 -104.5 3t-120.5 3q-33 0 -100.5 -3t-86.5 -3l2 22l60 9q35 3 45.5 16.5t13.5 60.5q11 137 11 492z" />
    <glyph glyph-name="Q" unicode="Q" horiz-adv-x="911" 
d="M977 -145l2 -11q-26 -35 -76.5 -58.5t-109.5 -23.5q-62 0 -124.5 34.5t-146.5 109.5q-68 65 -139 80q-64 12 -119.5 52.5t-102.5 112.5t-74.5 190.5t-27.5 270.5q0 198 44.5 349t139 242t228.5 91q97 0 171 -48t119.5 -135.5t68 -203.5t22.5 -258q0 -167 -26 -292.5
t-73 -201.5t-103.5 -117t-125.5 -54v-7q78 -23 135 -55q152 -80 236 -80q53 0 82 13zM461 1268h-2q-108 0 -170 -156q-68 -164 -68 -494q0 -149 19 -277.5t53 -201.5q33 -73 76 -106t102 -33q95 0 152 127q30 72 48.5 219.5t18.5 308.5q0 312 -69 475q-30 70 -66.5 104
t-93.5 34z" />
    <glyph glyph-name="R" unicode="R" horiz-adv-x="831" 
d="M147 514v303q0 285 -4 391q-1 19 -10.5 26.5t-28.5 10.5l-77 8l6 23q105 -6 162 -6q29 0 90.5 3t97.5 3q189 0 260 -80q66 -75 66 -209q0 -141 -75 -221.5t-196 -106.5v-6q262 -39 275 -305q2 -42 6.5 -115.5t5.5 -89.5q9 -129 84 -129q27 0 45 9l-8 -25q-37 -14 -86 -14
q-97 0 -142.5 56.5t-50.5 178.5q-1 29 -12 203q-4 64 -14 101.5t-35.5 65t-69 38t-114.5 10.5h-37v-191q0 -240 6 -366q3 -37 22 -47.5t95 -16.5l-7 -22q-19 0 -79.5 3t-94.5 3q-27 0 -94.5 -3t-101.5 -3v22q58 1 80.5 13t27.5 41q8 82 8 444zM285 879v-215h37q61 0 105 17
t69 42.5t39 68.5t18 83t4 96q0 113 -27 180q-44 96 -159 96q-40 0 -56 -4q-11 -3 -15 -9.5t-7 -25.5q-8 -100 -8 -329z" />
    <glyph glyph-name="S" unicode="S" horiz-adv-x="661" 
d="M57 322l23 10q-13 -151 50 -237.5t175 -86.5q83 0 133.5 61t50.5 187q0 147 -94 231q-134 116 -207 187q-120 117 -120 295q0 89 32 161.5t99 118t159 45.5q114 0 177 -67l26 78l21 -7q-27 -204 -27 -311h-25q7 132 -45.5 205.5t-130.5 73.5q-79 0 -126.5 -64t-47.5 -176
q0 -134 103 -229q50 -43 94 -82t80.5 -72t52.5 -47q106 -93 106 -260q0 -159 -88 -260t-243 -101q-130 0 -240 70q7 72 9 169t3 108z" />
    <glyph glyph-name="T" unicode="T" horiz-adv-x="817" 
d="M479 895v-313q0 -394 8 -496q2 -28 11 -40t32 -15q12 -2 45.5 -8t59.5 -7l-6 -22q-16 0 -98 3t-132 3q-45 0 -115 -3t-102 -3l-6 22q13 0 27.5 2t33 5t31.5 4q62 6 62 55q8 93 8 510v293q0 297 -2 354q-104 0 -151 -8t-65 -24.5t-34 -57.5q-11 -26 -19.5 -53.5t-19 -67.5
t-12.5 -49l-19 14q8 32 18 129.5t11 163.5q49 -16 301 -16h125q175 0 228.5 2.5t82.5 13.5q-13 -190 -10 -287l-22 -12q-11 107 -33 184q-8 29 -23 42.5t-65 21t-148 4.5q1 -43 0.5 -83t-1.5 -123.5t-1 -137.5z" />
    <glyph glyph-name="U" unicode="U" horiz-adv-x="915" 
d="M516 33h2q37 0 67 6t62 25t54 51t37.5 88.5t17.5 132.5q6 222 4 477.5t-10 343.5q-1 28 -5.5 45.5t-14.5 26t-18 11t-26 5.5l-70 8l-2 25q15 0 70 -4t80 -4q26 0 78.5 3.5t72.5 4.5l9 -25l-54 -6q-31 -3 -44.5 -19t-14.5 -54q-2 -52 -8 -413.5t-15 -461.5
q-10 -166 -100 -246q-84 -78 -227 -78q-204 0 -279 123q-28 48 -38.5 104t-10.5 171v811q0 36 -8.5 47t-30.5 14l-69 8v25q27 0 85.5 -4t88.5 -4q35 0 100 4t86 4l-2 -23l-66 -10q-21 -3 -27.5 -14t-8.5 -39q-7 -134 -8.5 -396.5t6.5 -500.5q5 -122 51 -184q59 -78 186 -78z
" />
    <glyph glyph-name="V" unicode="V" horiz-adv-x="837" 
d="M-41 1253v23q12 0 76.5 -3t97.5 -3q27 0 92 3t88 3l11 -23l-74 -10q-19 -3 -24 -9.5t-1 -23.5q14 -72 250 -1009q213 761 250 989q5 47 -31 53q-7 1 -76 10l-10 23q14 0 59 -3t74 -3q25 0 79 3t85 3l6 -23q-69 -2 -95 -23.5t-50 -101.5q-55 -176 -150.5 -529.5
t-160.5 -621.5q-44 7 -68 0q-165 706 -311 1201q-12 47 -33 60t-84 15z" />
    <glyph glyph-name="W" unicode="W" horiz-adv-x="1312" 
d="M1057 1253l6 23q14 0 67.5 -3t88.5 -3t81 3t68 3v-23q-73 -8 -94 -27t-43 -98q-94 -361 -273 -1151q-34 5 -73 0q-22 115 -107 495t-125 572q-214 -1050 -217 -1067q-18 6 -69 0q-41 220 -122.5 585t-133.5 573q-20 76 -42.5 95.5t-91.5 22.5v23q99 -6 181 -6q40 0 102 3
t82 3l8 -23l-76 -10q-19 -3 -24 -15.5t0 -35.5q34 -177 109.5 -521.5t93.5 -441.5q69 325 132 647t72 396q44 -8 86 0q4 -25 230 -1061q73 291 131.5 558.5t81.5 404.5q2 39 -5.5 52.5t-35.5 16.5z" />
    <glyph glyph-name="X" unicode="X" horiz-adv-x="806" 
d="M2 1253l-2 23q12 0 82.5 -3t107.5 -3q21 0 83 3t92 3v-23l-70 -10q-18 -3 -21.5 -12.5t5.5 -34.5q42 -114 165 -418q130 270 174 391q14 40 8.5 54t-38.5 20l-66 10l6 23q24 0 72 -3t64 -3q26 -1 53 0t58 3t46 3l6 -23q-78 -9 -99 -20q-30 -15 -65 -75q-5 -9 -12 -21
q-81 -150 -188 -398q159 -414 264 -647q27 -62 74 -67l65 -9v-22q-123 6 -196 6q-18 0 -183 -6l-2 22q69 6 84 15.5t6 36.5q-37 105 -206 530q-26 -59 -75.5 -170t-80.5 -183.5t-47 -117.5q-16 -38 -10.5 -60t18 -30t41.5 -12l64 -9l8 -22q-13 0 -61 3t-89 3q-33 0 -62 -1
t-61.5 -2.5t-54.5 -2.5l-4 22q62 5 90.5 23.5t58.5 77.5q105 197 248 520q-204 515 -227 559q-13 29 -37.5 40t-85.5 17z" />
    <glyph glyph-name="Y" unicode="Y" horiz-adv-x="753" 
d="M600 16l6 -22q-27 0 -109.5 3t-119.5 3q-46 0 -113.5 -3t-85.5 -3l-4 22q17 1 48.5 6.5t35.5 6.5q28 5 40 17.5t15 43.5q13 173 13 438q0 45 -15 99q-25 74 -97 252t-120 280q-27 60 -50.5 74.5t-90.5 19.5l-2 23q15 0 82 -3t100 -3q40 0 107 3t84 3v-23l-62 -8
q-22 -3 -26 -12t4 -31q12 -41 46 -131t91.5 -237.5t71.5 -184.5q144 365 198 535q9 32 5 43.5t-23 13.5q-17 2 -43.5 6.5t-30.5 5.5l4 23q5 0 55 -3t80 -3q19 0 63 3t72 3l5 -23q-57 -3 -85.5 -21t-52.5 -71q-87 -181 -213 -510q-16 -45 -16 -102q0 -383 6 -475
q2 -21 8.5 -30.5t28.5 -12.5q8 -2 22 -4t34.5 -5.5t33.5 -5.5z" />
    <glyph glyph-name="Z" unicode="Z" horiz-adv-x="786" 
d="M387 1270h10h207q82 0 141 6q-20 -79 -34 -105q-123 -261 -240 -546q-57 -136 -140.5 -328.5t-113.5 -265.5q114 -1 178.5 -0.5t121 4.5t81 8.5t46 17.5t29.5 26t19 38q32 70 51 170l19 -8q-1 -9 -11.5 -111t-11.5 -188q-39 6 -137 10q-53 2 -168 2h-250q-82 0 -135 -6
l-6 12q100 205 261 572t284 661h-185q-96 0 -147.5 -11.5t-70.5 -29.5t-33 -55q-9 -26 -43 -160l-19 12q16 192 8 287q49 -10 97 -12h192z" />
    <glyph glyph-name="bracketleft" unicode="[" horiz-adv-x="516" 
d="M453 -301l-13 -29q-194 8 -278 -8q4 262 4 877q0 745 -4 866q63 -14 291 0l-9 -29q-58 0 -133 -12q-17 -3 -24.5 -11t-10.5 -28q-18 -122 -18 -786q0 -709 14 -801q4 -35 56 -35z" />
    <glyph glyph-name="backslash" unicode="\" horiz-adv-x="585" 
d="M59 1382l50 27q52 -220 210 -795q45 -162 117 -433t92 -341l-49 -26q-99 394 -196 766q-62 237 -135 498t-89 304z" />
    <glyph glyph-name="bracketright" unicode="]" horiz-adv-x="516" 
d="M63 1370l15 29q183 -11 278 6q-6 -194 -6 -877q0 -745 6 -866q-38 7 -125 6.5t-168 -6.5l11 29q68 0 135 10q31 7 33 39q16 91 16 788q0 727 -12 809q-3 29 -60 29z" />
    <glyph glyph-name="asciicircum" unicode="^" horiz-adv-x="731" 
d="M653 705h-75l-213 489l-205 -489h-80l256 575h63z" />
    <glyph glyph-name="underscore" unicode="_" horiz-adv-x="1024" 
d="M1024 -227v-119h-1024v119h1024z" />
    <glyph glyph-name="grave" unicode="`" horiz-adv-x="933" 
d="M512 987l-16 -8q-102 134 -177 215q-34 38 -34 80q0 25 12 36t25 11q39 0 67 -57q8 -18 57 -130.5t66 -146.5z" />
    <glyph glyph-name="a" unicode="a" horiz-adv-x="673" 
d="M422 539v168q0 71 -27 110t-80 39q-120 0 -120 -123q0 -16 10 -61q5 -24 -10 -39q-17 -17 -48 -17q-29 0 -46 21t-17 61q0 66 71 126.5t181 60.5q129 0 188 -82q27 -42 27 -98v-574q0 -100 43 -100q45 0 68 110l20 -12q-11 -82 -51.5 -118t-95.5 -36q-105 0 -111 131
q-43 -62 -95 -96.5t-104 -34.5q-81 0 -130.5 64t-49.5 160q0 122 76 166q33 19 97 51t115 61t89 62zM188 233v-2q0 -76 28.5 -131t78.5 -55q83 0 119 105q10 23 10 71l-2 283q-27 -21 -78 -53t-78 -52q-25 -18 -38 -31.5t-26.5 -48.5t-13.5 -86z" />
    <glyph glyph-name="b" unicode="b" horiz-adv-x="745" 
d="M-12 1337l6 23q60 0 135.5 8t110.5 18q-9 -405 -9 -448v-186q63 68 115 100.5t105 32.5q118 0 180 -105q61 -109 61 -301q0 -504 -332 -504q-49 0 -96.5 15t-77.5 39q-12 -6 -38.5 -25.5t-36.5 -23.5l-13 4q0 8 2 182.5t2 318.5v498q0 227 -10 324q0 19 -21 24.5t-83 5.5
zM369 2h2q35 0 62.5 15t45.5 38t31.5 61t21 74.5t11.5 87.5t5 91.5t1 95.5q0 191 -49 285q-38 75 -109 75q-79 0 -141 -100q-9 -16 -12 -32.5t-6 -91.5t-3 -230q0 -47 0.5 -85t1 -64t2.5 -47t3 -32t3.5 -22.5t3.5 -14t4.5 -10.5t4.5 -10q37 -84 117 -84z" />
    <glyph glyph-name="c" unicode="c" horiz-adv-x="612" 
d="M567 199l21 -13q-56 -211 -244 -211q-149 0 -219 119q-72 123 -72 328q0 82 19.5 161t58 148t105 111.5t151.5 42.5q86 0 140.5 -48.5t54.5 -125.5q0 -41 -20 -63.5t-48 -22.5q-22 0 -35 8q-22 17 -16 53q10 40 10 55q0 117 -96 117q-85 0 -132.5 -117t-47.5 -307
q0 -177 49 -284q51 -119 149 -119q65 0 105 42.5t67 125.5z" />
    <glyph glyph-name="d" unicode="d" horiz-adv-x="757" 
d="M403 1337l11 21q152 10 239 28q-12 -288 -12 -468v-543q0 -231 8 -312q3 -23 10.5 -29.5t28.5 -8.5l64 2l-11 -25q-43 -2 -117.5 -11t-115.5 -18q0 15 1 60.5t1 58.5h-4q-94 -117 -197 -117q-112 0 -184 111q-72 123 -72 326q0 92 19 174.5t56.5 150.5t101.5 108t147 40
q87 0 135 -45q0 323 -6 467q-1 23 -20 28t-83 2zM195 430v-2q0 -86 16.5 -173t40.5 -128q24 -43 56.5 -65.5t64.5 -22.5q75 0 119 86q12 24 16 91t4 302q0 153 -1.5 189.5t-10.5 54.5q-9 20 -15.5 31t-20.5 29t-34.5 27t-46.5 9q-62 0 -105.5 -58.5t-63 -152.5t-19.5 -217z
" />
    <glyph glyph-name="e" unicode="e" horiz-adv-x="624" 
d="M578 190q-51 -215 -240 -215q-152 0 -227 134q-26 49 -42 130.5t-16 161.5q0 69 8.5 133.5t30.5 129.5t55 113t85.5 78t119.5 30q57 0 100.5 -23.5t67.5 -58.5t39 -80t19.5 -82t3.5 -72q0 -25 -6.5 -51.5t-16.5 -32.5q-39 -16 -242 -16h-120q-6 -118 10.5 -207.5
t42.5 -136.5q48 -96 133 -96q64 0 105 40.5t69 131.5zM342 858h-2q-35 0 -62.5 -35t-43 -92t-23.5 -115.5t-10 -117.5h98q80 0 119 8q37 6 37 86q0 138 -24 197q-29 69 -89 69z" />
    <glyph glyph-name="f" unicode="f" horiz-adv-x="401" 
d="M31 834v26h104v105q3 129 26 210.5t72 131.5q76 79 162 79q67 0 104.5 -33.5t37.5 -86.5q0 -29 -20 -47.5t-50 -18.5q-33 0 -33 39q0 115 -74 115q-27 0 -46 -16.5t-29.5 -48.5t-16 -63.5t-8.5 -76.5q-4 -102 4 -289h137l-8 -26l-129 -13q-2 -78 -2 -383q0 -258 4 -364
q0 -23 9 -33.5t30 -13.5q38 -9 72 -11l-4 -22q-16 0 -77 3t-103 3q-34 0 -90 -3t-70 -3v22q53 3 70 12.5t20 34.5q10 92 10 371v387z" />
    <glyph glyph-name="g" unicode="g" horiz-adv-x="653" 
d="M193 -61l14 -17q-107 -35 -107 -155q0 -88 66 -143.5t162 -55.5q131 0 194.5 70t63.5 190q0 59 -33 101.5t-84 43.5q-22 1 -118 0.5t-118 1.5q-99 3 -149 56q-47 44 -47 112q0 106 113 187q-70 85 -70 231q0 153 74.5 238.5t181.5 85.5q81 0 141 -47q49 38 76.5 52.5
t54.5 14.5t43.5 -14.5t16.5 -28.5q0 -20 -15 -37t-32 -22q-21 31 -66 31q-38 0 -59 -13q38 -50 56.5 -117t18.5 -129q0 -148 -72 -233.5t-180 -85.5q-92 0 -151 51q-35 -15 -55.5 -45t-20.5 -69q0 -33 28 -56.5t64 -23.5q41 0 133.5 2t161.5 2q70 0 119 -49q30 -32 49 -81.5
t19 -95.5q0 -163 -114.5 -265.5t-272.5 -102.5q-118 0 -192.5 58.5t-74.5 158.5q0 77 54 121q23 21 60 44.5t67 33.5zM326 854h-2q-39 0 -65.5 -41t-37 -103.5t-10.5 -142.5q0 -53 5.5 -100t18 -90t36 -68.5t55.5 -25.5q112 0 112 278q0 37 -1 62t-4 63.5t-10.5 64.5
t-19 51.5t-31.5 38.5t-46 13z" />
    <glyph glyph-name="h" unicode="h" horiz-adv-x="768" 
d="M25 1348l-2 18q123 0 231 20q-8 -131 -8 -425v-205q51 59 106 94t129 35q55 0 90.5 -22.5t51.5 -49.5q28 -43 28 -145q0 -463 2 -600q0 -32 13.5 -40.5t70.5 -11.5l-4 -22q-4 0 -57.5 3t-93.5 3t-93.5 -3t-56.5 -3l2 22q44 2 61.5 11.5t18.5 35.5q8 156 8 322
q0 300 -10 342q-19 96 -102 96q-47 0 -87 -26t-63 -72q-14 -31 -14 -86v-348q0 -127 4 -221q3 -31 20.5 -41t63.5 -13v-22q-16 0 -80 3t-90 3q-31 0 -79 -3t-58 -3v22q48 2 65.5 12.5t18.5 39.5q6 76 6 317v580q0 295 -6 348q-1 21 -18.5 28t-67.5 7z" />
    <glyph glyph-name="i" unicode="i" horiz-adv-x="376" 
d="M180 1245h2q72 0 72 -82q0 -33 -23.5 -54.5t-56.5 -21.5q-30 0 -50 21.5t-20 54.5q0 34 21.5 58t54.5 24zM358 16l-6 -22q-14 0 -70 3t-98 3q-41 0 -90.5 -3t-62.5 -3l2 22q54 1 72 12.5t20 41.5q8 74 8 274v223q0 68 -2 146.5t-2 83.5q-2 23 -19.5 28.5t-80.5 1.5v23
q12 1 57.5 5.5t67 7t56 8t60.5 12.5q0 -1 -4 -108t-4 -212v-221q0 -184 8 -274q1 -31 18.5 -40t69.5 -12z" />
    <glyph glyph-name="j" unicode="j" horiz-adv-x="364" 
d="M180 1245h2q35 0 53.5 -21.5t18.5 -60.5q0 -34 -22.5 -55t-53.5 -21q-30 0 -52 21.5t-22 54.5q0 35 21 58.5t55 23.5zM29 836l-9 20q159 9 240 29l4 -4q0 -38 -1 -265.5t-1 -506.5q0 -155 -14 -256q-18 -132 -90 -213q-29 -34 -68.5 -60.5t-66 -37.5t-35.5 -11
q-17 0 -33 12q-3 4 -9.5 11t-8.5 10l6 14q27 -6 55 -6q46 0 78 36.5t39 108.5q18 136 18 670q0 202 -8 422q-2 16 -9.5 21.5t-29.5 5.5h-57z" />
    <glyph glyph-name="k" unicode="k" horiz-adv-x="714" 
d="M14 1341v21q138 3 238 24q-8 -368 -8 -466v-449q44 14 128 127t126 199q11 24 -9 32l-75 9v18q143 0 284 12v-20q-60 -8 -94 -21.5t-61 -46.5q-150 -190 -178 -227q56 -115 153 -288.5t129 -211.5q26 -35 60 -35l53 -2v-22q-128 0 -240 -17q-39 77 -134 252.5t-107 198.5
q-10 17 -14.5 19.5t-20.5 -3.5q0 -284 6 -381q1 -26 21.5 -35t72.5 -12l-4 -22q-18 0 -77 3t-97 3q-49 0 -96 -3t-56 -3l2 22q48 1 67 12.5t21 37.5q11 96 11 385v471q0 323 -4 391q-2 14 -9 20t-30 6z" />
    <glyph glyph-name="l" unicode="l" horiz-adv-x="360" 
d="M12 1337v23q152 3 242 26q-8 -280 -8 -454v-486q0 -290 4 -380q1 -29 18.5 -38t69.5 -12l-4 -22q-19 0 -78.5 3t-93.5 3q-43 0 -89.5 -3t-54.5 -3l2 22q48 0 65.5 13t20.5 45q11 204 11 397v479q0 184 -6 355q0 21 -19 27t-80 5z" />
    <glyph glyph-name="m" unicode="m" horiz-adv-x="1187" 
d="M133 342v195q0 138 -4 260q-2 22 -19 27.5t-77 2.5l2 23q127 0 221 27q8 -66 8 -136q126 144 240 144q84 0 131 -62q14 -17 29 -75q64 66 101 91q67 46 138 46q57 0 94.5 -26t55.5 -62q20 -44 20 -107v-620q0 -31 16.5 -39.5t81.5 -14.5l-4 -22q-16 0 -74.5 3t-97.5 3
q-33 0 -84 -3t-61 -3l2 22q46 2 64.5 11.5t19.5 35.5q8 180 8 320v147q0 126 -0.5 155.5t-5.5 45.5q-9 40 -37 63t-72 23q-51 0 -90 -32.5t-57 -73.5q-14 -32 -14 -80v-379q0 -90 4 -184q3 -30 20 -39.5t72 -12.5l-8 -22q-10 0 -69.5 3t-92.5 3q-30 0 -81 -3t-64 -3v22
q50 5 66 14.5t17 43.5q7 73 7 268v197q0 153 -9 200q-23 78 -104 78q-88 0 -147 -112q-17 -38 -17 -93v-360q0 -115 8 -180q3 -33 18.5 -42t71.5 -14l-6 -22q-17 0 -78.5 3t-87.5 3q-22 0 -77.5 -3t-73.5 -3v22q53 3 70 14t20 48q6 92 6 264z" />
    <glyph glyph-name="n" unicode="n" horiz-adv-x="782" 
d="M33 -6v22q56 2 74.5 13.5t19.5 50.5q6 99 6 219v238q0 144 -4 258q-1 23 -17 28.5t-73 3.5v23q115 0 215 27q6 -68 10 -125q55 61 108.5 97t119.5 36q116 0 157 -99q19 -46 19 -96v-620q0 -30 16.5 -39.5t75.5 -14.5l-4 -22q-15 0 -70.5 3t-95.5 3q-41 0 -91.5 -3
t-56.5 -3l4 22q46 2 64.5 13t19.5 39q9 88 9 331q0 208 -2.5 261t-10.5 77q-23 80 -102 80q-97 0 -145 -98q-17 -35 -17 -82v-336q0 -180 4 -223q4 -35 20.5 -46t69.5 -16l-8 -22q-7 0 -72 3t-92 3q-52 0 -151 -6z" />
    <glyph glyph-name="o" unicode="o" horiz-adv-x="729" 
d="M377 885h2q67 0 119.5 -27.5t85 -71t54 -102.5t30 -118t8.5 -122q0 -213 -77.5 -341t-233.5 -128q-69 0 -124 27t-89.5 71t-57.5 104.5t-32 122t-9 128.5q0 85 18 163t54.5 145.5t101.5 108t150 40.5zM362 858h-2q-39 0 -66 -24.5t-50 -73.5q-43 -105 -43 -314
q0 -231 47 -340q43 -104 125 -104q41 0 71 25.5t52 87.5q34 100 34 319q0 210 -43 318q-21 52 -49.5 79t-75.5 27z" />
    <glyph glyph-name="p" unicode="p" horiz-adv-x="751" 
d="M0 -455l8 25q59 5 78 15t20 40q11 203 11 416v504q0 81 -2 165t-2 91q0 24 -16.5 30t-76.5 0l9 21q151 15 217 35q-4 -91 0 -142q63 72 112 106t109 34q108 0 174 -115q57 -99 57 -297q0 -104 -17 -190.5t-54 -157.5t-101 -110.5t-151 -39.5q-42 0 -77.5 17t-53.5 37
q-4 -281 4 -391q3 -37 22.5 -47t87.5 -15l-6 -22q-11 0 -67 2t-101 2q-74 0 -184 -13zM375 2h2q45 0 79 30t53 74.5t30 107t14.5 115.5t3.5 113q0 196 -43 289q-41 90 -115 90q-37 0 -75.5 -28.5t-63.5 -77.5q-14 -28 -14 -62q-3 -389 0 -510q0 -32 16 -59
q19 -35 50.5 -58.5t62.5 -23.5z" />
    <glyph glyph-name="q" unicode="q" horiz-adv-x="739" 
d="M637 449v-414q0 -243 12 -420q2 -17 21 -23.5t80 -7.5l-5 -26q-171 0 -364 -13l6 23q70 6 91.5 17t23.5 40q4 78 4 293v162q-92 -105 -195 -105q-90 0 -157 74q-101 113 -101 348q0 218 86 353t246 135q42 0 84.5 -13t69.5 -34l94 41h12q-8 -222 -8 -430zM385 858h-2
q-49 0 -87 -39.5t-59 -103t-31.5 -133.5t-10.5 -142q0 -223 65 -325q51 -78 123 -78t111 74q5 10 7.5 23.5t4.5 79t2 192.5q0 234 -6 325q-3 40 -21 70q-35 57 -96 57z" />
    <glyph glyph-name="r" unicode="r" horiz-adv-x="528" 
d="M133 317v215q0 191 -14 263q-6 28 -33 28h-51l4 21q160 20 201 33l6 -5q10 -92 10 -182h4q63 195 176 195q35 0 59.5 -22.5t24.5 -65.5t-21.5 -62.5t-41.5 -19.5q-42 0 -45 24q-6 31 -15 42.5t-30 11.5q-50 0 -88 -127q-17 -61 -17 -142q0 -399 4 -454q2 -31 20.5 -41
t90.5 -13l-4 -22q-15 0 -80 3t-103 3q-36 0 -87.5 -3t-67.5 -3l4 22q50 1 65.5 11t18.5 36q10 82 10 254z" />
    <glyph glyph-name="s" unicode="s" horiz-adv-x="546" 
d="M461 631l-19 -8q-7 97 -47 165t-108 68q-121 0 -121 -151q0 -73 51 -121q22 -20 98.5 -79.5t100.5 -80.5q88 -76 88 -191t-71 -186.5t-191 -71.5q-49 0 -99 13t-77 30q0 159 -3 242l21 8q0 -69 25 -137q21 -63 64 -94t97 -31q64 0 97 39.5t32 116.5q0 70 -47 114
q-23 24 -93.5 83.5t-86.5 74.5q-98 82 -98 207q0 102 60.5 173t166.5 71q35 0 72 -14.5t55 -32.5l16 59l17 -6q-8 -122 0 -260z" />
    <glyph glyph-name="t" unicode="t" horiz-adv-x="471" 
d="M258 860h199l-8 -26l-193 -13q-6 -210 -6 -356q0 -312 8 -377q4 -31 23.5 -48t48.5 -17q46 0 80.5 44.5t46.5 118.5h10l12 -39q-25 -80 -79 -126t-130 -46q-85 0 -125 43q-30 38 -30 115q0 95 4 348t4 340l-111 13l6 26h109v184q84 46 129 84l10 -2q0 -14 -4 -114
t-4 -152z" />
    <glyph glyph-name="u" unicode="u" horiz-adv-x="765" 
d="M430 842l-2 20q49 0 135 4q38 2 94 8q-6 -94 -6 -282v-268q0 -207 6 -269q3 -21 18 -25.5t73 -2.5v-21q-58 -4 -113 -12q-43 -4 -111 -17q1 25 -0.5 86t-1.5 78q-112 -164 -264 -164q-53 0 -87.5 20.5t-45.5 53.5q-14 32 -14 94q6 393 6 492q0 116 -4 170q-1 24 -18 30.5
t-75 6.5l7 20q41 0 131 4q66 6 98 13q-12 -90 -12 -420q-2 -287 4 -352q10 -74 74 -74q62 0 109 38.5t73 104.5q18 47 18 115v287q0 137 -4 227q-1 21 -17.5 27t-70.5 8z" />
    <glyph glyph-name="v" unicode="v" horiz-adv-x="618" 
d="M-18 842l-5 22q86 -4 148 -4q88 0 154 4l6 -22l-39 -4q-27 -3 -34 -12t-1 -33q28 -128 87 -343.5t69 -256.5q9 32 30.5 110.5t33.5 122.5t29.5 112t31.5 131t26 126q3 21 -1.5 28.5t-22.5 7.5l-66 11l4 22q17 0 59 -2t62 -2q25 0 63.5 2t53.5 2l-2 -22
q-54 -8 -71.5 -22.5t-35.5 -71.5q-76 -225 -219 -762q-16 0 -53 -11q-36 150 -103.5 400t-107.5 379q-19 58 -33.5 71.5t-62.5 16.5z" />
    <glyph glyph-name="w" unicode="w" horiz-adv-x="1038" 
d="M-18 842l4 22q86 -4 151 -4q74 0 164 4l6 -22l-51 -8q-26 -3 -32 -11t-1 -30q18 -84 74.5 -289.5t79.5 -298.5q29 97 168 655q25 -2 49 0q14 -58 92.5 -323.5t99.5 -348.5q139 492 152 598q3 23 -5.5 34t-35.5 14l-63 8l8 22q14 0 59 -2t76 -2q29 0 70 2t53 2l4 -20
q-61 -6 -80 -23t-43 -84q-27 -74 -96 -313.5t-121 -439.5q-12 0 -26.5 -4t-24.5 -5q-19 79 -91.5 319t-97.5 329q-35 -133 -94.5 -345t-81.5 -303q-9 2 -24.5 4.5t-24.5 4.5q-32 132 -109 415t-108 383q-10 35 -28 45t-72 15z" />
    <glyph glyph-name="x" unicode="x" horiz-adv-x="634" 
d="M-6 842v22q66 -4 145 -4q22 0 71 2t79 2v-22l-41 -4q-31 -2 -19 -31q20 -57 117 -272q106 211 127 272q5 17 1 21t-23 6l-50 8l5 22q22 0 61.5 -2t52.5 -2q22 0 67.5 2t59.5 2l-8 -22q-46 -3 -70.5 -13t-42.5 -36q-50 -76 -166 -293q180 -394 205 -434q16 -28 36 -37.5
t77 -12.5l-4 -22q-12 0 -62.5 3t-93.5 3q-24 0 -73 -3t-76 -3l-2 22l30 7q22 5 24 19.5t-5 27.5q-12 30 -33.5 79t-52.5 118t-51 114q-110 -218 -148 -313q-7 -23 -0.5 -32t27.5 -11l59 -9l-4 -22q-25 0 -71.5 3t-67.5 3q-29 0 -69.5 -3t-49.5 -3l4 22q53 3 79 21.5t62 75.5
q24 42 162 307q-106 252 -160 350q-23 45 -43 57.5t-65 14.5z" />
    <glyph glyph-name="y" unicode="y" horiz-adv-x="616" 
d="M-25 842l7 22q66 -4 143 -4q118 0 151 4l7 -22l-45 -6q-22 -3 -26.5 -10.5t-0.5 -30.5q18 -75 48 -183.5t67.5 -242.5t50.5 -181q38 142 78 317.5t53 260.5q7 42 -4.5 55.5t-50.5 16.5l-39 4l6 22q12 0 54 -2t65 -2q21 0 66.5 2t62.5 2l-4 -22q-54 -3 -73.5 -22
t-41.5 -89q-34 -115 -123 -466t-100 -394q-38 -146 -66 -217.5t-57.5 -99t-75.5 -27.5q-41 0 -64.5 26.5t-23.5 59.5q0 29 17.5 50.5t43.5 21.5q35 0 41 -27q12 -49 37 -49q57 0 137 368q-15 13 -36 82q-35 139 -103.5 377t-97.5 326q-14 44 -27.5 56.5t-42.5 17.5z" />
    <glyph glyph-name="z" unicode="z" horiz-adv-x="620" 
d="M86 629l-23 2q20 102 23 246q38 -17 152 -17h122q65 0 129 1t78 1q-3 -30 -32 -100q-113 -257 -332 -737q180 0 241 12q52 8 76.5 46t48.5 155l23 2q0 -2 -7 -50t-9.5 -71t-6 -62.5t-2.5 -66.5q-85 10 -374 10q-90 0 -152 -4l-6 10q93 158 213 421.5t170 403.5
q-132 0 -187 -8q-50 -5 -71.5 -20.5t-36.5 -59.5q-20 -50 -37 -114z" />
    <glyph glyph-name="braceleft" unicode="{" horiz-adv-x="528" 
d="M459 1415l-8 -33q-43 -1 -70.5 -7t-50.5 -20.5t-32 -40t-14 -65.5t3 -96q4 -41 10 -100t9 -90.5t5.5 -71.5t1.5 -74q-3 -117 -47 -182.5t-139 -104.5q96 -42 141 -105.5t45 -176.5q0 -101 -18 -301q-12 -105 -3.5 -164t42.5 -81.5t115 -23.5l10 -34q-38 -5 -84.5 10.5
t-89.5 48.5t-72 91.5t-29 129.5q0 51 7.5 209t7.5 217q0 94 -37.5 129t-116.5 37l-10 27q85 2 124 37.5t38 124.5q0 59 -7 204t-6 195q0 84 29 149.5t72.5 100.5t89 51t84.5 10z" />
    <glyph glyph-name="bar" unicode="|" horiz-adv-x="403" 
d="M160 1536h84v-2048h-84v2048z" />
    <glyph glyph-name="braceright" unicode="}" horiz-adv-x="528" 
d="M72 -360l8 32q107 3 143 49.5t23 184.5q-5 48 -13.5 123.5t-12.5 121.5t-3 89q1 118 44 184t140 106q-95 39 -139.5 104.5t-44.5 178.5q0 86 19 297q18 163 -11 216t-145 54l-8 33q38 5 84.5 -9.5t90 -47t72.5 -91.5t29 -132q0 -52 -9 -207t-9 -211q0 -95 38 -134.5
t115 -37.5l13 -27q-87 -3 -126.5 -38.5t-39.5 -125.5q0 -64 9 -209t9 -192q0 -69 -19.5 -126t-49.5 -92.5t-67.5 -58.5t-73 -30.5t-66.5 -3.5z" />
    <glyph glyph-name="asciitilde" unicode="~" horiz-adv-x="819" 
d="M674 580l59 -15q-13 -140 -57.5 -203t-122.5 -63q-80 0 -176 131q-36 48 -64.5 72t-60.5 24q-46 0 -70.5 -50t-40.5 -163l-57 11q29 270 178 270q85 0 166 -117q74 -108 137 -108q27 0 46 13.5t37 62.5t26 135z" />
    <glyph glyph-name="uni00A0" unicode="&#xa0;" horiz-adv-x="272" 
 />
    <glyph glyph-name="exclamdown" unicode="&#xa1;" horiz-adv-x="339" 
d="M174 -442h-2q-30 0 -62 43.5t-32 87.5q0 43 20 157q60 282 60 658h32q0 -365 58 -658q20 -95 20 -157q0 -47 -34 -89t-60 -42zM168 887h2q37 0 60.5 -27.5t23.5 -71.5q0 -41 -26 -68.5t-62 -27.5q-37 0 -61.5 27.5t-24.5 68.5q0 43 25 71t63 28z" />
    <glyph glyph-name="cent" unicode="&#xa2;" horiz-adv-x="694" 
d="M616 475l-4 -53q-30 -80 -93.5 -126.5t-127.5 -51.5l-4 -133l-43 -19l8 150q-132 3 -211 114q-69 103 -69 291q0 74 18.5 146t55 136.5t99 106.5t142.5 47l2 117l43 17l-8 -132q91 -1 141.5 -45t50.5 -114q0 -34 -16 -53t-43 -19q-20 0 -32.5 12t-6.5 31q0 4 4 25.5
t4 29.5q0 93 -104 107q-26 -551 -29 -770q78 0 130.5 43t80.5 145zM211 672v-2q0 -202 45 -287q41 -76 100 -90q24 609 29 766q-89 -13 -131.5 -120.5t-42.5 -266.5z" />
    <glyph glyph-name="sterling" unicode="&#xa3;" horiz-adv-x="694" 
d="M18 621l19 43q14 0 48.5 -1t64.5 -1q-17 224 0 323q22 134 116 213q73 59 168 59q99 0 151 -54t52 -120q0 -92 -70 -92q-20 0 -30 10q-13 17 -9 31q0 2 5.5 26.5t5.5 35.5q0 57 -29 95t-94 38q-140 0 -140 -256q0 -43 17 -309q79 0 163.5 2t88.5 2l-19 -43q-41 4 -227 4
q4 -216 -43 -326q-48 -108 -133 -199q467 6 485 21q8 8 13 29q21 70 30 104l27 6q-31 -149 -31 -270l-10 -6q-229 14 -434 14q-58 0 -115.5 -3t-71.5 -3l-6 12l35 62q21 18 36 35.5t37 54.5t34 96t12 135q0 124 -12 238q-94 0 -134 -6z" />
    <glyph glyph-name="currency" unicode="&#xa4;" horiz-adv-x="712" 
d="M356 868h-2q-85 0 -130.5 -73.5t-45.5 -190.5q0 -128 48 -197t124 -69q85 0 129.5 73.5t44.5 198.5q0 44 -7.5 85t-25 82t-52.5 66t-83 25zM358 909h2q40 0 83 -13.5t71 -37.5l90 117l47 -47l-102 -105q37 -37 57.5 -97t20.5 -124q0 -61 -20 -120t-58 -95l104 -111
l-45 -45l-92 121q-64 -53 -162 -53q-42 0 -89.5 12.5t-78.5 36.5l-92 -117l-45 45l103 109q-36 39 -56 97.5t-20 115.5q0 132 80 221l-105 109l47 47l90 -121q66 55 170 55z" />
    <glyph glyph-name="yen" unicode="&#xa5;" horiz-adv-x="694" 
d="M-12 1212l-2 23q26 0 80 -2t84 -2q74 0 172 4l4 -23q-58 -10 -70 -12q-17 -1 -21 -8.5t1 -26.5q14 -42 80 -227t92 -260q127 349 161 469q11 36 -7 48.5t-91 16.5l4 21q15 0 58.5 -1t74.5 -1q16 0 53.5 1t61.5 1l2 -21q-45 -2 -68 -18.5t-49 -69.5q-14 -29 -38.5 -92.5
t-44.5 -120t-52 -148t-45 -128.5q36 0 188 8l-12 -41l-64 1q-63 1 -116 1v-137q104 0 186 4l-14 -43q-60 6 -172 6q0 -110 6 -362q2 -22 9 -32t24 -11q81 -12 104 -13v-22q-189 6 -225 6q-26 0 -91 -2.5t-97 -3.5l-4 22q47 5 94 13q38 7 45 69q5 53 10 338q-152 -4 -178 -6
l8 43q94 -4 170 -4v135q-34 0 -74 0.5t-65 0.5t-49 -1l12 39q6 0 25 -1t58 -2.5t87 -2.5q-32 92 -99.5 267.5t-89.5 223.5q-23 54 -44 68t-72 16z" />
    <glyph glyph-name="brokenbar" unicode="&#xa6;" horiz-adv-x="403" 
d="M162 1382h84v-716h-84v716zM162 -358v716h84v-716h-84z" />
    <glyph glyph-name="section" unicode="&#xa7;" horiz-adv-x="690" 
d="M379 1196h2q65 0 113.5 -33t48.5 -96q0 -33 -18.5 -50.5t-39.5 -17.5q-25 0 -45 17q-16 10 -8 26q17 34 17 56q0 69 -93 69q-54 0 -84 -36.5t-30 -92.5q0 -59 39 -120q15 -23 126.5 -150t153.5 -193q60 -94 60 -213q0 -189 -93 -331q-65 -102 -118.5 -138t-114.5 -36
q-67 0 -119.5 37t-52.5 112q0 28 17 50t42 22q31 0 54 -35q12 -21 0 -33q-21 -21 -21 -51q0 -32 26 -53t74 -21q52 0 89 36.5t36 96.5q0 29 -13.5 61.5t-27 52.5t-39.5 54q-22 32 -114.5 146t-120.5 157q-62 97 -62 220q0 190 130 376q77 111 186 111zM567 262v2
q0 110 -67 221q-32 54 -138 176t-122 146q-32 51 -47.5 100.5t-8.5 124.5q-63 -94 -63 -213q0 -87 24.5 -156t81.5 -141q183 -227 197 -246q82 -108 84 -229q59 73 59 215z" />
    <glyph glyph-name="dieresis" unicode="&#xa8;" horiz-adv-x="933" 
d="M342 1235h2q31 0 47.5 -19t16.5 -53t-20 -53.5t-46 -19.5q-28 0 -48 17.5t-20 51.5t18.5 55t49.5 21zM598 1235h2q62 0 62 -68q0 -36 -20 -56.5t-44 -20.5q-30 0 -50 17t-20 52t19 55.5t51 20.5z" />
    <glyph glyph-name="copyright" unicode="&#xa9;" horiz-adv-x="1204" 
d="M600 1231h2q114 0 213.5 -45.5t169 -123t109 -184.5t39.5 -227q0 -160 -69.5 -292t-192 -207.5t-271.5 -75.5q-151 0 -272 76t-188.5 207.5t-67.5 291.5t69 293t190.5 210t268.5 77zM604 1192h-2q-205 0 -342 -153t-137 -388q0 -232 137 -386t346 -154q134 0 244 69.5
t172.5 193t62.5 275.5q0 150 -57.5 273t-168 196.5t-255.5 73.5zM844 541l18 -11q-21 -90 -87 -136t-152 -46q-70 0 -130.5 21.5t-93.5 60.5q-71 81 -71 223q0 163 100 252q83 72 211 72q94 0 152 -43q14 -12 18 2l18 35l13 -2q-11 -87 -4 -224h-17q-14 99 -49 148
q-44 59 -129 59q-80 0 -131 -67q-55 -78 -55 -221q0 -138 53 -207q26 -32 65.5 -50t79.5 -18q77 0 122 38t69 114z" />
    <glyph glyph-name="ordfeminine" unicode="&#xaa;" horiz-adv-x="520" 
d="M319 940v70q0 106 -83 106q-37 0 -59.5 -20.5t-22.5 -44.5q0 -25 8 -41q7 -28 -15 -41q-19 -13 -41 -13q-20 0 -31.5 13.5t-11.5 34.5q0 53 58.5 93t134.5 42q95 0 141 -52q25 -25 25 -71q0 -7 -1 -128t-1 -177q0 -58 33 -58q29 0 47 72l18 -8q-5 -46 -32.5 -80.5
t-77.5 -34.5q-85 0 -89 80v6q-87 -84 -153 -84q-60 0 -93.5 40.5t-33.5 98.5q0 30 13 58t34 35q212 87 233 104zM319 770v148q-107 -58 -126 -72q-24 -14 -33.5 -30t-9.5 -50q0 -109 81 -109q23 0 46.5 19.5t35.5 50.5q6 18 6 43z" />
    <glyph glyph-name="guillemotleft" unicode="&#xab;" horiz-adv-x="731" 
d="M360 764l17 -16q-19 -83 -62.5 -169t-83.5 -145q39 -61 58.5 -93.5t50 -98t37.5 -113.5l-15 -18q-41 116 -127 205t-157 114l8 16q78 29 153 116t121 202zM643 745l16 -16q-19 -76 -62 -157t-83 -138q38 -58 57 -88t50 -93t38 -108l-14 -16q-42 109 -129 193.5
t-156 107.5l9 14q78 28 152.5 110t121.5 191z" />
    <glyph glyph-name="logicalnot" unicode="&#xac;" horiz-adv-x="819" 
d="M659 238v307h-567v65h635v-372h-68z" />
    <glyph glyph-name="uni00AD" unicode="&#xad;" horiz-adv-x="489" 
d="M55 424l19 84q173 -5 362 0l-16 -84q-195 8 -365 0z" />
    <glyph glyph-name="registered" unicode="&#xae;" horiz-adv-x="266" 
d="M135 1270h2q54 0 89.5 -36.5t35.5 -92.5q0 -55 -36 -91t-91 -36q-53 0 -88 36t-35 91q0 57 35 93t88 36zM135 1257h-2q-43 0 -71.5 -32t-28.5 -86q0 -47 30 -79t74 -32q49 0 78 31.5t29 79.5q0 50 -30 84t-79 34zM74 1198l2 8h69q18 0 28.5 -9t10.5 -23q0 -11 -6 -17.5
t-11.5 -8.5t-16.5 -5v-2q27 -3 32 -17q6 -9 6 -26q0 -4 3 -8.5t6 -4.5q1 0 4.5 1t5.5 1l-2 -8q-12 -4 -21 -4q-26 0 -26 31q0 12 -4 20q-4 11 -17 11h-16v-43q3 -7 6 -7l12 -2l-2 -8h-63v8l10 2q8 0 8 5v53v47q0 6 -6 6h-12zM156 1169v2q0 12 -7 20.5t-16 8.5q-12 0 -12 -4
v-51h14q8 0 14.5 7t6.5 17z" />
    <glyph glyph-name="macron" unicode="&#xaf;" horiz-adv-x="933" 
d="M303 1065l14 78h316l-10 -78h-320z" />
    <glyph glyph-name="degree" unicode="&#xb0;" horiz-adv-x="473" 
d="M248 1296h2q74 0 118 -48.5t44 -125.5q0 -81 -50 -129.5t-126 -48.5q-72 0 -121 45.5t-49 122.5q0 86 52 135t130 49zM242 1274h-2q-53 1 -74 -45t-21 -105q0 -73 27 -112t68 -39q94 0 94 151q0 24 -4 47.5t-13.5 48t-28.5 39.5t-46 15z" />
    <glyph glyph-name="plusminus" unicode="&#xb1;" horiz-adv-x="806" 
d="M723 111v-66h-641v66h641zM436 176h-67v291h-287v65h287v277h67v-277h287v-65h-287v-291z" />
    <glyph glyph-name="two.superior" unicode="&#xb2;" horiz-adv-x="499" 
d="M461 1114l18 -10q-28 -113 -33 -186q-69 6 -272 6q-75 0 -100 -2l-4 10q16 38 20 49q86 71 148 156.5t77 152.5q15 69 15 129q0 137 -88 137q-42 0 -60 -25t-18 -81q0 -29 6 -53q3 -13 -10 -23t-31 -10q-23 0 -38 16.5t-15 42.5q0 62 53 109q25 23 63.5 37t77.5 14
q79 0 123 -47q51 -51 51 -143q0 -83 -55 -150q-86 -103 -235 -237q227 3 252 10q12 1 17 5.5t11 16.5q1 3 6.5 16.5t11 29.5t9.5 30z" />
    <glyph glyph-name="three.superior" unicode="&#xb3;" horiz-adv-x="499" 
d="M270 1583h2q73 0 120.5 -37.5t47.5 -107.5t-51 -111q-58 -37 -108 -51v-4q111 -11 159 -66q35 -38 35 -98q0 -88 -61 -141q-60 -60 -172 -60q-80 0 -128 34t-48 79q0 24 14 39.5t39 15.5q15 0 21.5 -9t9.5 -30q7 -50 35.5 -78t68.5 -28q50 0 76 45.5t26 126.5
q0 68 -28 109.5t-84 41.5q-26 0 -56 -10l-18 17l2 8q49 6 80 18q80 31 80 152q0 50 -22.5 85.5t-63.5 35.5q-84 0 -84 -95q0 -8 2 -21t2 -18q1 -17 -9.5 -24.5t-27.5 -7.5q-22 0 -35.5 15t-13.5 36q0 49 53.5 94t136.5 45z" />
    <glyph glyph-name="acute" unicode="&#xb4;" horiz-adv-x="933" 
d="M455 981l-19 10q19 32 71.5 141.5t65.5 131.5q13 27 34.5 44t41.5 17q29 0 29 -45q0 -39 -45 -88q-81 -90 -178 -211z" />
    <glyph glyph-name="mu" unicode="&#xb5;" horiz-adv-x="780" 
d="M770 147l23 -32q-43 -135 -166 -135q-32 0 -52.5 13t-30 39t-13 53.5t-3.5 66.5q-45 -80 -98.5 -126.5t-126.5 -45.5q-67 0 -100 45q8 -400 18 -504l-8 -13q-42 1 -87 18.5t-48 29.5q12 148 37 610q6 327 6 469q0 59 -2 138.5t-2 88.5q30 -2 149 15q-14 -72 -14 -418
q-2 -293 6 -336q9 -45 27.5 -66.5t52.5 -21.5q66 0 107.5 46.5t68.5 133.5q14 52 14 102v261q0 216 -4 282q54 0 140 14q-7 -110 -7 -282v-268q0 -219 7 -267q4 -32 26 -32q13 0 26 7.5t29.5 36.5t24.5 78z" />
    <glyph glyph-name="paragraph" unicode="&#xb6;" horiz-adv-x="833" 
d="M766 1104v-27l-100 -12q-15 -2 -21.5 -9.5t-10 -36t-3.5 -91.5v-639q0 -226 -15 -333t-57 -171q-27 -39 -73 -61.5t-93 -22.5q-72 0 -119 36t-47 109q0 46 27.5 76.5t56.5 30.5q46 0 60 -43q11 -22 0 -24q-1 0 -4 1q-18 9 -29 9q-25 0 -38 -20.5t-13 -47.5q0 -42 32 -70
t87 -28q30 0 52 7.5t45.5 33t38 70t24 123.5t9.5 188v172q-38 -18 -82.5 -31.5t-60.5 -13.5q-132 0 -218.5 111.5t-86.5 281.5q0 122 42.5 219.5t131.5 155.5q76 51 178 51h123q71 0 164 6z" />
    <glyph glyph-name="periodcentered" unicode="&#xb7;" horiz-adv-x="335" 
d="M170 547h2q36 0 59 -27t23 -69t-24.5 -69.5t-59.5 -27.5q-36 0 -62 27.5t-26 69.5q0 41 26 68.5t62 27.5z" />
    <glyph glyph-name="cedilla" unicode="&#xb8;" horiz-adv-x="933" 
d="M475 2h27q-5 -9 -25.5 -39t-30.5 -47q113 -29 113 -123q0 -63 -38 -99t-101 -36q-45 0 -86 31l10 20q32 -16 70 -16q67 0 67 69q0 35 -29 54.5t-77 21.5l-6 15q44 60 106 149z" />
    <glyph glyph-name="one.superior" unicode="&#xb9;" horiz-adv-x="499" 
d="M436 940v-20q-30 0 -85.5 2t-76.5 2q-32 0 -84 -2t-67 -2l-4 20l67 8q32 3 35 25q8 64 8 162v215q0 114 -6 163q-2 21 -12 21q-9 -2 -24.5 -4.5t-35.5 -5.5t-28 -4l4 26q154 18 205 37l4 -2q-4 -70 -4 -219v-234q0 -95 6 -155q4 -20 27 -23z" />
    <glyph glyph-name="ordmasculine" unicode="&#xba;" horiz-adv-x="544" 
d="M285 1139h2q104 0 156.5 -73t52.5 -187q0 -53 -13 -100t-39.5 -87t-73.5 -64t-110 -24q-61 0 -105.5 23.5t-67 63t-32.5 82t-10 89.5q0 51 13 98t40 88.5t75 66t112 24.5zM276 1116h-2q-27 0 -44 -13t-33 -42q-31 -67 -31 -191q0 -127 24 -184q25 -59 80 -59q54 0 80 61
q27 62 27 197q0 100 -21 168q-15 33 -32 48t-48 15z" />
    <glyph glyph-name="guillemotright" unicode="&#xbb;" horiz-adv-x="731" 
d="M377 111l-17 16q19 83 62 168.5t84 144.5q-39 61 -58.5 93.5t-50 98t-37.5 113.5l15 19q41 -116 127 -205.5t157 -114.5l-8 -16q-78 -29 -153.5 -115.5t-120.5 -201.5zM94 129l-16 16q19 76 62 157t83 138q-38 58 -57 88t-50 93t-38 108l14 16q42 -109 129 -193.5
t156 -107.5l-8 -14q-78 -28 -153 -110t-122 -191z" />
    <glyph glyph-name="onequarter" unicode="&#xbc;" horiz-adv-x="1040" 
d="M399 637v-21q-30 0 -85 2.5t-76 2.5q-32 0 -85 -2.5t-67 -2.5l-4 21l68 8q31 3 34 25q9 72 9 161v216q0 105 -7 163q-2 21 -12 21q-9 -2 -24.5 -4.5t-35.5 -5.5t-28 -4l4 26q154 18 205 37l4 -2q-4 -70 -4 -219v-234q0 -95 6 -155q4 -20 27 -23zM850 1319l31 -31
q-319 -576 -674 -1265l-29 32q399 734 672 1264zM502 291l-10 22q57 79 150 219t126 187q18 3 52.5 15t43.5 18l6 -4q-8 -148 -8 -353v-82q49 2 101 23l4 -14q-34 -34 -105 -46q0 -68 4 -182q-78 -10 -106 -18l-6 2q6 79 6 194q-152 -3 -258 19zM760 313q6 156 6 355
q-33 -49 -103 -159.5t-116 -178.5q42 -17 213 -17z" />
    <glyph glyph-name="onehalf" unicode="&#xbd;" horiz-adv-x="1040" 
d="M381 637v-21q-30 0 -85.5 2.5t-76.5 2.5q-33 0 -85 -2.5t-66 -2.5l-5 21l68 8q32 3 35 25q8 64 8 164v213q0 113 -6 163q-2 21 -12 21q-9 -2 -24.5 -4.5t-35.5 -5.5t-28 -4l4 26q153 18 204 37l5 -2q-5 -88 -5 -219v-232q0 -87 7 -157q4 -21 26 -23zM817 1319l31 -31
q-319 -576 -674 -1265l-29 30q380 699 672 1266zM961 281l18 -11q-28 -113 -33 -186q-75 6 -274 6h-103l-2 10q2 7 10 24t11 26q86 70 147.5 155.5t79.5 153.5q14 65 14 129q0 137 -90 137q-42 0 -59.5 -25t-17.5 -79q0 -10 6 -52q6 -16 -11 -26q-11 -11 -30 -11
q-23 0 -38.5 17t-15.5 45q0 54 54 108q56 50 141 50q81 0 127 -50q49 -52 49 -141q0 -85 -55 -149q-94 -112 -236 -240q223 3 252 10q19 3 27 23l12 29q12 28 17 47z" />
    <glyph glyph-name="threequarters" unicode="&#xbe;" horiz-adv-x="1040" 
d="M272 1280h2q73 0 120.5 -37.5t47.5 -109.5q0 -68 -51 -109q-58 -37 -108 -51v-4q111 -11 159 -66q35 -38 35 -98q0 -88 -61 -141q-60 -60 -174 -60q-80 0 -128 34t-48 79q0 24 14 39.5t39 15.5q15 0 21.5 -9t9.5 -30q7 -50 36 -78t70 -28q50 0 76 45.5t26 126.5
q0 68 -28.5 109.5t-85.5 41.5q-26 0 -56 -10l-18 16l2 9q50 6 82 18q80 31 80 152q0 50 -22.5 85t-63.5 35q-86 0 -86 -94q0 -7 2 -21t2 -18q1 -17 -9.5 -24.5t-27.5 -7.5q-22 0 -35.5 15t-13.5 36q0 49 54 94t138 45zM881 1319l30 -29q-283 -511 -673 -1265l-29 30
q475 881 672 1264zM516 291l-8 22q57 79 150 219t126 187q18 3 53 15t44 18l6 -4q-8 -152 -8 -353v-82q48 2 100 23l4 -14q-35 -35 -104 -46q0 -68 4 -182q-79 -10 -107 -18l-6 2q6 79 6 194q-150 -3 -260 19zM776 313q6 156 6 355q-33 -49 -103 -159.5t-116 -178.5
q43 -17 213 -17z" />
    <glyph glyph-name="questiondown" unicode="&#xbf;" horiz-adv-x="583" 
d="M295 479l18 10q71 -99 76 -182q3 -57 -29 -119q-20 -37 -86.5 -135t-80.5 -121q-41 -59 -41 -135q-1 -108 39 -161.5t108 -53.5q57 0 91 42t34 95t-21 93q-15 26 13 51q29 26 55 26q23 0 42 -26t19 -72q0 -99 -72 -167t-169 -68q-65 0 -113.5 26t-75.5 71.5t-40 99.5
t-13 118q0 42 12.5 81t24.5 58.5t35 52.5q11 16 52.5 74t65 93t37.5 59q29 47 33.5 91t-14.5 99zM307 887h2q34 0 58 -28t24 -71q0 -40 -26 -68t-60 -28q-37 0 -61.5 28t-24.5 71t24 69.5t64 26.5z" />
    <glyph glyph-name="Agrave" unicode="&#xc0;" horiz-adv-x="845" 
d="M881 16v-22q-27 2 -176 2q-126 0 -189 -2l2 22q64 9 80 18t12 34q-3 17 -94 450q-18 2 -139 2q-119 0 -137 -2q-80 -332 -88 -383q-11 -66 12 -89t110 -30l-4 -22q-15 0 -58.5 3t-74.5 3q-18 0 -84.5 -3t-93.5 -3v22q65 6 90 28.5t49 100.5q25 90 77.5 290.5t118.5 459.5
t75 293q12 59 14 80q84 12 113 24q39 -224 140 -670t132 -544q9 -29 21 -40.5t34 -14.5zM387 1141q-15 -65 -62 -262t-77 -324q20 -2 137 -2q113 0 123 2q-28 139 -121 586zM489 1370l-14 -14q-57 23 -145 57t-94 37q-14 6 -28 20t-20 27q-13 37 23 51q32 13 78 -16
q10 -8 94.5 -76.5t105.5 -85.5z" />
    <glyph glyph-name="Aacute" unicode="&#xc1;" horiz-adv-x="845" 
d="M881 16v-22q-27 2 -176 2q-126 0 -189 -2l2 22q64 9 80 18t12 34q-3 17 -94 450q-18 2 -139 2q-119 0 -137 -2q-80 -332 -88 -383q-11 -66 12 -89t110 -30l-4 -22q-15 0 -58.5 3t-74.5 3q-18 0 -84.5 -3t-93.5 -3v22q65 6 90 28.5t49 100.5q25 90 77.5 290.5t118.5 459.5
t75 293q12 59 14 80q84 12 113 24q39 -224 140 -670t132 -544q9 -29 21 -40.5t34 -14.5zM387 1141q-15 -65 -62 -262t-77 -324q20 -2 137 -2q113 0 123 2q-28 139 -121 586zM373 1356l-15 16q131 90 238 168q38 26 72 12q14 -8 17.5 -18.5t-3.5 -34.5q-15 -31 -59 -47
q-14 -4 -250 -96z" />
    <glyph glyph-name="Acircumflex" unicode="&#xc2;" horiz-adv-x="845" 
d="M881 16v-22q-27 2 -176 2q-126 0 -189 -2l2 22q64 9 80 18t12 34q-3 17 -94 450q-18 2 -139 2q-119 0 -137 -2q-80 -332 -88 -383q-11 -66 12 -89t110 -30l-4 -22q-15 0 -58.5 3t-74.5 3q-18 0 -84.5 -3t-93.5 -3v22q65 6 90 28.5t49 100.5q25 90 77.5 290.5t118.5 459.5
t75 293q12 59 14 80q84 12 113 24q39 -224 140 -670t132 -544q9 -29 21 -40.5t34 -14.5zM387 1141q-15 -65 -62 -262t-77 -324q20 -2 137 -2q113 0 123 2q-28 139 -121 586zM434 1522l17 4q13 -21 22.5 -33.5t34 -41t61 -57t82.5 -55.5l-10 -18q-133 54 -201 94
q-128 -66 -200 -94l-11 18q130 75 205 183z" />
    <glyph glyph-name="Atilde" unicode="&#xc3;" horiz-adv-x="845" 
d="M881 16v-22q-27 2 -176 2q-126 0 -189 -2l2 22q64 9 80 18t12 34q-3 17 -94 450q-18 2 -139 2q-119 0 -137 -2q-80 -332 -88 -383q-11 -66 12 -89t110 -30l-4 -22q-15 0 -58.5 3t-74.5 3q-18 0 -84.5 -3t-93.5 -3v22q65 6 90 28.5t49 100.5q25 90 77.5 290.5t118.5 459.5
t75 293q12 59 14 80q84 12 113 24q39 -224 140 -670t132 -544q9 -29 21 -40.5t34 -14.5zM387 1141q-15 -65 -62 -262t-77 -324q20 -2 137 -2q113 0 123 2q-28 139 -121 586zM272 1358l-24 4q21 158 119 158q18 0 36 -9t52 -36q59 -50 84 -50q23 0 38.5 31t18.5 74l22 -8
q-2 -30 -9 -56t-19 -50.5t-33 -39t-49 -14.5q-35 0 -98 51q-21 17 -29 23t-21.5 12t-27.5 6q-24 0 -40.5 -28.5t-19.5 -67.5z" />
    <glyph glyph-name="Adieresis" unicode="&#xc4;" horiz-adv-x="845" 
d="M881 16v-22q-27 2 -176 2q-126 0 -189 -2l2 22q64 9 80 18t12 34q-3 17 -94 450q-18 2 -139 2q-119 0 -137 -2q-80 -332 -88 -383q-11 -66 12 -89t110 -30l-4 -22q-15 0 -58.5 3t-74.5 3q-18 0 -84.5 -3t-93.5 -3v22q65 6 90 28.5t49 100.5q25 90 77.5 290.5t118.5 459.5
t75 293q12 59 14 80q84 12 113 24q39 -224 140 -670t132 -544q9 -29 21 -40.5t34 -14.5zM387 1141q-15 -65 -62 -262t-77 -324q20 -2 137 -2q113 0 123 2q-28 139 -121 586zM295 1497h2q28 0 44.5 -18t16.5 -45q0 -30 -20.5 -49t-44.5 -19q-26 0 -44 16t-18 48q0 29 18 48
t46 19zM571 1497h2q27 0 44.5 -18t17.5 -45q0 -30 -21.5 -49t-44.5 -19q-26 0 -43.5 16t-17.5 48q0 30 17 48.5t46 18.5z" />
    <glyph glyph-name="Aring" unicode="&#xc5;" horiz-adv-x="845" 
d="M881 16v-22q-27 2 -176 2q-126 0 -189 -2l2 22q64 9 80 18t12 34q-3 17 -94 450q-18 2 -139 2q-119 0 -137 -2q-80 -332 -88 -383q-11 -66 12 -89t110 -30l-4 -22q-15 0 -58.5 3t-74.5 3q-18 0 -84.5 -3t-93.5 -3v22q65 6 90 28.5t49 100.5q25 90 77.5 290.5t118.5 459.5
t75 293q12 59 14 80q84 12 113 24q39 -224 140 -670t132 -544q9 -29 21 -40.5t34 -14.5zM387 1141q-15 -65 -62 -262t-77 -324q20 -2 137 -2q113 0 123 2q-28 139 -121 586zM440 1597h2q57 0 92 -36t35 -97q0 -63 -39 -101t-98 -38t-95 36t-36 97q0 63 39.5 101t99.5 38z
M436 1575h-2q-36 0 -52.5 -35t-16.5 -78q0 -52 20 -83t51 -31q70 0 70 116q0 46 -16 78.5t-54 32.5z" />
    <glyph glyph-name="AE" unicode="&#xc6;" horiz-adv-x="1193" 
d="M600 1270h281q61 0 131 4q45 3 67 8q-6 -147 -2 -266h-20q-19 98 -31 133q-11 33 -27.5 50.5t-55.5 27.5t-109 10h-95q-12 0 -18.5 -7.5t-7.5 -27.5q-6 -94 -6 -299v-274h106q104 0 136 26t44 113h19q-17 -162 -2 -336h-21q-4 46 -10.5 70.5t-24 50t-52 35t-89.5 8.5
l-106 -4v-141q0 -270 8 -371q2 -25 8.5 -33.5t33.5 -13t95 -4.5q110 0 156 12.5t69 52.5q33 56 62 182l20 -10q-1 -28 -12.5 -135t-16.5 -139q-35 3 -118 6q-68 2 -205 2h-143q-39 0 -120.5 -3t-103.5 -3l2 22l82 13q21 3 28.5 18.5t8.5 63.5q4 164 4 342v139
q-27 -1 -123.5 -1.5t-126.5 -2.5q-98 -258 -153 -471q-13 -45 -2 -63t67 -27l60 -11l-2 -22q-21 0 -75.5 3t-84.5 3q-27 0 -85 -3t-83 -3v22q41 7 60.5 13t40 22.5t33.5 42.5t30 74q42 114 176 484t205 552q14 36 -15 39l-112 10l-4 23q34 0 118.5 -3t110.5 -3zM565 629v604
h-18q-93 -241 -215 -600q45 -4 233 -4z" />
    <glyph glyph-name="Ccedilla" unicode="&#xc7;" horiz-adv-x="800" 
d="M506 -23q-5 -8 -21.5 -32t-23.5 -37q108 -29 108 -117q0 -61 -36 -96t-97 -35q-45 0 -84 29l10 20q32 -16 66 -16q32 0 50 17.5t18 49.5q0 33 -29 52.5t-76 21.5l-4 12q14 22 45.5 66t44.5 63h-14q-234 0 -336 226q-68 149 -68 411q0 168 38.5 298t101.5 212
q66 89 143 130.5t176 41.5q139 0 203 -80l27 80l18 -10q-20 -185 -10 -319l-25 -7q-18 308 -205 308q-135 0 -213 -156q-42 -80 -68 -209t-26 -274q0 -125 17.5 -239.5t48.5 -184.5q40 -89 96 -131.5t135 -42.5q93 0 155.5 53.5t96.5 175.5l20 -16q-58 -243 -282 -265z" />
    <glyph glyph-name="Egrave" unicode="&#xc8;" horiz-adv-x="778" 
d="M27 1253v23q6 0 38.5 -1t55.5 -1q86 -4 125 -4h225q168 0 195 12q-7 -188 -2 -264l-23 -8q-11 93 -29 145q-13 32 -27.5 47.5t-51.5 25t-105 9.5h-111q-12 0 -16 -7t-6 -28q-6 -189 -6 -299v-223q13 0 48 -1t48 -1q103 0 140 28t40 111h23q-15 -192 -2 -336h-21
q-6 53 -13.5 80.5t-27.5 48t-51.5 27t-87.5 6.5q-71 0 -96 -2v-192q0 -242 10 -369q1 -22 11 -31.5t39.5 -13.5t96.5 -4q100 0 136.5 12t64.5 53q43 56 78 195l18 -8q-1 -31 -19 -146t-26 -145q-156 8 -299 8h-168q-16 0 -56 -1t-60 -1q-82 -4 -99 -4l2 24l80 11
q22 3 32 17.5t11 51.5q6 94 6 346v377q0 245 -4 377q0 24 -11 34.5t-36 12.5zM455 1368l-15 -14q-57 23 -145 57t-94 37q-13 6 -27 20t-20 27q-13 37 22 51q32 13 78 -16q9 -7 49.5 -40t88 -71t63.5 -51z" />
    <glyph glyph-name="Eacute" unicode="&#xc9;" horiz-adv-x="778" 
d="M27 1253v23q6 0 38.5 -1t55.5 -1q86 -4 125 -4h225q168 0 195 12q-7 -188 -2 -264l-23 -8q-11 93 -29 145q-13 32 -27.5 47.5t-51.5 25t-105 9.5h-111q-12 0 -16 -7t-6 -28q-6 -189 -6 -299v-223q13 0 48 -1t48 -1q103 0 140 28t40 111h23q-15 -192 -2 -336h-21
q-6 53 -13.5 80.5t-27.5 48t-51.5 27t-87.5 6.5q-71 0 -96 -2v-192q0 -242 10 -369q1 -22 11 -31.5t39.5 -13.5t96.5 -4q100 0 136.5 12t64.5 53q43 56 78 195l18 -8q-1 -31 -19 -146t-26 -145q-156 8 -299 8h-168q-16 0 -56 -1t-60 -1q-82 -4 -99 -4l2 24l80 11
q22 3 32 17.5t11 51.5q6 94 6 346v377q0 245 -4 377q0 24 -11 34.5t-36 12.5zM332 1354l-15 16q131 90 238 168q38 26 72 12q14 -8 17.5 -18.5t-3.5 -34.5q-15 -31 -59 -47q-14 -4 -250 -96z" />
    <glyph glyph-name="Ecircumflex" unicode="&#xca;" horiz-adv-x="778" 
d="M27 1253v23q6 0 38.5 -1t55.5 -1q86 -4 125 -4h225q168 0 195 12q-7 -188 -2 -264l-23 -8q-11 93 -29 145q-13 32 -27.5 47.5t-51.5 25t-105 9.5h-111q-12 0 -16 -7t-6 -28q-6 -189 -6 -299v-223q13 0 48 -1t48 -1q103 0 140 28t40 111h23q-15 -192 -2 -336h-21
q-6 53 -13.5 80.5t-27.5 48t-51.5 27t-87.5 6.5q-71 0 -96 -2v-192q0 -242 10 -369q1 -22 11 -31.5t39.5 -13.5t96.5 -4q100 0 136.5 12t64.5 53q43 56 78 195l18 -8q-1 -31 -19 -146t-26 -145q-156 8 -299 8h-168q-16 0 -56 -1t-60 -1q-82 -4 -99 -4l2 24l80 11
q22 3 32 17.5t11 51.5q6 94 6 346v377q0 245 -4 377q0 24 -11 34.5t-36 12.5zM383 1561l16 4q18 -27 32.5 -47t62 -63t106.5 -77l-10 -18q-133 54 -201 94q-125 -64 -201 -94l-10 18q130 75 205 183z" />
    <glyph glyph-name="Edieresis" unicode="&#xcb;" horiz-adv-x="778" 
d="M27 1253v23q6 0 38.5 -1t55.5 -1q86 -4 125 -4h225q168 0 195 12q-7 -188 -2 -264l-23 -8q-11 93 -29 145q-13 32 -27.5 47.5t-51.5 25t-105 9.5h-111q-12 0 -16 -7t-6 -28q-6 -189 -6 -299v-223q13 0 48 -1t48 -1q103 0 140 28t40 111h23q-15 -192 -2 -336h-21
q-6 53 -13.5 80.5t-27.5 48t-51.5 27t-87.5 6.5q-71 0 -96 -2v-192q0 -242 10 -369q1 -22 11 -31.5t39.5 -13.5t96.5 -4q100 0 136.5 12t64.5 53q43 56 78 195l18 -8q-1 -31 -19 -146t-26 -145q-156 8 -299 8h-168q-16 0 -56 -1t-60 -1q-82 -4 -99 -4l2 24l80 11
q22 3 32 17.5t11 51.5q6 94 6 346v377q0 245 -4 377q0 24 -11 34.5t-36 12.5zM252 1516h2q28 0 44.5 -18.5t16.5 -45.5q0 -30 -20.5 -49t-44.5 -19q-26 0 -44 16t-18 48q0 29 18 48.5t46 19.5zM528 1516h2q27 0 44.5 -18.5t17.5 -45.5q0 -30 -21.5 -49t-44.5 -19
q-26 0 -43.5 16t-17.5 48q0 30 17 49t46 19z" />
    <glyph glyph-name="Igrave" unicode="&#xcc;" horiz-adv-x="442" 
d="M150 414v475v282q-3 49 -23.5 61.5t-95.5 20.5v23q111 -6 182 -6q37 0 108.5 3t86.5 3l2 -23q-65 -1 -88 -14.5t-25 -46.5q-6 -117 -6 -291v-487q0 -135 6 -324q1 -42 23.5 -55.5t89.5 -18.5l-2 -22q-123 6 -195 6q-83 0 -182 -6l2 22q65 1 87 16t25 54q5 56 5 328z
M285 1358l-15 -15q-41 16 -97 38.5t-94 37.5t-48 19q-14 6 -27.5 20t-19.5 27q-13 37 22 51q32 13 78 -16q9 -7 49.5 -40t88 -71t63.5 -51z" />
    <glyph glyph-name="Iacute" unicode="&#xcd;" horiz-adv-x="442" 
d="M150 414v475v282q-3 49 -23.5 61.5t-95.5 20.5v23q111 -6 182 -6q37 0 108.5 3t86.5 3l2 -23q-65 -1 -88 -14.5t-25 -46.5q-6 -117 -6 -291v-487q0 -135 6 -324q1 -42 23.5 -55.5t89.5 -18.5l-2 -22q-123 6 -195 6q-83 0 -182 -6l2 22q65 1 87 16t25 54q5 56 5 328z
M158 1337l-15 17q131 90 238 168q38 26 72 12q14 -8 17.5 -18.5t-3.5 -34.5q-15 -31 -59 -47q-19 -6 -54.5 -20t-95 -37.5t-100.5 -39.5z" />
    <glyph glyph-name="Icircumflex" unicode="&#xce;" horiz-adv-x="442" 
d="M150 414v475v282q-3 49 -23.5 61.5t-95.5 20.5v23q111 -6 182 -6q37 0 108.5 3t86.5 3l2 -23q-65 -1 -88 -14.5t-25 -46.5q-6 -117 -6 -291v-487q0 -135 6 -324q1 -42 23.5 -55.5t89.5 -18.5l-2 -22q-123 6 -195 6q-83 0 -182 -6l2 22q65 1 87 16t25 54q5 56 5 328z
M215 1546l16 4q72 -111 201 -186l-10 -18q-133 54 -201 94q-125 -64 -201 -94l-10 18q131 76 205 182z" />
    <glyph glyph-name="Idieresis" unicode="&#xcf;" horiz-adv-x="442" 
d="M150 414v475v282q-3 49 -23.5 61.5t-95.5 20.5v23q111 -6 182 -6q37 0 108.5 3t86.5 3l2 -23q-65 -1 -88 -14.5t-25 -46.5q-6 -117 -6 -291v-487q0 -135 6 -324q1 -42 23.5 -55.5t89.5 -18.5l-2 -22q-123 6 -195 6q-83 0 -182 -6l2 22q65 1 87 16t25 54q5 56 5 328z
M86 1505h2q28 0 45 -18t17 -45q0 -30 -21 -49t-45 -19q-26 0 -43.5 16t-17.5 48q0 29 17.5 48t45.5 19zM362 1505h3q27 0 44 -18t17 -45q0 -30 -21.5 -49t-44.5 -19q-26 0 -43.5 16t-17.5 48q0 30 17 48.5t46 18.5z" />
    <glyph glyph-name="Eth" unicode="&#xd0;" horiz-adv-x="976" 
d="M37 643l2 49q11 0 29 -0.5t50.5 -1.5t61.5 -2v156q0 264 -4 362q0 36 -31 39l-88 8l2 23q12 0 79.5 -3t105.5 -3q29 0 85.5 3t92.5 3q123 0 198 -21t128 -65q170 -154 170 -500q0 -472 -250 -631q-101 -65 -260 -65q-13 0 -41.5 1t-44.5 1q-15 0 -48.5 2t-52.5 2
q-27 0 -95 -3t-75 -3v22l62 9q30 3 41.5 15t13.5 40q12 258 12 442v127q-82 3 -143 -6zM545 692l-4 -49l-79 2q-80 2 -140 2v-133q0 -378 6 -451q2 -23 15.5 -30.5t66.5 -7.5q189 0 260 149q90 176 90 504q0 143 -27 257.5t-69 178.5q-43 70 -103.5 101.5t-157.5 31.5
q-46 0 -58.5 -9t-12.5 -30q-10 -82 -10 -385v-137q124 0 223 6z" />
    <glyph glyph-name="Ntilde" unicode="&#xd1;" horiz-adv-x="929" 
d="M25 1253v23q4 0 24.5 -1t34.5 -1q50 -4 74 -4q73 0 116 4q4 -12 10.5 -28t13 -30t21 -44t25.5 -54q153 -326 420 -878q3 813 -8 907q-4 58 -19 75t-63 23l-60 8l7 23q13 0 69.5 -3t85.5 -3q33 0 87 3t67 3v-23q-10 -2 -25.5 -4.5t-27.5 -5t-21 -6.5q-17 -6 -24.5 -22.5
t-12.5 -55.5q-20 -195 -20 -686v-481q-36 -3 -68 -15q-55 124 -146.5 318t-210.5 444.5t-179 378.5q0 -914 8 -1018q6 -34 18 -49t33 -20q7 -1 44.5 -7t47.5 -8l-2 -22q-9 0 -74.5 3t-111.5 3q-42 0 -86.5 -3t-57.5 -3v22q30 0 76 11q25 7 34 30t13 64q9 64 17 359.5
t8 672.5q0 28 -21 61q-11 19 -49 29zM326 1360l-25 4q21 158 119 158q18 0 36 -9t52 -36q59 -50 84 -50q23 0 38.5 31t18.5 74l23 -8q-3 -41 -13.5 -74.5t-35.5 -59.5t-62 -26q-35 0 -98 51q-21 17 -29 23t-21.5 12t-27.5 6q-24 0 -40 -28.5t-19 -67.5z" />
    <glyph glyph-name="Ograve" unicode="&#xd2;" horiz-adv-x="911" 
d="M469 1294h2q88 0 156.5 -41t109.5 -104t68 -148.5t37 -165t10 -161.5q0 -355 -103 -527t-292 -172q-192 0 -295 171t-103 472q0 193 44.5 343t138.5 241.5t227 91.5zM457 1268h-2q-51 0 -90 -35.5t-72 -108.5q-32 -69 -52 -203t-20 -290q0 -150 20 -282t50 -204
q35 -77 76 -108t96 -31q56 0 93.5 31t72.5 117q28 69 44.5 202t16.5 285q0 314 -65 485q-57 142 -168 142zM535 1370l-15 -14q-57 23 -145 57t-94 37q-14 6 -28 20t-20 27q-13 37 23 51q32 13 78 -16q9 -7 49.5 -40t88 -71t63.5 -51z" />
    <glyph glyph-name="Oacute" unicode="&#xd3;" horiz-adv-x="911" 
d="M469 1294h2q88 0 156.5 -41t109.5 -104t68 -148.5t37 -165t10 -161.5q0 -355 -103 -527t-292 -172q-192 0 -295 171t-103 472q0 193 44.5 343t138.5 241.5t227 91.5zM457 1268h-2q-51 0 -90 -35.5t-72 -108.5q-32 -69 -52 -203t-20 -290q0 -150 20 -282t50 -204
q35 -77 76 -108t96 -31q56 0 93.5 31t72.5 117q28 69 44.5 202t16.5 285q0 314 -65 485q-57 142 -168 142zM371 1360l-15 16q131 90 238 168q38 26 72 12q14 -8 17.5 -18.5t-3.5 -34.5q-15 -31 -59 -47q-14 -4 -250 -96z" />
    <glyph glyph-name="Ocircumflex" unicode="&#xd4;" horiz-adv-x="911" 
d="M469 1294h2q88 0 156.5 -41t109.5 -104t68 -148.5t37 -165t10 -161.5q0 -355 -103 -527t-292 -172q-192 0 -295 171t-103 472q0 193 44.5 343t138.5 241.5t227 91.5zM457 1268h-2q-51 0 -90 -35.5t-72 -108.5q-32 -69 -52 -203t-20 -290q0 -150 20 -282t50 -204
q35 -77 76 -108t96 -31q56 0 93.5 31t72.5 117q28 69 44.5 202t16.5 285q0 314 -65 485q-57 142 -168 142zM463 1544l16 4q72 -111 201 -186l-10 -19q-128 52 -201 95q-133 -69 -201 -95l-10 19q131 76 205 182z" />
    <glyph glyph-name="Otilde" unicode="&#xd5;" horiz-adv-x="911" 
d="M469 1294h2q88 0 156.5 -41t109.5 -104t68 -148.5t37 -165t10 -161.5q0 -355 -103 -527t-292 -172q-192 0 -295 171t-103 472q0 193 44.5 343t138.5 241.5t227 91.5zM457 1268h-2q-51 0 -90 -35.5t-72 -108.5q-32 -69 -52 -203t-20 -290q0 -150 20 -282t50 -204
q35 -77 76 -108t96 -31q56 0 93.5 31t72.5 117q28 69 44.5 202t16.5 285q0 314 -65 485q-57 142 -168 142zM309 1366l-24 4q21 158 118 158q19 0 37 -9.5t52 -35.5q58 -49 83 -49q24 0 39.5 30.5t18.5 73.5l22 -8q-2 -30 -9 -56t-19 -50.5t-33 -39t-49 -14.5q-36 0 -99 51
q-2 2 -8.5 7t-8.5 7t-7.5 6t-7.5 5.5t-7 4.5t-7.5 4t-7 3t-7.5 2.5t-7.5 1t-8.5 0.5q-24 0 -40.5 -28.5t-19.5 -67.5z" />
    <glyph glyph-name="Odieresis" unicode="&#xd6;" horiz-adv-x="911" 
d="M469 1294h2q88 0 156.5 -41t109.5 -104t68 -148.5t37 -165t10 -161.5q0 -355 -103 -527t-292 -172q-192 0 -295 171t-103 472q0 193 44.5 343t138.5 241.5t227 91.5zM457 1268h-2q-51 0 -90 -35.5t-72 -108.5q-32 -69 -52 -203t-20 -290q0 -150 20 -282t50 -204
q35 -77 76 -108t96 -31q56 0 93.5 31t72.5 117q28 69 44.5 202t16.5 285q0 314 -65 485q-57 142 -168 142zM330 1518h2q28 0 44.5 -18.5t16.5 -45.5q0 -30 -20.5 -49t-44.5 -19q-26 0 -44 16t-18 48q0 29 18 48.5t46 19.5zM606 1518h2q27 0 44.5 -18.5t17.5 -45.5
q0 -30 -21.5 -49t-44.5 -19q-26 0 -43.5 16t-17.5 48q0 30 17 49t46 19z" />
    <glyph glyph-name="multiply" unicode="&#xd7;" horiz-adv-x="806" 
d="M721 723l-270 -279l270 -276l-45 -49l-273 276l-272 -276l-45 49l270 276l-270 275l45 49l272 -272l273 276z" />
    <glyph glyph-name="Oslash" unicode="&#xd8;" horiz-adv-x="915" 
d="M766 1309l35 -23q-10 -20 -31 -61t-31 -62q60 -92 88.5 -226.5t28.5 -262.5q0 -336 -107.5 -517.5t-295.5 -181.5q-152 0 -234 101q-40 -90 -63 -135l-39 22q16 28 41.5 80.5t29.5 60.5q-129 170 -129 521q0 188 46 337t142 240.5t230 91.5q141 0 236 -98q11 26 53 113z
M465 1268h-2q-95 0 -164 -135q-35 -72 -57.5 -215t-22.5 -295q0 -238 47 -396q60 131 124 275.5t140 316t119 268.5q-27 92 -71.5 136.5t-112.5 44.5zM453 6h2q58 0 100.5 28.5t75.5 108.5q30 69 47.5 207t17.5 314q0 240 -32 368q-72 -156 -199 -445.5t-182 -410.5
q71 -170 170 -170z" />
    <glyph glyph-name="Ugrave" unicode="&#xd9;" horiz-adv-x="915" 
d="M516 33h2q37 0 67 6t62 25t54 51t37.5 88.5t17.5 132.5q6 222 4 477.5t-10 343.5q-1 28 -5.5 45.5t-14.5 26t-18 11t-26 5.5l-70 8l-2 25q15 0 70 -4t80 -4q26 0 78.5 3.5t72.5 4.5l9 -25l-54 -6q-31 -3 -44.5 -19t-14.5 -54q-2 -52 -8 -413.5t-15 -461.5
q-10 -166 -100 -246q-84 -78 -227 -78q-204 0 -279 123q-28 48 -38.5 104t-10.5 171v811q0 36 -8.5 47t-30.5 14l-69 8v25q27 0 85.5 -4t88.5 -4q35 0 100 4t86 4l-2 -23l-66 -10q-21 -3 -27.5 -14t-8.5 -39q-7 -134 -8.5 -396.5t6.5 -500.5q5 -122 51 -184q59 -78 186 -78z
M578 1368l-15 -14q-57 23 -145 57t-94 37q-14 6 -28 20t-20 27q-13 37 23 51q32 13 78 -16q9 -7 49.5 -40t88 -71t63.5 -51z" />
    <glyph glyph-name="Uacute" unicode="&#xda;" horiz-adv-x="915" 
d="M516 33h2q37 0 67 6t62 25t54 51t37.5 88.5t17.5 132.5q6 222 4 477.5t-10 343.5q-1 28 -5.5 45.5t-14.5 26t-18 11t-26 5.5l-70 8l-2 25q15 0 70 -4t80 -4q26 0 78.5 3.5t72.5 4.5l9 -25l-54 -6q-31 -3 -44.5 -19t-14.5 -54q-2 -52 -8 -413.5t-15 -461.5
q-10 -166 -100 -246q-84 -78 -227 -78q-204 0 -279 123q-28 48 -38.5 104t-10.5 171v811q0 36 -8.5 47t-30.5 14l-69 8v25q27 0 85.5 -4t88.5 -4q35 0 100 4t86 4l-2 -23l-66 -10q-21 -3 -27.5 -14t-8.5 -39q-7 -134 -8.5 -396.5t6.5 -500.5q5 -122 51 -184q59 -78 186 -78z
M412 1356l-15 16q131 90 238 168q38 26 72 12q14 -8 17.5 -18.5t-3.5 -34.5q-15 -31 -59 -47q-14 -4 -250 -96z" />
    <glyph glyph-name="Ucircumflex" unicode="&#xdb;" horiz-adv-x="915" 
d="M516 33h2q37 0 67 6t62 25t54 51t37.5 88.5t17.5 132.5q6 222 4 477.5t-10 343.5q-1 28 -5.5 45.5t-14.5 26t-18 11t-26 5.5l-70 8l-2 25q15 0 70 -4t80 -4q26 0 78.5 3.5t72.5 4.5l9 -25l-54 -6q-31 -3 -44.5 -19t-14.5 -54q-2 -52 -8 -413.5t-15 -461.5
q-10 -166 -100 -246q-84 -78 -227 -78q-204 0 -279 123q-28 48 -38.5 104t-10.5 171v811q0 36 -8.5 47t-30.5 14l-69 8v25q27 0 85.5 -4t88.5 -4q35 0 100 4t86 4l-2 -23l-66 -10q-21 -3 -27.5 -14t-8.5 -39q-7 -134 -8.5 -396.5t6.5 -500.5q5 -122 51 -184q59 -78 186 -78z
M489 1556l17 5q18 -27 32.5 -47t62 -63t106.5 -77l-11 -18q-130 52 -200 94q-125 -64 -201 -94l-10 18q130 75 204 182z" />
    <glyph glyph-name="Udieresis" unicode="&#xdc;" horiz-adv-x="915" 
d="M516 33h2q37 0 67 6t62 25t54 51t37.5 88.5t17.5 132.5q6 222 4 477.5t-10 343.5q-1 28 -5.5 45.5t-14.5 26t-18 11t-26 5.5l-70 8l-2 25q15 0 70 -4t80 -4q26 0 78.5 3.5t72.5 4.5l9 -25l-54 -6q-31 -3 -44.5 -19t-14.5 -54q-2 -52 -8 -413.5t-15 -461.5
q-10 -166 -100 -246q-84 -78 -227 -78q-204 0 -279 123q-28 48 -38.5 104t-10.5 171v811q0 36 -8.5 47t-30.5 14l-69 8v25q27 0 85.5 -4t88.5 -4q35 0 100 4t86 4l-2 -23l-66 -10q-21 -3 -27.5 -14t-8.5 -39q-7 -134 -8.5 -396.5t6.5 -500.5q5 -122 51 -184q59 -78 186 -78z
M356 1509h2q28 0 45 -18t17 -45q0 -30 -21 -49t-45 -19q-26 0 -43.5 16t-17.5 48q0 29 17.5 48t45.5 19zM633 1509h2q27 0 44 -18t17 -45q0 -30 -21 -49t-44 -19q-26 0 -44 16t-18 48q0 30 17.5 48.5t46.5 18.5z" />
    <glyph glyph-name="Yacute" unicode="&#xdd;" horiz-adv-x="753" 
d="M600 16l6 -22q-27 0 -109.5 3t-119.5 3q-46 0 -113.5 -3t-85.5 -3l-4 22q17 1 48.5 6.5t35.5 6.5q28 5 40 17.5t15 43.5q13 173 13 438q0 45 -15 99q-25 74 -97 252t-120 280q-27 60 -50.5 74.5t-90.5 19.5l-2 23q15 0 82 -3t100 -3q40 0 107 3t84 3v-23l-62 -8
q-22 -3 -26 -12t4 -31q12 -41 46 -131t91.5 -237.5t71.5 -184.5q144 365 198 535q9 32 5 43.5t-23 13.5q-17 2 -43.5 6.5t-30.5 5.5l4 23q5 0 55 -3t80 -3q19 0 63 3t72 3l5 -23q-57 -3 -85.5 -21t-52.5 -71q-87 -181 -213 -510q-16 -45 -16 -102q0 -383 6 -475
q2 -21 8.5 -30.5t28.5 -12.5q8 -2 22 -4t34.5 -5.5t33.5 -5.5zM334 1356l-15 16q131 90 238 168q38 26 72 12q14 -8 17.5 -18.5t-3.5 -34.5q-15 -31 -59 -47q-14 -4 -250 -96z" />
    <glyph glyph-name="Thorn" unicode="&#xde;" horiz-adv-x="776" 
d="M150 406v442q0 95 -1 172t-1.5 118.5t-0.5 51.5q0 36 -22.5 48.5t-89.5 14.5l8 23q87 -6 166 -6q35 0 96 3t92 3l2 -23q-60 0 -78 -14.5t-20 -50.5q-4 -90 -2 -172q44 8 123 8q156 0 229 -94q72 -97 72 -264q0 -160 -78 -265q-89 -120 -254 -120q-51 0 -98 14
q0 -139 4 -211q2 -29 7.5 -39.5t31.5 -18t86 -10.5v-22q-21 0 -103.5 3t-111.5 3q-27 0 -94 -3t-90 -3l2 22q74 8 93.5 21t22.5 59q0 17 4.5 130.5t4.5 179.5zM293 831v-491q40 -31 90 -31q44 0 78.5 22t54.5 56q49 90 49 277q0 168 -45 249q-25 45 -61 63.5t-90 18.5
q-42 0 -56 -7.5t-16 -22.5q-4 -46 -4 -134z" />
    <glyph glyph-name="germandbls" unicode="&#xdf;" horiz-adv-x="854" 
d="M25 860h108v19q0 258 113 395q96 112 243 112q121 0 183.5 -70.5t62.5 -193.5q0 -53 -14 -96q-189 -103 -189 -262q0 -68 41 -125q22 -31 117 -131q37 -38 57.5 -64.5t38 -74.5t17.5 -105q0 -136 -79.5 -211.5t-182.5 -75.5q-71 0 -158 27q1 40 -0.5 85t-1.5 61l18 8
q21 -150 160 -150q61 0 102 42.5t41 129.5q0 86 -59 154q-85 100 -108 125q-52 54 -75.5 103.5t-23.5 115.5q0 78 46.5 157t129.5 146q23 48 23 131q0 104 -40 175t-122 71q-60 0 -101.5 -39t-65 -117.5t-34 -183.5t-10.5 -250v-414q0 -233 2 -276q0 -35 15 -46t67 -14
l-2 -24q-36 0 -92.5 3t-85.5 3q-30 0 -73.5 -3t-57.5 -3v24q53 3 69.5 13t18.5 37q10 98 10 413v340l-108 13v26z" />
    <glyph glyph-name="agrave" unicode="&#xe0;" horiz-adv-x="673" 
d="M422 539v168q0 71 -27 110t-80 39q-120 0 -120 -123q0 -16 10 -61q5 -24 -10 -39q-17 -17 -48 -17q-29 0 -46 21t-17 61q0 66 71 126.5t181 60.5q129 0 188 -82q27 -42 27 -98v-574q0 -100 43 -100q45 0 68 110l20 -12q-11 -82 -51.5 -118t-95.5 -36q-105 0 -111 131
q-43 -62 -95 -96.5t-104 -34.5q-81 0 -130.5 64t-49.5 160q0 122 76 166q33 19 97 51t115 61t89 62zM188 233v-2q0 -76 28.5 -131t78.5 -55q83 0 119 105q10 23 10 71l-2 283q-27 -21 -78 -53t-78 -52q-25 -18 -38 -31.5t-26.5 -48.5t-13.5 -86zM383 987l-16 -8
q-102 134 -177 215q-34 38 -34 80q0 25 12 36t25 11q39 0 67 -57q8 -18 57 -130.5t66 -146.5z" />
    <glyph glyph-name="aacute" unicode="&#xe1;" horiz-adv-x="673" 
d="M422 539v168q0 71 -27 110t-80 39q-120 0 -120 -123q0 -16 10 -61q5 -24 -10 -39q-17 -17 -48 -17q-29 0 -46 21t-17 61q0 66 71 126.5t181 60.5q129 0 188 -82q27 -42 27 -98v-574q0 -100 43 -100q45 0 68 110l20 -12q-11 -82 -51.5 -118t-95.5 -36q-105 0 -111 131
q-43 -62 -95 -96.5t-104 -34.5q-81 0 -130.5 64t-49.5 160q0 122 76 166q33 19 97 51t115 61t89 62zM188 233v-2q0 -76 28.5 -131t78.5 -55q83 0 119 105q10 23 10 71l-2 283q-27 -21 -78 -53t-78 -52q-25 -18 -38 -31.5t-26.5 -48.5t-13.5 -86zM315 981l-18 10
q19 32 71.5 141.5t65.5 131.5q13 27 34.5 44t41.5 17q29 0 29 -45q0 -39 -45 -88q-90 -100 -179 -211z" />
    <glyph glyph-name="acircumflex" unicode="&#xe2;" horiz-adv-x="673" 
d="M422 539v168q0 71 -27 110t-80 39q-120 0 -120 -123q0 -16 10 -61q5 -24 -10 -39q-17 -17 -48 -17q-29 0 -46 21t-17 61q0 66 71 126.5t181 60.5q129 0 188 -82q27 -42 27 -98v-574q0 -100 43 -100q45 0 68 110l20 -12q-11 -82 -51.5 -118t-95.5 -36q-105 0 -111 131
q-43 -62 -95 -96.5t-104 -34.5q-81 0 -130.5 64t-49.5 160q0 122 76 166q33 19 97 51t115 61t89 62zM188 233v-2q0 -76 28.5 -131t78.5 -55q83 0 119 105q10 23 10 71l-2 283q-27 -21 -78 -53t-78 -52q-25 -18 -38 -31.5t-26.5 -48.5t-13.5 -86zM330 1315l18 8
q13 -55 53.5 -146t104.5 -186l-12 -14q-5 6 -27.5 28.5t-35 36t-32 35.5t-35 43t-28.5 41q-56 -86 -154 -184l-12 14q108 159 160 324z" />
    <glyph glyph-name="atilde" unicode="&#xe3;" horiz-adv-x="673" 
d="M422 539v168q0 71 -27 110t-80 39q-120 0 -120 -123q0 -16 10 -61q5 -24 -10 -39q-17 -17 -48 -17q-29 0 -46 21t-17 61q0 66 71 126.5t181 60.5q129 0 188 -82q27 -42 27 -98v-574q0 -100 43 -100q45 0 68 110l20 -12q-11 -82 -51.5 -118t-95.5 -36q-105 0 -111 131
q-43 -62 -95 -96.5t-104 -34.5q-81 0 -130.5 64t-49.5 160q0 122 76 166q33 19 97 51t115 61t89 62zM188 233v-2q0 -76 28.5 -131t78.5 -55q83 0 119 105q10 23 10 71l-2 283q-27 -21 -78 -53t-78 -52q-25 -18 -38 -31.5t-26.5 -48.5t-13.5 -86zM188 1036l-24 6
q0 70 24.5 119t75.5 49q22 0 42 -10.5t50 -38.5q51 -51 78 -51q58 0 58 109l20 -7q0 -176 -102 -176q-40 0 -95 58q-6 5 -15.5 14t-14 12.5t-11.5 8.5t-13.5 6.5t-14.5 1.5q-26 0 -42 -27.5t-16 -73.5z" />
    <glyph glyph-name="adieresis" unicode="&#xe4;" horiz-adv-x="673" 
d="M422 539v168q0 71 -27 110t-80 39q-120 0 -120 -123q0 -16 10 -61q5 -24 -10 -39q-17 -17 -48 -17q-29 0 -46 21t-17 61q0 66 71 126.5t181 60.5q129 0 188 -82q27 -42 27 -98v-574q0 -100 43 -100q45 0 68 110l20 -12q-11 -82 -51.5 -118t-95.5 -36q-105 0 -111 131
q-43 -62 -95 -96.5t-104 -34.5q-81 0 -130.5 64t-49.5 160q0 122 76 166q33 19 97 51t115 61t89 62zM188 233v-2q0 -76 28.5 -131t78.5 -55q83 0 119 105q10 23 10 71l-2 283q-27 -21 -78 -53t-78 -52q-25 -18 -38 -31.5t-26.5 -48.5t-13.5 -86zM213 1235h2q31 0 47.5 -19
t16.5 -53t-20 -53.5t-46 -19.5q-28 0 -48 17.5t-20 51.5t18.5 55t49.5 21zM469 1235h2q61 0 61 -68q0 -36 -19.5 -56.5t-43.5 -20.5q-30 0 -50 17t-20 52t19 55.5t51 20.5z" />
    <glyph glyph-name="aring" unicode="&#xe5;" horiz-adv-x="673" 
d="M422 539v168q0 71 -27 110t-80 39q-120 0 -120 -123q0 -16 10 -61q5 -24 -10 -39q-17 -17 -48 -17q-29 0 -46 21t-17 61q0 66 71 126.5t181 60.5q129 0 188 -82q27 -42 27 -98v-574q0 -100 43 -100q45 0 68 110l20 -12q-11 -82 -51.5 -118t-95.5 -36q-105 0 -111 131
q-43 -62 -95 -96.5t-104 -34.5q-81 0 -130.5 64t-49.5 160q0 122 76 166q33 19 97 51t115 61t89 62zM188 233v-2q0 -76 28.5 -131t78.5 -55q83 0 119 105q10 23 10 71l-2 283q-27 -21 -78 -53t-78 -52q-25 -18 -38 -31.5t-26.5 -48.5t-13.5 -86zM342 1280h2q58 0 93.5 -36
t35.5 -97q0 -64 -38.5 -101.5t-98.5 -37.5q-61 0 -97 35t-36 96q0 65 39 103t100 38zM338 1257h-2q-36 0 -53 -34.5t-17 -79.5q0 -53 20.5 -83t53.5 -30q70 0 70 115q0 45 -17 78.5t-55 33.5z" />
    <glyph glyph-name="ae" unicode="&#xe6;" horiz-adv-x="976" 
d="M188 219v-2q0 -65 29 -119.5t78 -54.5q36 0 68 30t51 91q8 24 8 76v266q-157 -108 -160 -111q-23 -17 -36.5 -32.5t-25.5 -52.5t-12 -91zM932 182q-30 -103 -84.5 -154t-155.5 -51q-97 0 -157.5 51t-83.5 126q-20 -30 -32 -46.5t-37.5 -46t-47.5 -45.5t-53.5 -29
t-63.5 -12q-79 1 -124.5 64.5t-45.5 155.5q0 80 22 117.5t72 64.5q17 9 87 44t113.5 60.5t80.5 55.5v157q0 81 -29.5 122.5t-81.5 41.5q-55 0 -86 -30t-30 -93q0 -14 4 -37.5t4 -25.5q7 -23 -10 -37q-19 -19 -50 -19q-24 0 -42.5 19.5t-18.5 58.5q0 68 75.5 129.5
t178.5 61.5q74 0 120 -33.5t60 -89.5q65 123 189 123q57 0 100.5 -23.5t67.5 -58.5t39.5 -81t20 -83.5t3.5 -73.5q0 -65 -25 -76q-39 -13 -200 -18q-74 -3 -164 0q-7 -243 55 -354q45 -88 135 -88q71 0 110 40t66 124zM692 860h-2q-36 0 -64.5 -37.5t-44.5 -94.5t-24 -115.5
t-8 -110.5q41 -4 94 -4q86 0 127 10q37 6 37 70q0 35 -1 58t-4 60.5t-10.5 62.5t-19.5 50t-32.5 38t-47.5 13z" />
    <glyph glyph-name="ccedilla" unicode="&#xe7;" horiz-adv-x="608" 
d="M369 -23q-5 -9 -18.5 -27t-18.5 -26q114 -28 114 -123q0 -63 -38 -99t-101 -36q-50 0 -88 33l10 18q32 -16 70 -16q70 0 70 70q0 34 -30 53.5t-77 21.5l-6 15q60 84 82 114q-79 0 -129 28t-92 93q-68 103 -68 318q0 87 19.5 168t58 150.5t105.5 111t153 41.5t140.5 -51.5
t54.5 -131.5q0 -38 -20 -57.5t-48 -19.5q-24 0 -39 10q-22 15 -16 39q12 36 12 63q0 121 -94 121q-85 0 -133.5 -120t-48.5 -310q0 -180 47 -283q52 -114 151 -114q66 0 107 43.5t67 126.5l21 -15q-12 -43 -27 -75t-39.5 -62.5t-62.5 -49t-88 -22.5z" />
    <glyph glyph-name="egrave" unicode="&#xe8;" horiz-adv-x="624" 
d="M578 190q-51 -215 -240 -215q-152 0 -227 134q-26 49 -42 130.5t-16 161.5q0 69 8.5 133.5t30.5 129.5t55 113t85.5 78t119.5 30q57 0 100.5 -23.5t67.5 -58.5t39 -80t19.5 -82t3.5 -72q0 -25 -6.5 -51.5t-16.5 -32.5q-39 -16 -242 -16h-120q-6 -118 10.5 -207.5
t42.5 -136.5q48 -96 133 -96q64 0 105 40.5t69 131.5zM342 858h-2q-35 0 -62.5 -35t-43 -92t-23.5 -115.5t-10 -117.5h98q80 0 119 8q37 6 37 86q0 138 -24 197q-29 69 -89 69zM381 987l-16 -8q-102 134 -177 215q-34 38 -34 80q0 25 12 36t24 11q40 0 68 -57
q8 -18 57 -130.5t66 -146.5z" />
    <glyph glyph-name="eacute" unicode="&#xe9;" horiz-adv-x="624" 
d="M578 190q-51 -215 -240 -215q-152 0 -227 134q-26 49 -42 130.5t-16 161.5q0 69 8.5 133.5t30.5 129.5t55 113t85.5 78t119.5 30q57 0 100.5 -23.5t67.5 -58.5t39 -80t19.5 -82t3.5 -72q0 -25 -6.5 -51.5t-16.5 -32.5q-39 -16 -242 -16h-120q-6 -118 10.5 -207.5
t42.5 -136.5q48 -96 133 -96q64 0 105 40.5t69 131.5zM342 858h-2q-35 0 -62.5 -35t-43 -92t-23.5 -115.5t-10 -117.5h98q80 0 119 8q37 6 37 86q0 138 -24 197q-29 69 -89 69zM297 981l-18 10q19 32 71.5 141.5t65.5 131.5q13 27 34.5 44t41.5 17q28 0 28 -45
q0 -39 -45 -88q-81 -90 -178 -211z" />
    <glyph glyph-name="ecircumflex" unicode="&#xea;" horiz-adv-x="624" 
d="M578 190q-51 -215 -240 -215q-152 0 -227 134q-26 49 -42 130.5t-16 161.5q0 69 8.5 133.5t30.5 129.5t55 113t85.5 78t119.5 30q57 0 100.5 -23.5t67.5 -58.5t39 -80t19.5 -82t3.5 -72q0 -25 -6.5 -51.5t-16.5 -32.5q-39 -16 -242 -16h-120q-6 -118 10.5 -207.5
t42.5 -136.5q48 -96 133 -96q64 0 105 40.5t69 131.5zM342 858h-2q-35 0 -62.5 -35t-43 -92t-23.5 -115.5t-10 -117.5h98q80 0 119 8q37 6 37 86q0 138 -24 197q-29 69 -89 69zM332 1315l18 8q13 -55 53.5 -146t104.5 -186l-12 -14q-5 6 -27.5 28.5t-35 36t-32 35.5t-35 43
t-28.5 41q-56 -86 -154 -184l-12 14q108 159 160 324z" />
    <glyph glyph-name="edieresis" unicode="&#xeb;" horiz-adv-x="624" 
d="M578 190q-51 -215 -240 -215q-152 0 -227 134q-26 49 -42 130.5t-16 161.5q0 69 8.5 133.5t30.5 129.5t55 113t85.5 78t119.5 30q57 0 100.5 -23.5t67.5 -58.5t39 -80t19.5 -82t3.5 -72q0 -25 -6.5 -51.5t-16.5 -32.5q-39 -16 -242 -16h-120q-6 -118 10.5 -207.5
t42.5 -136.5q48 -96 133 -96q64 0 105 40.5t69 131.5zM342 858h-2q-35 0 -62.5 -35t-43 -92t-23.5 -115.5t-10 -117.5h98q80 0 119 8q37 6 37 86q0 138 -24 197q-29 69 -89 69zM209 1235h2q30 0 46.5 -19t16.5 -53t-19.5 -53.5t-45.5 -19.5q-28 0 -48 17.5t-20 51.5t18.5 55
t49.5 21zM465 1235h2q61 0 61 -68q0 -36 -19.5 -56.5t-43.5 -20.5q-30 0 -50 17t-20 52t19 55.5t51 20.5z" />
    <glyph glyph-name="igrave" unicode="&#xec;" horiz-adv-x="376" 
d="M356 16l-6 -22q-14 0 -70 3t-98 3q-41 0 -90.5 -3t-62.5 -3l2 22q54 1 72 12.5t20 41.5q8 74 8 274v223q0 68 -2 146.5t-2 83.5q-2 23 -19.5 28.5t-80.5 1.5v23q12 1 57.5 5.5t67 7t56 8t60.5 12.5q0 -1 -4 -108t-4 -212v-221q0 -184 8 -274q1 -31 18.5 -40t69.5 -12z
M233 987l-16 -8q-107 140 -176 215q-35 39 -35 80q0 25 12 36t25 11q40 0 68 -57q9 -20 57 -131.5t65 -145.5z" />
    <glyph glyph-name="iacute" unicode="&#xed;" horiz-adv-x="376" 
d="M356 16l-6 -22q-14 0 -70 3t-98 3q-41 0 -90.5 -3t-62.5 -3l2 22q54 1 72 12.5t20 41.5q8 74 8 274v223q0 68 -2 146.5t-2 83.5q-2 23 -19.5 28.5t-80.5 1.5v23q12 1 57.5 5.5t67 7t56 8t60.5 12.5q0 -1 -4 -108t-4 -212v-221q0 -184 8 -274q1 -31 18.5 -40t69.5 -12z
M176 981l-18 10q19 32 71.5 141.5t65.5 131.5q13 27 34.5 44t41.5 17q28 0 28 -45q0 -39 -45 -88q-81 -90 -178 -211z" />
    <glyph glyph-name="icircumflex" unicode="&#xee;" horiz-adv-x="376" 
d="M356 16l-6 -22q-14 0 -70 3t-98 3q-41 0 -90.5 -3t-62.5 -3l2 22q54 1 72 12.5t20 41.5q8 74 8 274v223q0 68 -2 146.5t-2 83.5q-2 23 -19.5 28.5t-80.5 1.5v23q12 1 57.5 5.5t67 7t56 8t60.5 12.5q0 -1 -4 -108t-4 -212v-221q0 -184 8 -274q1 -31 18.5 -40t69.5 -12z
M180 1315l19 8q13 -56 53.5 -146.5t103.5 -185.5l-12 -14q-5 6 -27.5 28.5t-35 36t-32 35.5t-35 43t-28.5 41q-58 -89 -153 -184l-13 14q108 159 160 324z" />
    <glyph glyph-name="idieresis" unicode="&#xef;" horiz-adv-x="376" 
d="M356 16l-6 -22q-14 0 -70 3t-98 3q-41 0 -90.5 -3t-62.5 -3l2 22q54 1 72 12.5t20 41.5q8 74 8 274v223q0 68 -2 146.5t-2 83.5q-2 23 -19.5 28.5t-80.5 1.5v23q12 1 57.5 5.5t67 7t56 8t60.5 12.5q0 -1 -4 -108t-4 -212v-221q0 -184 8 -274q1 -31 18.5 -40t69.5 -12z
M63 1235h3q30 0 46.5 -19t16.5 -53t-20 -53.5t-46 -19.5q-28 0 -47.5 17.5t-19.5 51.5t18 55t49 21zM319 1235h3q61 0 61 -68q0 -36 -20 -56.5t-44 -20.5q-30 0 -49.5 17t-19.5 52t18.5 55.5t50.5 20.5z" />
    <glyph glyph-name="eth" unicode="&#xf0;" horiz-adv-x="727" 
d="M131 1360l12 22q84 4 177.5 -46.5t150.5 -121.5q42 29 96 66t56 39l18 -43q-22 -11 -145 -94q83 -117 126.5 -286t43.5 -347q0 -281 -82.5 -427.5t-239.5 -146.5q-136 0 -213.5 116.5t-77.5 316.5q0 133 39.5 242t111.5 172t163 63q48 0 79 -17.5t66 -56.5
q-13 182 -88 324q-133 -87 -188 -127l-17 43q91 57 184 120q-45 78 -117 130.5t-155 58.5zM379 858q-91 3 -137 -125q-41 -99 -41 -311q0 -183 30 -285q19 -66 51 -100.5t74 -34.5q52 0 80.5 32t52.5 113q14 48 24.5 150t10.5 219q0 152 -16 215q-24 64 -52 95t-77 32z" />
    <glyph glyph-name="ntilde" unicode="&#xf1;" horiz-adv-x="782" 
d="M33 -6v22q56 2 74.5 13.5t19.5 50.5q6 99 6 219v238q0 144 -4 258q-1 23 -17 28.5t-73 3.5v23q115 0 215 27q6 -68 10 -125q55 61 108.5 97t119.5 36q116 0 157 -99q19 -46 19 -96v-620q0 -30 16.5 -39.5t75.5 -14.5l-4 -22q-15 0 -70.5 3t-95.5 3q-41 0 -91.5 -3
t-56.5 -3l4 22q46 2 64.5 13t19.5 39q9 88 9 331q0 208 -2.5 261t-10.5 77q-23 80 -102 80q-97 0 -145 -98q-17 -35 -17 -82v-336q0 -180 4 -223q4 -35 20.5 -46t69.5 -16l-8 -22q-7 0 -72 3t-92 3q-52 0 -151 -6zM242 1036l-25 6q0 70 24.5 119t75.5 49q41 0 93 -49
q51 -51 77 -51q58 0 58 109l20 -7q0 -176 -102 -176q-39 0 -94 58q-5 4 -15.5 13.5t-14.5 13t-11.5 8.5t-14 6.5t-14.5 1.5q-26 0 -41.5 -27.5t-15.5 -73.5z" />
    <glyph glyph-name="ograve" unicode="&#xf2;" horiz-adv-x="729" 
d="M377 885h2q67 0 119.5 -27.5t85 -71t54 -102.5t30 -118t8.5 -122q0 -213 -77.5 -341t-233.5 -128q-69 0 -124 27t-89.5 71t-57.5 104.5t-32 122t-9 128.5q0 85 18 163t54.5 145.5t101.5 108t150 40.5zM362 858h-2q-39 0 -66 -24.5t-50 -73.5q-43 -105 -43 -314
q0 -231 47 -340q43 -104 125 -104q41 0 71 25.5t52 87.5q34 100 34 319q0 210 -43 318q-21 52 -49.5 79t-75.5 27zM416 987l-17 -8q-107 140 -176 215q-35 39 -35 80q0 25 12 36t25 11q40 0 68 -57q8 -18 57 -130.5t66 -146.5z" />
    <glyph glyph-name="oacute" unicode="&#xf3;" horiz-adv-x="729" 
d="M377 885h2q67 0 119.5 -27.5t85 -71t54 -102.5t30 -118t8.5 -122q0 -213 -77.5 -341t-233.5 -128q-69 0 -124 27t-89.5 71t-57.5 104.5t-32 122t-9 128.5q0 85 18 163t54.5 145.5t101.5 108t150 40.5zM362 858h-2q-39 0 -66 -24.5t-50 -73.5q-43 -105 -43 -314
q0 -231 47 -340q43 -104 125 -104q41 0 71 25.5t52 87.5q34 100 34 319q0 210 -43 318q-21 52 -49.5 79t-75.5 27zM334 981l-19 10q19 32 72 141.5t66 131.5q13 28 34 44.5t41 16.5q29 0 29 -45q0 -39 -45 -88q-81 -90 -178 -211z" />
    <glyph glyph-name="ocircumflex" unicode="&#xf4;" horiz-adv-x="729" 
d="M377 885h2q67 0 119.5 -27.5t85 -71t54 -102.5t30 -118t8.5 -122q0 -213 -77.5 -341t-233.5 -128q-69 0 -124 27t-89.5 71t-57.5 104.5t-32 122t-9 128.5q0 85 18 163t54.5 145.5t101.5 108t150 40.5zM362 858h-2q-39 0 -66 -24.5t-50 -73.5q-43 -105 -43 -314
q0 -231 47 -340q43 -104 125 -104q41 0 71 25.5t52 87.5q34 100 34 319q0 210 -43 318q-21 52 -49.5 79t-75.5 27zM373 1315l18 8q13 -55 53.5 -146t104.5 -186l-12 -14q-5 6 -27.5 28.5t-35 36t-32 35.5t-35 43t-28.5 41q-56 -86 -154 -184l-12 14q108 159 160 324z" />
    <glyph glyph-name="otilde" unicode="&#xf5;" horiz-adv-x="729" 
d="M377 885h2q67 0 119.5 -27.5t85 -71t54 -102.5t30 -118t8.5 -122q0 -213 -77.5 -341t-233.5 -128q-69 0 -124 27t-89.5 71t-57.5 104.5t-32 122t-9 128.5q0 85 18 163t54.5 145.5t101.5 108t150 40.5zM362 858h-2q-39 0 -66 -24.5t-50 -73.5q-43 -105 -43 -314
q0 -231 47 -340q43 -104 125 -104q41 0 71 25.5t52 87.5q34 100 34 319q0 210 -43 318q-21 52 -49.5 79t-75.5 27zM219 1036l-24 6q0 70 24.5 119t75.5 49q22 0 42 -10.5t50 -38.5q51 -51 78 -51q57 0 57 109l21 -7q0 -176 -103 -176q-39 0 -94 58q-5 4 -15.5 13.5t-14.5 13
t-11.5 8.5t-14 6.5t-14.5 1.5q-26 0 -41.5 -27.5t-15.5 -73.5z" />
    <glyph glyph-name="odieresis" unicode="&#xf6;" horiz-adv-x="729" 
d="M377 885h2q67 0 119.5 -27.5t85 -71t54 -102.5t30 -118t8.5 -122q0 -213 -77.5 -341t-233.5 -128q-69 0 -124 27t-89.5 71t-57.5 104.5t-32 122t-9 128.5q0 85 18 163t54.5 145.5t101.5 108t150 40.5zM362 858h-2q-39 0 -66 -24.5t-50 -73.5q-43 -105 -43 -314
q0 -231 47 -340q43 -104 125 -104q41 0 71 25.5t52 87.5q34 100 34 319q0 210 -43 318q-21 52 -49.5 79t-75.5 27zM246 1235h2q30 0 46.5 -19t16.5 -53t-19.5 -53.5t-45.5 -19.5q-28 0 -48 17.5t-20 51.5t18.5 55t49.5 21zM502 1235h2q61 0 61 -68q0 -36 -19.5 -56.5
t-43.5 -20.5q-30 0 -50 17t-20 52t19 55.5t51 20.5z" />
    <glyph glyph-name="divide" unicode="&#xf7;" horiz-adv-x="806" 
d="M406 283h2q25 0 42 -16t17 -42q0 -25 -17 -41t-42 -16q-24 0 -42 16.5t-18 40.5q0 23 18 40.5t40 17.5zM406 610h-3q-21 0 -38 17.5t-17 40.5q0 24 18 40.5t42 16.5q25 0 42 -16t17 -41q0 -26 -17 -42t-44 -16zM86 479h635v-65h-635v65z" />
    <glyph glyph-name="oslash" unicode="&#xf8;" horiz-adv-x="733" 
d="M602 903l37 -18l-53 -92q49 -64 72.5 -158.5t23.5 -190.5q0 -91 -19 -173t-57 -149.5t-102 -107t-146 -39.5q-111 0 -176 68l-51 -94l-35 22l62 103q-52 61 -78.5 155.5t-26.5 188.5q0 124 34.5 227.5t110.5 171.5t181 68q103 0 180 -66zM199 424v-2q0 -114 28 -238
q151 286 277 547q-21 59 -50 93t-79 34q-75 0 -123 -98q-53 -115 -53 -336zM539 455v2q0 108 -23 221q-40 -81 -137 -271.5t-137 -271.5q19 -56 52.5 -94.5t74.5 -38.5q75 0 118 98q52 129 52 355z" />
    <glyph glyph-name="ugrave" unicode="&#xf9;" horiz-adv-x="765" 
d="M430 842l-2 20q49 0 135 4q38 2 94 8q-6 -94 -6 -282v-268q0 -207 6 -269q3 -21 18 -25.5t73 -2.5v-21q-58 -4 -113 -12q-43 -4 -111 -17q1 25 -0.5 86t-1.5 78q-112 -164 -264 -164q-53 0 -87.5 20.5t-45.5 53.5q-14 32 -14 94q6 393 6 492q0 116 -4 170q-1 24 -18 30.5
t-75 6.5l7 20q41 0 131 4q66 6 98 13q-12 -90 -12 -420q-2 -287 4 -352q10 -74 74 -74q62 0 109 38.5t73 104.5q18 47 18 115v287q0 137 -4 227q-1 21 -17.5 27t-70.5 8zM428 987l-16 -8q-107 140 -176 215q-35 39 -35 80q0 25 12 36t25 11q39 0 67 -57q8 -18 57 -130.5
t66 -146.5z" />
    <glyph glyph-name="uacute" unicode="&#xfa;" horiz-adv-x="765" 
d="M430 842l-2 20q49 0 135 4q38 2 94 8q-6 -94 -6 -282v-268q0 -207 6 -269q3 -21 18 -25.5t73 -2.5v-21q-58 -4 -113 -12q-43 -4 -111 -17q1 25 -0.5 86t-1.5 78q-112 -164 -264 -164q-53 0 -87.5 20.5t-45.5 53.5q-14 32 -14 94q6 393 6 492q0 116 -4 170q-1 24 -18 30.5
t-75 6.5l7 20q41 0 131 4q66 6 98 13q-12 -90 -12 -420q-2 -287 4 -352q10 -74 74 -74q62 0 109 38.5t73 104.5q18 47 18 115v287q0 137 -4 227q-1 21 -17.5 27t-70.5 8zM360 981l-18 10q19 32 71.5 141.5t65.5 131.5q13 27 34.5 44t41.5 17q29 0 29 -45q0 -39 -45 -88
q-90 -100 -179 -211z" />
    <glyph glyph-name="ucircumflex" unicode="&#xfb;" horiz-adv-x="765" 
d="M430 842l-2 20q49 0 135 4q38 2 94 8q-6 -94 -6 -282v-268q0 -207 6 -269q3 -21 18 -25.5t73 -2.5v-21q-58 -4 -113 -12q-43 -4 -111 -17q1 25 -0.5 86t-1.5 78q-112 -164 -264 -164q-53 0 -87.5 20.5t-45.5 53.5q-14 32 -14 94q6 393 6 492q0 116 -4 170q-1 24 -18 30.5
t-75 6.5l7 20q41 0 131 4q66 6 98 13q-12 -90 -12 -420q-2 -287 4 -352q10 -74 74 -74q62 0 109 38.5t73 104.5q18 47 18 115v287q0 137 -4 227q-1 21 -17.5 27t-70.5 8zM375 1315l18 8q13 -55 53.5 -146t104.5 -186l-12 -14q-5 6 -27.5 28.5t-35 36t-32 35.5t-35 43
t-28.5 41q-56 -86 -154 -184l-12 14q108 159 160 324z" />
    <glyph glyph-name="udieresis" unicode="&#xfc;" horiz-adv-x="765" 
d="M430 842l-2 20q49 0 135 4q38 2 94 8q-6 -94 -6 -282v-268q0 -207 6 -269q3 -21 18 -25.5t73 -2.5v-21q-58 -4 -113 -12q-43 -4 -111 -17q1 25 -0.5 86t-1.5 78q-112 -164 -264 -164q-53 0 -87.5 20.5t-45.5 53.5q-14 32 -14 94q6 393 6 492q0 116 -4 170q-1 24 -18 30.5
t-75 6.5l7 20q41 0 131 4q66 6 98 13q-12 -90 -12 -420q-2 -287 4 -352q10 -74 74 -74q62 0 109 38.5t73 104.5q18 47 18 115v287q0 137 -4 227q-1 21 -17.5 27t-70.5 8zM258 1235h2q31 0 47.5 -19t16.5 -53t-20 -53.5t-46 -19.5q-28 0 -48 17.5t-20 51.5t18.5 55t49.5 21z
M514 1235h2q62 0 62 -68q0 -36 -20 -56.5t-44 -20.5q-30 0 -50 17t-20 52t19 55.5t51 20.5z" />
    <glyph glyph-name="yacute" unicode="&#xfd;" horiz-adv-x="616" 
d="M-25 842l7 22q66 -4 143 -4q118 0 151 4l7 -22l-45 -6q-22 -3 -26.5 -10.5t-0.5 -30.5q18 -75 48 -183.5t67.5 -242.5t50.5 -181q38 142 78 317.5t53 260.5q7 42 -4.5 55.5t-50.5 16.5l-39 4l6 22q12 0 54 -2t65 -2q21 0 66.5 2t62.5 2l-4 -22q-54 -3 -73.5 -22
t-41.5 -89q-34 -115 -123 -466t-100 -394q-38 -146 -66 -217.5t-57.5 -99t-75.5 -27.5q-41 0 -64.5 26.5t-23.5 59.5q0 29 17.5 50.5t43.5 21.5q35 0 41 -27q12 -49 37 -49q57 0 137 368q-15 13 -36 82q-35 139 -103.5 377t-97.5 326q-14 44 -27.5 56.5t-42.5 17.5zM315 981
l-18 10q19 32 71.5 141.5t65.5 131.5q13 27 34.5 44t41.5 17q29 0 29 -45q0 -39 -45 -88q-90 -100 -179 -211z" />
    <glyph glyph-name="thorn" unicode="&#xfe;" horiz-adv-x="735" 
d="M-6 -455l6 27q56 5 73.5 15t18.5 40q10 185 10 416v985q0 163 -4 281q0 10 -3.5 15t-14 8t-29.5 3h-51l6 25q60 0 129 7.5t103 18.5q-7 -71 -7 -632q120 131 222 131q105 0 159 -88q32 -49 52 -133t20 -185q0 -145 -31 -255.5t-102.5 -179.5t-177.5 -69q-95 0 -144 58
q0 -321 4 -395q1 -37 21 -48t88 -14l-8 -22q-9 0 -68.5 2t-105.5 2q-90 0 -166 -13zM371 2h2q164 0 164 459q0 203 -52 293q-39 67 -102 67q-92 0 -135 -106q-17 -49 -17 -80q-3 -389 -2 -475q0 -44 19 -80q45 -78 123 -78z" />
    <glyph glyph-name="ydieresis" unicode="&#xff;" horiz-adv-x="616" 
d="M-25 842l7 22q66 -4 143 -4q118 0 151 4l7 -22l-45 -6q-22 -3 -26.5 -10.5t-0.5 -30.5q18 -75 48 -183.5t67.5 -242.5t50.5 -181q38 142 78 317.5t53 260.5q7 42 -4.5 55.5t-50.5 16.5l-39 4l6 22q12 0 54 -2t65 -2q21 0 66.5 2t62.5 2l-4 -22q-54 -3 -73.5 -22
t-41.5 -89q-34 -115 -123 -466t-100 -394q-38 -146 -66 -217.5t-57.5 -99t-75.5 -27.5q-41 0 -64.5 26.5t-23.5 59.5q0 29 17.5 50.5t43.5 21.5q35 0 41 -27q12 -49 37 -49q57 0 137 368q-15 13 -36 82q-35 139 -103.5 377t-97.5 326q-14 44 -27.5 56.5t-42.5 17.5z
M211 1235h2q30 0 46.5 -19t16.5 -53t-19.5 -53.5t-45.5 -19.5q-28 0 -48 17.5t-20 51.5t18.5 55t49.5 21zM467 1235h2q61 0 61 -68q0 -36 -19.5 -56.5t-43.5 -20.5q-30 0 -50 17t-20 52t19 55.5t51 20.5z" />
    <glyph glyph-name="dotlessi" unicode="&#x131;" horiz-adv-x="376" 
d="M356 16l-6 -22q-14 0 -70 3t-98 3q-41 0 -90.5 -3t-62.5 -3l2 22q54 1 72 12.5t20 41.5q8 74 8 274v223q0 68 -2 146.5t-2 83.5q-2 23 -19.5 28.5t-80.5 1.5v23q12 1 57.5 5.5t67 7t56 8t60.5 12.5q0 -1 -4 -108t-4 -212v-221q0 -184 8 -274q1 -31 18.5 -40t69.5 -12z
" />
    <glyph glyph-name="Lslash" unicode="&#x141;" horiz-adv-x="772" 
d="M61 1253v23q13 0 85.5 -3t105.5 -3q15 0 180 6l6 -23l-80 -8q-21 -1 -29 -12t-10 -37q-6 -123 -6 -426v-88q21 15 80 56.5t76 54.5l31 -27q-118 -76 -187 -125v-121q0 -408 6 -463q1 -17 22 -22.5t83 -5.5q127 0 170.5 12.5t67.5 58.5q31 56 61 185l22 -9
q-8 -36 -30 -284q-108 8 -172 8h-299q-38 0 -121.5 -3t-89.5 -3v22l80 11q24 3 35 14t14 35q10 110 10 413v72q-84 -58 -104 -74l-31 27q11 6 135 90v262q0 252 -4 338q0 23 -9 31.5t-36 11.5z" />
    <glyph glyph-name="lslash" unicode="&#x142;" horiz-adv-x="380" 
d="M45 1346l2 22q128 2 229 25q-8 -288 -8 -455v-119q13 10 34.5 24.5t37 26t27.5 21.5l28 -31q-9 -5 -127 -86v-328q0 -312 6 -383q1 -28 18 -36.5t68 -10.5l-6 -22q-17 0 -73 3t-93 3q-45 0 -92 -3t-55 -3l2 22q50 2 67.5 13t18.5 43q10 195 10 399v227q-36 -24 -94 -67
l-25 28q27 18 119 82v215q0 243 -4 357q0 23 -15.5 29.5t-74.5 3.5z" />
    <glyph glyph-name="OE" unicode="&#x152;" horiz-adv-x="1374" 
d="M219 618v-2q0 -323 103 -487q75 -115 182 -115q73 0 121 29.5t77 91.5t37.5 149t8.5 355q0 231 -4 303.5t-15 108.5q-12 40 -27 72t-40 67t-64 54.5t-88 19.5q-55 0 -95 -21.5t-73 -71.5q-54 -81 -88.5 -227t-34.5 -326zM817 1270h246q27 0 70 1t59 1q45 0 70 10
q-9 -125 -5 -266h-22q-16 92 -33 143q-11 32 -27 47t-52.5 23t-106.5 8h-101q-12 0 -16 -7.5t-6 -29.5q-6 -95 -6 -299v-217q46 -4 112 -4q100 0 133 24.5t42 106.5h18q-13 -169 -2 -326h-21q-6 50 -12.5 75t-24 47.5t-49 30t-84.5 7.5q-66 0 -112 -4v-192q0 -295 8 -369
q1 -23 8 -31.5t34.5 -13t94.5 -4.5q108 0 153.5 12.5t69.5 52.5q27 47 64 180l20 -10q-2 -16 -7.5 -71.5t-12 -120t-8.5 -86.5q-22 5 -101 8q-98 4 -215 4h-137q-94 0 -121 -4q0 55 4 121q-45 -69 -118 -105.5t-146 -36.5q-76 0 -139 22t-102 56q-91 81 -136 225t-45 330
q0 196 50.5 347.5t138.5 234.5q51 47 117.5 74.5t136.5 27.5q81 0 147 -33t103 -100v115q36 -4 69 -4z" />
    <glyph glyph-name="oe" unicode="&#x153;" horiz-adv-x="1093" 
d="M373 858h-2q-40 0 -65.5 -23.5t-51.5 -74.5q-51 -107 -51 -336q0 -207 47 -324q23 -52 49.5 -74t62.5 -22q44 0 74 23t53 79q41 106 41 334q0 229 -32 314q-18 53 -46.5 78.5t-78.5 25.5zM1047 182q-51 -207 -240 -207q-170 0 -225 164q-35 -77 -93.5 -120.5
t-134.5 -43.5q-67 0 -120 25.5t-86 68t-55 100.5t-31 119t-9 128q0 81 18 159.5t54 150t101 115.5t149 44q91 0 145 -46.5t84 -131.5q76 178 213 178q58 0 103 -24t69 -58t39.5 -80t20 -82t4.5 -72q0 -73 -31 -86q-32 -14 -191 -14q-98 -4 -167 -4q-7 -234 53 -348
q45 -88 135 -88q70 0 110.5 41t63.5 123zM811 858h-2q-35 0 -63 -34.5t-44.5 -89t-25 -115.5t-8.5 -121q20 -2 92 -2q67 0 129 12q35 6 35 90q0 52 -3.5 90t-14 81t-34.5 66t-61 23z" />
    <glyph glyph-name="Scaron" unicode="&#x160;" horiz-adv-x="661" 
d="M57 322l23 10q-13 -151 50 -237.5t175 -86.5q83 0 133.5 61t50.5 187q0 147 -94 231q-134 116 -207 187q-120 117 -120 295q0 89 32 161.5t99 118t159 45.5q114 0 177 -67l26 78l21 -7q-27 -204 -27 -311h-25q7 132 -45.5 205.5t-130.5 73.5q-79 0 -126.5 -64t-47.5 -176
q0 -134 103 -229q50 -43 94 -82t80.5 -72t52.5 -47q106 -93 106 -260q0 -159 -88 -260t-243 -101q-130 0 -240 70q7 72 9 169t3 108zM354 1362l-16 -4q-66 108 -203 186l8 19q123 -42 205 -93q112 63 201 93l8 -19q-142 -82 -203 -182z" />
    <glyph glyph-name="scaron" unicode="&#x161;" horiz-adv-x="546" 
d="M461 631l-19 -8q-7 97 -47 165t-108 68q-121 0 -121 -151q0 -73 51 -121q22 -20 98.5 -79.5t100.5 -80.5q88 -76 88 -191t-71 -186.5t-191 -71.5q-49 0 -99 13t-77 30q0 159 -3 242l21 8q0 -69 25 -137q21 -63 64 -94t97 -31q64 0 97 39.5t32 116.5q0 70 -47 114
q-23 24 -93.5 83.5t-86.5 74.5q-98 82 -98 207q0 102 60.5 173t166.5 71q35 0 72 -14.5t55 -32.5l16 59l17 -6q-8 -122 0 -260zM295 985l-19 -8q-14 58 -53.5 148t-103.5 184l12 12q40 -35 85 -86.5t73 -95.5q55 84 153 182l13 -12q-104 -153 -160 -324z" />
    <glyph glyph-name="Ydieresis" unicode="&#x178;" horiz-adv-x="753" 
d="M600 16l6 -22q-27 0 -109.5 3t-119.5 3q-46 0 -113.5 -3t-85.5 -3l-4 22q17 1 48.5 6.5t35.5 6.5q28 5 40 17.5t15 43.5q13 173 13 438q0 45 -15 99q-25 74 -97 252t-120 280q-27 60 -50.5 74.5t-90.5 19.5l-2 23q15 0 82 -3t100 -3q40 0 107 3t84 3v-23l-62 -8
q-22 -3 -26 -12t4 -31q12 -41 46 -131t91.5 -237.5t71.5 -184.5q144 365 198 535q9 32 5 43.5t-23 13.5q-17 2 -43.5 6.5t-30.5 5.5l4 23q5 0 55 -3t80 -3q19 0 63 3t72 3l5 -23q-57 -3 -85.5 -21t-52.5 -71q-87 -181 -213 -510q-16 -45 -16 -102q0 -383 6 -475
q2 -21 8.5 -30.5t28.5 -12.5q8 -2 22 -4t34.5 -5.5t33.5 -5.5zM274 1509h2q28 0 45 -18t17 -45q0 -30 -21 -49t-45 -19q-26 0 -43.5 16t-17.5 48q0 29 17.5 48t45.5 19zM551 1509h2q27 0 44 -18t17 -45q0 -30 -21 -49t-44 -19q-26 0 -44 16t-18 48q0 30 17.5 48.5t46.5 18.5
z" />
    <glyph glyph-name="Zcaron" unicode="&#x17d;" horiz-adv-x="786" 
d="M387 1270h10h207q82 0 141 6q-20 -79 -34 -105q-123 -261 -240 -546q-57 -136 -140.5 -328.5t-113.5 -265.5q114 -1 178.5 -0.5t121 4.5t81 8.5t46 17.5t29.5 26t19 38q32 70 51 170l19 -8q-1 -9 -11.5 -111t-11.5 -188q-39 6 -137 10q-53 2 -168 2h-250q-82 0 -135 -6
l-6 12q100 205 261 572t284 661h-185q-96 0 -147.5 -11.5t-70.5 -29.5t-33 -55q-9 -26 -43 -160l-19 12q16 192 8 287q49 -10 97 -12h192zM424 1354l-16 -4q-66 108 -203 186l8 18q127 -43 205 -92q109 61 200 92l9 -18q-142 -82 -203 -182z" />
    <glyph glyph-name="zcaron" unicode="&#x17e;" horiz-adv-x="620" 
d="M86 629l-23 2q20 102 23 246q26 -10 59 -15q25 -2 93 -2h122q65 0 129 1t78 1q-3 -30 -32 -100q-113 -257 -332 -737q180 0 241 12q52 8 76.5 46t48.5 155l23 2q0 -2 -7 -50t-9.5 -71t-6 -62.5t-2.5 -66.5q-34 4 -172 8q-70 2 -202 2q-90 0 -152 -4l-6 10
q93 158 213 421.5t170 403.5q-132 0 -187 -8q-50 -5 -71.5 -20.5t-36.5 -59.5q-20 -50 -37 -114zM330 985l-19 -8q-14 58 -53.5 148t-103.5 184l12 12q40 -35 85 -86.5t73 -95.5q55 84 153 182l12 -12q-102 -150 -159 -324z" />
    <glyph glyph-name="longs" unicode="&#x17f;" horiz-adv-x="376" 
d="M31 831v27h104v107q3 129 26 209t72 131q75 81 162 81q67 0 104.5 -32t37.5 -84q0 -29 -20.5 -47.5t-49.5 -18.5q-33 0 -33 41q0 109 -72 109q-27 0 -45 -15t-27.5 -44.5t-14 -60t-7.5 -75.5q-4 -73 -4 -340q0 -29 -1 -160.5t-1 -220.5q0 -258 4 -364q0 -24 9 -35t30 -14
q30 -7 60 -9l-5 -22q-16 0 -70.5 3t-96.5 3q-34 0 -90 -3t-70 -3v22q53 3 70 12.5t20 34.5q10 92 10 371v385z" />
    <glyph glyph-name="florin" unicode="&#x192;" horiz-adv-x="694" 
d="M47 682l19 39q21 -1 71 -2t70 -2q23 178 51 275.5t72 160.5q88 123 205 123q61 0 101 -32.5t40 -82.5q0 -80 -68 -80q-14 0 -26 11.5t-9 25.5q9 32 9 56q0 40 -17 56.5t-51 16.5q-77 0 -113 -164q-35 -171 -55 -366q37 1 101.5 2t101.5 2l-17 -39q-31 1 -94.5 2t-97.5 2
q-60 -504 -90 -641q-24 -108 -60.5 -181.5t-99.5 -119.5q-69 -49 -141 -49q-50 0 -87.5 27t-37.5 63q0 29 20.5 48.5t42.5 19.5q28 0 39 -39q27 -78 74 -78q44 0 64.5 40t35.5 134q52 306 103 776q-14 -1 -36 -1.5t-57 -1t-63 -1.5z" />
    <glyph glyph-name="circumflex" unicode="&#x2c6;" horiz-adv-x="933" 
d="M459 1315l18 8q13 -55 54 -146t104 -186l-12 -14q-5 6 -27.5 28.5t-35 36t-32 35.5t-35 43t-28.5 41q-56 -86 -154 -184l-12 14q108 159 160 324z" />
    <glyph glyph-name="caron" unicode="&#x2c7;" horiz-adv-x="933" 
d="M475 985l-18 -8q-14 57 -54 147.5t-104 184.5l12 12q40 -35 85 -86.5t73 -95.5q53 81 154 182l12 -12q-104 -153 -160 -324z" />
    <glyph glyph-name="uni02C9" unicode="&#x2c9;" horiz-adv-x="933" 
d="M303 1065l14 78h316l-10 -78h-320z" />
    <glyph glyph-name="breve" unicode="&#x2d8;" horiz-adv-x="933" 
d="M317 1235h21q3 -71 35 -100q35 -31 94 -31q63 0 96 29q12 9 21.5 40.5t11.5 61.5h20q0 -37 -2 -63.5t-10.5 -59t-24 -53t-44.5 -35t-70 -14.5q-161 0 -148 225z" />
    <glyph glyph-name="dotaccent" unicode="&#x2d9;" horiz-adv-x="700" 
d="M356 1245h2q35 0 53.5 -21.5t18.5 -60.5q0 -35 -24 -55.5t-54 -20.5q-28 0 -48.5 21.5t-20.5 56.5q0 34 20.5 57t52.5 23z" />
    <glyph glyph-name="ring" unicode="&#x2da;" horiz-adv-x="811" 
d="M410 1280h2q58 0 93.5 -36t35.5 -97q0 -64 -39 -101.5t-99 -37.5q-61 0 -97 35t-36 96q0 65 39.5 103t100.5 38zM406 1257h-3q-36 0 -52.5 -34t-16.5 -80q0 -53 20.5 -83t53.5 -30q69 0 69 115q0 46 -16.5 79t-54.5 33z" />
    <glyph glyph-name="ogonek" unicode="&#x2db;" horiz-adv-x="933" 
d="M440 27h25q-146 -136 -146 -260q0 -37 18 -57.5t50 -20.5q58 0 98 53l13 -18q-19 -38 -66.5 -74.5t-103.5 -36.5q-49 0 -80 32.5t-31 82.5q0 49 41.5 112t89 108.5t92.5 78.5z" />
    <glyph glyph-name="tilde" unicode="&#x2dc;" horiz-adv-x="933" 
d="M317 1036l-24 6q0 70 24.5 119t75.5 49q22 0 42 -10.5t50 -38.5q51 -51 78 -51q58 0 58 109l20 -7q0 -176 -102 -176q-40 0 -95 58q-6 5 -15.5 14t-14 12.5t-11.5 8.5t-13.5 6.5t-14.5 1.5q-26 0 -42 -27.5t-16 -73.5z" />
    <glyph glyph-name="hungarumlaut" unicode="&#x2dd;" horiz-adv-x="933" 
d="M367 985l-19 8q31 89 82 254q11 33 29.5 49.5t32.5 16.5q28 0 28 -45q0 -29 -24 -72q-15 -23 -129 -211zM565 985l-18 8q15 43 31.5 94t32 99.5t18.5 58.5q9 32 28.5 50t32.5 18q29 0 29 -45q0 -27 -25 -72q-9 -15 -26.5 -44t-47 -77t-55.5 -90z" />
    <glyph glyph-name="pi" unicode="&#x3c0;" horiz-adv-x="700" 
d="M424 788h-213q-2 -350 -2 -526q0 -91 -8.5 -151.5t-25 -89.5t-33.5 -39.5t-40 -10.5q-63 0 -63 72q0 18 10.5 30t22.5 9q20 -4 32 -4q33 0 50 34t18 136q5 233 -2 540q-36 0 -66 -4t-43 -7t-35 -11.5t-26 -9.5q-6 14 -6 18q90 86 203 86h284q63 0 189 14l-11 -92
q-7 0 -46 3t-58 3l-2 -688q0 -29 1 -41.5t8.5 -23t23.5 -10.5q60 0 80 118l22 -24q-42 -142 -162 -142q-55 0 -78.5 33t-23.5 129v649z" />
    <glyph glyph-name="figuredash" unicode="&#x2012;" horiz-adv-x="489" 
d="M55 590l19 84q173 -5 362 0l-16 -84q-195 8 -365 0z" />
    <glyph glyph-name="endash" unicode="&#x2013;" horiz-adv-x="897" 
d="M80 432l22 72q351 -3 715 0l-24 -72q-339 3 -713 0z" />
    <glyph glyph-name="emdash" unicode="&#x2014;" horiz-adv-x="1546" 
d="M80 430l22 72q151 -2 660.5 -2t710.5 2l-23 -72q-193 2 -701 2t-669 -2z" />
    <glyph glyph-name="quoteleft" unicode="&#x2018;" horiz-adv-x="256" 
d="M211 1427l8 -18q-55 -8 -93 -48t-38 -95q0 -7 2 -8t4 2q21 18 49 14q27 0 47.5 -21t20.5 -57q0 -32 -23.5 -57t-54.5 -25q-41 0 -65.5 32.5t-24.5 86.5q0 85 53 137t115 57z" />
    <glyph glyph-name="quoteright" unicode="&#x2019;" horiz-adv-x="256" 
d="M45 1108l-6 18q55 8 92 48t37 94q0 9 -1.5 10t-4.5 -4q-18 -14 -47 -14t-49 21t-19 58q0 31 23 55.5t53 24.5q42 0 66 -32t24 -87q0 -85 -52.5 -137t-115.5 -55z" />
    <glyph glyph-name="quotesinglbase" unicode="&#x201a;" horiz-adv-x="284" 
d="M53 -170l-6 23q58 8 98.5 51t40.5 102q0 9 -5 8q-2 0 -3 -2q-19 -16 -51 -16q-31 0 -51 22t-19 62q0 33 24.5 59.5t57.5 26.5q44 0 68 -34.5t24 -92.5q0 -90 -56 -147t-122 -62z" />
    <glyph glyph-name="quotedblleft" unicode="&#x201c;" horiz-adv-x="468" 
d="M420 1423l6 -20q-55 -8 -92 -48t-37 -93q0 -10 3 -11q2 2 3 4q19 15 47 15t49 -21t21 -57q0 -32 -23.5 -57t-54.5 -25q-41 0 -65.5 32.5t-24.5 86.5q0 85 53 137t115 57zM209 1423l6 -20q-55 -8 -93 -48t-38 -95q0 -8 3 -9q2 -1 3 2q20 17 49 17q28 0 48 -21t20 -57
q0 -32 -23.5 -57t-52.5 -25q-43 0 -67.5 32.5t-24.5 86.5q0 85 53.5 137t116.5 57z" />
    <glyph glyph-name="quotedblright" unicode="&#x201d;" horiz-adv-x="468" 
d="M45 1106l-6 20q55 8 92 48t37 94q0 9 -1.5 10t-4.5 -4q-18 -14 -47 -14t-49 21t-19 58q0 31 23 55.5t53 24.5q42 0 66 -32t24 -87q0 -85 -52.5 -137t-115.5 -57zM256 1106l-6 20q55 8 93 48.5t38 93.5q0 8 -2 10q-2 1 -3 -2q-1 -1 -1 -2q-17 -14 -49 -14q-28 0 -49 21
t-21 58q0 31 24.5 55.5t53.5 24.5q44 0 68 -32t24 -87q0 -85 -53.5 -137t-116.5 -57z" />
    <glyph glyph-name="quotedblbase" unicode="&#x201e;" horiz-adv-x="512" 
d="M53 -168l-6 21q58 8 98.5 51t40.5 102q0 9 -5 8q-2 0 -3 -2q-19 -16 -51 -16q-31 0 -51 22t-19 62q0 33 24.5 59.5t57.5 26.5q44 0 68 -34.5t24 -92.5q0 -90 -56 -147t-122 -60zM281 -168l-7 21q58 8 99 51t41 102q0 9 -5 8q-2 0 -3 -2q-19 -16 -52 -16q-29 0 -49 22
t-20 62q0 33 25 59.5t57 26.5q44 0 68 -34.5t24 -92.5q0 -90 -56 -147t-122 -60z" />
    <glyph glyph-name="dagger" unicode="&#x2020;" horiz-adv-x="804" 
d="M412 1149q17 -33 59 -59q18 -9 4 -25q-28 -34 -43.5 -123t-15.5 -205q176 5 219 58q13 13 22 0q18 -27 66 -58q11 -11 -2 -18q-36 -20 -68 -60q-3 -5 -9.5 -4t-10.5 7q-28 28 -75 40t-142 13q0 -554 51 -768q3 -15 -4 -25q-12 -4 -53 -39q-8 -5 -13 0q-31 31 -49 39
q-7 7 -4 25q45 265 45 768q-95 -1 -142 -13.5t-75 -42.5q-5 -5 -12.5 -6t-12.5 6q-21 37 -65 60q-13 8 0 18q42 27 63 58q10 13 25 -4q49 -49 219 -54q0 116 -15.5 205t-43.5 123q-9 12 2 20q32 15 61 64q11 14 19 0z" />
    <glyph glyph-name="daggerdbl" unicode="&#x2021;" horiz-adv-x="804" 
d="M408 1147q23 -48 61 -72q14 -7 2 -22q-28 -34 -42.5 -112t-14.5 -171q170 3 219 55q13 15 22 0q20 -28 64 -55q15 -9 0 -18q-52 -29 -68 -60q-3 -4 -9 -4t-11 4q-30 30 -76.5 42.5t-140.5 13.5q3 -157 57 -213q-54 -68 -57 -203q172 3 219 59q12 15 22 2q8 -13 27.5 -32
t36.5 -29q16 -9 0 -19q-53 -29 -68 -59q-3 -4 -9 -4t-11 4q-30 30 -76.5 42t-140.5 13q5 -260 59 -352q7 -11 -8 -18q-36 -21 -53 -56q-12 -6 -17 2q-36 40 -57 52q-13 10 -4 22q48 91 53 350q-94 -1 -140.5 -13t-74.5 -42q-13 -10 -20 0q-24 34 -68 59q-17 9 0 19
q34 21 63 61q9 14 23 0q48 -58 217 -61q-6 138 -55 203q55 60 55 213q-94 -1 -140.5 -13.5t-74.5 -42.5q-13 -10 -20 0q-25 36 -68 60q-16 8 0 18q35 21 63 55q8 17 23 2q51 -54 217 -57q0 92 -15 170t-42 111q-9 14 0 20q47 40 61 76q11 15 17 0z" />
    <glyph glyph-name="bullet" unicode="&#x2022;" horiz-adv-x="430" 
d="M215 592h2q61 0 96 -44t35 -108q0 -65 -38 -105t-95 -40q-56 0 -94.5 40.5t-38.5 104.5t39 108t94 44z" />
    <glyph glyph-name="onedotenleader" unicode="&#x2024;" horiz-adv-x="538" 
d="M272 164h2q36 0 60 -28t24 -68q0 -42 -25.5 -69.5t-60.5 -27.5q-36 0 -61 27.5t-25 69.5q0 40 25.5 68t60.5 28z" />
    <glyph glyph-name="twodotenleader" unicode="&#x2025;" horiz-adv-x="823" 
d="M207 164h2q37 0 60.5 -27.5t23.5 -68.5q0 -42 -25 -69.5t-61 -27.5t-61 27.5t-25 69.5q0 40 25.5 68t60.5 28zM623 164h2q39 0 61.5 -27.5t22.5 -68.5q0 -42 -25 -69.5t-61 -27.5t-61 27.5t-25 69.5q0 40 25.5 68t60.5 28z" />
    <glyph glyph-name="ellipsis" unicode="&#x2026;" horiz-adv-x="1312" 
d="M221 164h2q36 0 59 -27.5t23 -68.5q0 -42 -25 -69.5t-61 -27.5t-61 27.5t-25 69.5q0 40 25.5 68t62.5 28zM659 164h3q36 0 58.5 -27.5t22.5 -68.5q0 -42 -25 -69.5t-61 -27.5t-61 27.5t-25 69.5q0 40 25.5 68t62.5 28zM1098 164h2q36 0 59 -27.5t23 -68.5
q0 -42 -25 -69.5t-61 -27.5t-61 27.5t-25 69.5q0 40 25.5 68t62.5 28z" />
    <glyph glyph-name="perthousand" unicode="&#x2030;" horiz-adv-x="1378" 
d="M170 45l-29 37q55 100 172.5 313t251.5 456.5t172 311.5q-75 -53 -196 -53q-77 0 -125 23q26 -80 26 -179q0 -154 -49.5 -238.5t-140.5 -84.5q-89 0 -142 76t-53 213q-1 144 59.5 229.5t149.5 85.5q41 0 82 -25l21 15q72 -84 198 -84q123 0 191 76q10 11 39 63l53 12
q-441 -785 -680 -1247zM279 1204h-3q-19 0 -32.5 -8t-30.5 -31q-47 -70 -47 -239q0 -182 49 -240q27 -27 57 -27q28 0 53.5 26.5t45.5 98t20 177.5q0 243 -112 243zM723 672h2q176 0 176 -295q0 -138 -49 -223.5t-141 -85.5q-86 0 -139 76t-54 212q-1 145 58.5 230.5
t146.5 85.5zM731 647h-2q-18 0 -36 -12.5t-27 -32.5q-39 -67 -39 -237q0 -173 39 -234q9 -15 27.5 -25t37.5 -10q57 0 89 73t32 212q0 266 -121 266zM1153 672h2q176 0 176 -295q0 -140 -49.5 -224.5t-142.5 -84.5q-86 0 -139 77.5t-54 210.5q-1 145 59.5 230.5t147.5 85.5z
M1161 647h-2q-19 0 -36.5 -12.5t-28.5 -32.5q-37 -72 -37 -237q0 -170 41 -234q21 -35 63 -35q57 0 89 73t32 210q0 268 -121 268z" />
    <glyph glyph-name="guilsinglleft" unicode="&#x2039;" horiz-adv-x="454" 
d="M360 768l17 -18q-34 -146 -148 -318q132 -202 148 -307l-15 -21q-43 117 -130 209t-156 115l8 16q79 29 153.5 117.5t122.5 206.5z" />
    <glyph glyph-name="guilsinglright" unicode="&#x203a;" horiz-adv-x="454" 
d="M92 104l-16 19q35 147 147 317q-130 200 -147 308l14 20q42 -117 130 -209t157 -115l-8 -16q-79 -29 -154 -117.5t-123 -206.5z" />
    <glyph glyph-name="fraction" unicode="&#x2044;" horiz-adv-x="145" 
d="M377 1319l31 -29q-343 -624 -672 -1267l-31 32q368 673 672 1264z" />
    <glyph glyph-name="zero.superior" unicode="&#x2070;" horiz-adv-x="499" 
d="M274 1583h2q48 0 85 -21.5t59.5 -54.5t37 -78t20 -87t5.5 -87q-1 -65 -10.5 -120.5t-31.5 -110t-67 -86t-108 -31.5q-61 0 -104.5 31.5t-65 85t-30.5 107.5t-9 114q0 57 11.5 113t35.5 108t68 84.5t102 32.5zM274 1561h-2q-22 0 -35 -12.5t-32 -45.5q-16 -36 -25.5 -110
t-9.5 -138q0 -184 31 -260q24 -63 71 -63q46 0 68 57q35 84 35 268q0 165 -33 248q-13 31 -27 43.5t-41 12.5z" />
    <glyph glyph-name="four.superior" unicode="&#x2074;" horiz-adv-x="499" 
d="M301 1143q4 156 4 356q-9 -14 -87 -138t-130 -202q40 -16 213 -16zM43 1122l-10 23q57 79 150.5 219t125.5 186q65 17 97 33l6 -4q-9 -167 -9 -352v-84q64 5 101 24l4 -16q-37 -32 -105 -43q0 -40 5 -182q-68 -8 -109 -19l-4 2q5 123 6 195q-172 -3 -258 18z" />
    <glyph glyph-name="five.superior" unicode="&#x2075;" horiz-adv-x="499" 
d="M121 1192l-21 18q18 45 32.5 184t12.5 185q67 -23 138 -23q142 0 174 48l14 -9q-20 -66 -70 -98q-38 -24 -129 -24q-60 0 -100 10q-2 -10 -15 -105.5t-20 -128.5q24 21 58 37q47 19 94 19q79 0 126.5 -44t47.5 -137q0 -80 -39 -133q-60 -84 -188 -84q-73 0 -119.5 30
t-46.5 79q0 19 13.5 33t39.5 14q27 0 35 -47q19 -86 88 -86q102 0 102 178q0 88 -35 129q-24 31 -75 31q-39 0 -72 -21.5t-45 -54.5z" />
    <glyph glyph-name="six.superior" unicode="&#x2076;" horiz-adv-x="499" 
d="M440 1577l4 -23q-19 7 -49 7q-94 0 -155.5 -92.5t-61.5 -217.5q31 36 70 56q38 24 82 24q71 0 111 -50t40 -142q0 -102 -55 -167t-156 -65q-56 0 -98.5 22.5t-66 61t-35 85t-11.5 100.5q0 214 113 321q86 86 223 86q24 0 45 -6zM276 930h3q26 0 45 19t29 50t14 63t4 66
q0 65 -20.5 113.5t-67.5 48.5q-36 0 -62.5 -25t-38.5 -59q-8 -18 -8 -69q0 -45 7.5 -88t32 -81t62.5 -38z" />
    <glyph glyph-name="seven.superior" unicode="&#x2077;" horiz-adv-x="499" 
d="M82 1364l-21 6q12 50 19.5 116t5.5 93q17 -8 53.5 -10t149.5 -2q165 0 188 2l6 -6q-10 -49 -37 -101q-88 -148 -140.5 -295t-45.5 -252l-8 -8q-47 4 -62 13q-10 3 -18 13t-8 21q0 15 8 47q20 72 120.5 243.5t129.5 230.5q-41 6 -170 6q-85 0 -108.5 -6t-34.5 -29
q-23 -62 -27 -82z" />
    <glyph glyph-name="eight.superior" unicode="&#x2078;" horiz-adv-x="499" 
d="M285 1583h2q69 0 117.5 -41t48.5 -110q0 -52 -35 -84q-20 -20 -88 -68q94 -49 122.5 -91t28.5 -97q0 -82 -69 -138q-63 -47 -148 -47q-90 0 -145.5 44.5t-55.5 117.5q0 59 46 98q8 8 90 70q-66 39 -90.5 73.5t-24.5 90.5q0 65 41 112q50 70 160 70zM262 1561h-2
q-38 0 -66 -29t-28 -80q0 -52 31 -90q36 -33 112 -72q66 56 66 131q0 63 -28.5 101.5t-84.5 38.5zM279 932h2q50 0 82 30t32 85q0 47 -39 87t-135 91q-29 -18 -52.5 -55t-23.5 -85q0 -61 36.5 -107t97.5 -46z" />
    <glyph glyph-name="nine.superior" unicode="&#x2079;" horiz-adv-x="499" 
d="M106 913l5 23q26 -7 55 -2q77 5 132 83.5t62 217.5q-72 -72 -141 -72q-80 0 -119 55.5t-39 133.5q0 98 57.5 164.5t153.5 66.5q48 0 85 -18.5t58.5 -47.5t35 -70t18 -79.5t4.5 -83.5q0 -93 -29.5 -171.5t-76.5 -123.5q-79 -82 -203 -82q-34 0 -58 6zM262 1561h-2
q-26 0 -45 -17.5t-28 -47.5t-13 -60t-4 -64q0 -68 26.5 -116t71.5 -48q56 0 84 64q10 22 10 84q0 205 -100 205z" />
    <glyph glyph-name="parenleft.superior" unicode="&#x207d;" horiz-adv-x="389" 
d="M365 743l-13 -22q-73 36 -141 115q-54 58 -84.5 162.5t-30.5 224.5q0 121 31 223.5t86 169.5q52 63 139 113l13 -21q-118 -60 -150 -231q-20 -105 -20 -254q0 -150 20 -260q32 -165 150 -220z" />
    <glyph glyph-name="parenright.superior" unicode="&#x207e;" horiz-adv-x="389" 
d="M72 1706l14 23q77 -41 141 -113q52 -60 82.5 -165t30.5 -224q0 -121 -31 -223.5t-86 -167.5q-58 -69 -137 -115l-14 22q119 56 149 230q21 107 21 254q0 148 -21 258q-30 165 -149 221z" />
    <glyph glyph-name="n.superior" unicode="&#x207f;" horiz-adv-x="610" 
d="M39 618v21q46 2 57.5 7.5t12.5 29.5q4 37 4 147v113q0 106 -7 154q-3 11 -14.5 13.5t-56.5 2.5v18q25 -1 80.5 5t85.5 12q7 -37 14 -88q30 27 50.5 43t53.5 30.5t66 14.5q77 0 104 -60q15 -35 15 -71v-240q0 -44 4 -94q2 -21 14.5 -28.5t59.5 -8.5l-7 -21q-17 0 -59 1.5
t-63 1.5q-19 0 -58.5 -1.5t-50.5 -1.5v21q34 2 43 8t10 31q4 37 4 143q-2 202 -8 226q-16 49 -61 49q-70 0 -105 -78q-12 -24 -12 -68v-180q0 -40 4 -98q2 -18 14 -25t54 -8l-6 -21q-14 0 -53.5 1.5t-61.5 1.5q-16 0 -62 -1.5t-65 -1.5z" />
    <glyph glyph-name="zero.inferior" unicode="&#x2080;" horiz-adv-x="499" 
d="M172 453h2q48 0 85 -21.5t59.5 -54.5t37 -78t20 -87t5.5 -87q-1 -65 -10.5 -120.5t-31.5 -110t-67 -86t-108 -31.5q-61 0 -104.5 31.5t-65 85t-30.5 107.5t-9 114q0 57 11.5 113t35.5 108t68 84.5t102 32.5zM172 430h-2q-22 0 -36 -12t-32 -45q-16 -35 -25 -109t-9 -139
q0 -187 30 -260q24 -64 72 -64q46 0 68 58q34 81 34 268q0 168 -32 248q-13 30 -27 42.5t-41 12.5z" />
    <glyph glyph-name="one.inferior" unicode="&#x2081;" horiz-adv-x="499" 
d="M334 -190v-21q-30 0 -85.5 2t-76.5 2q-32 0 -85 -2t-67 -2l-4 21l68 8q32 3 35 24q8 64 8 162v215q0 115 -6 164q-2 20 -12 20q-9 -2 -25 -4.5t-35.5 -5.5t-28.5 -4l5 27q153 18 204 37l4 -2q-4 -70 -4 -220v-233q0 -86 7 -156q4 -20 26 -22z" />
    <glyph glyph-name="two.inferior" unicode="&#x2082;" horiz-adv-x="499" 
d="M358 -16l19 -11q-28 -113 -33 -186q-69 6 -272 6q-76 0 -101 -2l-4 10q2 4 6.5 14t8 18.5t6.5 16.5q86 71 148 157t77 153q14 65 14 129q0 137 -88 137q-42 0 -60 -25.5t-18 -81.5q0 -25 7 -53q3 -11 -11 -22q-15 -11 -30 -11q-23 0 -38.5 17t-15.5 43q0 61 54 108
q25 23 64 37.5t77 14.5q79 0 123 -47q51 -51 51 -144q0 -82 -55 -149q-87 -104 -236 -238q227 3 252 10q19 2 29 23q1 3 6.5 17t10.5 29.5t9 29.5z" />
    <glyph glyph-name="three.inferior" unicode="&#x2083;" horiz-adv-x="499" 
d="M168 453h2q73 0 120.5 -38t47.5 -108q0 -69 -51 -110q-60 -39 -109 -52v-4q113 -11 160 -65q35 -38 35 -99q0 -87 -62 -141q-59 -59 -172 -59q-80 0 -128 33.5t-48 78.5q0 24 14 40t39 16q15 0 21.5 -9t9.5 -30q7 -50 36 -78.5t69 -28.5q50 0 76 45.5t26 126.5
q0 68 -28.5 110t-84.5 42q-25 0 -55 -10l-18 16l2 8q45 6 80 19q79 31 79 151q0 50 -22.5 85.5t-63.5 35.5q-42 0 -63 -22t-21 -72q0 -8 2 -21t2 -18q1 -17 -9 -25t-27 -8q-22 0 -36 15t-14 36q0 49 54 94.5t137 45.5z" />
    <glyph glyph-name="four.inferior" unicode="&#x2084;" horiz-adv-x="499" 
d="M199 12q4 156 4 357q-9 -14 -87 -138t-130 -202q42 -17 213 -17zM-59 -8l-11 22q57 79 151 219.5t126 186.5q63 16 96 33l6 -4q-8 -148 -8 -353v-84q60 5 100 25l5 -17q-37 -32 -105 -43q0 -68 4 -182q-73 -9 -108 -18l-4 2q5 124 6 194q-168 -3 -258 19z" />
    <glyph glyph-name="five.inferior" unicode="&#x2085;" horiz-adv-x="499" 
d="M18 61l-20 19q18 45 32.5 184t12.5 185q67 -23 137 -23q143 0 174 47l15 -8q-20 -66 -70 -98q-39 -25 -129 -25q-60 0 -100 10q-2 -10 -15 -104.5t-20 -128.5q65 55 151 55q79 0 126.5 -43.5t47.5 -136.5q0 -81 -38 -133q-60 -84 -189 -84q-73 0 -119.5 29.5t-46.5 78.5
q0 19 13.5 33t39.5 14q27 0 35 -47q19 -86 88 -86q103 0 103 178q0 88 -35 129q-24 31 -76 31q-39 0 -72 -21.5t-45 -54.5z" />
    <glyph glyph-name="six.inferior" unicode="&#x2086;" horiz-adv-x="499" 
d="M338 446l4 -22q-16 6 -49 6q-94 0 -155.5 -92t-61.5 -217q73 80 151 80q71 0 111.5 -50.5t40.5 -142.5q0 -102 -55 -166.5t-156 -64.5q-56 0 -98.5 22t-66 61t-35 85t-11.5 100q0 215 113 322q86 86 223 86q21 0 45 -7zM174 -201h2q26 0 45 19t29 50.5t14 63.5t4 66
q0 65 -20.5 113.5t-67.5 48.5q-36 0 -62 -25t-38 -59q-8 -18 -8 -70q0 -45 7.5 -88t32 -81t62.5 -38z" />
    <glyph glyph-name="seven.inferior" unicode="&#x2087;" horiz-adv-x="499" 
d="M-20 233l-21 7q12 50 19.5 116t5.5 93q18 -8 55 -10.5t147 -2.5q166 0 189 2l6 -6q-10 -48 -37 -100q-88 -148 -140.5 -295t-45.5 -252l-8 -8q-48 4 -62 12q-10 3 -18.5 13.5t-8.5 21.5t9 47q20 72 120.5 243t128.5 230q-41 6 -169 6q-60 0 -87.5 -3t-38 -9.5
t-18.5 -22.5q-20 -55 -26 -82z" />
    <glyph glyph-name="eight.inferior" unicode="&#x2088;" horiz-adv-x="499" 
d="M182 453h2q69 0 117.5 -41.5t48.5 -110.5q0 -53 -35 -84q-16 -16 -88 -67q94 -49 123 -91.5t29 -97.5q0 -81 -70 -137q-63 -47 -147 -47q-90 0 -145.5 44.5t-55.5 117.5q0 60 45 98q9 9 19.5 17t32 23.5t38.5 28.5q-65 39 -89.5 73.5t-24.5 90.5q0 66 41 113
q50 70 159 70zM160 430h-2q-38 0 -66.5 -28.5t-28.5 -79.5q0 -53 31 -91q32 -29 113 -71q65 55 65 131q0 63 -28 101t-84 38zM176 -199h2q50 0 82.5 30t32.5 85q0 47 -39 87t-135 91q-30 -18 -53 -54.5t-23 -84.5q0 -61 36 -107.5t97 -46.5z" />
    <glyph glyph-name="nine.inferior" unicode="&#x2089;" horiz-adv-x="499" 
d="M4 -217l4 22q26 -7 55 -2q78 5 133 83.5t62 217.5q-71 -71 -141 -71q-80 0 -119 55t-39 133q0 98 57.5 165t153.5 67q48 0 85 -18.5t58.5 -47.5t35 -70t18 -79.5t4.5 -83.5q0 -93 -30 -171.5t-77 -123.5q-79 -82 -203 -82q-33 0 -57 6zM160 430h-2q-26 0 -45 -17.5
t-28 -47t-13 -59.5t-4 -64q0 -68 26.5 -116t71.5 -48q56 0 84 63q10 23 10 84q0 205 -100 205z" />
    <glyph glyph-name="parenleft.inferior" unicode="&#x208d;" horiz-adv-x="389" 
d="M262 -387l-12 -23q-73 36 -141 115q-54 58 -84.5 162.5t-30.5 224.5q0 121 31 223.5t86 169.5q52 63 139 113l12 -20q-116 -59 -149 -232q-21 -110 -21 -254q0 -145 21 -260q32 -164 149 -219z" />
    <glyph glyph-name="parenright.inferior" unicode="&#x208e;" horiz-adv-x="389" 
d="M-31 575l15 23q77 -41 141 -113q52 -60 82.5 -165t30.5 -224q0 -121 -31 -223.5t-86 -167.5q-58 -69 -137 -115l-15 23q120 57 150 229q20 102 20 254q0 153 -20 258q-30 164 -150 221z" />
    <glyph glyph-name="colonmonetary" unicode="&#x20a1;" horiz-adv-x="720" 
d="M201 610v-2q0 -405 123 -506q46 743 63 1106q-48 -15 -84.5 -70.5t-55 -122t-30 -152t-14 -142.5t-2.5 -111zM532 1243q59 -14 98 -50t38 -99q0 -80 -54 -80q-16 0 -28 8q-13 13 -11 25q1 5 5.5 18.5t7 24.5t2.5 18q0 85 -62 106q-40 -637 -65 -1148q70 6 116.5 49.5
t73.5 140.5l23 -14q-24 -102 -83 -154.5t-134 -64.5l-8 -146l-39 -20l14 161q-23 -2 -74 9q-6 -118 -8 -150l-41 -20l16 178q-66 19 -115 67.5t-76.5 107t-44 134t-21.5 135.5t-5 125q0 96 17 192.5t53.5 191t104 163.5t157.5 90l4 119l41 10l-8 -123q29 2 72 2l4 111l39 10
zM496 1219q-6 3 -18 3t-29 -1.5t-25 -1.5q-47 -733 -68 -1137q40 -16 72 -16q41 582 68 1153z" />
    <glyph glyph-name="Euro" unicode="&#x20ac;" horiz-adv-x="694" 
d="M238 719l342 4l-15 -45l-329 4q-3 -40 -3 -100l302 4l-13 -45l-289 4q2 -85 12 -164.5t33.5 -163.5t70 -135t110.5 -51q33 0 56.5 6t50.5 24.5t49 58.5t40 103l23 -12q-36 -125 -96.5 -179.5t-159.5 -54.5q-78 0 -137.5 36t-95 91t-58.5 133.5t-32 151.5t-11 156h-80
l19 37h61q0 73 4 100h-57l16 37h45q4 68 19 137.5t45 142t71 128.5t103 92t135 36q102 0 150.5 -46.5t48.5 -112.5q0 -38 -16 -61t-44 -23q-25 0 -35 10q-16 16 -10 35q10 45 10 57q0 22 -3 38t-12.5 35.5t-33.5 30.5t-61 11q-52 0 -92.5 -40.5t-63.5 -96.5t-39 -133
t-21.5 -130.5t-8.5 -109.5z" />
    <glyph glyph-name="afii61289" unicode="&#x2113;" horiz-adv-x="618" 
d="M559 231l19 -10q-16 -75 -39 -124t-54 -72.5t-61 -32t-70 -8.5q-102 0 -146 79t-44 250q-1 2 -1 13.5v28t0.5 31.5t0.5 28v12q-11 -10 -24 -19.5t-29.5 -21t-24.5 -16.5l-16 24q57 43 90 76v426q0 131 16 229t38 149t53 82t53 38.5t45 7.5q122 0 122 -238
q0 -337 -211 -643v-207q0 -262 121 -262q63 0 97.5 36t64.5 144zM276 1092v-500q158 264 158 579q0 65 -20.5 132t-57.5 67q-80 0 -80 -278z" />
    <glyph glyph-name="trademark" unicode="&#x2122;" horiz-adv-x="389" 
d="M70 1235h20q50 0 62 6q0 -1 -0.5 -10t-1 -22.5t-0.5 -26.5l-7 -4q-3 26 -8 36q-1 7 -8 9t-35 2v-80q0 -23 2 -43l2 -19q0 -10 29 -10l-2 -8q-5 0 -21 1t-26 1q-8 0 -20 -1t-19 -1l-2 8q11 0 17 2t6.5 3.5t0.5 4.5q0 2 1 22t1 42v78h-10.5t-8 -0.5t-6 -1t-3.5 -1t-2 -1.5
l-1.5 -1.5t-1.5 -2.5t-1 -3q-6 -10 -13 -38l-6 2q6 40 6 63q18 -6 56 -6zM162 1229v10q10 -2 28 -2q21 0 29 2q3 -12 47 -119q33 71 47 119q10 -2 29 -2q6 0 16 1t13 1v-8q-25 -3 -25 -8v-35q0 -15 1 -57t1 -46q0 -7 4.5 -9.5t20.5 -2.5l-2 -8q-2 0 -16 1t-23 1t-23 -1
t-16 -1v8q24 0 24 14q0 1 0.5 23.5t1 54.5t0.5 56h-2q-15 -40 -35 -93.5t-22 -58.5l-10 -4q-4 17 -27 74t-28 75h-2v-114q0 -23 12 -25l14 -2v-8q-5 0 -17 1t-18 1q-8 0 -18.5 -1t-11.5 -1v8q13 0 18.5 6t5.5 21q6 60 6 119l-2 6q0 2 -8 2z" />
    <glyph glyph-name="Omega" unicode="&#x2126;" horiz-adv-x="944" 
d="M373 98v11q-133 77 -205 234.5t-72 379.5q0 271 106 423t279 152q171 0 271 -151t100 -420q0 -104 -16.5 -192.5t-41.5 -149t-64.5 -115.5t-74 -89t-82.5 -72v-11h148q78 0 106.5 27.5t51.5 130.5l18 -6q-2 -40 -20 -130.5t-31 -125.5q-13 0 -38.5 3t-66.5 3h-229l-6 12
q4 11 22 88q87 82 130.5 244.5t43.5 372.5q0 125 -10.5 220t-35.5 173.5t-71.5 120t-113.5 41.5q-102 0 -163.5 -141t-61.5 -426q0 -439 166 -605q12 -49 18 -88l-6 -12h-215q-42 0 -76 -3t-47 -3q-11 48 -24.5 128.5t-14.5 119.5l23 8q9 -38 16 -61t17 -41.5t18.5 -27
t25 -14.5t33 -7t45.5 -1h148z" />
    <glyph glyph-name="estimated" unicode="&#x212e;" horiz-adv-x="1697" 
d="M1556 590h-1144q-11 0 -11 -8v-346q0 -24 17 -41q84 -88 196 -137.5t238 -49.5q134 0 252 56t203 155h100q-99 -115 -245.5 -181.5t-313.5 -66.5q-143 0 -274 50t-226 135t-151 202.5t-56 247.5t56 248.5t151 203.5t226 135t274 50t274 -50t226 -135t151.5 -203.5
t56.5 -248.5v-16zM1296 633v350q0 25 -18 43q-84 85 -193.5 132.5t-232.5 47.5q-125 0 -236.5 -48.5t-195.5 -135.5q-19 -19 -19 -45v-344q0 -8 11 -8h876q8 0 8 8z" />
    <glyph glyph-name="onethird" unicode="&#x2153;" horiz-adv-x="1040" 
d="M383 637v-21q-30 0 -85.5 2.5t-76.5 2.5q-33 0 -85 -2.5t-66 -2.5l-4 21l67 8q32 3 35 25q8 64 8 164v213q0 113 -6 163q-2 21 -12 21q-9 -2 -24.5 -4.5t-35.5 -5.5t-28 -4l4 26q154 18 205 37l4 -2q-4 -70 -4 -219v-232q0 -97 6 -157q5 -21 26 -23zM817 1319l31 -31
q-314 -567 -674 -1263l-29 30q368 673 672 1264zM766 756h2q73 0 120.5 -38t47.5 -110q0 -69 -51 -110q-60 -39 -109 -52v-4q113 -11 160 -65q35 -38 35 -98q0 -86 -62 -140q-59 -59 -174 -59q-80 0 -128 34t-48 79q0 24 13.5 38.5t39.5 14.5q15 0 21.5 -8t9.5 -29
q7 -50 36.5 -78.5t70.5 -28.5q50 0 76 45t26 125q0 69 -28.5 110.5t-86.5 41.5q-19 0 -55 -8l-18 16l2 6q46 6 82 19q79 36 79 151q0 51 -22.5 87t-63.5 36q-86 0 -86 -94q0 -8 2 -22t2 -17q1 -17 -9 -25t-27 -8q-23 0 -36.5 14.5t-13.5 36.5q0 49 54.5 94.5t138.5 45.5z
" />
    <glyph glyph-name="twothirds" unicode="&#x2154;" horiz-adv-x="1040" 
d="M432 811l19 -10q-28 -113 -33 -187q-81 7 -275 7q-63 0 -100 -3l-4 11q17 38 20 49q86 70 148 155.5t80 153.5q14 65 14 129q0 137 -90 137q-42 0 -60 -25t-18 -81q0 -29 6 -53q3 -12 -10 -23q-13 -10 -31 -10q-23 0 -38 16.5t-15 42.5q0 62 53 109q25 23 64.5 37
t79.5 14q79 0 123 -47q51 -51 51 -143q0 -83 -56 -148q-78 -97 -237 -240q225 3 254 11q19 2 29 22q1 4 11 31t15 45zM846 1319l31 -29q-414 -763 -674 -1265l-29 30q368 673 672 1264zM786 756h2q73 0 120.5 -38t47.5 -110q0 -69 -51 -110q-61 -39 -108 -52v-4
q112 -11 159 -65q35 -38 35 -98q0 -87 -61 -140q-59 -59 -174 -59q-80 0 -128 34t-48 79q0 24 13.5 38.5t39.5 14.5q15 0 21.5 -8t9.5 -29q7 -50 36 -78.5t70 -28.5q50 0 76 45t26 125q0 70 -28 111t-86 41q-20 0 -56 -8l-18 16l2 6q46 6 82 19q80 36 80 151q0 51 -22.5 87
t-63.5 36q-86 0 -86 -94q0 -8 2 -22t2 -17q1 -17 -9.5 -25t-27.5 -8q-23 0 -36 14t-13 35q0 50 54 96t138 46z" />
    <glyph glyph-name="oneeighth" unicode="&#x215b;" horiz-adv-x="1040" 
d="M387 637v-21q-30 0 -85.5 2.5t-76.5 2.5q-33 0 -85 -2.5t-66 -2.5l-4 21l67 8q32 3 35 25q8 64 8 164v213q0 113 -6 163q-2 21 -12 21q-9 -2 -24.5 -4.5t-35.5 -5.5t-28 -4l4 26q154 18 205 37l4 -2q-4 -70 -4 -219v-232q0 -97 6 -157q5 -21 26 -23zM821 1319l33 -31
q-319 -576 -674 -1265l-30 32q381 700 671 1264zM780 756h2q68 0 116 -41.5t48 -110.5q0 -55 -37 -88t-84 -63q94 -49 123 -91.5t29 -97.5q0 -81 -70 -137q-63 -47 -147 -47q-90 0 -145.5 44t-55.5 116q0 60 47 100q8 9 18.5 17t30.5 23t39 30q-66 39 -90 73t-24 90
q0 63 41 113q53 70 159 70zM758 733h-2q-38 0 -66 -28.5t-28 -79.5q0 -58 30 -90q29 -29 113 -72q65 58 65 131q0 63 -28 101t-84 38zM776 104h2q49 0 81 30t32 85q0 47 -39 87t-135 91q-76 -53 -76 -139q0 -62 36.5 -108t98.5 -46z" />
    <glyph glyph-name="threeeighths" unicode="&#x215c;" horiz-adv-x="1040" 
d="M250 1280h2q73 0 120.5 -37.5t47.5 -107.5t-51 -111q-58 -37 -109 -51v-4q112 -11 160 -66q35 -38 35 -98q0 -85 -62 -139q-58 -62 -172 -62q-80 0 -128 34t-48 81q0 24 13.5 38.5t39.5 14.5q15 0 21.5 -8t9.5 -29q7 -52 35 -80t69 -28q50 0 76.5 45.5t26.5 126.5
q0 68 -28.5 109.5t-84.5 41.5q-25 0 -55 -10l-18 18l2 7q47 6 79 18q80 31 80 152q0 50 -22.5 85t-63.5 35q-42 0 -63 -22t-21 -72q0 -7 2 -21t2 -18q1 -17 -9 -24.5t-27 -7.5q-22 0 -36 15t-14 36q0 49 54 94t137 45zM836 1319l30 -29q-356 -650 -671 -1267l-31 32
q431 795 672 1264zM793 756h2q68 0 115.5 -41.5t47.5 -110.5q0 -56 -36 -88t-86 -65q94 -48 122.5 -89.5t28.5 -97.5q0 -81 -69 -137q-63 -47 -146 -47q-90 0 -145.5 44t-55.5 116q0 60 47 100q8 9 18.5 17t31 23t39.5 30q-66 39 -90.5 73t-24.5 90q0 63 41 113
q53 70 160 70zM770 733h-2q-38 0 -66 -29.5t-28 -80.5q0 -55 31 -88q30 -30 112 -72q66 56 66 131q0 63 -28.5 101t-84.5 38zM786 104h2q49 0 81 30t32 85q0 46 -38.5 86t-133.5 92q-76 -53 -76 -139q0 -62 36.5 -108t96.5 -46z" />
    <glyph glyph-name="fiveeighths" unicode="&#x215d;" horiz-adv-x="1040" 
d="M113 889l-21 18q18 45 32.5 184t12.5 185q67 -23 137 -23q144 0 175 47l14 -8q-20 -66 -70 -98q-39 -25 -129 -25q-56 0 -100 11q-2 -10 -15 -105.5t-20 -128.5q65 55 152 55q79 0 126.5 -43.5t47.5 -136.5q0 -80 -39 -131q-59 -86 -189 -86q-73 0 -119.5 30.5
t-46.5 80.5q0 19 14 32t40 13q27 0 35 -45q19 -88 88 -88q102 0 102 178q0 88 -35 129q-24 31 -76 31q-39 0 -71.5 -21.5t-44.5 -54.5zM838 1319l30 -29q-329 -598 -671 -1267l-31 32q368 673 672 1264zM788 756h3q68 0 115.5 -41.5t47.5 -110.5q0 -56 -36 -88
q-33 -30 -87 -65q94 -48 123 -90t29 -97q0 -81 -70 -137q-63 -47 -145 -47q-90 0 -145.5 44t-55.5 116q0 60 47 100q8 9 18.5 17t30.5 23t39 30q-66 39 -90 73t-24 90q0 63 41 113q53 70 159 70zM766 733h-2q-38 0 -66 -29t-28 -81q0 -56 30 -88q29 -29 113 -72
q66 56 66 131q0 63 -28.5 101t-84.5 38zM782 104h2q49 0 81 30t32 85q0 46 -38.5 86t-133.5 92q-76 -53 -76 -139q0 -62 36.5 -108t96.5 -46z" />
    <glyph glyph-name="seveneighths" unicode="&#x215e;" horiz-adv-x="1040" 
d="M96 1061l-20 6q12 49 19 115.5t5 93.5q17 -8 53.5 -10t149.5 -2q166 0 189 2l6 -6q-10 -49 -37 -101q-89 -151 -141.5 -297t-45.5 -250l-8 -8q-39 3 -61 12q-27 14 -27 35q0 15 8 47q20 71 120.5 241.5t129.5 231.5q-48 7 -170 7q-85 0 -108.5 -6t-34.5 -29
q-23 -62 -27 -82zM780 1319l31 -29q-335 -610 -674 -1267l-28 32q381 700 671 1264zM764 756h2q68 0 116 -41.5t48 -110.5q0 -56 -37 -86q-32 -32 -86 -65q94 -49 122.5 -91t28.5 -98q0 -81 -69 -137q-63 -47 -146 -47q-89 0 -144.5 44t-55.5 116q0 60 47 100q8 9 18.5 17
t30.5 23t39 30q-66 39 -90.5 73t-24.5 90q0 66 41 113q50 70 160 70zM741 733h-2q-38 0 -66 -28.5t-28 -79.5q0 -57 31 -90q30 -30 112 -72q66 59 66 131q0 64 -28.5 101.5t-84.5 37.5zM758 104h2q49 0 80.5 30t31.5 85q0 47 -38.5 87t-133.5 91q-75 -52 -75 -139
q0 -62 36.5 -108t96.5 -46z" />
    <glyph glyph-name="uni2190" unicode="&#x2190;" horiz-adv-x="987" 
d="M936 428h-711l330 -295l-55 -72l-449 410v2l449 410l55 -72l-330 -295h711v-88z" />
    <glyph glyph-name="uni2192" unicode="&#x2192;" horiz-adv-x="987" 
d="M51 516h711l-328 295l55 72l447 -410v-2l-447 -410l-55 72l328 295h-711v88z" />
    <glyph glyph-name="partialdiff" unicode="&#x2202;" horiz-adv-x="774" 
d="M104 1180q-7 13 2.5 48t24.5 50q18 21 65 35t105 14t113 -24.5t105 -78.5t87.5 -131.5t59.5 -190.5t22 -249q0 -193 -43 -345t-127.5 -241.5t-198.5 -89.5q-120 0 -184.5 79t-64.5 229q0 157 91.5 261.5t227.5 104.5q69 0 113.5 -26t62.5 -60h4q13 123 13 264
q0 207 -64 328t-180 121q-153 0 -229 -98h-5zM338 8h2q55 0 102.5 79.5t76.5 194.5t42 246q-12 26 -52 52t-95 26q-89 0 -151 -82.5t-62 -251.5q0 -130 38 -197t99 -67z" />
    <glyph glyph-name="Delta" unicode="&#x2206;" horiz-adv-x="780" 
d="M729 -6q-10 0 -45.5 1.5t-99.5 3t-142 1.5h-391v25q71 323 279 1126q15 57 18 115q82 12 105 26q168 -815 276 -1265v-33zM356 1141q-14 -70 -105.5 -450t-127.5 -562q-10 -56 20 -63q54 -15 203 -15q142 0 191 8q13 2 17 3t9.5 6.5t4.5 17t-5 31.5q-24 124 -70 351
t-88 432.5t-49 240.5z" />
    <glyph glyph-name="product" unicode="&#x220f;" horiz-adv-x="962" 
d="M166 264v647q0 236 -2 306q-2 51 -19.5 65.5t-83.5 15.5v23q10 0 65.5 -3t96.5 -3h516q65 0 164 6v-23q-65 -3 -83 -17.5t-19 -63.5q-4 -140 -4 -293v-674q0 -299 6 -365q2 -39 19.5 -51t82.5 -16l-2 -23q-117 6 -178 6q-69 0 -168 -6v23q59 1 76.5 15.5t19.5 55.5
q6 141 6 340v994q0 32 -8 43.5t-35 11.5q-90 4 -133 4q-57 0 -139 -4q-25 0 -33 -10.5t-8 -38.5v-1002q0 -207 8 -333q1 -49 19.5 -62.5t79.5 -13.5v-23q-16 0 -80.5 3t-112.5 3q-35 0 -91.5 -3t-70.5 -3v23q63 0 82 14.5t21 54.5q8 98 8 377z" />
    <glyph glyph-name="summation" unicode="&#x2211;" horiz-adv-x="786" 
d="M55 1300v21q25 0 98.5 -3t114.5 -3h189q175 0 205 12q-12 -158 -5 -260l-24 -8q-5 52 -29 135q-11 34 -25.5 50.5t-52.5 27.5t-106 10l-182 -2q-31 0 -23 -25l240 -651q-2 -5 -297 -676q-8 -19 20 -24q44 -8 209 -8q152 0 196.5 7t69.5 34q49 57 78 165l21 -8
q-1 -35 -25.5 -143t-40.5 -166q-113 10 -266 10h-121q-63 0 -149 -3t-105 -3v18q52 96 154.5 320t160.5 362z" />
    <glyph glyph-name="minus" unicode="&#x2212;" horiz-adv-x="806" 
d="M86 479h635v-65h-635v65z" />
    <glyph glyph-name="uni2215" unicode="&#x2215;" horiz-adv-x="145" 
d="M377 1319l31 -29q-343 -624 -672 -1267l-31 32q368 673 672 1264z" />
    <glyph glyph-name="uni2219" unicode="&#x2219;" horiz-adv-x="430" 
d="M215 592h2q61 0 96 -44t35 -108q0 -65 -38 -105t-95 -40q-56 0 -94.5 40.5t-38.5 104.5t39 108t94 44z" />
    <glyph glyph-name="radical" unicode="&#x221a;" horiz-adv-x="847" 
d="M815 1591l-311 -1892h-21l-305 879l-108 -48l-11 35l199 82l174 -522q48 -142 68 -231h2q1 22 15.5 110t17.5 107l237 1480h43z" />
    <glyph glyph-name="infinity" unicode="&#x221e;" horiz-adv-x="1062" 
d="M776 244h-2q-37 0 -69 11.5t-66.5 41.5t-51 47.5t-57.5 63.5q-36 -41 -53.5 -59.5t-53 -48.5t-71.5 -43t-78 -13q-86 0 -140 56t-54 153q0 86 61.5 148.5t147.5 62.5q24 0 45 -4t42 -16.5t34 -19.5t34.5 -29t28.5 -29t31 -35.5t28 -32.5q26 31 42.5 49t44.5 43t51.5 39
t55.5 24.5t65 10.5q82 0 137 -59t55 -150q0 -87 -61 -149t-146 -62zM285 305h2q42 0 80.5 21.5t63 46.5t55.5 63q7 9 10 13q-11 12 -37.5 42t-41.5 44.5t-38 34t-46.5 28t-49.5 8.5q-63 0 -101.5 -43t-38.5 -108q0 -67 41 -108.5t101 -41.5zM780 305h2q61 0 99.5 42.5
t38.5 107.5q0 68 -36.5 109.5t-97.5 41.5q-43 0 -84.5 -23t-66 -48t-59.5 -65q-6 -7 -9 -11l31.5 -36t33.5 -38t31 -30t36.5 -27.5t36.5 -15t44 -7.5z" />
    <glyph glyph-name="integral" unicode="&#x222b;" horiz-adv-x="579" 
d="M520 1489v-2q0 -47 -55 -47q-26 0 -46.5 26.5t-49.5 26.5q-32 0 -48 -56.5t-12 -162.5q4 -86 13.5 -291.5t17.5 -381t12 -308.5q9 -320 -47.5 -475.5t-161.5 -155.5q-38 0 -62 17.5t-24 48.5q0 28 17.5 42.5t46.5 14.5q30 0 52 -24.5t44 -24.5q18 0 31.5 25.5t21.5 89.5
t4 159q-13 405 -41 864q-3 116 -4 206t9.5 159.5t20.5 119.5t29 85t35.5 56t38.5 32.5t39.5 15.5t38.5 4q35 0 57.5 -17.5t22.5 -45.5z" />
    <glyph glyph-name="approxequal" unicode="&#x2248;" horiz-adv-x="856" 
d="M678 649l53 -20q-23 -78 -65.5 -114t-114.5 -36q-65 0 -176 62q-64 41 -113 41q-90 0 -129 -99l-51 25q52 135 182 135q68 0 168 -57q77 -43 125 -43q92 0 121 106zM678 416l53 -21q-23 -78 -66.5 -113.5t-115.5 -35.5q-68 0 -174 61q-66 39 -115 39q-45 0 -75.5 -21.5
t-51.5 -74.5l-51 24q53 136 182 136q64 0 170 -58q72 -43 125 -43q90 0 119 107z" />
    <glyph glyph-name="notequal" unicode="&#x2260;" horiz-adv-x="806" 
d="M82 610h369q31 61 77 162q9 -4 27 -13.5t27 -13.5l-66 -135h205v-65h-234l-92 -199h326v-65h-359q-9 -19 -34.5 -75t-40.5 -87q-23 13 -56 26l66 136h-215v65h244l94 199h-338v65z" />
    <glyph glyph-name="lessequal" unicode="&#x2264;" horiz-adv-x="796" 
d="M106 467v55l584 293v-76l-506 -243v-4l506 -244v-76zM106 111h584v-66h-584v66z" />
    <glyph glyph-name="greaterequal" unicode="&#x2265;" horiz-adv-x="796" 
d="M690 522v-55l-584 -295v78l506 242v6l-506 241v76zM106 111h584v-66h-584v66z" />
    <glyph glyph-name="blacksquare" unicode="&#x25a0;" horiz-adv-x="583" 
d="M92 684h400v-410h-400v410z" />
    <glyph glyph-name="blackrightpointingtriangle" unicode="&#x25b6;" horiz-adv-x="837" 
d="M102 152q2 634 0 634h2l664 -313v-2l-664 -321z" />
    <glyph glyph-name="whiterightpointingtriangle" unicode="&#x25b7;" horiz-adv-x="837" 
d="M176 674l2 -404l424 205zM102 156q2 635 0 635h2l664 -314v-2l-664 -321z" />
    <glyph glyph-name="blackleftpointingtriangle" unicode="&#x25c0;" horiz-adv-x="837" 
d="M735 784q-2 -634 0 -634h-2l-663 313v2l663 321z" />
    <glyph glyph-name="whiteleftpointingtriangle" unicode="&#x25c1;" horiz-adv-x="837" 
d="M659 270v404l-426 -205zM735 788q-2 -634 0 -634h-2l-663 313v2l663 322z" />
    <glyph glyph-name="blackdiamond" unicode="&#x25c6;" horiz-adv-x="686" 
d="M59 483l281 281l287 -289l-281 -280z" />
    <glyph glyph-name="fisheye" unicode="&#x25c9;" horiz-adv-x="677" 
d="M340 770h2q110 0 187 -79.5t77 -192.5t-77 -193t-189 -80q-114 0 -191 79.5t-77 193.5t77 193t191 79zM340 696h-2q-77 0 -128.5 -58.5t-51.5 -139.5q0 -83 52 -141t130 -58t129 59t51 140t-51 139.5t-129 58.5zM340 604h-2q-42 0 -70 -31t-28 -75q0 -45 28.5 -77
t71.5 -32q42 0 70 32.5t28 76.5t-28 75t-70 31z" />
    <glyph glyph-name="lozenge" unicode="&#x25ca;" horiz-adv-x="866" 
d="M764 614l-307 -688h-66l-289 678l289 699h74zM684 604l-252 631h-4l-248 -623l248 -608h2z" />
    <glyph glyph-name="uni2610" unicode="&#x2610;" horiz-adv-x="1406" 
d="M207 1110h1020v-1036l-78 -74h-1014v1042zM180 1030v-983h959v983h-959z" />
    <glyph glyph-name="uni2611" unicode="&#x2611;" horiz-adv-x="1406" 
d="M207 1110h1020v-1036l-78 -74h-1014v1042zM180 1030v-983h959v983h-959zM874 899q18 24 68 45.5t94 26.5v-4q-51 -56 -103 -131t-111.5 -182.5t-92 -170t-100 -199t-80.5 -161.5h-2q-36 30 -129.5 196t-93.5 203q9 20 39 48t49 32h2q10 -52 59.5 -175t83.5 -185
q62 157 156 362t161 295z" />
    <glyph glyph-name="A.sc" unicode="&#xe000;" horiz-adv-x="706" 
d="M735 16v-22q-19 0 -70 3t-92 3q-28 0 -88 -3t-84 -3v22q41 5 62 13.5t24 15.5t2 18q-6 36 -75 332q-23 2 -113 2q-97 0 -111 -2q-59 -248 -65 -293q-6 -48 13.5 -65.5t90.5 -20.5l2 -22q-17 0 -65.5 3t-73.5 3q-13 0 -55 -3t-76 -3v22q59 3 78 19t39 80q22 66 62.5 223.5
t90.5 362t52 212.5q7 20 12 74q42 -5 115 23q192 -832 229 -942q10 -36 47 -43zM307 883q-30 -121 -104 -449q28 -4 102 -4q79 0 103 4q-11 58 -28.5 135t-40.5 174.5t-32 139.5z" />
    <glyph glyph-name="AE.sc" unicode="&#xe001;" horiz-adv-x="1017" 
d="M551 987h203q110 0 168 14q-5 -103 -2 -256l-25 -2q-8 74 -27 142q-18 39 -48 53t-111 14h-74q-11 0 -15 -5.5t-4 -24.5q-4 -33 -4 -215v-222h86q78 0 105.5 23.5t36.5 103.5h20q-13 -174 -2 -307h-20q-5 45 -11.5 69.5t-21.5 43.5t-40.5 26t-68.5 7h-84v-103
q0 -154 9 -278q2 -19 7.5 -25.5t26.5 -10t72 -3.5q82 0 120 11.5t58 43.5q37 62 56 182l22 -2q-1 -19 -11 -134t-11 -142q-5 0 -88 5t-173 5h-143q-11 0 -44.5 -1t-53.5 -1q-78 -4 -101 -4l2 22l78 9q19 1 26 16t9 49q4 114 4 262v99q-169 0 -201 -5q-109 -285 -126 -356
q-6 -26 3.5 -40.5t43.5 -18.5l77 -11l-2 -26q-39 0 -87.5 3t-65.5 3q-19 0 -68 -3t-82 -3v22q53 5 80.5 24.5t54.5 84.5q67 158 185 458.5t135 342.5q14 35 -14 35l-105 8l-6 24q171 -6 252 -6zM477 485v461h-6q-26 -57 -55.5 -133t-71.5 -189.5t-51 -138.5q58 -4 184 0z
" />
    <glyph glyph-name="Aacute.sc" unicode="&#xe002;" horiz-adv-x="706" 
d="M735 16v-22q-19 0 -70 3t-92 3q-28 0 -88 -3t-84 -3v22q41 5 62 13.5t24 15.5t2 18q-6 36 -75 332q-23 2 -113 2q-97 0 -111 -2q-59 -248 -65 -293q-6 -48 13.5 -65.5t90.5 -20.5l2 -22q-17 0 -65.5 3t-73.5 3q-13 0 -55 -3t-76 -3v22q59 3 78 19t39 80q22 66 62.5 223.5
t90.5 362t52 212.5q7 20 12 74q42 -5 115 23q192 -832 229 -942q10 -36 47 -43zM307 883q-30 -121 -104 -449q28 -4 102 -4q79 0 103 4q-11 58 -28.5 135t-40.5 174.5t-32 139.5zM324 1092l-17 12q13 22 58.5 108t62.5 113q33 57 76 57q12 0 21.5 -10.5t9.5 -28.5
q0 -40 -60 -96q-100 -107 -151 -155z" />
    <glyph glyph-name="Acircumflex.sc" unicode="&#xe003;" horiz-adv-x="706" 
d="M735 16v-22q-19 0 -70 3t-92 3q-28 0 -88 -3t-84 -3v22q41 5 62 13.5t24 15.5t2 18q-6 36 -75 332q-23 2 -113 2q-97 0 -111 -2q-59 -248 -65 -293q-6 -48 13.5 -65.5t90.5 -20.5l2 -22q-17 0 -65.5 3t-73.5 3q-13 0 -55 -3t-76 -3v22q59 3 78 19t39 80q22 66 62.5 223.5
t90.5 362t52 212.5q7 20 12 74q42 -5 115 23q192 -832 229 -942q10 -36 47 -43zM307 883q-30 -121 -104 -449q28 -4 102 -4q79 0 103 4q-11 58 -28.5 135t-40.5 174.5t-32 139.5zM344 1374l16 8q65 -140 156 -268l-12 -12q-34 29 -82.5 75t-69.5 70q-88 -93 -151 -145
l-13 12q89 119 156 260z" />
    <glyph glyph-name="Adieresis.sc" unicode="&#xe004;" horiz-adv-x="706" 
d="M735 16v-22q-19 0 -70 3t-92 3q-28 0 -88 -3t-84 -3v22q41 5 62 13.5t24 15.5t2 18q-6 36 -75 332q-23 2 -113 2q-97 0 -111 -2q-59 -248 -65 -293q-6 -48 13.5 -65.5t90.5 -20.5l2 -22q-17 0 -65.5 3t-73.5 3q-13 0 -55 -3t-76 -3v22q59 3 78 19t39 80q22 66 62.5 223.5
t90.5 362t52 212.5q7 20 12 74q42 -5 115 23q192 -832 229 -942q10 -36 47 -43zM307 883q-30 -121 -104 -449q28 -4 102 -4q79 0 103 4q-11 58 -28.5 135t-40.5 174.5t-32 139.5zM227 1284h2q27 0 44.5 -18.5t17.5 -48.5q0 -37 -19 -57.5t-43 -20.5q-29 0 -48 17.5t-19 53.5
q0 34 16.5 54t48.5 20zM473 1284h2q27 0 43.5 -18.5t16.5 -48.5q0 -36 -18.5 -57t-45.5 -21q-29 0 -48.5 17.5t-19.5 53.5q0 34 18.5 54t51.5 20z" />
    <glyph glyph-name="Agrave.sc" unicode="&#xe005;" horiz-adv-x="706" 
d="M735 16v-22q-19 0 -70 3t-92 3q-28 0 -88 -3t-84 -3v22q41 5 62 13.5t24 15.5t2 18q-6 36 -75 332q-23 2 -113 2q-97 0 -111 -2q-59 -248 -65 -293q-6 -48 13.5 -65.5t90.5 -20.5l2 -22q-17 0 -65.5 3t-73.5 3q-13 0 -55 -3t-76 -3v22q59 3 78 19t39 80q22 66 62.5 223.5
t90.5 362t52 212.5q7 20 12 74q42 -5 115 23q192 -832 229 -942q10 -36 47 -43zM307 883q-30 -121 -104 -449q28 -4 102 -4q79 0 103 4q-11 58 -28.5 135t-40.5 174.5t-32 139.5zM377 1092q-32 32 -65 65.5t-52.5 53.5t-34.5 34q-45 45 -45 80q0 24 12 36.5t29 12.5
q36 0 64 -55q19 -34 56.5 -114t49.5 -103z" />
    <glyph glyph-name="Aring.sc" unicode="&#xe006;" horiz-adv-x="706" 
d="M735 16v-22q-19 0 -70 3t-92 3q-28 0 -88 -3t-84 -3v22q41 5 62 13.5t24 15.5t2 18q-6 36 -75 332q-23 2 -113 2q-97 0 -111 -2q-59 -248 -65 -293q-6 -48 13.5 -65.5t90.5 -20.5l2 -22q-17 0 -65.5 3t-73.5 3q-13 0 -55 -3t-76 -3v22q59 3 78 19t39 80q22 66 62.5 223.5
t90.5 362t52 212.5q7 20 12 74q42 -5 115 23q192 -832 229 -942q10 -36 47 -43zM307 883q-30 -121 -104 -449q28 -4 102 -4q79 0 103 4q-11 58 -28.5 135t-40.5 174.5t-32 139.5zM358 1366h2q58 0 95 -38.5t37 -100.5q0 -68 -40.5 -107t-101.5 -39q-60 0 -97.5 37.5
t-37.5 100.5q0 68 40.5 107.5t102.5 39.5zM354 1346h-2q-69 0 -69 -123q0 -56 18.5 -87.5t52.5 -31.5q70 0 70 125q0 45 -15.5 81t-54.5 36z" />
    <glyph glyph-name="Atilde.sc" unicode="&#xe007;" horiz-adv-x="706" 
d="M735 16v-22q-19 0 -70 3t-92 3q-28 0 -88 -3t-84 -3v22q41 5 62 13.5t24 15.5t2 18q-6 36 -75 332q-23 2 -113 2q-97 0 -111 -2q-59 -248 -65 -293q-6 -48 13.5 -65.5t90.5 -20.5l2 -22q-17 0 -65.5 3t-73.5 3q-13 0 -55 -3t-76 -3v22q59 3 78 19t39 80q22 66 62.5 223.5
t90.5 362t52 212.5q7 20 12 74q42 -5 115 23q192 -832 229 -942q10 -36 47 -43zM307 883q-30 -121 -104 -449q28 -4 102 -4q79 0 103 4q-11 58 -28.5 135t-40.5 174.5t-32 139.5zM209 1122l-25 6q0 71 26 121.5t79 50.5q41 0 92 -51q53 -55 80 -55q25 0 40 29.5t15 81.5
l23 -7q0 -77 -25 -127.5t-78 -50.5q-38 0 -96 58q-22 26 -36 36.5t-32 10.5q-57 0 -63 -103z" />
    <glyph glyph-name="B.sc" unicode="&#xe008;" horiz-adv-x="737" 
d="M37 -6v24q60 1 77 9t19 30q8 73 8 230v411q0 146 -6 238q0 17 -19.5 25.5t-76.5 7.5l2 24q15 0 75 -3t87 -3q30 0 96 4q70 4 92 4q124 0 189 -59q57 -57 57 -166q0 -151 -127 -211q-43 -20 -84 -27v-6q119 -12 184 -63q78 -61 78 -184q0 -142 -90 -216
q-41 -32 -106.5 -49.5t-137.5 -17.5q-58 0 -164 4q-92 0 -153 -6zM276 758v-219h54q76 -2 122 50.5t46 170.5q0 83 -33 147q-33 60 -125 60q-56 0 -59 -25q-5 -77 -5 -184zM276 508v-225q0 -141 9 -220q3 -38 75 -38q113 0 150 92q25 63 25 166q0 115 -48 170
q-48 57 -157 57q-9 0 -30 -1t-24 -1z" />
    <glyph glyph-name="C.sc" unicode="&#xe009;" horiz-adv-x="718" 
d="M653 705l-24 -9q-9 141 -47 203q-48 84 -136 84q-45 0 -87.5 -26t-71.5 -78q-80 -136 -80 -387q0 -116 22 -215.5t60 -153.5q64 -92 170 -92q70 0 122 42.5t83 151.5l22 -10q-31 -123 -99.5 -182.5t-180.5 -59.5q-91 0 -156 32t-113 108q-38 60 -60 155t-22 207
q0 252 113 399q104 138 276 138q62 0 109 -19.5t72 -50.5l22 76l21 -10q-18 -158 -15 -303z" />
    <glyph glyph-name="Ccedilla.sc" unicode="&#xe00a;" horiz-adv-x="716" 
d="M444 -25q-25 -40 -34 -55q112 -24 112 -121q0 -63 -38 -99t-101 -36q-45 0 -86 31l8 20q37 -16 72 -16q67 0 67 70q0 34 -29 53.5t-77 21.5l-6 13q24 36 82 116h-8q-182 0 -275 144q-76 124 -76 358q0 128 32 230t83 169q53 70 117.5 104t158.5 34q58 0 106 -21.5
t73 -52.5l22 80l21 -10q-18 -158 -15 -303l-24 -9q-8 138 -45 201q-26 42 -56 64t-79 22q-98 0 -162 -104q-80 -144 -80 -390q0 -117 22.5 -215t61.5 -153q65 -92 168 -92q70 0 122 42t85 148l20 -10q-54 -216 -242 -234z" />
    <glyph glyph-name="D.sc" unicode="&#xe00b;" horiz-adv-x="837" 
d="M139 389v275q0 68 -0.5 125t-1 89t-0.5 40q-1 21 -7.5 29.5t-20.5 10.5l-76 11l2 24q99 -6 162 -6q33 0 85.5 3t96.5 3q174 0 264 -75q139 -122 139 -400q0 -172 -58 -296.5t-179 -184.5q-84 -41 -197 -41q-43 0 -153 4q-31 0 -96.5 -3t-78.5 -3l3 22l63 7q24 5 33 13.5
t10 29.5q10 78 10 323zM274 649v-268q0 -274 5 -318q1 -12 4 -18.5t15.5 -12t35.5 -5.5q157 0 223 102q76 116 76 385q0 103 -18 192.5t-48 135.5q-39 63 -87 91t-140 28q-25 0 -38 -5t-15.5 -10t-3.5 -14q-9 -112 -9 -283z" />
    <glyph glyph-name="E.sc" unicode="&#xe00c;" horiz-adv-x="704" 
d="M33 971v22q10 0 37.5 -1t44.5 -1q62 -4 96 -4h225q105 0 168 14q-10 -106 -4 -241l-25 -2q-5 59 -26 125q-14 40 -46 54.5t-114 14.5h-86q-12 0 -17 -5.5t-5 -24.5q-5 -88 -5 -211v-187q6 0 41.5 -1t49.5 -1q79 0 104.5 23t34.5 104h26q-12 -153 -2 -307h-26
q-4 45 -9.5 69t-20.5 43.5t-40.5 26t-68.5 6.5q-18 0 -51 -1t-38 -1v-139q0 -230 5 -278q3 -24 26.5 -30.5t100.5 -6.5q84 0 125 12.5t59 46.5q35 58 61 172l19 -2q-4 -85 -33 -270q-185 10 -274 10h-146q-13 0 -51 -1t-57 -1q-78 -4 -91 -4l3 22l77 9q18 3 26 14.5t9 42.5
q6 165 6 268v303q0 171 -4 273q0 21 -6.5 28.5t-26.5 8.5z" />
    <glyph glyph-name="Eacute.sc" unicode="&#xe00d;" horiz-adv-x="704" 
d="M33 971v22q10 0 37.5 -1t44.5 -1q62 -4 96 -4h225q105 0 168 14q-10 -106 -4 -241l-25 -2q-5 59 -26 125q-14 40 -46 54.5t-114 14.5h-86q-12 0 -17 -5.5t-5 -24.5q-5 -88 -5 -211v-187q6 0 41.5 -1t49.5 -1q79 0 104.5 23t34.5 104h26q-12 -153 -2 -307h-26
q-4 45 -9.5 69t-20.5 43.5t-40.5 26t-68.5 6.5q-18 0 -51 -1t-38 -1v-139q0 -230 5 -278q3 -24 26.5 -30.5t100.5 -6.5q84 0 125 12.5t59 46.5q35 58 61 172l19 -2q-4 -85 -33 -270q-185 10 -274 10h-146q-13 0 -51 -1t-57 -1q-78 -4 -91 -4l3 22l77 9q18 3 26 14.5t9 42.5
q6 165 6 268v303q0 171 -4 273q0 21 -6.5 28.5t-26.5 8.5zM317 1092l-16 12q13 22 58.5 108t62.5 113q33 57 76 57q11 0 20.5 -10.5t9.5 -28.5q0 -41 -59 -96q-93 -99 -152 -155z" />
    <glyph glyph-name="Ecircumflex.sc" unicode="&#xe00e;" horiz-adv-x="704" 
d="M33 971v22q10 0 37.5 -1t44.5 -1q62 -4 96 -4h225q105 0 168 14q-10 -106 -4 -241l-25 -2q-5 59 -26 125q-14 40 -46 54.5t-114 14.5h-86q-12 0 -17 -5.5t-5 -24.5q-5 -88 -5 -211v-187q6 0 41.5 -1t49.5 -1q79 0 104.5 23t34.5 104h26q-12 -153 -2 -307h-26
q-4 45 -9.5 69t-20.5 43.5t-40.5 26t-68.5 6.5q-18 0 -51 -1t-38 -1v-139q0 -230 5 -278q3 -24 26.5 -30.5t100.5 -6.5q84 0 125 12.5t59 46.5q35 58 61 172l19 -2q-4 -85 -33 -270q-185 10 -274 10h-146q-13 0 -51 -1t-57 -1q-78 -4 -91 -4l3 22l77 9q18 3 26 14.5t9 42.5
q6 165 6 268v303q0 171 -4 273q0 21 -6.5 28.5t-26.5 8.5zM356 1374l17 8q66 -144 155 -268l-12 -12q-34 28 -82 74.5t-69 70.5q-84 -89 -152 -145l-12 12q86 115 155 260z" />
    <glyph glyph-name="Edieresis.sc" unicode="&#xe00f;" horiz-adv-x="704" 
d="M33 971v22q10 0 37.5 -1t44.5 -1q62 -4 96 -4h225q105 0 168 14q-10 -106 -4 -241l-25 -2q-5 59 -26 125q-14 40 -46 54.5t-114 14.5h-86q-12 0 -17 -5.5t-5 -24.5q-5 -88 -5 -211v-187q6 0 41.5 -1t49.5 -1q79 0 104.5 23t34.5 104h26q-12 -153 -2 -307h-26
q-4 45 -9.5 69t-20.5 43.5t-40.5 26t-68.5 6.5q-18 0 -51 -1t-38 -1v-139q0 -230 5 -278q3 -24 26.5 -30.5t100.5 -6.5q84 0 125 12.5t59 46.5q35 58 61 172l19 -2q-4 -85 -33 -270q-185 10 -274 10h-146q-13 0 -51 -1t-57 -1q-78 -4 -91 -4l3 22l77 9q18 3 26 14.5t9 42.5
q6 165 6 268v303q0 171 -4 273q0 21 -6.5 28.5t-26.5 8.5zM233 1247h3q27 0 44 -18.5t17 -48.5q0 -37 -18.5 -57.5t-42.5 -20.5q-29 0 -48.5 18t-19.5 54q0 34 16.5 53.5t48.5 19.5zM479 1247h2q27 0 43.5 -18.5t16.5 -48.5q0 -36 -18.5 -57t-45.5 -21q-29 0 -48 18t-19 54
q0 34 18 53.5t51 19.5z" />
    <glyph glyph-name="Egrave.sc" unicode="&#xe010;" horiz-adv-x="704" 
d="M33 971v22q10 0 37.5 -1t44.5 -1q62 -4 96 -4h225q105 0 168 14q-10 -106 -4 -241l-25 -2q-5 59 -26 125q-14 40 -46 54.5t-114 14.5h-86q-12 0 -17 -5.5t-5 -24.5q-5 -88 -5 -211v-187q6 0 41.5 -1t49.5 -1q79 0 104.5 23t34.5 104h26q-12 -153 -2 -307h-26
q-4 45 -9.5 69t-20.5 43.5t-40.5 26t-68.5 6.5q-18 0 -51 -1t-38 -1v-139q0 -230 5 -278q3 -24 26.5 -30.5t100.5 -6.5q84 0 125 12.5t59 46.5q35 58 61 172l19 -2q-4 -85 -33 -270q-185 10 -274 10h-146q-13 0 -51 -1t-57 -1q-78 -4 -91 -4l3 22l77 9q18 3 26 14.5t9 42.5
q6 165 6 268v303q0 171 -4 273q0 21 -6.5 28.5t-26.5 8.5zM397 1092q-38 38 -85.5 87t-65.5 66q-45 45 -45 80q0 24 12 36.5t29 12.5q35 0 63 -55q19 -35 57.5 -115.5t49.5 -101.5z" />
    <glyph glyph-name="Eth.sc" unicode="&#xe011;" horiz-adv-x="854" 
d="M35 502l4 43q9 0 51 -2t68 -2v121q0 68 -0.5 126.5t-1 92t-0.5 41.5q-1 19 -7.5 25.5t-19.5 8.5l-78 13l2 24q111 -6 162 -6q34 0 83.5 3t96.5 3q181 0 271 -75q135 -112 135 -406q0 -166 -57.5 -291.5t-172.5 -181.5q-88 -43 -204 -43q-38 0 -148 4q-29 0 -96 -3t-84 -3
l2 24l70 9q23 3 29.5 10t9.5 29q8 62 8 323v119q-62 0 -123 -6zM479 545l-8 -43q-43 0 -178 6v-127q0 -271 6 -324q2 -17 11.5 -23.5t41.5 -6.5q168 0 230 100q71 117 71 389q0 227 -65 332q-38 61 -90 87t-146 26q-47 0 -51 -29q0 -5 -2 -35t-4 -95t-2 -155v-106
q76 0 186 4z" />
    <glyph glyph-name="Euro.fitted" unicode="&#xe012;" horiz-adv-x="694" 
d="M238 719l342 4l-15 -45l-329 4q-3 -40 -3 -100l302 4l-13 -45l-289 4q2 -85 12 -164.5t33.5 -163.5t70 -135t110.5 -51q33 0 56.5 6t50.5 24.5t49 58.5t40 103l23 -12q-36 -125 -96.5 -179.5t-159.5 -54.5q-78 0 -137.5 36t-95 91t-58.5 133.5t-32 151.5t-11 156h-80
l19 37h61q0 73 4 100h-57l16 37h45q4 68 19 137.5t45 142t71 128.5t103 92t135 36q102 0 150.5 -46.5t48.5 -112.5q0 -38 -16 -61t-44 -23q-25 0 -35 10q-16 16 -10 35q10 45 10 57q0 22 -3 38t-12.5 35.5t-33.5 30.5t-61 11q-52 0 -92.5 -40.5t-63.5 -96.5t-39 -133
t-21.5 -130.5t-8.5 -109.5z" />
    <glyph glyph-name="Euro.oldstyle" unicode="&#xe013;" horiz-adv-x="710" 
d="M252 629l328 4l-15 -41l-315 4q-2 -25 -2 -94l289 2l-13 -41l-276 4q1 -42 3.5 -80t9.5 -93t22.5 -98.5t38 -83.5t59.5 -62.5t84 -22.5q26 0 45.5 3t42.5 13.5t41.5 29t36 50.5t31.5 76l24 -15q-39 -109 -97 -156.5t-159 -47.5q-57 0 -104 17t-79.5 44.5t-57 68.5
t-38.5 82t-23.5 92.5t-13.5 93t-5 89.5h-89l19 35h70q0 71 2 94h-64l16 33h52q6 60 19.5 117.5t41.5 120.5t66.5 109t99 76.5t135.5 30.5q101 0 148 -45.5t47 -107.5q0 -36 -17.5 -56t-44.5 -20q-17 0 -26 6q-19 14 -13 31q9 24 9 59q0 41 -26 75t-87 34q-187 0 -215 -430z
" />
    <glyph glyph-name="F.sc" unicode="&#xe014;" horiz-adv-x="677" 
d="M35 971v22q6 0 32.5 -1t43.5 -1q66 -4 96 -4h207q146 0 211 14q-4 -57 -4 -256h-25q-6 75 -23 127q-14 46 -47 63t-123 17h-98q-12 0 -17.5 -4t-6.5 -14q0 -3 -1.5 -36.5t-3.5 -94.5t-2 -131v-164h103q82 0 108 24t33 109l23 -2q-13 -202 -2 -320h-23q-4 40 -7 60.5
t-11.5 42.5t-23 31t-38.5 14.5t-61 5.5h-101v-172q0 -184 7 -231q3 -38 34 -41q78 -13 91 -13l-3 -22q-20 0 -83 3t-105 3q-46 0 -106.5 -3t-77.5 -3v24l69 9q26 3 29 43q10 62 10 290v316q0 212 -4 252q0 32 -31 35z" />
    <glyph glyph-name="G.sc" unicode="&#xe015;" horiz-adv-x="778" 
d="M659 694l-24 -4q-11 137 -60.5 214t-132.5 77q-56 0 -96.5 -31.5t-75.5 -95.5q-67 -128 -67 -365q0 -107 17.5 -206.5t49.5 -155.5q36 -64 75 -91.5t89 -27.5q98 0 107 92q4 31 4 260q0 45 -11.5 60.5t-52.5 19.5l-69 9l-2 24q23 0 82 -3t96 -3q111 0 168 6l4 -24
q-48 -8 -63.5 -16.5t-18.5 -31.5q-4 -39 -4 -188q0 -101 6 -176q-17 -4 -59.5 -18t-51.5 -17q-79 -27 -145 -27q-198 0 -291 152q-80 134 -80 356q0 152 48.5 273.5t138.5 189.5q84 64 209 64q110 0 186 -76l27 70l16 -13q-7 -48 -13.5 -147.5t-5.5 -149.5z" />
    <glyph glyph-name="H.sc" unicode="&#xe016;" horiz-adv-x="849" 
d="M139 307v389q0 162 -2 213q-1 36 -18.5 45.5t-77.5 12.5v26q16 0 73.5 -3t82.5 -3q18 0 73.5 3t98.5 3v-26q-53 0 -69 -11.5t-19 -44.5q-5 -88 -5 -196v-180q14 0 60 -1.5t76 -1.5q28 0 83 1.5t78 1.5v184q0 117 -4 203q-3 25 -20.5 35t-67.5 10v26q80 -6 162 -6
q28 0 87.5 3t78.5 3v-26q-57 -1 -74 -13.5t-20 -50.5q-4 -94 -4 -198v-396q0 -145 4 -231q3 -38 21.5 -50t78.5 -12v-22q-20 0 -81.5 3t-90.5 3q-61 0 -172 -6l4 22q56 3 74 14t20 40q4 76 4 235v191q-94 4 -161 4q-70 0 -136 -4v-191q0 -154 7 -233q3 -31 19 -41.5
t73 -14.5v-22q-17 0 -73 3t-93 3q-30 0 -94.5 -3t-81.5 -3v22q60 0 78.5 11.5t23.5 42.5q4 70 4 237z" />
    <glyph glyph-name="I.sc" unicode="&#xe017;" horiz-adv-x="417" 
d="M141 307v395q0 139 -4 213q-1 20 -2.5 27.5t-12 14.5t-27.5 9.5t-54 4.5v22q11 0 72.5 -3t93.5 -3q55 0 107 3t61 3l2 -22q-61 -4 -77 -14.5t-19 -36.5q-5 -67 -5 -209v-404q0 -187 5 -241q1 -18 6 -25.5t25.5 -14t64.5 -10.5v-22q-129 6 -172 6q-61 0 -166 -6v22
q66 8 81.5 15.5t16.5 34.5q4 62 4 241z" />
    <glyph glyph-name="Iacute.sc" unicode="&#xe018;" horiz-adv-x="417" 
d="M141 307v395q0 139 -4 213q-1 20 -2.5 27.5t-12 14.5t-27.5 9.5t-54 4.5v22q11 0 72.5 -3t93.5 -3q55 0 107 3t61 3l2 -22q-61 -4 -77 -14.5t-19 -36.5q-5 -67 -5 -209v-404q0 -187 5 -241q1 -18 6 -25.5t25.5 -14t64.5 -10.5v-22q-129 6 -172 6q-61 0 -166 -6v22
q66 8 81.5 15.5t16.5 34.5q4 62 4 241zM180 1092l-16 12q13 22 58.5 108t62.5 113q33 57 75 57q12 0 21.5 -10.5t9.5 -28.5q0 -41 -59 -96q-93 -99 -152 -155z" />
    <glyph glyph-name="Icircumflex.sc" unicode="&#xe019;" horiz-adv-x="417" 
d="M141 307v395q0 139 -4 213q-1 20 -2.5 27.5t-12 14.5t-27.5 9.5t-54 4.5v22q11 0 72.5 -3t93.5 -3q55 0 107 3t61 3l2 -22q-61 -4 -77 -14.5t-19 -36.5q-5 -67 -5 -209v-404q0 -187 5 -241q1 -18 6 -25.5t25.5 -14t64.5 -10.5v-22q-129 6 -172 6q-61 0 -166 -6v22
q66 8 81.5 15.5t16.5 34.5q4 62 4 241zM199 1374l16 8q65 -140 156 -268l-13 -12q-34 28 -82 74.5t-69 70.5q-84 -89 -152 -145l-12 12q89 119 156 260z" />
    <glyph glyph-name="Idieresis.sc" unicode="&#xe01a;" horiz-adv-x="417" 
d="M141 307v395q0 139 -4 213q-1 20 -2.5 27.5t-12 14.5t-27.5 9.5t-54 4.5v22q11 0 72.5 -3t93.5 -3q55 0 107 3t61 3l2 -22q-61 -4 -77 -14.5t-19 -36.5q-5 -67 -5 -209v-404q0 -187 5 -241q1 -18 6 -25.5t25.5 -14t64.5 -10.5v-22q-129 6 -172 6q-61 0 -166 -6v22
q66 8 81.5 15.5t16.5 34.5q4 62 4 241zM88 1247h2q27 0 44.5 -18.5t17.5 -48.5q0 -37 -19 -57.5t-43 -20.5q-29 0 -48 18t-19 54q0 34 16.5 53.5t48.5 19.5zM334 1247h2q26 0 42.5 -18t16.5 -49q0 -36 -18 -57t-45 -21q-29 0 -48.5 18t-19.5 54q0 34 18.5 53.5t51.5 19.5z
" />
    <glyph glyph-name="Igrave.sc" unicode="&#xe01b;" horiz-adv-x="417" 
d="M141 307v395q0 139 -4 213q-1 20 -2.5 27.5t-12 14.5t-27.5 9.5t-54 4.5v22q11 0 72.5 -3t93.5 -3q55 0 107 3t61 3l2 -22q-61 -4 -77 -14.5t-19 -36.5q-5 -67 -5 -209v-404q0 -187 5 -241q1 -18 6 -25.5t25.5 -14t64.5 -10.5v-22q-129 6 -172 6q-61 0 -166 -6v22
q66 8 81.5 15.5t16.5 34.5q4 62 4 241zM242 1092q-32 32 -65 65.5t-52.5 53.5t-34.5 34q-45 45 -45 80q0 24 12 36.5t29 12.5q36 0 64 -55q19 -34 56.5 -114t49.5 -103z" />
    <glyph glyph-name="J.sc" unicode="&#xe01c;" horiz-adv-x="393" 
d="M25 967l4 26q59 -6 174 -6q103 0 168 6l-2 -26l-52 -6q-22 -1 -29 -9.5t-9 -29.5q-5 -83 -5 -633q0 -91 -12 -201q-12 -139 -92 -238q-46 -58 -102 -90t-107 -32q-40 0 -65 18t-25 39t22.5 40t38.5 19t31 -18q36 -41 74 -41q36 0 60.5 36.5t29.5 143.5q12 243 12 490v247
q0 181 -4 216q-1 21 -8 28.5t-21 9.5q-54 9 -81 11z" />
    <glyph glyph-name="K.sc" unicode="&#xe01d;" horiz-adv-x="792" 
d="M145 338v299q0 231 -2 278q-2 31 -15.5 39.5t-72.5 12.5l2 26q58 -6 160 -6q33 0 86 3t70 3v-26q-60 -3 -73 -10.5t-15 -36.5q-4 -62 -4 -281v-129q57 24 171 183.5t144 234.5q6 19 3 22.5t-17 5.5l-76 15l2 22q14 0 61.5 -3t71.5 -3q17 0 152 6l2 -26q-67 -4 -98.5 -18
t-55.5 -46q-187 -257 -233 -319q60 -119 164 -300.5t143 -226.5q16 -18 38.5 -27.5t77.5 -13.5l-6 -20q-53 3 -90 0q-93 0 -157 -12q-10 21 -62 117.5t-113.5 209.5t-78.5 144q-17 32 -43 32v-129q0 -178 6 -295q1 -19 6.5 -27t24 -12.5t63.5 -7.5l-2 -22q-31 0 -88 3t-80 3
q-30 0 -89 -3t-79 -3l2 22q44 3 64 8.5t24.5 12.5t5.5 24q6 50 6 277z" />
    <glyph glyph-name="L.sc" unicode="&#xe01e;" horiz-adv-x="659" 
d="M621 268l22 -4q-12 -75 -35 -272q-40 8 -137 8h-225q-13 0 -53 -1t-62 -1q-86 -4 -98 -4v22l80 11q15 3 21.5 10t6.5 22q11 73 11 338v295q0 211 -2 238q-2 18 -9 26t-28 9l-64 6v22q11 0 73 -3t97 -3q13 0 178 6l6 -22l-73 -8q-19 -3 -27.5 -10t-9.5 -25
q-6 -183 -6 -318v-211q0 -303 6 -344q4 -26 78 -26q89 0 125 13t57 50q49 85 68 176z" />
    <glyph glyph-name="Lslash.sc" unicode="&#xe01f;" horiz-adv-x="675" 
d="M76 971v22q15 0 73.5 -3t96.5 -3q14 0 73 3t105 3l4 -22l-80 -8q-19 -1 -26.5 -8.5t-8.5 -26.5q-4 -102 -4 -359q111 63 140 82l24 -26q-24 -15 -164 -93v-120q0 -320 6 -359q0 -12 17.5 -17t64.5 -5q88 0 122.5 13t53.5 50q40 70 66 172l20 -6q-3 -16 -26 -268
q-22 4 -139 8h-224q-13 0 -52.5 -1t-61.5 -1q-86 -4 -103 -4v24l82 9q33 3 35 30q6 135 6 398q-14 -6 -49 -24.5t-43 -22.5l-27 24q26 12 119 64v202q0 205 -4 232q-2 20 -7.5 26t-27.5 7z" />
    <glyph glyph-name="M.sc" unicode="&#xe020;" horiz-adv-x="1075" 
d="M520 4l-53 -10q-25 93 -130.5 442.5t-143.5 483.5h-5q0 -472 5 -795q2 -56 14 -76t55 -24l62 -9v-22q-23 0 -75 3t-79 3q-30 0 -75.5 -3t-71.5 -3v22q8 0 29 4t28 5q54 10 59 94q9 134 16.5 391.5t2.5 413.5q0 8 -4 20q-5 19 -43 21l-74 6l2 22q24 0 78 -4q14 0 39 -1
t37 -1q29 0 65 2t45 2q11 -43 110 -339t132 -408q69 207 142.5 443t92.5 304q46 -4 86 -4q21 0 156 6l6 -22q-39 -2 -88 -8q-18 -4 -18 -35q-2 -27 -2 -180q0 -594 8 -670q3 -28 11 -37t32 -14l63 -11v-22q-8 0 -76 3t-104 3q-34 0 -87 -3t-83 -3l6 22q56 4 71 16.5t17 47.5
q10 198 17 848h-2q-31 -115 -138.5 -473t-134.5 -451z" />
    <glyph glyph-name="N.sc" unicode="&#xe021;" horiz-adv-x="829" 
d="M33 969v24q13 0 59 -4q50 -4 72 -4q1 0 100 6q49 -94 64 -125q15 -27 63.5 -122.5t126 -245.5t150.5 -289q5 519 -11 680q-3 43 -18 56t-57 20l-43 4l2 24q26 0 68.5 -3t70.5 -3q30 0 72.5 3t62.5 3v-24q-15 -1 -55 -8q-21 -6 -30.5 -22t-14.5 -50q-10 -112 -10 -500
v-389q-59 -3 -84 -16q-66 140 -435 872q0 -667 11 -768q3 -29 13 -42t36 -17q53 -12 69 -13v-22q-16 0 -70.5 3t-90.5 3q-28 0 -68.5 -3t-60.5 -3v22q9 0 33.5 4.5t27.5 4.5q25 6 35.5 19.5t13.5 45.5q4 29 8 122.5t7.5 282t3.5 408.5q-2 7 -8 19.5t-7 15.5q-15 22 -43 25z
" />
    <glyph glyph-name="Ntilde.sc" unicode="&#xe022;" horiz-adv-x="829" 
d="M33 969v24q13 0 59 -4q50 -4 72 -4q1 0 100 6q49 -94 64 -125q15 -27 63.5 -122.5t126 -245.5t150.5 -289q5 519 -11 680q-3 43 -18 56t-57 20l-43 4l2 24q26 0 68.5 -3t70.5 -3q30 0 72.5 3t62.5 3v-24q-15 -1 -55 -8q-21 -6 -30.5 -22t-14.5 -50q-10 -112 -10 -500
v-389q-59 -3 -84 -16q-66 140 -435 872q0 -667 11 -768q3 -29 13 -42t36 -17q53 -12 69 -13v-22q-16 0 -70.5 3t-90.5 3q-28 0 -68.5 -3t-60.5 -3v22q9 0 33.5 4.5t27.5 4.5q25 6 35.5 19.5t13.5 45.5q4 29 8 122.5t7.5 282t3.5 408.5q-2 7 -8 19.5t-7 15.5q-15 22 -43 25z
M293 1122l-25 6q0 71 26 121.5t79 50.5q41 0 92 -51q53 -55 80 -55q25 0 40 29.5t15 81.5l23 -7q0 -77 -25 -127.5t-78 -50.5q-38 0 -96 58q-22 26 -36 36.5t-32 10.5q-57 0 -63 -103z" />
    <glyph glyph-name="O.sc" unicode="&#xe023;" horiz-adv-x="790" 
d="M406 1012h2q69 0 125.5 -28.5t93.5 -76.5t62.5 -113.5t36.5 -137t11 -150.5q0 -266 -94.5 -398.5t-243.5 -132.5q-161 0 -252.5 132.5t-91.5 384.5q0 150 40.5 267t121 185t189.5 68zM395 981h-2q-46 0 -75 -23.5t-56 -80.5q-55 -122 -55 -369q0 -116 17 -232t42 -170
q26 -52 59.5 -76t80.5 -24q87 0 131 109q20 52 33.5 157.5t13.5 223.5q0 237 -52 376q-20 50 -55 79.5t-82 29.5z" />
    <glyph glyph-name="OE.sc" unicode="&#xe024;" horiz-adv-x="1181" 
d="M668 500v2q0 301 -11 338q-18 62 -65 99.5t-117 37.5q-99 0 -160 -100q-37 -58 -58 -166.5t-21 -229.5q0 -107 21.5 -208t51.5 -154q59 -101 168 -101q112 0 160 101q17 34 24 110.5t7 270.5zM758 987h188q99 0 170 17q-9 -98 -6 -261l-25 -2q-6 91 -26 154
q-12 37 -40.5 47t-115.5 10h-88q-9 0 -12 -5t-4 -25q-6 -50 -6 -217v-175q18 -6 98 -6q81 0 106.5 20t34.5 101h23q-14 -152 -2 -301h-23q-8 87 -33.5 116t-107.5 29q-22 0 -57.5 -1t-38.5 -1v-133q0 -208 8 -284q1 -17 6.5 -23.5t26.5 -10t71 -3.5q83 0 130 13t67 46
q41 71 57 176l21 -2q-2 -32 -12.5 -134t-16.5 -140q-32 4 -92 4q-90 4 -180 4h-136q-45 0 -77 -4v88q-36 -46 -100 -77.5t-126 -31.5q-139 0 -223 76q-64 59 -99.5 171t-35.5 257q0 144 40 260.5t105 178.5q97 94 236 94q132 0 201 -103q0 15 -2.5 44t-2.5 40q21 -6 99 -6z
" />
    <glyph glyph-name="Oacute.sc" unicode="&#xe025;" horiz-adv-x="790" 
d="M406 1012h2q69 0 125.5 -28.5t93.5 -76.5t62.5 -113.5t36.5 -137t11 -150.5q0 -266 -94.5 -398.5t-243.5 -132.5q-161 0 -252.5 132.5t-91.5 384.5q0 150 40.5 267t121 185t189.5 68zM395 981h-2q-46 0 -75 -23.5t-56 -80.5q-55 -122 -55 -369q0 -116 17 -232t42 -170
q26 -52 59.5 -76t80.5 -24q87 0 131 109q20 52 33.5 157.5t13.5 223.5q0 237 -52 376q-20 50 -55 79.5t-82 29.5zM360 1092l-16 12q13 22 58.5 108t62.5 113q33 57 76 57q11 0 20.5 -10.5t9.5 -28.5q0 -41 -59 -96q-93 -99 -152 -155z" />
    <glyph glyph-name="Ocircumflex.sc" unicode="&#xe026;" horiz-adv-x="790" 
d="M406 1012h2q69 0 125.5 -28.5t93.5 -76.5t62.5 -113.5t36.5 -137t11 -150.5q0 -266 -94.5 -398.5t-243.5 -132.5q-161 0 -252.5 132.5t-91.5 384.5q0 150 40.5 267t121 185t189.5 68zM395 981h-2q-46 0 -75 -23.5t-56 -80.5q-55 -122 -55 -369q0 -116 17 -232t42 -170
q26 -52 59.5 -76t80.5 -24q87 0 131 109q20 52 33.5 157.5t13.5 223.5q0 237 -52 376q-20 50 -55 79.5t-82 29.5zM383 1374l16 8q65 -140 156 -268l-12 -12q-34 29 -82.5 75t-69.5 70q-88 -93 -151 -145l-13 12q89 119 156 260z" />
    <glyph glyph-name="Odieresis.sc" unicode="&#xe027;" horiz-adv-x="790" 
d="M406 1012h2q69 0 125.5 -28.5t93.5 -76.5t62.5 -113.5t36.5 -137t11 -150.5q0 -266 -94.5 -398.5t-243.5 -132.5q-161 0 -252.5 132.5t-91.5 384.5q0 150 40.5 267t121 185t189.5 68zM395 981h-2q-46 0 -75 -23.5t-56 -80.5q-55 -122 -55 -369q0 -116 17 -232t42 -170
q26 -52 59.5 -76t80.5 -24q87 0 131 109q20 52 33.5 157.5t13.5 223.5q0 237 -52 376q-20 50 -55 79.5t-82 29.5zM272 1247h2q27 0 44.5 -18.5t17.5 -48.5q0 -37 -19 -57.5t-43 -20.5q-29 0 -48 18t-19 54q0 34 16.5 53.5t48.5 19.5zM518 1247h2q27 0 43.5 -18.5t16.5 -48.5
q0 -36 -18.5 -57t-45.5 -21q-29 0 -48 18t-19 54q0 34 18 53.5t51 19.5z" />
    <glyph glyph-name="Ograve.sc" unicode="&#xe028;" horiz-adv-x="790" 
d="M406 1012h2q69 0 125.5 -28.5t93.5 -76.5t62.5 -113.5t36.5 -137t11 -150.5q0 -266 -94.5 -398.5t-243.5 -132.5q-161 0 -252.5 132.5t-91.5 384.5q0 150 40.5 267t121 185t189.5 68zM395 981h-2q-46 0 -75 -23.5t-56 -80.5q-55 -122 -55 -369q0 -116 17 -232t42 -170
q26 -52 59.5 -76t80.5 -24q87 0 131 109q20 52 33.5 157.5t13.5 223.5q0 237 -52 376q-20 50 -55 79.5t-82 29.5zM434 1092q-38 38 -85.5 87t-65.5 66q-45 45 -45 80q0 24 12 36.5t29 12.5q35 0 63 -55q19 -35 57.5 -115.5t49.5 -101.5z" />
    <glyph glyph-name="Oslash.sc" unicode="&#xe029;" horiz-adv-x="792" 
d="M653 1032l37 -14q-32 -58 -63 -109q52 -70 81 -179.5t29 -219.5q0 -260 -94.5 -397.5t-251.5 -137.5q-118 0 -203 78l-57 -102l-33 16l64 111q-107 126 -107 401q0 233 94 383t259 150q117 0 194 -74q19 32 51 94zM403 981h-2q-87 0 -135 -104q-61 -137 -61 -394
q0 -179 33 -280q53 102 305 635q-42 143 -140 143zM393 6h2q44 0 77 21t63 82q51 102 51 409q0 149 -27 268q-34 -67 -146.5 -302t-162.5 -328q52 -150 143 -150z" />
    <glyph glyph-name="Otilde.sc" unicode="&#xe02a;" horiz-adv-x="790" 
d="M406 1012h2q69 0 125.5 -28.5t93.5 -76.5t62.5 -113.5t36.5 -137t11 -150.5q0 -266 -94.5 -398.5t-243.5 -132.5q-161 0 -252.5 132.5t-91.5 384.5q0 150 40.5 267t121 185t189.5 68zM395 981h-2q-46 0 -75 -23.5t-56 -80.5q-55 -122 -55 -369q0 -116 17 -232t42 -170
q26 -52 59.5 -76t80.5 -24q87 0 131 109q20 52 33.5 157.5t13.5 223.5q0 237 -52 376q-20 50 -55 79.5t-82 29.5zM246 1108l-25 6q0 71 26 121.5t79 50.5q41 0 92 -51q53 -55 80 -55q25 0 40 29t15 81l22 -6q0 -77 -24.5 -127.5t-77.5 -50.5q-39 0 -96 57q-22 26 -36 36.5
t-32 10.5q-57 0 -63 -102z" />
    <glyph glyph-name="P.sc" unicode="&#xe02b;" horiz-adv-x="698" 
d="M139 389v250q0 63 -0.5 128t-1 108t-0.5 51q-2 21 -8 29.5t-23 9.5l-65 8l6 20q3 0 64.5 -3t95.5 -3q31 0 74 3t79 3q163 0 232 -84q61 -74 61 -198q0 -140 -65 -222q-35 -43 -88 -66.5t-113 -23.5q-25 0 -78 15l6 24q21 -8 64 -8q28 0 54.5 19.5t43.5 54.5q31 70 31 203
q0 125 -37 186q-43 70 -139 70q-30 0 -39.5 -7t-11.5 -22q-7 -79 -7 -346v-131v-193q0 -148 5 -194q3 -21 12 -29.5t33 -11.5l77 -13v-22q-19 0 -82.5 3t-113.5 3q-39 0 -98 -3t-76 -3l2 22l53 9q30 5 38 13t9 38q6 76 6 313z" />
    <glyph glyph-name="Q.alt" unicode="&#xe02c;" horiz-adv-x="911" 
d="M1405 -231l8 -17q-103 -141 -301 -141q-83 0 -173.5 43.5t-213.5 130.5q-129 94 -172 123q-91 59 -170 76q-67 15 -123 55.5t-102.5 113t-72.5 189.5t-26 270q0 198 44.5 349t139 242t228.5 91q97 0 171 -48t119.5 -135.5t68 -203.5t22.5 -258q0 -168 -26 -294
t-73.5 -202t-104 -117t-126.5 -54v-5q34 -7 109.5 -38.5t154.5 -75.5q266 -154 433 -154q118 0 186 60zM461 1268h-2q-108 0 -170 -156q-68 -168 -68 -496q0 -148 19 -276t53 -201q33 -74 76 -107.5t102 -33.5q47 0 84 29.5t68 99.5q30 71 48.5 219t18.5 309q0 312 -69 475
q-30 70 -66.5 104t-93.5 34z" />
    <glyph glyph-name="Q.sc" unicode="&#xe02d;" horiz-adv-x="790" 
d="M838 -135v-8q-22 -30 -70 -48t-94 -18q-47 0 -105.5 36.5t-136.5 104.5q-45 36 -100 50q-76 15 -132 63t-87 117.5t-45.5 146t-14.5 162.5q0 246 92.5 393.5t257.5 147.5q73 0 131 -29t95.5 -77.5t62 -117t35 -142t10.5 -157.5q0 -101 -16.5 -183.5t-42.5 -137t-63 -94
t-74 -59.5t-78 -29v-4q42 -12 147 -66q123 -65 228 -51zM399 981h-2q-46 0 -77.5 -23t-57.5 -79q-57 -129 -57 -396q0 -102 18 -219t41 -162q45 -98 133 -98q44 0 77.5 23.5t60.5 83.5q22 49 35.5 158.5t13.5 232.5q0 245 -49 370q-23 55 -55 82t-81 27z" />
    <glyph glyph-name="Q.scalt" unicode="&#xe02e;" horiz-adv-x="786" 
d="M1354 -240l4 -18q-118 -141 -295 -141q-151 0 -363 151q-20 15 -70 53.5t-88 67t-65 45.5q-79 52 -145 66q-69 14 -123.5 60t-88 113t-50.5 147.5t-17 168.5q0 248 92.5 393.5t257.5 145.5q73 0 131 -29t95.5 -77.5t62 -117t35 -143t10.5 -158.5q0 -125 -24.5 -220.5
t-66 -150.5t-87 -85t-98.5 -41q-2 0 0 -6q70 -11 325 -156q123 -69 212.5 -99t179.5 -30q109 0 176 61zM399 981h-2q-46 0 -78 -22.5t-57 -77.5q-57 -129 -57 -398q0 -115 17.5 -222.5t41.5 -156.5q48 -98 133 -98q44 0 78.5 23.5t61.5 85.5q47 102 47 387q0 245 -52 370
q-42 109 -133 109z" />
    <glyph glyph-name="R.sc" unicode="&#xe02f;" horiz-adv-x="739" 
d="M139 395v242q0 225 -4 291q-2 19 -8 26.5t-25 8.5l-77 8l8 22q20 0 82 -3t84 -3q37 0 90.5 2t91.5 2q77 0 129.5 -18.5t79 -52t37 -71t10.5 -85.5q0 -68 -25.5 -120t-64.5 -81q-56 -38 -131 -51v-8q109 -12 160 -65t59 -154q2 -32 5 -92.5t5 -92.5q1 -40 21 -64t51 -24
q29 0 43 4l-2 -18q-32 -16 -92 -16q-87 0 -126.5 39t-43.5 131q-1 12 -3.5 62.5t-3.5 80.5q-2 60 -9 93t-26.5 58.5t-54.5 34t-96 8.5h-29v-145q0 -233 2 -276q2 -30 19 -39t84 -13l-2 -22q-18 0 -75.5 3t-98.5 3q-43 0 -97 -3t-71 -3v22q66 7 81 14.5t17 30.5q6 43 6 334z
M274 698v-178h29q86 0 125 29q66 50 66 207q0 97 -31 149q-35 58 -119 58q-38 0 -53 -9q-9 -2 -12 -22q0 -3 -1.5 -28.5t-2.5 -79.5t-1 -126z" />
    <glyph glyph-name="S.sc" unicode="&#xe030;" horiz-adv-x="602" 
d="M55 276l25 11q-5 -83 10.5 -141t47 -87t65.5 -41t76 -12q68 0 111.5 45.5t43.5 126.5q0 55 -16.5 94.5t-55.5 77.5q-108 92 -184 152q-53 40 -85 101.5t-32 131.5q0 131 78 209q64 68 176 68q51 0 93.5 -15.5t58.5 -35.5l31 65l20 -6q-23 -172 -18 -295l-25 4
q-1 122 -51.5 188t-122.5 66q-56 0 -92.5 -45t-36.5 -131q0 -109 96 -186q148 -116 217 -185q66 -66 66 -176q0 -117 -57 -190q-78 -95 -224 -95q-62 0 -151 21q-41 9 -78 20q10 87 14 260z" />
    <glyph glyph-name="Scaron.sc" unicode="&#xe031;" horiz-adv-x="602" 
d="M55 276l25 11q-5 -83 10.5 -141t47 -87t65.5 -41t76 -12q68 0 111.5 45.5t43.5 126.5q0 55 -16.5 94.5t-55.5 77.5q-108 92 -184 152q-53 40 -85 101.5t-32 131.5q0 131 78 209q64 68 176 68q51 0 93.5 -15.5t58.5 -35.5l31 65l20 -6q-23 -172 -18 -295l-25 4
q-1 122 -51.5 188t-122.5 66q-56 0 -92.5 -45t-36.5 -131q0 -109 96 -186q148 -116 217 -185q66 -66 66 -176q0 -117 -57 -190q-78 -95 -224 -95q-62 0 -151 21q-41 9 -78 20q10 87 14 260zM317 1110l-16 -8q-65 140 -156 268l13 12q35 -29 83 -75.5t68 -71.5q93 98 152 147
l12 -12q-86 -117 -156 -260z" />
    <glyph glyph-name="T.sc" unicode="&#xe032;" horiz-adv-x="702" 
d="M422 743v-325q0 -231 6 -342q2 -24 8.5 -34t26.5 -13q50 -9 98 -13v-22q-21 0 -99 3t-128 3q-26 0 -83.5 -3t-94.5 -3l-6 22q25 2 92 13q36 6 39 43q8 204 8 334v311q0 157 -4 239q-77 0 -115.5 -9t-51 -22.5t-22.5 -45.5q-25 -67 -43 -166l-22 12q16 118 20 287
q26 -13 86 -19q62 -6 160 -6h121q134 0 180.5 4t73.5 21q0 -9 -2.5 -54.5t-4.5 -106t-1 -110.5l-25 -18q-5 99 -29 180q-8 22 -21.5 32.5t-51 15.5t-113.5 5q-2 -39 -2 -213z" />
    <glyph glyph-name="Thorn.sc" unicode="&#xe034;" horiz-adv-x="696" 
d="M141 442v242q0 174 -4 240q-2 27 -17.5 35.5t-82.5 11.5l6 22q4 0 66.5 -3t97.5 -3q31 0 88 3t80 3v-22q-60 -4 -74.5 -14t-17.5 -39q-4 -46 -4 -117q70 6 114 6q132 0 195 -70q65 -72 65 -209q0 -144 -63 -223q-74 -100 -215 -100q-50 0 -99 18q0 -102 5 -153
q2 -21 7 -28.5t28 -14t77 -11.5l2 -22q-25 0 -85.5 3t-98.5 3q-27 0 -88.5 -3t-95.5 -3v22q71 7 88.5 17t19.5 41q6 78 6 368zM276 752v-492q29 -22 80 -22q39 0 71.5 20t47.5 53q33 79 33 203q0 133 -35 195q-40 67 -137 67q-60 0 -60 -24z" />
    <glyph glyph-name="U.sc" unicode="&#xe035;" horiz-adv-x="808" 
d="M31 967v26q59 -6 153 -6q47 0 158 6l4 -26l-55 -6q-17 -1 -23 -10t-8 -31q-4 -73 -4.5 -297.5t2.5 -362.5q1 -75 15.5 -112t41.5 -66q45 -51 127 -51q26 0 41 1t38 6t37.5 14t31.5 27.5t27.5 45t19.5 66.5t12 92q14 260 -2 614q-1 38 -13 49.5t-40 14.5l-59 6l6 26
q11 0 56.5 -3t76.5 -3q46 0 125 6l4 -26l-53 -6q-26 -3 -34.5 -14.5t-10.5 -39.5q-4 -78 -9.5 -325.5t-9.5 -305.5q-8 -166 -94 -237q-73 -64 -199 -64q-67 0 -122 22t-87 58q-33 41 -46 91.5t-13 146.5q0 114 -1 361t-1 255q0 46 -31 49z" />
    <glyph glyph-name="Uacute.sc" unicode="&#xe036;" horiz-adv-x="808" 
d="M31 967v26q59 -6 153 -6q47 0 158 6l4 -26l-55 -6q-17 -1 -23 -10t-8 -31q-4 -73 -4.5 -297.5t2.5 -362.5q1 -75 15.5 -112t41.5 -66q45 -51 127 -51q26 0 41 1t38 6t37.5 14t31.5 27.5t27.5 45t19.5 66.5t12 92q14 260 -2 614q-1 38 -13 49.5t-40 14.5l-59 6l6 26
q11 0 56.5 -3t76.5 -3q46 0 125 6l4 -26l-53 -6q-26 -3 -34.5 -14.5t-10.5 -39.5q-4 -78 -9.5 -325.5t-9.5 -305.5q-8 -166 -94 -237q-73 -64 -199 -64q-67 0 -122 22t-87 58q-33 41 -46 91.5t-13 146.5q0 114 -1 361t-1 255q0 46 -31 49zM401 1092l-16 12q13 22 58.5 108
t62.5 113q33 57 76 57q11 0 20.5 -10.5t9.5 -28.5q0 -41 -59 -96q-93 -99 -152 -155z" />
    <glyph glyph-name="Ucircumflex.sc" unicode="&#xe037;" horiz-adv-x="808" 
d="M31 967v26q59 -6 153 -6q47 0 158 6l4 -26l-55 -6q-17 -1 -23 -10t-8 -31q-4 -73 -4.5 -297.5t2.5 -362.5q1 -75 15.5 -112t41.5 -66q45 -51 127 -51q26 0 41 1t38 6t37.5 14t31.5 27.5t27.5 45t19.5 66.5t12 92q14 260 -2 614q-1 38 -13 49.5t-40 14.5l-59 6l6 26
q11 0 56.5 -3t76.5 -3q46 0 125 6l4 -26l-53 -6q-26 -3 -34.5 -14.5t-10.5 -39.5q-4 -78 -9.5 -325.5t-9.5 -305.5q-8 -166 -94 -237q-73 -64 -199 -64q-67 0 -122 22t-87 58q-33 41 -46 91.5t-13 146.5q0 114 -1 361t-1 255q0 46 -31 49zM424 1374l16 8q65 -140 156 -268
l-12 -12q-34 29 -82.5 75t-69.5 70q-88 -93 -151 -145l-13 12q89 119 156 260z" />
    <glyph glyph-name="Udieresis.sc" unicode="&#xe038;" horiz-adv-x="808" 
d="M31 967v26q59 -6 153 -6q47 0 158 6l4 -26l-55 -6q-17 -1 -23 -10t-8 -31q-4 -73 -4.5 -297.5t2.5 -362.5q1 -75 15.5 -112t41.5 -66q45 -51 127 -51q26 0 41 1t38 6t37.5 14t31.5 27.5t27.5 45t19.5 66.5t12 92q14 260 -2 614q-1 38 -13 49.5t-40 14.5l-59 6l6 26
q11 0 56.5 -3t76.5 -3q46 0 125 6l4 -26l-53 -6q-26 -3 -34.5 -14.5t-10.5 -39.5q-4 -78 -9.5 -325.5t-9.5 -305.5q-8 -166 -94 -237q-73 -64 -199 -64q-67 0 -122 22t-87 58q-33 41 -46 91.5t-13 146.5q0 114 -1 361t-1 255q0 46 -31 49zM303 1284h2q27 0 44.5 -18.5
t17.5 -48.5q0 -37 -19 -57.5t-43 -20.5q-29 0 -48 17.5t-19 53.5q0 34 16.5 54t48.5 20zM549 1284h2q26 0 42.5 -18t16.5 -49q0 -36 -18 -57t-45 -21q-29 0 -48.5 17.5t-19.5 53.5q0 34 18.5 54t51.5 20z" />
    <glyph glyph-name="Ugrave.sc" unicode="&#xe039;" horiz-adv-x="808" 
d="M31 967v26q59 -6 153 -6q47 0 158 6l4 -26l-55 -6q-17 -1 -23 -10t-8 -31q-4 -73 -4.5 -297.5t2.5 -362.5q1 -75 15.5 -112t41.5 -66q45 -51 127 -51q26 0 41 1t38 6t37.5 14t31.5 27.5t27.5 45t19.5 66.5t12 92q14 260 -2 614q-1 38 -13 49.5t-40 14.5l-59 6l6 26
q11 0 56.5 -3t76.5 -3q46 0 125 6l4 -26l-53 -6q-26 -3 -34.5 -14.5t-10.5 -39.5q-4 -78 -9.5 -325.5t-9.5 -305.5q-8 -166 -94 -237q-73 -64 -199 -64q-67 0 -122 22t-87 58q-33 41 -46 91.5t-13 146.5q0 114 -1 361t-1 255q0 46 -31 49zM467 1092q-32 32 -65 65.5
t-52.5 53.5t-34.5 34q-45 45 -45 80q0 24 12 36.5t29 12.5q36 0 64 -55q19 -34 56.5 -114t49.5 -103z" />
    <glyph glyph-name="V.sc" unicode="&#xe03a;" horiz-adv-x="733" 
d="M-29 971v22q19 0 82 -3t88 -3q15 0 73.5 3t96.5 3l6 -22l-65 -8q-34 -3 -25 -39q22 -97 195 -768q55 189 113 417t79 342q4 23 -2 31t-20 12q-78 12 -86 13l-4 22q11 0 59.5 -3t79.5 -3q13 0 57 3t76 3l6 -22q-61 -3 -80 -17.5t-38 -70.5q-60 -175 -252 -903q-43 4 -82 0
q-180 712 -244 917q-15 47 -34.5 60.5t-78.5 13.5z" />
    <glyph glyph-name="W.sc" unicode="&#xe03b;" horiz-adv-x="1118" 
d="M887 969l-4 24q18 0 65 -3t74 -3q21 0 63.5 3t71.5 3v-24q-61 -6 -80 -23.5t-37 -75.5q-25 -83 -56.5 -212.5t-82 -345t-78.5 -332.5q-54 3 -82 0q-103 490 -186 823q-153 -732 -170 -823q-26 7 -84 0q-152 704 -203 882q-20 70 -41 88.5t-80 18.5v24q8 0 63 -3t112 -3
q32 0 83.5 3t79.5 3l2 -24l-57 -6q-35 -6 -29 -33q17 -82 54 -258t63.5 -304.5t40.5 -193.5q51 225 105.5 492.5t60.5 320.5q33 -3 92 0q25 -134 182 -815q58 216 105.5 432.5t60.5 310.5q7 40 -41 46z" />
    <glyph glyph-name="X.sc" unicode="&#xe03c;" horiz-adv-x="698" 
d="M686 23l55 -7v-22q-147 6 -184 6q-50 0 -99 -3t-67 -3l-6 20q40 5 60 10t25.5 11t2.5 16q-26 77 -164 393q-51 -104 -153 -348q-15 -37 -9 -51.5t37 -19.5l66 -9l4 -22q-9 0 -55.5 3t-89.5 3q-34 0 -78 -3t-56 -3l-6 22q51 3 73.5 17.5t49.5 54.5q19 27 52.5 92t78.5 156
t74 145q-171 398 -199 449q-11 21 -31 29.5t-73 11.5l-4 22q23 0 81.5 -3t88.5 -3q28 0 86 3t86 3l8 -20l-72 -8q-16 -1 -19 -9.5t3 -23.5q22 -70 135 -326q73 143 141 309q14 41 -26 48l-56 8l5 22q26 0 67 -3t53 -3q25 0 68 3t68 3l6 -22q-65 -6 -91 -19.5t-49 -48.5
q-16 -25 -37.5 -67t-62.5 -124.5t-72 -142.5q206 -462 222 -495q24 -46 63 -51z" />
    <glyph glyph-name="Y.sc" unicode="&#xe03d;" horiz-adv-x="667" 
d="M532 16l7 -22q-27 1 -96.5 3.5t-110.5 2.5q-6 0 -189 -6l-2 22q43 3 90 13q21 4 29 16.5t10 36.5q9 101 9 326q0 35 -13 73q-13 36 -81.5 190t-108.5 234q-20 40 -41.5 52t-71.5 14v22q9 0 73 -3t97 -3q30 0 83 3t75 3l4 -22l-51 -6q-18 -3 -23 -11.5t0 -25.5
q8 -25 40 -102.5t74.5 -179t61.5 -148.5q36 88 88 235.5t64 192.5q10 34 -12 37q-7 1 -34 4t-40 4l2 22q7 0 58.5 -3t74.5 -3q13 0 45.5 3t67.5 3l4 -22q-52 -1 -76.5 -15.5t-44.5 -54.5q-20 -39 -51.5 -115t-67 -167.5t-45.5 -116.5q-20 -44 -20 -84q0 -295 4 -350
q2 -19 7.5 -26.5t22.5 -10.5q25 -6 88 -15z" />
    <glyph glyph-name="Yacute.sc" unicode="&#xe03e;" horiz-adv-x="667" 
d="M532 16l7 -22q-27 1 -96.5 3.5t-110.5 2.5q-6 0 -189 -6l-2 22q43 3 90 13q21 4 29 16.5t10 36.5q9 101 9 326q0 35 -13 73q-13 36 -81.5 190t-108.5 234q-20 40 -41.5 52t-71.5 14v22q9 0 73 -3t97 -3q30 0 83 3t75 3l4 -22l-51 -6q-18 -3 -23 -11.5t0 -25.5
q8 -25 40 -102.5t74.5 -179t61.5 -148.5q36 88 88 235.5t64 192.5q10 34 -12 37q-7 1 -34 4t-40 4l2 22q7 0 58.5 -3t74.5 -3q13 0 45.5 3t67.5 3l4 -22q-52 -1 -76.5 -15.5t-44.5 -54.5q-20 -39 -51.5 -115t-67 -167.5t-45.5 -116.5q-20 -44 -20 -84q0 -295 4 -350
q2 -19 7.5 -26.5t22.5 -10.5q25 -6 88 -15zM319 1092l-16 12q13 22 58.5 108t62.5 113q33 57 76 57q11 0 20.5 -10.5t9.5 -28.5q0 -41 -59 -96q-93 -99 -152 -155z" />
    <glyph glyph-name="Ydieresis.sc" unicode="&#xe03f;" horiz-adv-x="667" 
d="M532 16l7 -22q-27 1 -96.5 3.5t-110.5 2.5q-6 0 -189 -6l-2 22q43 3 90 13q21 4 29 16.5t10 36.5q9 101 9 326q0 35 -13 73q-13 36 -81.5 190t-108.5 234q-20 40 -41.5 52t-71.5 14v22q9 0 73 -3t97 -3q30 0 83 3t75 3l4 -22l-51 -6q-18 -3 -23 -11.5t0 -25.5
q8 -25 40 -102.5t74.5 -179t61.5 -148.5q36 88 88 235.5t64 192.5q10 34 -12 37q-7 1 -34 4t-40 4l2 22q7 0 58.5 -3t74.5 -3q13 0 45.5 3t67.5 3l4 -22q-52 -1 -76.5 -15.5t-44.5 -54.5q-20 -39 -51.5 -115t-67 -167.5t-45.5 -116.5q-20 -44 -20 -84q0 -295 4 -350
q2 -19 7.5 -26.5t22.5 -10.5q25 -6 88 -15zM238 1284h2q27 0 44 -18.5t17 -48.5q0 -37 -18.5 -57.5t-42.5 -20.5q-29 0 -48.5 17.5t-19.5 53.5q0 34 17 54t49 20zM483 1284h2q27 0 43.5 -18.5t16.5 -48.5q0 -36 -18.5 -57t-45.5 -21q-29 0 -48 17.5t-19 53.5q0 34 18 54
t51 20z" />
    <glyph glyph-name="Z.sc" unicode="&#xe040;" horiz-adv-x="684" 
d="M94 719l-24 10q26 145 16 281q19 -10 80 -21q17 -2 164 -2h184q22 1 64 2t61 2q-18 -57 -31 -84q-65 -147 -188 -407q-50 -108 -89.5 -195.5t-72 -161t-49.5 -110.5q162 -1 235 5t101 20.5t43 50.5q21 54 29.5 86t17.5 92l20 -15q-1 -19 -6 -69.5t-8.5 -100t-5.5 -112.5
q-26 5 -115 8q-47 2 -151 2h-215q-66 0 -109 -2l-8 18q80 156 215 447t223 489h-125q-83 0 -127 -10.5t-60.5 -27t-29.5 -52.5q-19 -57 -39 -143z" />
    <glyph glyph-name="Zcaron.sc" unicode="&#xe041;" horiz-adv-x="684" 
d="M94 719l-24 10q26 145 16 281q19 -10 80 -21q17 -2 164 -2h184q22 1 64 2t61 2q-18 -57 -31 -84q-65 -147 -188 -407q-50 -108 -89.5 -195.5t-72 -161t-49.5 -110.5q162 -1 235 5t101 20.5t43 50.5q21 54 29.5 86t17.5 92l20 -15q-1 -19 -6 -69.5t-8.5 -100t-5.5 -112.5
q-26 5 -115 8q-47 2 -151 2h-215q-66 0 -109 -2l-8 18q80 156 215 447t223 489h-125q-83 0 -127 -10.5t-60.5 -27t-29.5 -52.5q-19 -57 -39 -143zM365 1110l-17 -8q-66 144 -155 268l12 12q35 -29 83 -75.5t68 -71.5q93 98 152 147l12 -12q-83 -113 -155 -260z" />
    <glyph glyph-name="c_t" unicode="&#xe042;" horiz-adv-x="1081" 
d="M1067 858l-8 -27l-193 -12q-6 -210 -6 -354q0 -312 8 -377q4 -31 23.5 -48t48.5 -17q46 0 80.5 44.5t46.5 118.5h10l13 -41q-26 -79 -79.5 -124.5t-129.5 -45.5q-85 0 -125 43q-31 39 -31 115q0 95 4 347t4 339l-110 12l6 27h108v172q0 43 -12 55q-8 13 -44.5 23
t-62.5 10q-93 0 -128 -32t-35 -121q0 -57 20 -101q50 -20 78.5 -63t28.5 -99q0 -38 -20 -57.5t-48 -19.5q-24 0 -39 10q-19 13 -16 39q12 36 12 63q0 121 -94 121q-84 0 -132 -120t-48 -310q0 -180 47 -283q52 -114 151 -114q66 0 107.5 43.5t66.5 126.5l21 -15
q-15 -50 -32.5 -84.5t-45.5 -65.5t-69.5 -46t-98.5 -15q-84 0 -134 29.5t-89 91.5q-68 103 -68 318q0 87 19.5 168t58 150.5t105.5 111t153 41.5q1 0 49 -6q-24 35 -24 88q0 25 5.5 49t22.5 51t43 47t71 33.5t103 13.5q71 0 101 -10q74 15 112 35l7 -4q0 -14 -5.5 -143
t-5.5 -181h199z" />
    <glyph glyph-name="cent.fitted" unicode="&#xe043;" horiz-adv-x="694" 
d="M616 475l-4 -53q-30 -80 -93.5 -126.5t-127.5 -51.5l-4 -133l-43 -19l8 150q-132 3 -211 114q-69 103 -69 291q0 74 18.5 146t55 136.5t99 106.5t142.5 47l2 117l43 17l-8 -132q91 -1 141.5 -45t50.5 -114q0 -34 -16 -53t-43 -19q-20 0 -32.5 12t-6.5 31q0 4 4 25.5
t4 29.5q0 93 -104 107q-26 -551 -29 -770q78 0 130.5 43t80.5 145zM211 672v-2q0 -202 45 -287q41 -76 100 -90q24 609 29 766q-89 -13 -131.5 -120.5t-42.5 -266.5z" />
    <glyph glyph-name="currency.taboldstyle" unicode="&#xe044;" horiz-adv-x="690" 
d="M346 731h-2q-85 0 -131.5 -75t-46.5 -195q0 -131 48.5 -201t127.5 -70q87 0 131.5 75t44.5 204q0 45 -8 86.5t-25.5 83.5t-53.5 67t-85 25zM348 772h2q95 0 158 -51l92 119l49 -47l-106 -109q39 -37 59.5 -97.5t20.5 -127.5q0 -61 -20 -121t-58 -98l106 -113l-49 -45
l-92 123q-33 -27 -79.5 -41t-86.5 -14t-89.5 13.5t-80.5 37.5l-94 -119l-47 45l104 111q-36 40 -56 99.5t-20 117.5q0 138 80 227l-106 111l49 47l92 -123q66 55 172 55z" />
    <glyph glyph-name="dollar.fitted" unicode="&#xe045;" horiz-adv-x="694" 
d="M532 270v2q0 44 -9.5 78.5t-35 66.5t-44 49.5t-63.5 54.5q-9 7 -13 11l-15 -479q75 3 127.5 59t52.5 158zM186 979v-2q0 -39 13 -75.5t28.5 -60t42 -49t39.5 -35t35 -24.5l14 453q-74 -5 -123 -59.5t-49 -147.5zM365 1327l41 14l-5 -127q94 -5 154 -65l27 70l16 -7
q-30 -198 -27 -305l-22 4q6 248 -152 275l-22 -479q65 -46 107.5 -80.5t58 -50.5t32.5 -37q64 -70 64 -197q0 -117 -57 -192q-85 -113 -232 -125l-2 -125l-45 -19l8 144q-26 0 -53.5 3.5t-56 11t-47.5 13t-47.5 15t-36.5 12.5q10 76 24 276l23 11q-3 -74 6 -129.5t26.5 -89
t45.5 -54.5t55.5 -29.5t62.5 -11.5l25 502q-13 10 -64.5 47t-70.5 55q-115 104 -115 252q0 129 80 219q32 35 83 58.5t111 27.5z" />
    <glyph glyph-name="dotlessi.sc" unicode="&#xe046;" horiz-adv-x="417" 
d="M141 307v395q0 139 -4 213q-1 20 -2.5 27.5t-12 14.5t-27.5 9.5t-54 4.5v22q11 0 72.5 -3t93.5 -3q55 0 107 3t61 3l2 -22q-61 -4 -77 -14.5t-19 -36.5q-5 -67 -5 -209v-404q0 -187 5 -241q1 -18 6 -25.5t25.5 -14t64.5 -10.5v-22q-129 6 -172 6q-61 0 -166 -6v22
q66 8 81.5 15.5t16.5 34.5q4 62 4 241z" />
    <glyph glyph-name="egrave.superior" unicode="&#xe047;" horiz-adv-x="483" 
d="M299 1204l-18 -10q-97 107 -131 137q-25 25 -25 43q-1 20 11 32.5t26 12.5q31 0 45 -26q11 -18 47.5 -96t44.5 -93zM432 743q-21 -70 -64 -104.5t-116 -34.5q-111 0 -164 76q-43 67 -43 174q0 38 6.5 75.5t23 76t41 67.5t64 47.5t88.5 18.5q48 0 84 -20t53.5 -51.5
t25.5 -63t7 -60.5q0 -34 -24 -45q-20 -9 -131 -14h-123q-3 -46 7 -96t28 -80q31 -60 94 -60q43 0 75 22.5t52 80.5zM256 1116q-25 0 -44 -21.5t-29.5 -54.5t-15.5 -66t-5 -63q25 -2 71 -2q34 0 74 4q23 3 27 35q0 33 -2 56t-9 52t-24 44.5t-43 15.5z" />
    <glyph glyph-name="f_i.sc" unicode="&#xe048;" horiz-adv-x="1093" 
d="M35 971v22q6 0 32.5 -1t43.5 -1q66 -4 96 -4h207q146 0 211 14q-4 -57 -4 -256h-25q-6 75 -23 127q-14 46 -47 63t-123 17h-98q-12 0 -17.5 -4t-6.5 -14q0 -3 -1.5 -36.5t-3.5 -94.5t-2 -131v-164h103q82 0 108 24t33 109l23 -2q-13 -202 -2 -320h-23q-4 40 -7 60.5
t-11.5 42.5t-23 31t-38.5 14.5t-61 5.5h-101v-172q0 -184 7 -231q3 -38 34 -41q78 -13 91 -13l-3 -22q-20 0 -83 3t-105 3q-46 0 -106.5 -3t-77.5 -3v24l69 9q26 3 29 43q10 62 10 290v316q0 212 -4 252q0 32 -31 35zM819 307v395q0 139 -4 213q-1 20 -2.5 27.5t-12 14.5
t-27.5 9.5t-54 4.5v22q11 0 72.5 -3t93.5 -3q55 0 107 3t61 3l2 -22q-61 -4 -77.5 -14.5t-19.5 -36.5q-4 -54 -4 -209v-404q0 -198 4 -241q1 -18 6 -25.5t26 -14t65 -10.5v-22q-129 6 -172 6q-61 0 -166 -6v22q66 8 81.5 15.5t16.5 34.5q4 62 4 241z" />
    <glyph glyph-name="f_l.sc" unicode="&#xe049;" horiz-adv-x="1337" 
d="M35 971v22q6 0 32.5 -1t43.5 -1q66 -4 96 -4h207q146 0 211 14q-4 -57 -4 -256h-25q-6 75 -23 127q-14 46 -47 63t-123 17h-98q-12 0 -17.5 -4t-6.5 -14q0 -3 -1.5 -36.5t-3.5 -94.5t-2 -131v-164h103q82 0 108 24t33 109l23 -2q-13 -202 -2 -320h-23q-4 40 -7 60.5
t-11.5 42.5t-23 31t-38.5 14.5t-61 5.5h-101v-172q0 -184 7 -231q3 -38 34 -41q78 -13 91 -13l-3 -22q-20 0 -83 3t-105 3q-46 0 -106.5 -3t-77.5 -3v24l69 9q26 3 29 43q10 62 10 290v316q0 212 -4 252q0 32 -31 35zM1298 268l23 -4q-12 -75 -35 -272q-40 8 -137 8h-225
q-13 0 -53 -1t-62 -1q-86 -4 -98 -4v22l80 11q15 3 21.5 10t6.5 22q10 66 10 338v295q0 211 -2 238q-2 18 -8.5 26t-27.5 9l-64 6v22q11 0 73 -3t97 -3q13 0 178 6l6 -22l-73 -8q-19 -3 -27.5 -10t-9.5 -25q-6 -183 -6 -318v-211q0 -303 6 -344q4 -26 78 -26q89 0 125 13
t57 50q48 82 67 176z" />
    <glyph glyph-name="florin.fitted" unicode="&#xe04a;" horiz-adv-x="694" 
d="M47 682l19 39q21 -1 71 -2t70 -2q23 178 51 275.5t72 160.5q88 123 205 123q61 0 101 -32.5t40 -82.5q0 -80 -68 -80q-14 0 -26 11.5t-9 25.5q9 32 9 56q0 40 -17 56.5t-51 16.5q-77 0 -113 -164q-35 -171 -55 -366q37 1 101.5 2t101.5 2l-17 -39q-31 1 -94.5 2t-97.5 2
q-60 -504 -90 -641q-24 -108 -60.5 -181.5t-99.5 -119.5q-69 -49 -141 -49q-50 0 -87.5 27t-37.5 63q0 29 20.5 48.5t42.5 19.5q28 0 39 -39q27 -78 74 -78q44 0 64.5 40t35.5 134q52 306 103 776q-14 -1 -36 -1.5t-57 -1t-63 -1.5z" />
    <glyph glyph-name="florin.oldstyle" unicode="&#xe04b;" horiz-adv-x="661" 
d="M55 621l19 41q62 -3 129 -3q21 162 48 252.5t68 149.5q39 56 93 85.5t114 29.5q62 0 96.5 -30.5t34.5 -76.5q0 -38 -19 -56t-48 -18q-20 0 -31 9t-8 28q8 24 8 49q0 36 -14 51t-45 15q-73 0 -107 -146q-30 -137 -49 -342q83 0 188 3l-14 -41q-29 1 -88.5 2t-91.5 2
q-53 -439 -78 -566q-41 -224 -151 -301q-65 -45 -148 -45q-47 0 -82 26t-35 60q0 31 20.5 48.5t41.5 17.5q24 0 37 -37q9 -32 30 -53t47 -21q43 0 57 30t29 128q43 247 93 713q-10 -1 -58 -1.5t-86 -2.5z" />
    <glyph glyph-name="g.superior" unicode="&#xe04c;" horiz-adv-x="538" 
d="M166 557l10 -14q-70 -14 -70 -82q0 -51 47 -81t111 -30q94 0 141.5 41.5t47.5 106.5q0 34 -24.5 57.5t-63.5 24.5h-164q-79 3 -115 34q-37 25 -37 78q0 68 80 117q-49 49 -49 133q0 92 56 145.5t132 53.5q65 0 111 -29q5 3 16.5 11t16 11t14 8.5t15 8t13 5.5t14 4t13.5 1
q21 0 37.5 -10.5t16.5 -17.5q0 -13 -17.5 -29t-30.5 -19q-23 23 -51 23q-17 0 -37 -10q52 -52 52 -142q0 -87 -57 -139.5t-136 -52.5q-69 0 -113 31q-39 -14 -39 -64q0 -22 20.5 -36.5t47.5 -14.5q31 0 93 1t112 1q52 0 92 -29q27 -22 38 -47.5t11 -66.5q0 -99 -87.5 -161.5
t-201.5 -62.5q-88 0 -145 34.5t-57 94.5q0 45 39 72q20 16 98 41zM266 1114h-2q-80 0 -80 -162q0 -68 18 -114.5t60 -46.5q43 0 62.5 43t19.5 110q0 34 -2.5 59t-9.5 53t-23.5 43t-42.5 15z" />
    <glyph glyph-name="germandbls.sc" unicode="&#xe04d;" horiz-adv-x="1202" 
d="M55 276l25 11q-5 -83 10.5 -141t47 -87t65.5 -41t76 -12q68 0 111.5 45.5t43.5 126.5q0 55 -16.5 94.5t-55.5 77.5q-108 92 -184 152q-53 40 -85 101.5t-32 131.5q0 131 78 209q64 68 176 68q51 0 93.5 -15.5t58.5 -35.5l31 65l20 -6q-23 -172 -18 -295l-25 4
q-1 122 -51.5 188t-122.5 66q-56 0 -92.5 -45t-36.5 -131q0 -109 96 -186q148 -116 217 -185q66 -66 66 -176q0 -117 -57 -190q-78 -95 -224 -95q-62 0 -151 21q-41 9 -78 20q10 87 14 260zM657 276l25 11q-5 -83 10.5 -141t47 -87t65.5 -41t76 -12q68 0 111.5 45.5
t43.5 126.5q0 55 -16 94.5t-55 77.5q-96 82 -185 152q-53 39 -84.5 101t-31.5 132q0 132 77 209q64 68 177 68q51 0 93 -15.5t58 -35.5l31 65l20 -6q-23 -172 -18 -295l-25 4q-1 122 -51.5 188t-122.5 66q-56 0 -92.5 -45t-36.5 -131q0 -109 96 -186q148 -116 217 -185
q66 -66 66 -176q0 -117 -57 -190q-78 -95 -224 -95q-62 0 -151 21q-41 9 -78 20q10 87 14 260z" />
    <glyph glyph-name="numbersign.oldstyle" unicode="&#xe04e;" horiz-adv-x="710" 
d="M457 586h-170l-60 -240h174zM336 940l47 6q-55 -187 -74 -266h170q42 155 64 260l49 6q-41 -125 -76 -266h152q-20 -50 -27 -98q-13 0 -59.5 1t-87.5 1l-58 -238q92 4 164 4q-10 -24 -25 -98h-159q-12 -53 -36.5 -157.5t-33.5 -147.5l-49 -6q21 72 78 311h-170
q-53 -214 -74 -305l-47 -10q7 18 16.5 55t28.5 113.5t37 146.5q-112 0 -139 -2q18 64 22 100q58 -4 137 -4l62 240q-34 0 -88 -1t-72 -1q11 38 25 98q33 -2 159 -2q15 56 36 144.5t28 115.5z" />
    <glyph glyph-name="orn.001" unicode="&#xe04f;" horiz-adv-x="1771" 
d="M1026 864q76 9 115 44.5t39 90.5q0 79 -76 131q-14 9 -18.5 21t1.5 23q7 17 33.5 25.5t50.5 2.5q-8 10 -59 92q-30 56 -9 73.5t71 4.5q90 -23 133 -88.5t43 -140.5q0 -54 -21 -106t-60.5 -96.5t-103.5 -74t-143 -35.5q-10 -99 -49 -219q-3 -10 0.5 -17.5t12.5 -5.5t18 15
q40 57 101.5 99t131.5 42q113 0 170 -92.5t74 -300.5q6 -75 20 -116.5t29 -52.5t39 -11q26 0 45.5 26.5t19.5 75.5q0 40 -18.5 66t-34.5 33q-24 10 -8 26q36 41 76 41q25 0 48 -25.5t23 -76.5q0 -85 -110 -195q-80 -80 -160 -80q-84 0 -138 60.5t-83 191.5q-35 156 -160 156
q-30 0 -48.5 -20t-10.5 -33q41 -82 41 -158q0 -45 -22.5 -97.5t-44.5 -85t-62 -85.5q-41 -55 -57.5 -96t-16.5 -84q0 -36 11 -48t34 -12q22 0 46 28t65 101q13 22 26 -7q8 -16 8 -32q3 -64 -37 -101.5t-88 -37.5q-63 0 -110 47l-9 9t-9 7.5t-8 5.5t-8.5 4t-8 3t-10 3t-9.5 3
q-49 14 -93 63t-44 132q0 60 27.5 121t103.5 147q52 59 69.5 95.5t14.5 66.5q0 32 -28 59t-78 27q-24 0 -43 -4t-37.5 -17.5t-30 -24.5t-30.5 -40.5t-30 -50t-36 -66.5q-74 -135 -223 -135q-85 0 -158.5 61.5t-73.5 142.5q0 42 17 71.5t32.5 39t28.5 12.5q8 3 8 -5
q0 -2 -4 -19q-18 -64 16.5 -105t98.5 -41q48 0 77 36t31 88.5t-18 111.5q-7 12 -4.5 27t18.5 40q13 20 33 41.5t55.5 49.5t87.5 45.5t111 17.5q88 0 134 -32.5t73 -86.5q10 -22 26.5 -24t26.5 14q63 84 78 186q-132 11 -206.5 69t-74.5 161q0 53 38 97t97 61q-54 45 -169 45
q-125 0 -203 -68.5t-78 -169.5q0 -31 53 -68q23 -16 23 -36q0 -10 -13 -17.5t-26 -1.5q-15 5 -30 5t-24.5 -2.5t-25 -7.5t-23.5 -7q-13 -7 -18 -4.5t-16 16.5q-13 23 -13 72q0 42 18.5 97t57.5 101q56 67 139 107.5t179 40.5q79 0 144 -31t105 -77.5t67.5 -104t38.5 -107.5
t11 -92q0 -33 -2 -43zM981 862q2 20 2 45q0 79 -33 159.5t-96 131.5q-37 -9 -62.5 -47t-25.5 -78q0 -101 62 -153.5t153 -57.5z" />
    <glyph glyph-name="orn.002" unicode="&#xe050;" horiz-adv-x="1771" 
d="M745 213q-76 -9 -114.5 -44.5t-38.5 -90.5q0 -79 76 -131q29 -20 16 -43q-7 -17 -34 -26t-50 -3q8 -10 59 -92q30 -56 9.5 -73.5t-70.5 -4.5q-90 23 -133 88.5t-43 140.5q0 54 21 106t60.5 96.5t103.5 74t143 35.5q10 99 49 219q3 10 -0.5 17.5t-12.5 5.5t-18 -15
q-40 -57 -101.5 -99t-131.5 -42q-113 0 -170 92.5t-74 300.5q-6 75 -20 116.5t-29 52.5t-39 11q-26 0 -46 -26.5t-20 -75.5q0 -40 18 -65.5t35 -32.5q25 -11 9 -27q-36 -41 -76 -41q-26 0 -49 25.5t-23 76.5q0 84 111 195q80 80 160 80q84 0 138 -60.5t83 -191.5
q35 -156 159 -156q30 0 49 20t11 33q-41 82 -41 158q0 45 22.5 97.5t44.5 85t62 85.5q74 99 74 181q0 35 -11 47t-34 12q-22 0 -46 -28t-65 -101q-13 -22 -27 7q-8 16 -8 32q-3 64 37 101.5t88 37.5q64 0 111 -47l9 -9t9 -7.5t7.5 -5t9 -4t7.5 -3t9.5 -3.5t9.5 -3
q50 -14 93.5 -62.5t43.5 -131.5q0 -60 -27.5 -121.5t-103.5 -147.5q-52 -60 -69.5 -95.5t-14.5 -65.5q0 -32 28.5 -59t78.5 -27q29 0 52.5 8.5t39.5 19.5t37 41.5t35 54.5t43 78q75 136 223 136q85 0 158 -62t73 -143q0 -42 -17 -71.5t-32.5 -39t-28.5 -12.5q-8 -3 -8 5
q0 2 4 19q18 64 -16 105t-98 41q-48 0 -77 -36t-31 -88.5t18 -111.5q12 -26 -15 -67q-13 -20 -33 -41.5t-55 -49.5t-87 -45.5t-111 -17.5q-88 0 -134 32.5t-73 86.5q-10 22 -27 24t-27 -14q-62 -82 -77 -186q131 -11 205.5 -69t74.5 -161q0 -53 -38 -96t-97 -61
q54 -45 170 -45q125 0 203 68.5t78 168.5q0 30 -54 68q-22 15 -22 37q0 10 13 17t26 1q15 -5 30 -5t24.5 2.5t24.5 7.5t23 7q13 7 18.5 4.5t16.5 -16.5q12 -22 12 -72q0 -42 -18.5 -97t-57.5 -101q-57 -68 -139 -108t-178 -40q-79 0 -144 31t-105 77.5t-68 104t-39 108
t-11 91.5q0 33 2 43zM791 215q-3 -30 -3 -45q0 -79 33.5 -159.5t96.5 -131.5q37 9 62.5 47t25.5 78q0 101 -62 153.5t-153 57.5z" />
    <glyph glyph-name="orn.003" unicode="&#xe051;" horiz-adv-x="1771" 
d="M1212 401q9 -76 44.5 -114.5t91.5 -38.5q79 0 131 76q20 29 43 16q17 -7 25.5 -33.5t2.5 -50.5q10 8 92 59q56 30 73.5 9.5t4.5 -70.5q-23 -90 -88.5 -133t-140.5 -43q-54 0 -106 21t-96 60.5t-73.5 103.5t-35.5 143q-99 10 -219 49q-10 3 -17.5 -0.5t-6 -12.5t14.5 -18
q57 -40 99.5 -102t42.5 -132q0 -113 -92.5 -169.5t-301.5 -73.5q-75 -6 -116.5 -20t-52.5 -29t-11 -39q0 -26 27 -46t76 -20q40 0 65.5 18t32.5 35q11 25 27 9q40 -36 40 -76q0 -26 -25.5 -49t-76.5 -23q-48 0 -93.5 28t-100.5 83q-80 80 -80 159q0 84 60.5 138.5
t191.5 83.5q155 35 155 159q0 30 -20 49t-33 11q-82 -41 -158 -41q-45 0 -97.5 22.5t-85 44.5t-85.5 62q-55 41 -96 57.5t-84 16.5q-36 0 -48 -11t-12 -34q0 -22 28 -46t101 -65q22 -13 -7 -27q-17 -8 -32 -8q-64 -3 -101.5 37t-37.5 88q0 64 47 111l9 9t7.5 9t5 7.5t4 9
t3 7.5t3.5 9.5t3 9.5q14 49 63 93t132 44q60 0 121 -27.5t147 -103.5q59 -52 95.5 -69.5t66.5 -14.5q32 0 59 28.5t27 78.5q0 24 -4 43t-17.5 37.5t-24.5 30t-40.5 30.5t-50 30t-66.5 36q-135 74 -135 223q0 85 62 158t143 73q42 0 71.5 -17t39 -32.5t12.5 -28.5q3 -8 -5 -8
q-2 0 -20 4q-64 18 -104.5 -16t-40.5 -98q0 -48 36 -77t88 -31t111 18q27 12 68 -15q20 -13 41.5 -33t49 -55.5t45 -87.5t17.5 -111q0 -47 -10 -83t-29 -59t-37 -37t-43 -27q-22 -10 -24 -27t14 -27q82 -62 187 -77q11 132 68.5 206t160.5 74q53 0 97 -38t61 -97
q45 54 45 170q0 125 -68.5 203t-169.5 78q-29 0 -67 -54q-15 -22 -37 -22q-10 0 -17.5 13t-1.5 26q5 15 5 30t-2.5 24.5t-7.5 24.5t-7 23q-7 13 -4.5 18.5t16.5 16.5q22 12 72 12q42 0 97.5 -18.5t101.5 -57.5q67 -56 107 -138.5t40 -178.5q0 -79 -31 -144t-77.5 -105
t-104 -68t-108 -39t-91.5 -11q-33 0 -43 2zM1210 446q20 -2 45 -2q79 0 159.5 33t131.5 96q-9 37 -47 63t-78 26q-101 0 -153.5 -62.5t-57.5 -153.5z" />
    <glyph glyph-name="orn.004" unicode="&#xe052;" horiz-adv-x="1771" 
d="M565 678q-9 76 -44.5 114.5t-90.5 38.5q-79 0 -131 -75q-20 -30 -43 -17q-17 7 -26 34t-3 50q-10 -8 -92 -59q-56 -30 -73.5 -9.5t-4.5 70.5q23 90 89 133t141 43q54 0 106 -21t96 -60t73.5 -103t35.5 -143q99 -10 219 -49q10 -3 17.5 0.5t5.5 12t-15 17.5
q-56 40 -98.5 102t-42.5 132q0 113 92.5 170t300.5 74q75 6 116.5 20t52.5 29t11 39q0 26 -26.5 45.5t-75.5 19.5q-40 0 -65.5 -18t-32.5 -35q-11 -25 -27 -8q-41 36 -41 75q0 25 26 48.5t77 23.5q48 0 94 -28t100 -82q80 -80 80 -160q0 -84 -60.5 -138t-191.5 -83
q-156 -35 -156 -160q0 -30 20.5 -48.5t33.5 -10.5q80 40 157 40q45 0 97.5 -22.5t86 -45t85.5 -61.5q97 -73 180 -73q35 0 47 11t12 34q0 22 -27.5 45.5t-101.5 64.5q-22 13 7 27q16 8 32 8q64 3 101.5 -37t37.5 -88q0 -63 -47 -110q-7 -7 -12 -12.5t-8.5 -13t-5 -10
t-4.5 -13.5t-4 -13q-14 -49 -63 -93t-132 -44q-60 0 -121 27.5t-147 103.5q-59 52 -95.5 69.5t-66.5 14.5q-32 0 -59 -28t-27 -78q0 -24 4 -43t17.5 -37.5t24.5 -30t40.5 -30.5t50 -30t66.5 -36q135 -74 135 -224q0 -85 -62 -158t-143 -73q-42 0 -71.5 17t-39 32.5
t-12.5 28.5q-3 8 5 8q2 0 20 -4q64 -18 104.5 16.5t40.5 98.5q0 48 -36 77t-88 31t-111 -18q-12 -7 -27.5 -4.5t-40.5 18.5q-20 13 -41.5 33t-49.5 55.5t-45.5 87.5t-17.5 111q0 88 32.5 134t86.5 73q22 10 24 26.5t-14 26.5q-84 63 -186 78q-11 -132 -68.5 -206.5
t-160.5 -74.5q-53 0 -97 38t-61 97q-45 -54 -45 -170q0 -125 68.5 -202.5t169.5 -77.5q30 0 67 53q16 23 37 23q10 0 17 -13t1 -26q-5 -15 -5 -30t3 -24.5t8 -25t7 -23.5q6 -13 4 -18.5t-17 -16.5q-22 -12 -71 -12q-42 0 -97.5 18.5t-101.5 57.5q-67 56 -107 138.5
t-40 178.5q0 79 31 144t77 105t103.5 68t108 39t91.5 11q33 0 43 -2zM567 633q-20 2 -45 2q-79 0 -159.5 -33t-131.5 -96q9 -37 47 -62.5t78 -25.5q101 0 153.5 62t57.5 153z" />
    <glyph glyph-name="orn.005" unicode="&#xe053;" horiz-adv-x="1796" 
d="M1360 702q-12 -102 -12 -122q0 -86 27.5 -156t69 -109.5t83.5 -60.5t76 -21q36 0 45 9q6 14 6 43q0 147 -80 259t-215 158zM1337 758q50 144 142 205q43 30 108 30q76 0 117 -45.5t41 -87.5q0 -30 -21.5 -49.5t-40.5 -24.5q-20 -6 -30 11q-11 22 -39.5 41.5t-65.5 19.5
q-55 0 -103 -32.5t-67 -82.5q174 -72 270.5 -217.5t96.5 -320.5q0 -81 -25 -154.5t-67 -111.5q-65 14 -142 -15q-20 -20 -20 4q0 11 0.5 16t5 11.5t14.5 13.5q2 1 15.5 8t22.5 13t25 20.5t28 32t25 46t22 63.5q-85 -10 -167 44t-133 152t-51 209q0 54 21 162q-48 10 -86 10
q-112 0 -184 -47.5t-82 -149.5q62 16 94 6.5t51 -46.5q37 -66 37 -140q0 -85 -30.5 -163t-88.5 -134q-54 -50 -151 -83t-215 -33q-256 0 -424 151q-113 101 -113 227q0 78 45 191q47 118 47 172q0 51 -30.5 74t-70 16.5t-69.5 -33.5q-11 -12 -20 -8.5t-9 23.5q0 41 25 66.5
t64 25.5q92 0 139 -96q16 -40 12 -100.5t-24 -125.5q-33 -112 -33 -184q0 -52 33.5 -89.5t82.5 -37.5q67 0 114.5 50.5t47.5 127.5q0 80 -51 199q-13 31 -15 45t9 51q52 137 190 137q137 0 199 -45q27 -15 36 -28t9 -35q1 -3 7 -26.5t10 -38t12 -35t16 -33.5q3 30 21 62
t51 63t90.5 51t130.5 20q74 0 141 -18z" />
    <glyph glyph-name="orn.006" unicode="&#xe054;" horiz-adv-x="1796" 
d="M1360 76q134 46 214.5 158.5t80.5 259.5q0 29 -6 43q-8 8 -45 8q-27 0 -59 -12t-67 -40t-64 -66.5t-47.5 -98t-18.5 -129.5q0 -21 12 -123zM1337 18q-67 -18 -141 -18q-73 0 -130.5 20t-90.5 51.5t-51 64t-21 63.5q-8 -13 -16 -33.5t-12 -35t-10 -38t-7 -26.5
q0 -23 -9 -36t-36 -28q-62 -45 -199 -45q-138 0 -190 137q-11 37 -9 51t15 45q51 119 51 199q0 77 -47.5 127.5t-114.5 50.5q-49 0 -82.5 -37.5t-33.5 -89.5q0 -72 33 -184q20 -65 24 -125t-12 -100q-48 -97 -139 -97q-39 0 -64 26t-25 67q0 20 9 23t20 -9
q30 -27 69.5 -33.5t70 16.5t30.5 74q0 55 -47 170q-45 119 -45 193q0 126 113 227q169 152 424 152q118 0 214.5 -33t151.5 -84q58 -56 88.5 -134t30.5 -163q0 -72 -37 -141q-20 -37 -51.5 -47t-93.5 6q10 -102 82 -149.5t184 -47.5q38 0 86 10q-21 108 -21 162
q0 112 51 210.5t133 153t167 44.5q-9 35 -22 63.5t-25 45.5t-27.5 31.5t-25 20.5t-23 13t-15.5 8q-10 7 -14.5 13.5t-5 11.5t-0.5 16q0 24 20 4q75 -28 142 -14q42 -38 67 -112t25 -155q0 -175 -96.5 -321.5t-270.5 -218.5q19 -49 66.5 -81t103.5 -32q36 0 64.5 19.5
t40.5 40.5q9 16 30 10q18 -5 40 -24t22 -48q0 -42 -41 -87.5t-117 -45.5q-63 0 -108 31q-92 61 -142 202z" />
    <glyph glyph-name="orn.007" unicode="&#xe055;" horiz-adv-x="1796" 
d="M436 702q-135 -46 -215 -158t-80 -259q0 -29 6 -43q9 -9 46 -9q34 0 76 21t83.5 60.5t69 109.5t27.5 156q0 12 -13 122zM459 758q67 18 141 18q73 0 130.5 -20t90.5 -51t51 -63t21 -62q8 13 16 33.5t12 35t10 38t7 26.5q0 22 9 35t36 28q62 45 199 45q138 0 190 -137
q11 -37 9 -51t-15 -45q-51 -119 -51 -199q0 -77 47.5 -127.5t114.5 -50.5q49 0 82.5 37.5t33.5 89.5q0 75 -32 184q-20 66 -24.5 125.5t11.5 100.5q21 42 56.5 69t83.5 27q39 0 63.5 -25.5t24.5 -66.5q0 -20 -9 -23.5t-20 8.5q-30 27 -69.5 33.5t-70 -16.5t-30.5 -74
q0 -54 47 -172q45 -113 45 -191q0 -126 -113 -227q-168 -151 -423 -151q-119 0 -216 33t-151 83q-58 56 -88.5 134t-30.5 163q0 74 37 140q19 37 51 46.5t94 -6.5q-10 102 -82 149.5t-184 47.5q-38 0 -86 -10q21 -108 21 -162q0 -111 -51 -209t-133 -152t-167 -44
q9 -35 22 -63.5t25 -46t28 -32t25 -20.5t22.5 -13t15.5 -8q10 -7 14.5 -13.5t5 -11.5t0.5 -16q0 -24 -20 -4q-77 29 -142 15q-42 38 -67 111.5t-25 154.5q0 175 96.5 320.5t270.5 217.5q-19 50 -67 82.5t-103 32.5q-37 0 -65.5 -19.5t-39.5 -41.5q-10 -17 -30 -11
q-19 5 -40.5 24.5t-21.5 49.5q0 42 41 87.5t117 45.5q65 0 108 -30q92 -61 142 -205z" />
    <glyph glyph-name="orn.008" unicode="&#xe056;" horiz-adv-x="1796" 
d="M436 76q13 110 13 123q0 70 -18.5 129.5t-47.5 98t-64 66.5t-67 40t-59 12q-38 0 -46 -8q-6 -14 -6 -43q0 -147 80.5 -259.5t214.5 -158.5zM459 18q-49 -143 -142 -202q-45 -31 -108 -31q-76 0 -117 45.5t-41 87.5q0 29 22 48t40 24q21 6 30 -10q12 -21 40.5 -40.5
t64.5 -19.5q56 0 103.5 32t66.5 81q-174 72 -270.5 218.5t-96.5 321.5q0 81 25 155t67 112q67 -14 142 14q20 20 20 -4q0 -11 -0.5 -16t-5 -11.5t-14.5 -13.5q-2 -1 -15.5 -8t-23 -13t-25 -20.5t-27.5 -31.5t-25 -45.5t-22 -63.5q85 10 167 -44.5t133 -153t51 -210.5
q0 -54 -21 -162q48 -10 86 -10q112 0 184 47.5t82 149.5q-62 -16 -93.5 -6t-51.5 47q-37 69 -37 141q0 85 30.5 163t88.5 134q55 51 152 84t215 33q254 0 423 -152q113 -101 113 -227q0 -78 -45 -191q-47 -118 -47 -172q0 -51 30.5 -74t70 -16.5t69.5 33.5q11 12 20 9t9 -23
q0 -41 -25 -67t-63 -26q-92 0 -140 97q-16 41 -11.5 100t24.5 125q32 109 32 184q0 52 -33.5 89.5t-82.5 37.5q-67 0 -114.5 -50.5t-47.5 -127.5q0 -80 51 -199q13 -31 15 -45t-9 -51q-52 -137 -190 -137q-137 0 -199 45q-27 15 -36 28t-9 36q-1 2 -7 26.5t-10 38t-12 34
t-16 32.5q-3 -30 -21 -62t-51 -63.5t-90.5 -51.5t-130.5 -20q-74 0 -141 18z" />
    </font>
</defs>
</svg>
